<?xml version="1.0" encoding="utf-8"?>
<!-- Generator: Adobe Illustrator 17.1.0, SVG Export Plug-In . SVG Version: 6.00 Build 0)  -->
<!DOCTYPE svg PUBLIC "-//W3C//DTD SVG 1.1//EN" "http://www.w3.org/Graphics/SVG/1.1/DTD/svg11.dtd">
<svg version="1.1" id="Layer_1" xmlns="http://www.w3.org/2000/svg" xmlns:xlink="http://www.w3.org/1999/xlink" x="0px" y="0px"
	 viewBox="0 0 196.1 162.7" enable-background="new 0 0 196.1 162.7" xml:space="preserve">
<ellipse fill="#EDEDED" cx="77.4" cy="142" rx="77.4" ry="20.7"/>
<g>
	<g>
		<g>
			<ellipse fill="#FFFFFF" cx="96.2" cy="73.4" rx="72.3" ry="72.7"/>
			<g>
				<g>
					<g>
						<g>
							<polygon fill="#EF782C" points="169.9,73.4 169.9,73.2 169.7,72.6 							"/>
							<path fill="#EF782C" d="M169.3,69.7c0,0.1-0.1,0.1-0.1,0.2l0.6,2.2C170.1,71,169.1,70.3,169.3,69.7z"/>
							<path fill="#EF782C" d="M169.3,69c0.1-0.9-0.2-1.2-0.3-1.4C169.2,67.9,169,69.2,169.3,69z"/>
							<path fill="#EF782C" d="M131.1,8.8c0.1,0,0.2,0.1,0.2,0.1C131.2,8.8,131.2,8.8,131.1,8.8z"/>
							<path fill="#EF782C" d="M112.8,2.8L112.6,3c3.6,0.4,7.3,2,10.9,3.3l-0.3,0c8.8,3.7,16.5,8.3,23.5,14.9
								c-0.1-0.1-0.2-0.1-0.3-0.2c0.4,0.3,0.9,0.5,1.2,0.9c0.1,0.1-0.2,0-0.3-0.1c0.6,0.8,1.6,1.9,2.6,2.8c1,1,1.9,1.9,2.2,2.5
								c0.4,0.4,0.7,0.5,0.5,0.2c4.8,5.8,9,12.7,11.9,19.8c0.1,0.4,0,0.5-0.1,0.4c1.4,3,2.5,6.2,3.2,9.5c0.4,1.6,0.6,3.3,0.9,5
								l0.3,2.5c0.1,0.8,0.2,1.7,0.2,2.5c0.2,0.2,0.1-0.7,0.3-0.1c0-1.1-0.2-2.1-0.4-3c-0.2-1-0.4-1.9-0.4-2.9l0.2,0.2
								c-0.2-1.4-0.4-0.2-0.5-1.7c0-0.6,0.2,0.1,0.2-0.2c-0.3-1.5-0.7-3-1-4.5c-0.4-1.5-0.9-2.9-1.5-4.2c0.1-0.8-1-3.1-1.2-4.2
								c-0.4-0.7-0.7-1.4-1-1.6c-4-9.9-10.6-18.8-18.6-26.1c-4.2-2.9-8.6-7.1-14-9.9c0,0,0-0.1,0-0.1c-0.9-0.4-2-0.9-3.1-1.4
								c-1.1-0.5-2.3-1-3.4-1.6l-1.9-0.5c-1.6-0.7-3.3-1.3-4.9-1.9c-1.7-0.5-3.4-1.1-5.1-1.5c-1.7-0.5-3.5-0.7-5.2-1.1
								c-1.8-0.2-3.5-0.5-5.3-0.6c-7.1-0.6-14.4,0-21.4,1.4c-4,0.8-7.8,2-11.4,3.4c-3.6,1.4-7.1,3-10.4,5c-3.3,2-6.4,4.2-9.3,6.7
								c-2.9,2.5-5.6,5.3-8,8.4c0-0.1-0.1,0,0.1-0.3c-2.9,3.5-5.6,6.8-7.7,10.5l0,0c-2.6,4.7-4.9,9.7-6.7,15
								c-1.8,5.2-2.9,10.6-3.1,15.7c-0.6,6.2-0.5,12.9,0.6,19.6c0.5,3.3,1.4,6.6,2.4,9.8c1.1,3.2,2.3,6.3,3.7,9.3l-0.1,0
								c2.4,4.7,5,9.2,8.1,13.4c3.1,4.2,6.6,8.1,10.7,11.4c4,3.6,8.9,6.6,13.9,9c5,2.4,10.3,4.2,15.6,5.7c3.2,1.1,7.1,1.6,11,1.8
								c3.9,0.2,7.6,0,10.8,0.1c1.6,0,3.3,0,4.9-0.2c1.6-0.1,3.2-0.4,4.8-0.6c3.2-0.6,6.3-1.4,9.3-2.5c6.1-2.2,11.7-5.4,16.9-9.3
								c5-3.3,9.5-7.3,13.3-11.9c3.8-4.5,7.2-9.4,10.1-14.4c0.5-1.3,1.2-2.5,1.7-3.8c0.6-1.3,1.2-2.6,1.9-4c0.6-1.3,1.2-2.8,1.7-4.2
								c0.5-1.5,1-2.9,1.3-4.4l-0.2,0.2c0.5-1,0.6-2.3,0.7-3.4c0.1-1.1,0.1-2.1,0.6-2.8l0,0.2c0.5-1.1-0.5-2.8,0-3.4l-0.2-0.2
								c0.1-1.4,0.2-0.1,0.4-1.2c0-0.4-0.3-0.2-0.1-1c0.4-0.1,0.4-0.9,0.4-1.8c0-0.9,0-1.7,0.4-1.7c0,0.8,0.3-1.2,0.5,0.5
								c0.1-0.5,0.1-2.9-0.2-2.7c-0.4-0.2-0.7-1.1-1,0.3l0.3,0.3c-0.3,0.5-0.1,0.4-0.3,0.5c-0.1,1.9-0.4,2.1-0.7,3.4c0,0,0,0,0,0
								c0.2,0.9,0,2.2-0.1,2.9l-0.2,0.3c-0.4,0.4,0.3,2.2-0.1,1.5c-0.3,3.7-1.2,8-2.4,12c0,0.6-1,3.1-0.4,2.3
								c-0.7,0.9-2,3.7-2.4,4.8c0-0.1,0-0.1,0-0.3c-1.5,1.8-0.6,2.7-2.2,4.2c0.1,0.3-0.3,1.1-0.8,2c-0.6,0.9-1.2,1.9-1.2,2.6
								c-0.2,0.2-0.4,0.2-0.4,0.1c-2,3.2-4.6,6.5-6.7,9c-1.4,2.4-4.6,4.8-5.9,6.8c-0.8,0.6-1.8,1.4-2.9,2.2
								c-1.1,0.8-2.2,1.7-3.3,2.7l0.2-0.2c-2.4,1.9-5.7,4-7.3,5.3c-1.1,0-2.2,0.7-3.5,1.1c-0.8,0.6-2.3,1.2-3.8,2
								c-1.6,0.7-3.2,1.4-4.7,2c-0.5-0.1-2.4,0.9-2.7,0.6c-4.1,1.6-9,2.8-14,3.1c-5,0.4-10.1,0.1-14.7-0.7l0.1,0
								c-1.2,0-2.7,0.4-4,0.4c-0.1-0.1-0.1-0.1,0.2-0.1c-0.9-0.1-1.7-0.3-2.5-0.6c-0.8-0.3-1.6-0.5-2.4-0.7c0-0.1,0-0.1,0.3-0.1
								c-0.8-0.1-1.6-0.4-2.4-0.7c-0.8-0.3-1.7-0.6-2.6-0.7l-0.1-0.1l-1.2-0.3c0.1-0.1,0.2-0.3,0.8,0c-3.5-1.1-6.9-2.6-10.3-4.3
								c-3.3-1.7-6.6-3.6-9.7-5.8c-3.1-2.2-6-4.6-8.7-7.3c-2.7-2.7-5.2-5.6-7.4-8.7l0.4,0.4c0,0-0.5-0.6-0.9-1.1
								c-0.5-0.6-0.9-1.1-0.9-1.1c0.1,0,0.2,0.1,0.3,0.2c-1.9-3.2-4.1-6.5-5.6-9.8c0.1,0,0.4,0.4,0.3-0.1c-1.5-2.3-1.3-4.2-2.5-5.2
								c0-0.1,0.1-0.3,0.3,0c-1.4-3.5-2.5-7.2-3.3-10.9c-0.8-3.8-1.2-7.6-1.3-11.4c-0.5-3.1-0.4-6.5-0.1-9.9c0.4-3.4,0.9-6.8,1.4-10
								l0.1,0.1c0.8-4.2,2.2-8.4,4-12.5c1.8-4.1,4.1-8,6.6-11.6c0.5-0.8,1-1.4,1.5-2.1c0.5-0.7,0.9-1.3,1.4-1.9
								c0.9-1.3,1.9-2.4,3.1-3.8l0.2,0c1.9-2.5,4.3-4.7,6.9-6.8c2.6-2,5.3-3.9,7.9-5.9l-0.3,0.4c0.6-0.9,3.4-1.9,2.8-2.2l1.1-0.4
								c1.8-1.4,3.6-2.2,5.6-3c1-0.4,2.1-0.7,3.2-1.1c1.1-0.4,2.3-0.8,3.5-1.4l-0.3,0.2c1.3-0.6,2.9-1.1,4-1.3
								c-0.2,0.1-0.1,0.1-0.4,0.2c4.5-0.7,9.3-2.1,14.1-2.4l-0.5,0.3c2.3-0.6,6.5-0.3,9.5-0.3l-0.2,0.1l1.5-0.1l0,0.2
								c2,0.1,3.9,0.3,5.7,0.5C109.1,2.1,111,2.3,112.8,2.8z"/>
							<path fill="#EF782C" d="M147.3,21.7C147.3,21.7,147.2,21.7,147.3,21.7C147.1,21.6,147.2,21.7,147.3,21.7z"/>
							<path fill="#EF782C" d="M167.2,78.4c0-0.2,0.1-0.3,0.1-0.5C167.2,78,167.2,78.3,167.2,78.4z"/>
						</g>
					</g>
				</g>
			</g>
		</g>
		<g>
			<path fill="#F6F6F6" d="M44.7,28.6c0,0,2.9-2.1,5.4-2.9c2.5-0.8,2.5-0.8,2.5-0.8s1.6,2.1,1.6,4.1s-1.2,7.4-2.1,8.7
				s-1.6,7.9-1.6,7.9l-4.9,12c0,0,2.1,9.5,2.5,11.6c0.4,2.1,1.6,5.8,2.9,7s1.2-3.3,1.2-3.3l-0.8-5c0,0,3.7,7,3.7,8.7
				c0,1.7-0.4,4.1,0.8,4.6s3.3,2.9,7.4,4.6c4.1,1.7,5.8,2.9,8.2,4.6s8.2,2.9,8.2,2.9s-4.1-2.9-4.1-4.1s0.8-3.3-1.6-3.3
				c-2.5,0-4.1,0-4.1,0l2.1-5c0,0,0-0.8-2.1,0c-2.1,0.8-1.6,4.1-2.9,2.5c-1.2-1.7,0.8,0.4-1.2-1.7c-2.1-2.1-3.7-3.3-3.7-6.6
				c0-3.3,4.1-5,6.2-5s6.6-2.5,7-0.4c0.4,2.1,0,6.2,1.2,7c1.2,0.8,2.9,3.3,2.9,0.8s-2.1-7.4,0-8.3s3.3,0,3.7-2.5s-1.2-4.6,1.2-6.2
				c2.5-1.7,4.1-2.1,5.4-4.6s2.1-3.7,4.5-3.7c2.5,0,3.7-1.2,4.1-3.3c0.4-2.1,4.9-1.2,5.4-3.3s-2.1-2.5-2.1-5.8s0-7-1.6-5
				c-1.6,2.1-5.4-0.8-5.4-0.8s-2.1-4.1-3.3-3.3c-1.2,0.8-2.1,4.1-1.2,5.4c0.8,1.2-0.4,5-0.4,5l-2.9,3.7l-2.5-0.8v-4.1
				c0,0-7-1.7-6.6-4.6s2.5-7,4.1-7s4.1-1.7,4.9-3.3c0.8-1.7-5.8-2.5-7.4-2.9c-1.6-0.4-9.1-4.6-9.1-4.6s0.4-3.3-0.8-3.3
				c-1.2,0-7,0.8-8.6,1.7c-1.6,0.8-4.9,3.3-4.9,3.3S45.9,24.9,44.7,28.6z"/>
			<g>
				<g>
					<g>
						<g>
							<polygon fill="#EF782C" points="45.9,29 46,29 46,28.6 							"/>
							<path fill="#EF782C" d="M46.8,26.9c-0.1,0-0.1,0-0.2,0c0,0-0.1,0.4-0.3,0.8c-0.1,0.4-0.1,0.7-0.1,0.7
								C46.8,28.1,46.4,27.1,46.8,26.9z"/>
							<path fill="#EF782C" d="M47.2,26.6c0.5-0.3,0.5-0.7,0.6-0.9C47.7,26,46.9,26.5,47.2,26.6z"/>
							<path fill="#EF782C" d="M80.2,28c0-0.1,0.1-0.1,0.2-0.2C80.3,27.9,80.2,28,80.2,28z"/>
							<path fill="#EF782C" d="M82.9,39.3l0.2-0.2c-1.3-0.2-2.7-0.7-3.9-1.6c-0.6-0.4-1.1-0.9-1.3-1.5c-0.2-0.6,0-1.3,0.1-2l0,0.2
								c0.5-1.7,1.2-3.4,2.2-4.7c0.3-0.3,0.6-0.6,0.9-0.8l0.3-0.1l0.3,0l0.7-0.1c0.9-0.2,1.7-0.7,2.4-1.2c0.7-0.5,1.3-1.2,1.8-2
								c0.1-0.2,0.2-0.4,0.2-0.6c-0.1-0.2-0.2-0.4-0.4-0.5c-0.4-0.3-0.8-0.4-1.2-0.6c-1.7-0.5-3.4-0.8-5.2-1.1
								c0.1,0,0.2-0.1,0.3-0.1c-0.4,0-0.8,0.1-1.2-0.1c-0.1-0.1,0.1-0.1,0.3,0c-1.4-0.8-4.2-1.7-4.9-2.4c-0.4-0.2-0.6-0.1-0.5,0.1
								c-0.6-0.3-1.3-0.7-1.9-1c-0.3-0.2-0.7-0.3-1-0.5c-0.3-0.2-0.9-0.4-1.3-0.7c0-0.4,0.1-0.7,0.1-1.1c0-0.3,0-0.5,0-0.8
								c0-0.1,0-0.3,0-0.4c0-0.1,0-0.2-0.1-0.3c-0.1-0.2-0.1-0.3-0.2-0.4c-0.1-0.1-0.3-0.1-0.5-0.1c-0.1,0-0.4,0.1-0.7,0.1
								c-0.5,0.1-1.1,0.2-1.6,0.2c-1.1,0.2-2.1,0.4-3.2,0.7c-0.5,0.1-1,0.3-1.5,0.4c-0.5,0.2-0.9,0.3-1.3,0.7
								c-0.3,0.1-0.3,0-0.3-0.1c-0.5,0.4-1,0.7-1.4,1.1c-0.5,0.4-1,0.8-1.5,1.2l-0.7,0.6l-0.2,0.1l-0.1,0.1c-0.1,0-0.1,0.1-0.2,0.1
								l-0.4,0.3l-1.6,1c-2.1,1.4-4.2,2.8-6.1,4.4c0,0.2,0.5-0.2,0.2,0.2c1.3-0.9,2-2.1,3.3-2.8l-0.1,0.2c0.9-0.5-0.1-0.4,1-0.9
								c0.4-0.1,0,0.2,0.2,0.1c0.9-0.7,1.9-1.3,2.8-1.9l0.7-0.5c0.1,0,0.1-0.1,0.2-0.1l0.1-0.1l0.2-0.1l0.3-0.3
								c0.4-0.4,0.8-0.7,1.2-1.1c0.3,0,0.8-0.3,1.3-0.7c0.5-0.3,1.1-0.6,1.5-0.7c0.4-0.4,0.8-0.4,1-0.7c1.7-0.4,3.6-0.7,5.4-1
								c0.2,0,0.5-0.1,0.7-0.1l0.6-0.1c0.1,0,0.3,0,0.4,0.1c0,0.1,0.1,0.1,0.1,0.2c0,0.1,0,0.4,0.1,0.5l0,0.3c0,0.1,0,0.2,0,0.4
								c0,0.4-0.1,0.8-0.1,1.2c0.4,0.2,0.8,0.4,1.2,0.6l0.8,0.4l1.4,0.8l2.9,1.5c1,0.5,1.9,1,3.1,1.4c0.6,0.2,1.2,0.3,1.7,0.4
								l1.6,0.3c1,0,1.9,0.2,2.9,0.5c0.2,0.1,0.5,0.2,0.7,0.2c0.1,0.1,0.3,0.1,0.4,0.2c0.1,0.1,0.2,0.2,0.2,0.4
								c0,0.2-0.2,0.3-0.2,0.4c-0.1,0.1-0.2,0.2-0.4,0.4c-0.2,0.2-0.4,0.3-0.6,0.5c-0.4,0.3-0.8,0.6-1.3,0.8
								c-0.2,0.1-0.5,0.2-0.7,0.3c-0.2,0.1-0.5,0.1-0.7,0.2c-0.3,0-0.4,0-0.9,0.1c-0.2,0-0.4,0.1-0.6,0.2c-0.1,0.1-0.3,0.2-0.4,0.3
								c0,0-0.1,0,0-0.1c-1.3,1.3-2.1,3.3-2.8,5.1c0,0-0.1,0.4-0.1,0.8c0,0.4,0,0.8,0,0.8c0,0.2-0.1,0.4-0.1,0.6c0,0.2,0,0.5,0,0.7
								c0.1,0.5,0.3,0.9,0.6,1.2c0.5,0.7,1.2,1.1,1.9,1.5c0.7,0.4,1.4,0.7,2.1,1c0.4,0.1,0.7,0.3,1.1,0.4c0.3,0.1,0.4,0.1,0.6,0.2
								c0,1.4,0,2.8,0,4.1c1.1,0.4,2.3,0.8,3.4,1.1l2.8-3.6l0.4-0.5c0.2-0.2,0.2-0.5,0.2-0.6c0.1-0.3,0.2-0.7,0.3-1
								c0.2-0.7,0.3-1.4,0.3-2.2c0-0.4,0-0.8-0.1-1.2c0-0.1-0.1-0.3-0.1-0.4l-0.1-0.2l-0.1-0.2c0,0,0-0.1-0.1-0.2
								c-0.1-0.5-0.1-1.1,0-1.7c0.1-0.6,0.3-1.2,0.6-1.7c0.1-0.2,0.2-0.3,0.3-0.4c0.1-0.1,0.3-0.1,0.4-0.1c0.2,0.1,0.2,0.2,0.4,0.3
								c0.2,0.2,0.4,0.5,0.6,0.8c0.2,0.3,0.4,0.6,0.5,0.8l0.2,0.4l0.3,0.6c0.6,0.5,0.8,0.6,1.2,0.9c0.4,0.2,0.8,0.4,1.2,0.6
								c0.8,0.3,1.8,0.7,3,0.3c0.3-0.1,0.4-0.2,0.6-0.3c0.1-0.1,0.1-0.1,0.1-0.1c0.1-0.1,0.2-0.2,0.3-0.1c0.1,0.1,0.1,0.2,0.1,0.4
								c0,0.1,0,0.2,0,0.5c0,0.7,0,1.5,0,2.3c0,0.7,0,1.7,0.3,2.6c0.3,0.9,0.8,1.8,1.3,2.4c0.2,0.3,0.4,0.6,0.5,0.8
								c0.1,0.2,0.1,0.4,0.1,0.6c0,0.2-0.1,0.3-0.5,0.5c-0.4,0.2-0.9,0.3-1.4,0.5c-0.5,0.2-1.1,0.3-1.7,0.6
								c-0.3,0.1-0.6,0.3-0.9,0.7c-0.2,0.1-0.3,0.4-0.4,0.5c-0.1,0.2-0.2,0.4-0.2,0.6c-0.1,0.7-0.3,1.3-0.7,1.8
								c-0.4,0.5-1,0.8-1.8,1c0-0.1-0.1-0.1,0.2-0.2c-0.4,0.1-0.7,0.1-1.2,0.1l-0.7,0.1c-0.2,0-0.5,0.1-0.7,0.2
								c-1,0.3-1.7,1-2.3,1.7c-0.5,0.7-0.9,1.5-1.3,2.2c-0.4,0.6-0.7,1.3-1.3,1.8l0-0.1c-0.8,0.9-2,1.5-3.1,2.3
								c-0.5,0.4-1.2,0.8-1.7,1.5c-0.5,0.7-0.5,1.6-0.5,2.3c0.1,0.7,0.2,1.4,0.2,2c0,0.6,0,1.3-0.2,1.9c-0.2,0.6-0.5,0.8-1.2,0.9
								c-0.6,0.1-1.4,0.2-2.1,0.5c-0.4,0.2-0.8,0.5-1,1c-0.2,0.4-0.2,0.8-0.2,1.2c0,0.8,0.1,1.5,0.2,2.1c0.1,0.7,0.3,1.3,0.5,2
								c0.2,0.7,0.3,1.1,0.4,1.7c0,0.3,0,0.7,0,1c0,0.2-0.1,0.3-0.3,0.4c-0.2,0-0.3-0.1-0.5-0.2c-0.3-0.2-0.5-0.4-0.8-0.7
								c-0.3-0.2-0.5-0.5-0.9-0.8c-0.4-0.3-0.5-0.8-0.7-1.3c-0.1-0.5-0.2-1.1-0.2-1.7c-0.1-1.2-0.1-2.4-0.3-3.8
								c0-0.2-0.1-0.4-0.2-0.6l-0.2-0.2c-0.1-0.1-0.2-0.1-0.3-0.2c-0.4-0.2-0.9-0.2-1.2-0.1c-0.8,0.1-1.5,0.3-2.2,0.5
								c-0.7,0.2-1.4,0.4-2.2,0.6c-0.4,0.1-0.7,0.1-1.1,0.1c-0.4,0-0.8,0.1-1.2,0.2c-1.5,0.4-2.9,1.1-4,2.3
								c-0.5,0.6-0.8,1.3-0.9,2.1l0,0.6l0,0.6l0,0.6l0.1,0.6l-0.1,0c0.4,1.8,1.7,3.1,2.9,4.3l0.9,0.9l0.4,0.5l0.2,0.2l0,0l0,0
								c0,0,0.1,0,0.1-0.1c0,0,0,0,0,0c-0.3,0-0.1,0-0.2,0l0,0l0,0c0,0,0,0-0.1,0c-0.1,0,0,0.1,0,0.1c0.2,0.4,0.5,0.8,0.9,1.1
								c0.1,0,0.1,0.1,0.2,0.1c0.1,0,0.2,0,0.3-0.1c0.1-0.1,0.2-0.2,0.2-0.3c0.1-0.2,0.2-0.3,0.2-0.5c0.3-0.6,0.7-1.3,1.3-1.5
								c0.3-0.1,0.6-0.2,0.9-0.2c0.2,0,0.3,0,0.5,0.1c0.1,0,0.3,0.3,0.2,0.4l-0.7,1.6c-0.4,0.9-0.8,1.9-1.2,2.8c0.6,0,1.2,0,1.9,0
								c0.5,0,1.1,0,1.7,0c0.5,0,1,0,1.4,0c0.4,0,0.7,0.1,1,0.4c0.2,0.3,0.2,0.6,0.2,1.1l-0.1,0.7c0,0.2-0.1,0.5,0,0.8
								c0.1,0.6,0.5,1,0.9,1.4c0.4,0.4,0.7,0.7,1.1,1c0.8,0.6,1.6,1.2,2.4,1.7l0.2-0.4c-2.2-0.4-4.4-0.9-6.6-1.8
								c-1.1-0.4-2-1-2.9-1.7c-0.5-0.3-0.9-0.6-1.4-0.9c-0.5-0.3-0.9-0.6-1.4-0.9c-0.5-0.4-1.1-0.7-1.7-1.1
								c-0.6-0.3-1.3-0.6-1.9-0.9c-0.7-0.3-1.3-0.5-2-0.8c-0.7-0.3-1.3-0.6-2-1c-1.3-0.7-2.5-1.6-3.6-2.3c-0.1-0.1-0.3-0.1-0.4-0.2
								c-0.2-0.1-0.4-0.2-0.5-0.3c-0.3-0.3-0.4-0.7-0.5-1c-0.1-0.7,0-1.3,0.1-1.9c0.1-0.5,0.1-0.9,0.2-1.4c0-0.5,0-1-0.2-1.4
								c-0.2-0.9-0.6-1.8-0.9-2.7c-0.7-1.7-1.5-3.4-2.3-5L50.8,68l0.4,2.5l0.2,1.3l0.1,0.6c0,0.2,0.1,0.4,0.1,0.6c0,0.7,0,1.3-0.1,2
								c0,0.2-0.1,0.4-0.2,0.5c-0.1,0.2-0.3,0.3-0.4,0.2c-0.2-0.1-0.3-0.2-0.4-0.3c-0.1-0.1-0.2-0.3-0.3-0.4
								c-0.3-0.4-0.6-0.9-0.9-1.5c-0.3-0.6-0.5-1.2-0.8-1.8c-0.5-1.2-0.8-2.5-1.2-3.8c-0.4-2.2-0.9-4.5-1.4-6.7l-0.8-3.4l-0.1-0.2
								c0-0.1,0.1-0.2,0.1-0.2l0.2-0.4l0.3-0.8l0.6-1.6c0.8-2.1,1.6-4.2,2.5-6.3l0.7-1.5l0.3-0.8l0.2-0.4c0.1-0.1,0.1-0.2,0.1-0.3
								c0.2-1.1,0.4-2.2,0.7-3.3c0.1-1.1,0.2-2.1,0.6-3.2c0.1-0.5,0.5-1.1,0.7-1.5c0.3-0.5,0.5-1,0.7-1.5c0.8-2.1,1.6-4.3,1.6-6.8
								c0,0-0.2,0.2-0.2,0.2c0.3-0.9-0.2-1.9-0.7-2.6c-0.2-0.4-0.5-0.7-0.7-1c-0.1-0.1-0.2-0.3-0.2-0.5c0-0.1-0.1-0.2-0.1-0.3
								c0,0,0-0.1-0.1-0.1c0,0-0.1,0-0.1,0c0,0,0.1,0,0.1,0c0.1,0,0.1,0,0.1,0c0-0.1-0.1-0.1-0.1-0.1c-0.1,0-0.1,0-0.2,0
								c-0.1,0-0.3,0.1-0.4,0.2c-0.3,0.2-0.5,0.3-0.7,0.5c-0.4,0.3-0.7,0.7-1,0.5l-0.1,0.2c-0.9,0.5-0.2-0.1-1,0.1
								c-0.3,0.1,0,0.3-0.6,0.5c-0.5-0.6-2.2,1.4-2.7,0.7c0.5-0.3-1,0.2,0.1-0.6c-0.4,0.1-1.9,1.2-1.6,1.4c0.1,0.4-0.3,1,0.8,0.7
								l0-0.3c0.4,0,0.3,0,0.5,0.1c1.2-0.7,1.6-0.5,2.5-0.8c0,0,0,0,0,0c0.4-0.7,1.4-0.8,1.9-0.9l0.2,0.1c0.4,0.2,1.3-1.1,1.1-0.5
								l0.5-0.2l0.1-0.1c0,0,0.1-0.1,0.2,0c0,0,0.1,0.1,0.1,0.1c0,0.1,0.1,0.1,0.1,0.2c0.1,0.1,0.2,0.3,0.3,0.5
								c0.2,0.3,0.3,0.6,0.4,1c0.2,0.7,0.2,1.3,0.2,2c-0.1,0.8-0.2,1.5-0.4,2.3c0.1,0.5-0.6,2.4,0,1.8c-0.3,0.3-0.6,1.1-1,1.8
								c-0.2,0.3-0.3,0.7-0.4,1c-0.1,0.2-0.2,0.4-0.4,0.7c0-0.1,0-0.1,0.1-0.3c-0.2,0.2-0.4,0.5-0.5,0.7c-0.1,0.2-0.1,0.4-0.2,0.5
								c-0.1,0.3-0.1,0.6-0.1,0.9c0,0.5,0,1-0.5,1.8c0.4,0.3-0.7,2.9-0.2,4c-0.1,0.2-0.2,0.2-0.3,0.2c0,0.1,0,0.1,0,0.1l-0.1,0.1
								L49,45.9c-0.1,0.3-0.3,0.7-0.5,1c-0.3,0.7-0.6,1.4-0.9,2.1c-0.6,1.4-1.2,2.7-1.7,3.8c-0.2,1.1-0.7,2.2-1.2,3.4
								c-0.2,0.4-0.3,0.8-0.5,1.2c-0.1,0.1,0,0.3,0,0.4l0.1,0.4c0,0.2,0.1,0.3,0.1,0.5c0.2,0.6,0.3,1.1,0.6,1.5
								c0.2,1.5,0.5,3.9,1.1,5.9L46,65.9c0.3,1.2,0.6,2.4,0.9,3.7c0.3,1.3,0.8,2.4,1.3,3.1c-0.2,0.4-0.1,0.9,0,1.4
								c0,0.1,0.1,0.4,0.2,0.6c0.1,0.2,0.2,0.4,0.3,0.6c0.2,0.4,0.4,0.9,0.6,1.3c0.1,0.1,0.3,0.3,0.5,0.5c0.1,0.1,0.2,0.1,0.3,0.2
								c0.1,0.1,0.2,0.1,0.3,0.1c0.2,0.1,0.5,0.2,0.8,0.2c0.8-0.1,1.1-0.5,1.5-1.3c0.3-0.8,0.4-2,0.4-3l0-0.3c0-0.1,0-0.3,0-0.4
								L53,72.2c-0.1-0.3-0.1-0.6-0.2-0.8c0.2-0.4-0.4-2-0.1-2.1c-0.1-0.5-0.2-0.9-0.4-1.4c-0.7,0.2-1.3,0.4-2.1,0.7
								c0.9,1.3,1.7,2.8,2.5,4.4c0.4,0.8,0.7,1.6,1,2.4c0.2,0.4,0.3,0.8,0.4,1.2c0.1,0.2,0,0.7,0,1.1c0,0.9-0.2,1.8,0,2.9
								c0.1,0.3,0.2,0.7,0.4,0.9c0.1,0.2,0.2,0.3,0.4,0.4c0.1,0.1,0.2,0.1,0.2,0.1l0.3,0.2c0.1,0.1,0.2,0.1,0.4,0.2l0.5,0.4
								c1.3,1.1,2.7,2.4,4.3,3.3l-0.1,0c1,0.3,2.3,0.3,3.2,0.4c0.1,0.1,0,0.1-0.1,0c0.6,0.2,1.2,0.6,1.7,0.9c0.5,0.3,1,0.7,1.6,1
								c0,0.1,0,0.1-0.3,0c0.6,0.2,1.1,0.6,1.6,1c0.5,0.4,1.1,0.8,1.8,1.1l0,0.1l0.9,0.4c-0.1,0.1-0.2,0.2-0.6-0.1
								c0.3,0.2,0.6,0.4,1,0.7c0.4,0.2,0.8,0.4,1.1,0.6c0.8,0.4,1.5,0.6,2.3,0.9c1.5,0.5,3.1,0.9,4.7,1.2l0.8-1.9
								c-0.9-0.6-1.9-1.4-2.7-2.1c-0.4-0.4-0.8-0.8-1-1.1c0,0,0-0.1-0.1-0.1c0-0.1,0-0.1,0-0.2l0.1-0.9c0-0.3,0-0.7-0.1-1.2
								c-0.1-0.5-0.4-0.9-0.7-1.2c-0.4-0.3-0.9-0.4-1.3-0.5c-0.2,0-0.4,0-0.6,0l-0.5,0l-1.7,0l-0.9,0l0.2-0.6l0.1-0.3
								c0,0,0.1-0.2,0.1-0.3l0.1-0.4l0.9-3.2c-0.1-0.2-0.4-0.3-0.6-0.4l-0.4,0l-0.4,0c-0.5,0.1-1,0.2-1.4,0.4
								c-0.9,0.4-1.4,1.1-2,2.3c0,0,0.1-0.2,0.1-0.3c0.1-0.2,0.1-0.3,0.1-0.3s-0.1,0.2-0.2,0.5c-0.1,0.2-0.1,0.3-0.2,0.5L67.2,83
								c0,0-0.1,0.1,0,0.1l0.1,0l0,0c0-0.1,0.4,0.7,0.2,0.4l0,0l0,0l0,0l0,0l0,0c0,0,0,0,0,0l0,0l0,0v0l0,0c0-0.2,0,0.4,0-0.4l0,0
								l0,0l0,0l0.1,0L67.5,83c-0.1,0-0.1-0.1-0.2-0.1c-0.1-0.1-0.1-0.2-0.1-0.2c0.1,0,0.1,0,0.2,0c0-0.1-0.1-0.2-0.1-0.2
								c0,0,0-0.1,0-0.1l0,0c0,0,0,0,0,0c0.1-0.1-0.1-0.3-0.1-0.3C67.2,82,67.1,82,67.1,82L67,81.9c-0.3-0.3-0.5-0.5-0.8-0.8
								l-1.6-1.5c-1-1-1.8-2-2-3.3c0.1,0,0.3,0.3,0.3,0c-0.2-0.4-0.2-0.9-0.2-1.2c0-0.4,0.1-0.6,0.2-0.9c0.2-0.5,0.5-0.8,0.5-1.4
								c0.1,0,0.2,0,0.2,0.2c0.6-0.7,1.4-1.3,2.4-1.7c0.5-0.2,1-0.3,1.5-0.4c0.3,0,0.5-0.1,0.7-0.1c0.3,0,0.7-0.1,1-0.1
								c1.2-0.3,2.2-0.7,3.3-0.9c0.3-0.1,0.5-0.1,0.8-0.2c0.2,0,0.5-0.1,0.7-0.1c0.2,0,0.3,0,0.4,0.1c0.1,0.1,0.2,0.2,0.2,0.4l0,0.1
								l0,0.2l0,0.5l0,1c0,0.7,0,1.3,0.1,2c0.1,0.5,0.2,1.1,0.4,1.6c0.1,0.3,0.2,0.6,0.3,0.8c0.1,0.3,0.4,0.6,0.7,0.8
								c0.4,0.2,0.9,0.8,1.4,1.1c0.5,0.4,0.9,0.7,1.4,0.7c0.3,0,0.5-0.3,0.6-0.5c0.1-0.2,0.1-0.5,0.1-0.8c0-0.6-0.1-1.2-0.2-1.9
								c-0.1-0.6-0.2-1.1-0.3-1.6l-0.3-1.5c-0.1-0.5-0.2-1-0.2-1.5c0-0.5,0-1,0.1-1.4l0.1,0.1c0.1-0.2,0.3-0.4,0.5-0.5
								c0.7-0.3,1.4-0.4,2.2-0.7c0.4-0.1,0.8-0.3,1-0.7c0.2-0.4,0.3-0.8,0.4-1.2c0.2-0.8,0.1-1.6,0-2.4c-0.1-0.8-0.2-1.6,0-2.3
								c0.2-0.8,0.9-1.3,1.6-1.7c0.7-0.4,1.4-0.8,2.1-1.2c0.7-0.4,1.4-0.9,2-1.5c0.6-0.6,1-1.4,1.3-2.1c0.7-1.2,1.2-2.3,2.2-2.8
								c0.1-0.1,0.2-0.1,0.4-0.2l0.4-0.1c0.3-0.1,0.6-0.1,0.9-0.1c0.3,0,0.6-0.1,1-0.1c0.3,0,0.7-0.1,1-0.2l0.1,0.1
								c0.6-0.3,1.2-0.8,1.5-1.4c0.4-0.6,0.6-1.2,0.8-1.9c0.1-0.5,0.6-0.9,1-1c0.5-0.2,1-0.3,1.6-0.4c0.5-0.1,1.1-0.2,1.7-0.4
								c0.5-0.2,1.2-0.7,1.3-1.4c0.1-0.4,0.1-0.9-0.1-1.3c-0.1-0.4-0.4-0.7-0.6-1c-0.5-0.6-0.9-1.1-1.3-1.7c0,0,0.3,0.2,0.3,0.2
								c-0.3-0.2-0.5-0.9-0.6-1.5c0-0.6-0.1-1.1-0.4-0.9l0.2-0.9c-0.2-0.8-0.3-1.7-0.4-2.4c0-0.3-0.1-0.7-0.1-1
								c0-0.2-0.1-0.4-0.2-0.5c-0.1-0.2-0.3-0.2-0.5-0.2c-0.3,0.1-0.5,0.5-0.9,0.7c-0.4,0.2-0.8,0.3-1.2,0.4c-0.9,0-1.8-0.3-2.7-0.7
								l0.3,0c-0.5-0.2-1-0.4-1.4-0.8c-0.3-0.5-0.6-1-0.7-1.4c0.1,0.1,0.1,0,0.3,0.2c-0.2-0.4-0.4-0.8-0.6-1.2
								c-0.1-0.2-0.3-0.4-0.4-0.6c-0.2-0.2-0.4-0.4-0.6-0.6c-0.2-0.1-0.5-0.3-0.8-0.3l-0.2,0c-0.1,0-0.1,0-0.2,0.1
								c-0.1,0-0.2,0.1-0.3,0.2c-0.4,0.3-0.7,0.9-0.9,1.3c-0.4,0.9-0.5,1.9-0.5,2.8c0,0.5,0.1,1,0.4,1.4c0.3,0.4,0.3,0.8,0.3,1.3
								c0,0-0.3-0.4-0.3-0.4c0.2,0.8,0.1,2.1-0.3,3.3l-0.1,0.5c0,0.1-0.1,0.3-0.2,0.4c-0.2,0.3-0.4,0.5-0.6,0.8
								c-0.4,0.5-0.8,1-1.1,1.5l0-0.2l-0.6,1l-0.2-0.2c-0.1,0.1-0.2,0.2-0.3,0.4c-0.5-0.2-1.5-0.5-2-0.6c-0.1-1.4-0.1-2.7-0.2-4
								C83.8,39.5,83.3,39.4,82.9,39.3z"/>
							<path fill="#EF782C" d="M79.3,22.1C79.3,22.1,79.3,22.1,79.3,22.1C79.4,22.1,79.4,22.1,79.3,22.1z"/>
							<path fill="#EF782C" d="M48.5,27.6c-0.1,0.1-0.2,0.1-0.3,0.1C48.2,27.8,48.4,27.7,48.5,27.6z"/>
						</g>
					</g>
				</g>
			</g>
		</g>
		<g>
			<path fill="#F6F6F6" d="M83.8,95.2c0,0,0,4.6-1.6,6.2c-1.6,1.7-2.5-2.5-1.6,1.7c0.8,4.1,3.3,8.7,6.6,10.3s5.8,2.5,5.8,3.7
				s0.8,6.6,0,8.3s-2.5,3.3-2.1,6.2s1.2,6.2,1.2,6.2l2.5,2.1c0,0-1.2-5.8,1.6-7c2.9-1.2,6.6-4.1,6.6-4.1s4.9-9.5,6.2-9.5
				c1.2,0,3.7,0,3.7,0s1.2-5.8,3.7-7.4c2.5-1.7,5.4-2.9,4.1-3.7c-1.2-0.8-6.6-5-8.2-5.4c-1.6-0.4-1.6-3.7-4.1-5
				c-2.5-1.2-5.8-5.4-11.1-6.2c-5.4-0.8-6.6-3.3-7.8-0.8S83.8,95.2,83.8,95.2z"/>
			<g>
				<g>
					<g>
						<g>
							<path fill="#EF782C" d="M84.4,96.4l0.1,0l0.1-0.3C84.5,96.2,84.4,96.4,84.4,96.4z"/>
							<path fill="#EF782C" d="M85.2,95.4c0,0-0.1-0.1-0.1-0.1c0,0-0.1,0.2-0.2,0.4c-0.1,0.2-0.2,0.4-0.2,0.4
								C85.2,96.3,84.9,95.3,85.2,95.4z"/>
							<path fill="#EF782C" d="M85.4,95.3c0.3,0,0.3-0.3,0.3-0.4C85.7,95.1,85.2,95.1,85.4,95.3z"/>
							<path fill="#EF782C" d="M104.5,96.2C104.5,96.2,104.5,96.1,104.5,96.2C104.5,96.2,104.5,96.2,104.5,96.2z"/>
							<path fill="#EF782C" d="M109.9,99.3l0.2-0.1c-0.5-0.4-0.9-0.9-1.4-1.3c-0.5-0.4-1-0.7-1.6-1l0.1,0c-1.2-0.9-2.4-1.8-3.6-2.6
								c-0.7-0.4-1.3-0.8-2-1c-0.3-0.2-0.7-0.3-1-0.5c-0.3-0.1-0.7-0.2-1.1-0.4c0.1,0,0.1-0.1,0.1-0.1c-0.2,0-0.4,0.1-0.5,0
								c0-0.1,0.1-0.1,0.1-0.1c-0.1-0.1-0.3-0.2-0.5-0.3c-0.2-0.1-0.4-0.1-0.7-0.1c-0.4,0-0.9-0.1-1-0.2c-0.2,0-0.3,0.1-0.2,0.3
								c-1.2-0.2-2.4-0.4-3.7-0.8l-1.8-0.6c-0.3-0.1-0.6-0.2-0.8-0.2c-0.2,0-0.3,0-0.4,0.1c-0.1,0-0.1-0.1-0.2-0.2
								C90,90.4,90,90.5,90,90.7c-0.1,0.2-0.1,0.4-0.3,0.7c-0.1,0.3-0.3,0.6-0.5,0.8c-0.2,0.2-0.4,0.5-0.6,0.7
								c-0.8,0.8-1.8,1.5-2.7,2c0,0.2,0.3,0,0.2,0.3c0.7-0.2,0.9-1.1,1.5-1.3l0,0.2c0.4-0.3-0.2-0.4,0.3-0.5c0.2,0,0.1,0.2,0.2,0.1
								c0.4-0.3,0.8-0.8,1.1-1.2c0.3-0.4,0.6-1.1,0.7-1.5c0.2,0,0.3-0.2,0.3-0.2c0-0.1,0.1-0.1,0.2,0.1c0-0.1,0.1-0.1,0.1-0.3
								c0.5,0.1,1.4,0.6,2.2,0.8c0.8,0.3,1.7,0.6,2.6,0.7c0.4,0.1,0.9,0.2,1.3,0.2c0.4,0.1,0.8,0.2,1.2,0.2c0.8,0.1,1.5,0.5,2.3,0.8
								c0.4,0,0.8,0.2,1.2,0.3c0.4,0.2,0.7,0.4,1.1,0.7c0.7,0.5,1.4,1.2,2.2,1.7c0,0,0,0,0,0c0.6,0.3,1.3,0.8,1.9,1.3
								c0,0,0.2,0,0.3,0.1c0.2,0,0.4,0.1,0.4,0.1l0.7,0.5c0.2,0.1,0.4,0.3,0.6,0.5c0.3,0.3,0.6,0.7,0.9,1.2c0.3,0.4,0.5,0.9,0.7,1.5
								c0.3,0.5,0.5,1.1,1.1,1.6c0.1,0.1,0.4,0.3,0.6,0.4l0.2,0.1l0,0l0.1,0l0,0l0,0l0.1,0c0.2,0.1,0.4,0.1,0.7,0.3
								c0.5,0.3,0.9,0.5,1.4,0.8c0.9,0.6,1.8,1.3,2.7,2c0.4,0.3,0.9,0.7,1.3,1c0.4,0.3,1,0.8,1,0.8c0.1,0.1,0.3,0.2,0.2,0.4
								c-0.1,0.1-0.3,0.2-0.4,0.3c-0.7,0.5-1.6,0.9-2.4,1.5c-0.4,0.3-0.8,0.5-1.3,0.9c-0.4,0.4-0.8,0.9-1,1.3
								c-0.5,0.9-0.9,1.9-1.1,2.9c-0.1,0-0.1,0-0.1-0.1c-0.2,0.7-0.4,1.3-0.6,1.9l-0.2,0.5l-0.1,0.4c0,0.2-0.1,0.3-0.1,0.5
								c0,0-0.1,0-0.2,0l0-0.1c-0.1,0-0.2,0.1-0.3,0.1c-0.1,0-0.4,0-0.6,0.1c-0.4,0-0.9,0.1-1.3,0.1c-0.4,0-1.1-0.1-1.5,0.4
								c-0.5,0.4-0.7,0.7-1,1.1c-1.1,1.4-1.9,2.9-2.5,4.5c-0.7,1.2-1.5,2.6-2.2,3.9c-1,0.7-2.1,1.6-3.2,2.3
								c-1.1,0.8-2.3,1.4-3.5,2.1l-0.1-0.1c-1.1,0.8-1.4,2.1-1.6,3.3c-0.2,1.2-0.2,2.5,0,3.8c0.2-0.1,0.4-0.2,0.6-0.4
								c-0.6-0.6-1.3-1.1-2-1.6l-0.4-0.4c0-0.2,0-0.3-0.1-0.5c-0.1-0.4-0.2-0.8-0.3-1.3c-0.2-0.8-0.5-1.7-0.7-2.6
								c-0.2-0.9-0.5-1.7-0.6-2.6c0-0.9,0.2-1.8,0.7-2.5c0.4-0.4,0.7-0.9,1-1.4c0.1-0.3,0.3-0.5,0.4-0.8c0.1-0.3,0.2-0.6,0.3-0.9
								c0.1-1.2-0.1-2.4,0.2-3.4c0.2-1,0.2-2.1,0.2-3.1l0-0.8l0-0.4c0-0.1,0-0.3,0-0.5c-0.1-0.3-0.3-0.6-0.5-0.9
								c-0.2-0.2-0.5-0.4-0.7-0.5c-1.9-1.1-3.9-1.4-5.8-2.3c-1.5-1.2-2.8-2.7-3.9-4.3c-1-1.6-1.8-3.5-1.8-5.4
								c-0.2-0.4-0.3-0.8-0.4-1.3c0-0.2,0-0.5,0-0.7l0-0.2c0,0,0-0.1,0-0.1c0,0,0.1-0.2,0.2-0.1c0.1,0.1,0.2,0.2,0.2,0.3
								c0.1,0.2,0.3,0.4,0.6,0.5c0.2,0.1,0.5,0.1,0.8,0c0.5-0.2,0.9-0.7,1.1-1.2l-0.2,0c0.4-0.2,0.4-0.7,0.4-1.1
								c0-0.4,0-0.7,0.4-0.9l0,0.1c0.4-0.3-0.6-1-0.2-1.2l-0.2-0.1c0-0.4,0.2,0,0.3-0.4c0-0.1-0.3-0.1-0.2-0.3
								c0.7,0-0.1-1.1,0.7-1.1c0,0.3,0.3-0.4,0.5,0.2c0.1-0.2,0.1-1-0.3-0.9c-0.4-0.1-0.7-0.4-1,0.1l0.3,0.1
								c-0.3,0.1-0.1,0.1-0.3,0.2c-0.1,0.6-0.5,0.6-0.7,1c0,0,0,0,0,0c0.3,0.3,0.1,0.7,0,0.9l-0.2,0.1c-0.3,0.1,0.5,0.7,0,0.5
								c0,0.6-0.2,1.2-0.4,1.7c-0.1,0.3-0.2,0.5-0.4,0.7c-0.1,0.2-0.2,0.2-0.3,0.3c0,0.1-0.1,0.2-0.2,0.2c-0.1,0-0.2,0-0.1,0.3
								c-0.1-0.3-0.1-0.5-0.1-0.6c0,0,0,0,0-0.1c0,0-0.1-0.1-0.1-0.1l0,0c0,0-0.1-0.1-0.1-0.1c0,0-0.1,0-0.1-0.1c0,0-0.3-0.1-0.5,0
								c-0.4,0.1-0.6,0.2-0.8,0.5c-0.1,0.2-0.1,0.2-0.1,0.2l0,0.1c0,0.2,0,0.2,0,0.3c0,0.1,0,0.2,0,0.2c0,0.2,0,0.3,0.1,0.4
								c0,0-0.1,0-0.1-0.1c-0.4,0.9,0.7,0.8,0.1,1.6c0.5,0,0.2,1.3,0.8,1.6c-0.1,0.1-0.2,0.2-0.3,0.2c0.4,1.2,0.8,2.7,1.3,3.7
								c0.8,0.6,1,2.1,2,2.4c0.2,0.3,0.4,0.7,0.7,1.1c0.3,0.4,0.7,0.7,1.2,1l-0.1,0c0.2,0.2,0.5,0.4,0.7,0.5
								c0.3,0.2,0.5,0.3,0.8,0.4c0.5,0.2,1,0.3,1.4,0.3c0,0.6,0.5,0.7,0.8,1.1c0.7,0,1.9,0.7,2.7,0.9c0,0.3,0.6,0.3,0.3,0.6
								c0,0,0.1,0,0.1,0c0,0,0,0,0.1,0c0,0,0,0,0,0l0,0.2c0.1,0.4,0.2,0.8,0.2,1.2c0.1,0.8,0.2,1.6,0.3,2.4c0,0.8,0,1.6-0.1,2.3
								c-0.1,0.4-0.1,0.7-0.2,1c-0.1,0.1-0.1,0.3-0.2,0.4l-0.1,0.1l-0.2,0.2l0,0c0,0.4,0.2,1,0.2,1.5c0,0-0.1,0-0.1-0.1
								c-0.2,0.5-0.8,0.8-1,1.4c-0.1,0-0.1,0-0.1-0.1c0,0.3-0.2,0.5-0.4,0.8c-0.2,0.3-0.3,0.6-0.2,1l-0.1,0c0,0,0.1,0.5,0.1,0.5
								c-0.1,0-0.3-0.1-0.2-0.3c-0.2,1.1-0.1,2.3,0.2,3.2c0.2,0.9,0.4,1.9,0.6,2.8c0.1,0.5,0.3,0.9,0.4,1.4l0.2,0.8l0.1,0.5
								c0.1,0.1,0.3,0.2,0.4,0.4l2.4,1.8l1.6,1.2l-0.4-1.9c-0.2-0.9-0.3-2-0.3-3L95,137c0,0,0-0.2-0.1-0.4c0-0.2-0.1-0.4-0.1-0.4
								c0.1,0,0.1,0.1,0.1,0.1c0.2-0.5,0.3-1.1,0.4-1.5c0.1-0.5,0.4-0.9,0.8-1.1c0,0.1,0,0.2,0.1,0.2c0.1-0.1,0.2-0.3,0.4-0.3
								c0.2-0.1,0.3-0.1,0.5-0.2c0.3-0.1,0.5-0.2,0.6-0.6c0.1,0,0.2,0.1,0.1,0.2c0.9-0.6,1.7-1.2,2.6-1.8c0.4-0.3,0.9-0.6,1.3-0.9
								l0.7-0.4l0.8-0.6l0.4-0.6l0.3-0.5c0.4-2.1,2-3.8,2.7-5.8l0.1,0.1c0.2-0.6,0.5-1.1,0.9-1.6c0.4-0.5,0.7-1.1,1.2-1.3
								c0.6,0,1.3,0,1.9,0.1l1,0c0.4,0,0.8,0,1.1,0c0.1-0.3,0.2-0.7,0.2-1c0.4-1.2,0.5-1.9,0.9-3l0.2,0c0.1-1,0.7-1.9,1.5-2.6
								c0.4-0.4,0.8-0.6,1.2-0.9c0.4-0.3,0.9-0.6,1.2-1l0,0.3c0.1-0.5,1.1-0.6,0.7-1l0.4,0c0.4-0.6,0.7-0.8,1.1-1.1
								c0.2-0.2,0.5-0.4,0.4-0.7c-0.1-0.3-0.4-0.4-0.6-0.6c-0.2-0.2-0.5-0.3-0.8-0.4l0.2,0c-0.4-0.2-0.9-0.4-1.1-0.7
								c0.1,0,0.1,0,0.2,0c-0.8-1.3-2.5-1.7-3.8-2.6l0.3-0.1c-0.8-0.1-1.8-1.1-2.8-1.3l0.1-0.1c0,0-0.1,0-0.3,0c-0.1,0-0.2,0-0.2,0
								l0.1-0.2c-0.4-0.3-0.7-0.8-1-1.3C110.5,100.3,110.2,99.8,109.9,99.3z"/>
							<path fill="#EF782C" d="M99.3,92.3C99.3,92.3,99.4,92.3,99.3,92.3C99.4,92.3,99.4,92.3,99.3,92.3z"/>
							<path fill="#EF782C" d="M82.5,96.7c0-0.1,0-0.1,0.1-0.1C82.5,96.6,82.5,96.7,82.5,96.7z"/>
						</g>
					</g>
				</g>
			</g>
		</g>
		<g>
			<path fill="#F6F6F6" d="M98.2,10.4c0,0-1.2,1.7-3.7,2.1c-2.5,0.4-4.1,2.1-1.6,2.5c2.5,0.4,3.7,2.1,4.9,3.7
				c1.2,1.7,3.3,2.9,3.7,4.6s1.6,3.7,0.4,3.7c-1.2,0-2.5-3.3-1.2,0c1.2,3.3,6.6,9.1,6.6,9.1s-1.6-5,0.8-6.6c2.5-1.7,2.9-2.5,4.5-4.6
				c1.6-2.1,4.5-2.1,0-6.2C108,14.5,102.3,8.7,98.2,10.4z"/>
			<g>
				<g>
					<g>
						<g>
							<polygon fill="#EF782C" points="98.7,11.6 98.7,11.7 98.7,11.5 							"/>
							<path fill="#EF782C" d="M99,11.1c0,0,0-0.1-0.1-0.1c0,0-0.1,0.7-0.1,0.6C99,11.9,98.8,10.9,99,11.1z"/>
							<path fill="#EF782C" d="M99.1,11.1c0.1,0.1,0.1-0.2,0.2-0.3C99.2,11.1,99,10.8,99.1,11.1z"/>
							<path fill="#EF782C" d="M109.4,16.8C109.3,16.8,109.3,16.8,109.4,16.8C109.3,16.8,109.3,16.8,109.4,16.8z"/>
							<path fill="#EF782C" d="M112.5,18.4l0.2-0.1c-0.7-0.1-1-0.9-1.6-1.2l0.1,0c-1.2-1.2-2.6-2-4-2.9c0,0,0.1,0,0.1,0
								c-0.1,0-0.3,0.1-0.3,0c0-0.1,0.1-0.1,0.1-0.1c0-0.5-1-0.5-1-0.8c-0.1,0-0.2,0.1-0.3,0.2c-1.1-0.7-2.3-1.4-3.5-1.7
								c0-0.1,0-0.2,0.1-0.3c-1.2,0.1-2.1-0.4-3.1-0.4c0,0.2,0.1,0.2,0,0.3c0.1,0.1,0.3,0,0.4-0.1c0.1-0.1,0.3-0.1,0.4,0l0,0.1
								c0.2,0.1,0.1-0.4,0.3-0.2c0.1,0.1,0,0.2,0,0.2c0.4,0,0.8,0.3,1.4,0.1c0,0.3,0.5,0.2,0.5,0.6c0.2-0.1,0.3,0,0.4-0.2
								c1.4,0.9,3.1,1.8,4.5,3c1.1,0.1,1.4,1.3,2.3,1.9c0,0,0,0,0,0c0.4,0.1,0.8,0.4,1,0.7l0.4,0c0.7,1,1.6,1.9,2.4,2.8
								c0.4,0.4,0.8,0.9,1,1.3c0.2,0.4,0.1,0.6-0.3,0.9c-0.4,0.4-1.1,0.7-1.6,1.3c-0.6,0.6-1,1-1.4,1.6c-0.8,1-1.5,1.9-2.3,3
								c0-0.1-0.1-0.1,0-0.1c-0.3,0.3-0.6,0.5-0.9,0.7c-0.4,0.3-0.7,0.6-0.9,1l-0.1,0c-0.2,0.6-0.3,1.2-0.4,1.7c0,0.4,0,0.8,0,1.1
								c0,0.6,0.1,1,0.6,2.3l0,0.1l0,0.1c0,0,0,0.1,0,0l-0.2-0.2c-0.1-0.1-0.2-0.3-0.3-0.4c-0.2-0.3-0.5-0.5-0.7-0.8
								c-0.4-0.5-0.8-0.9-1.2-1.4c-0.5-0.6-1-1.1-1.5-1.7l0.1-0.1c-0.3-0.3-0.6-0.7-0.8-1.1c-0.2-0.4-0.4-0.8-0.6-1.2
								c-0.3-0.8-0.6-1.6-1-2.5l-0.1-0.3l0-0.1c0,0,0,0,0,0c0,0-0.1,0-0.2,0c-0.1,0-0.1,0-0.2,0l0,0l0,0c0.7,0.4,0.2,0.1,0.3,0.2
								l-0.1,0.1c-0.1,0.1-0.4,0.3-0.3,0.3l0,0l0,0c0.2,0.2,0.4,0.4,0.6,0.6c0.4,0.2,0.7,0.4,1.1,0.4c0.2,0,0.5-0.1,0.5-0.4
								c0.1-0.3,0-0.5-0.1-0.8c-0.2-0.5-0.3-0.9-0.4-1.3c0.1-0.2,0-0.7-0.2-1c-0.1-0.3-0.3-0.6-0.5-0.9c-0.5-0.5-1-0.9-1.1-1.5
								c-0.5-1.2-1.3-2-2-2.7c-0.8-0.8-1.7-1.6-2.8-2.1c-0.7-0.8-1.7-1-3-1.3c-0.3-0.1-0.6-0.2-0.8-0.3c-0.2-0.1-0.4-0.4-0.3-0.7
								c0.1-0.6,0.7-0.9,1.4-1.1c0.2-0.4,1-0.5,1.5-0.4c0.3,0,0.5,0.1,0.8,0.1c0.3,0,0.6,0,0.8-0.2l-0.1-0.1c0.6,0.3,0.5-0.9,1-0.4
								l0,0c0.4,0.2-0.1-1,0.3-0.7l-0.1-0.2c0.2-0.2,0.1,0.1,0.3,0.1c0-0.1-0.2-0.3,0-0.3c0.5,0.5,0.3-0.5,0.9,0.1
								c-0.1,0.1,0.4,0,0.3,0.4c0.1,0,0.5-0.4,0.1-0.6c-0.3-0.3-0.4-0.6-0.8-0.5l0.2,0.2c-0.3-0.1-0.1,0-0.3-0.2
								c-0.2,0.2-0.5-0.1-0.8-0.1c0,0,0,0,0,0c0.1,0.3-0.2,0.3-0.3,0.3l-0.1-0.1c-0.2-0.2,0.1,0.7-0.1,0.2c-0.4,0.4-1,0.7-1.6,0.9
								c0,0.2-0.5,0.1-0.3,0.4c-0.1-0.2-0.4-0.3-0.6-0.3c-0.3,0-0.6,0.1-0.8,0.1c0,0,0-0.1,0-0.1c-0.5-0.1-0.6,0.1-0.7,0.3
								c-0.1,0.2-0.1,0.3-0.7,0.3c0.2,0.2,0,0.3-0.3,0.5c-0.2,0.2-0.5,0.4-0.2,0.6c-0.2,0-0.3,0-0.4,0c-0.2,0.4-0.5,0.8-0.4,1.3
								c0.1,0.5,0.2,0.8,0.5,1.1c0.2,0,0.4,0.1,0.6,0.2c0.2,0.1,0.5,0.2,0.7,0.3c0.2,0.1,0.5,0.2,0.7,0.2c0.3,0.1,0.4,0,0.6-0.1
								c0.1,0.1,0.4,0.3,0.5,0.4c0.1,0.1,0.3,0.2,0.6,0.2l-0.1,0c0.2,0.1,0.4,0.3,0.6,0.4c0.2,0.1,0.5,0.2,0.7,0.2
								c-0.3,0.5-0.1,0.6-0.1,0.9c0.4,0.1,0.8,0.7,1.3,1c-0.1,0.2,0.4,0.3,0.1,0.6c0.9,0.4,1.6,0.9,2.2,1.6c0.6,0.6,1,1.5,0.8,2l0,0
								c0.2,0,0.8,0.2,1.1,0.3c0,0-0.1,0-0.1,0c0.2,0.4-0.2,0.5,0,0.6c-0.1,0-0.1,0-0.1,0c0.1,0.1,0.1,0.1,0,0.1
								c-0.1,0-0.1,0,0.1,0.2l-0.1-0.1c0,0,0.2,0.2,0.2,0.2c-0.2-0.1-0.4-0.3-0.4-0.3c0,0.1,0,0.1,0,0.2c0,0.1,0,0.2-0.1,0.2
								c-0.1,0-0.2,0-0.3-0.1l0,0l0,0l0,0l0,0l0,0c0,0,0,0-0.1,0l-0.3,0.1L99.6,25l-0.2,0.1c-0.1,0-0.1,0-0.1,0c0,0,0,0.1-0.1,0.2
								c0,0.1,0,0.2,0,0.3l0,0.1l0,0.1l0,0.1l0.1,0.1l0.2,0.5c0.2,0.3,0.3,0.6,0.5,0.9c0.4,0.6,0.7,1.3,1,1.9l-0.2,0l0.5,0.3
								c-0.1,0-0.1,0-0.1,0c0.2,0.7,0.9,1.1,1.2,1.6c-0.1,0-0.2,0-0.2,0.1c0.6,0.2,0.1,0.9,0.8,0.7c0,0-0.1,0.1-0.2,0.1
								c0.2,0.2,0.4,0.4,0.6,0.6l0.8,0.9c0.6,0.6,1.1,1.3,1.6,2l0.4,0.2c0.2-0.2,0.3-0.1,0.5,0c0.1,0.1,0.2,0.1,0.3,0.2l0.1,0.1
								c0,0,0.1,0,0,0l0-0.2c-0.1-0.4-0.1-0.8-0.3-1.5l0.1,0.2c-0.1-0.3-0.1-0.7-0.2-1c-0.3-1.5,0.2-2.7,1-3.6
								c0.5-0.3,0.8-0.7,1.3-1.1l0.1,0.1c0.3-0.6,0.8-0.8,1.3-1.2c0.5-0.3,1-0.7,1.1-1.4l0.1,0.2c-0.2-0.4,0.5-0.5,0-0.8l0.3,0
								c-0.1-1.1,1.1-0.9,1.5-1.8l0,0.1c0.1-0.2,0.3-0.5,0.5-0.5c0,0,0,0.1,0,0.1c0.5,0,0.8-0.4,1-0.9c0.2-0.5,0-1-0.2-1.4l0.3,0
								c-0.4-0.3-0.6-1.1-1.1-1.4l0.1-0.1l-0.3-0.1l0.2-0.2C113.6,19.1,113,18.8,112.5,18.4z"/>
							<path fill="#EF782C" d="M107.1,14C107.1,14,107.1,14,107.1,14C107.1,14,107.1,14,107.1,14z"/>
							<path fill="#EF782C" d="M96.8,10.2C96.8,10.2,96.8,10.2,96.8,10.2C96.8,10.1,96.8,10.2,96.8,10.2z"/>
						</g>
					</g>
				</g>
			</g>
		</g>
		<g>
			<g>
				<g>
					<g>
						<g>
							<path fill="#EF782C" d="M143,19l-0.2-0.1c0,0-0.3,0.3-0.3,0.3C142.5,19.2,143,19,143,19z"/>
							<path fill="#EF782C" d="M141.8,20.6c0,0,0.1,0,0.1,0c0,0-0.1-0.2-0.2-0.5c0-0.4,0.3-0.8,0.3-0.8c-0.5,0.1-0.5,0.6-0.4,0.8
								C141.7,20.4,141.9,20.5,141.8,20.6z"/>
							<path fill="#EF782C" d="M141.7,20.8c-0.1,0.2,0.1,0.3,0.2,0.3C141.7,21,142,20.7,141.7,20.8z"/>
							<path fill="#EF782C" d="M145.7,32.3C145.7,32.2,145.7,32.2,145.7,32.3C145.7,32.2,145.7,32.3,145.7,32.3z"/>
							<path fill="#EF782C" d="M148.2,34.5l0.2-0.1c-0.7-0.2-0.8-0.9-1.2-1.3l0.1,0c-0.2-0.3-0.3-0.7-0.5-1c-0.1-0.3-0.3-0.7-0.4-1
								c-0.3-0.7-0.7-1.4-1-2c0,0,0.1,0,0.1,0c-0.1,0-0.3-0.1-0.3-0.2c0,0,0.1,0,0.1,0c0.2-0.4-0.6-0.8-0.4-1.1
								c-0.1-0.1-0.2-0.1-0.3,0c-0.5-1.1-1.1-2.2-1.8-3.3c0-0.1,0.1-0.1,0.2-0.2c-0.9-0.8-1.2-1.9-1.3-3.2c-0.2,0-0.1,0.2-0.3,0
								c-0.1,0.5,0.5,0.7,0.3,1.1l-0.2,0c0,0.3,0.4-0.1,0.3,0.2c-0.1,0.1-0.2,0-0.2,0.1c0.2,0.5,0.3,1,0.8,1.3
								c-0.3,0.2,0.2,0.5,0,0.8c0.2,0.1,0.2,0.2,0.4,0.2c0.5,1.7,1.4,3.1,2,4.7c0.4,0.3,0.5,0.7,0.6,1.1c0.1,0.5,0,0.9,0.3,1.4
								c0,0,0,0-0.1,0c0.3,0.3,0.5,0.7,0.7,1.1l0.4,0.2c0.8,2.3,3.1,3.6,4.8,4.8c0,0,0,0,0,0.1c0.3,0.4,0.6,1,0.7,1.3
								c0,0.1,0,0.2,0,0.2c0,0,0,0,0,0c0,0,0.1,0,0.1,0c0,0,0.1,0.1,0.1,0c0,0,0,0,0-0.1c0,0,0.1,0,0,0c-0.1,0-0.1,0-0.2,0l0,0l0,0
								l0,0l0,0c0,0-0.1,0.1,0.1-0.1l0,0l0,0c-0.2,0.2-0.5,0.4-0.6,0.6c-0.6,0.8-0.6,1.5-0.7,2.2c0,0.7,0,1.3,0.2,1.9
								c-0.1,0-0.1,0-0.1-0.1c0,0.7-0.3,1.3-0.4,1.7l-0.1,0c-0.1,0.4-0.3,0.8-0.6,1.2l-0.1,0.1c0,0,0,0.1-0.1,0.1l-0.1,0.1l-0.3,0.3
								c-0.1,0.3,0,0.6,0,0.9c0,0.4,0.1,0.9,0.2,1.3c0.1,0.5,0.2,0.7,0.4,1.1c0,0.1,0,0.3,0,0.5c-0.4,0.1-0.8,0.1-1.2,0.2
								c-0.6,0.1-1.1,0.2-1.7,0.3c0.2,0.5,0.4,1.1,0.5,1.6c0.2,0.5,0.3,0.9,0.5,1.4l-0.1,0c0.4,0.8,0.5,1.6,0.6,2.4
								c0.1,0.4,0.1,0.8,0.2,1.2c0,0.2,0.1,0.5,0.2,0.8c0.2,0.2,0.5,0.3,0.7,0.4c0.5,0.5,1.3,0.7,2,0.8c0.7,0.1,1.5,0,2.1-0.3
								c0.3-0.2,0.5-0.5,0.7-0.8c0.5-0.5,0.4-1.2,0.2-1.8c-0.2-0.6-0.4-1.2-0.1-1.7c0.2-0.5,0.3-1.1,0.3-1.6c0-0.5-0.1-1.1-0.1-1.4
								c0-0.4,0.2-0.8,0.5-1.2c0.3-0.4,0.6-0.8,1.2-1.3l0.4-0.2l0.2-0.1l0.1,0l0.1,0l0,0c0.2,0.4,0.4,0.8,0.7,1.2l0.7,1.1
								c0.4,0.7,0.8,1.4,0.9,2.2c0.8,0.6,0.4,1.9,1.1,2.7l0.1-0.1c-0.2,0.6,1,0.3,0.5,0.9l0,0c-0.2,0.4,0.9-0.1,0.6,0.2l0.2-0.1
								c0.2,0.2-0.2,0.1-0.1,0.3c0.1,0,0.3-0.2,0.3,0c-0.5,0.5,0.5,0.3-0.1,0.9c-0.1-0.1-0.1,0.4-0.4,0.3c0,0.1,0.3,0.4,0.5,0.2
								c0.3-0.2,0.6-0.4,0.7-0.7l-0.2,0.2c0.1-0.2,0.1-0.1,0.2-0.3c-0.2-0.2,0.1-0.5,0.1-0.8c0,0,0,0,0,0c-0.3,0.1-0.3-0.1-0.3-0.3
								l0.1-0.1c0.2-0.2-0.7,0.1-0.2-0.2c-0.4-0.4-0.8-1-1.1-1.6c-0.2,0-0.2-0.5-0.5-0.1c0.3-0.4,0.1-0.9,0-1c0,0,0.1,0,0.1,0
								c0.3-0.6-0.7-0.1-0.2-0.8c-0.5,0.2-0.2-0.6-0.8-0.5c0.1-0.1,0.2-0.2,0.2-0.2c-0.3-0.5-0.4-1.2-0.7-1.7
								c-0.3-0.1-0.4-0.4-0.5-0.6c0-0.1,0-0.1-0.1-0.2c-0.1-0.1-0.1-0.2-0.2-0.3c-0.1-0.2-0.3-0.3-0.5-0.4c-0.1-0.4-0.3-1.1-0.5-1.6
								c-0.2,0.1-0.5,0.2-0.7,0.4l0.1-0.1c-0.4,0.2-0.9,0.4-1.3,0.7c-0.2,0.1-0.4,0.3-0.5,0.4c-0.1,0.1-0.1,0.2-0.2,0.4
								c-0.5-0.4-0.6-0.1-0.9-0.1c-0.1,0.2-0.3,0.5-0.5,0.8c-0.3,0.4-0.5,0.9-0.4,1.4c-0.2,0-0.1,0.3-0.1,0.4c0,0.1,0,0.2-0.2,0.3
								c0.5,0.7,0.7,1.5,0.7,2.3c0,0.8-0.1,1.6-0.4,2.3l0,0c0.2,0.2,0.7,0.4,0.9,0.6c0,0-0.1,0-0.1,0c0,0.3-0.4,0.4-0.4,0.6
								c-0.1,0-0.1,0-0.1-0.1c0.1,0.1-0.1,0.2-0.1,0.2c-0.1,0-0.1,0-0.1,0.2l-0.1-0.1c0,0,0,0.2,0,0.2c-0.1-0.1-0.2-0.3-0.1-0.2
								c0,0,0,0-0.1,0c0,0-0.5,0.1-0.9,0c-0.5-0.1-1-0.2-1.5-0.4l-0.4-0.2c-0.1-0.1-0.3-0.1-0.3-0.1c-0.1,0-0.1,0-0.2-0.1l-0.1-0.2
								c-0.2-0.5-0.4-1.1-0.5-1.7l0.1,0.1l-0.3-0.4c0.1,0,0.1,0,0.1,0c0-0.6-0.5-1.2-0.6-1.7c0.1,0,0.2,0,0.2-0.1
								c-0.5-0.3,0.2-0.8-0.5-0.8c0,0,0.2-0.1,0.2-0.1c-0.2-0.4-0.2-0.4-0.3-0.6c-0.1-0.2-0.1-0.3-0.2-0.5c0.1,0,0.3,0,0.5-0.1
								l0.2,0l0.1,0l0.3,0c0.5-0.3,0.9-0.4,1.4-0.5c-0.1-0.9-0.1-1.9-0.5-2.5l0.1,0c-0.2-0.3-0.2-0.7-0.3-1c0-0.2,0-0.3-0.1-0.5
								c0-0.2,0.2-0.3,0.3-0.4l0.7-0.8c0.1-0.1,0.2-0.3,0.3-0.4c0.1-0.2,0.2-0.4,0.2-0.5c0.2-0.6,0.1-1,0.2-1.6l0.2,0
								c-0.2-0.5,0-1.1,0.2-1.6c0.2-0.5,0.4-0.9,0.3-1.5l0.2,0.2c-0.2-0.3,0.4-0.4-0.1-0.7c0,0,0.3,0,0.3,0c0.1-0.6,0.2-0.6,0.3-0.9
								c0.1-0.3,0.1-0.8-0.4-1l0.1,0c-0.2-0.1-0.4-0.3-0.4-0.5c0,0,0.1,0,0.1,0c0-0.3-0.1-0.6-0.4-0.8c-0.3-0.1-0.5-0.2-0.8-0.3
								c-0.3-0.1-0.5-0.2-0.7-0.3l0.2-0.2c-0.5,0.1-0.9-0.6-1.3-0.8l0.1-0.1l-0.3,0l0.2-0.2C149.2,35.2,148.6,35,148.2,34.5z"/>
							<path fill="#EF782C" d="M145.3,28.9C145.3,28.9,145.3,28.9,145.3,28.9C145.4,28.9,145.4,28.9,145.3,28.9z"/>
							<path fill="#EF782C" d="M163.1,58.3C163.1,58.3,163.1,58.4,163.1,58.3C163.2,58.4,163.1,58.3,163.1,58.3z"/>
						</g>
					</g>
				</g>
			</g>
		</g>
		<g>
			<g>
				<path fill="#EDEDED" d="M154,28.8c2.2,7,3.5,14.5,3.5,22.3c0,40.2-32.4,72.7-72.3,72.7c-23.6,0-44.6-11.4-57.8-28.9
					c9.4,29.3,36.6,50.5,68.9,50.5c39.9,0,72.3-32.6,72.3-72.7C168.5,56.1,163.1,41,154,28.8z"/>
			</g>
		</g>
		<g>
			<path fill="#F6F6F6" d="M94,27.4l2.1-3.3c0,0-5.4-0.8-5.8-3.7c-0.4-2.9-4.9-4.1-4.9-4.1s-2.5,1.2-0.8,2.1
				C86.2,19.1,94.5,25.3,94,27.4z"/>
			<g>
				<g>
					<g>
						<g>
							<polygon fill="#EF782C" points="95.4,27.6 95.4,27.6 95.2,27.5 							"/>
							<path fill="#EF782C" d="M94.9,27c0,0-0.1,0-0.1,0c0,0,0.2,0,0.3,0.1c0.1,0.1,0.3,0.2,0.3,0.2c0.2-0.1,0-0.2-0.2-0.2
								C95,27.1,94.8,27.1,94.9,27z"/>
							<path fill="#EF782C" d="M95,26.9c0.1-0.1-0.2-0.1-0.3-0.1C94.9,26.8,94.7,27,95,26.9z"/>
							<path fill="#EF782C" d="M91.1,22.2C91.1,22.2,91.1,22.2,91.1,22.2C91.1,22.2,91.1,22.2,91.1,22.2z"/>
							<path fill="#EF782C" d="M89.4,22l-0.2,0.2c0.5-0.1,0.4,0.4,0.8,0.4l-0.1,0c0.5,0.5,1.2,0.7,1.9,1.1c0,0-0.1,0.1-0.1,0.1
								c0.1,0,0.2-0.1,0.2-0.1c0,0-0.1,0.1-0.1,0.1c-0.2,0.4,0.5,0.2,0.3,0.4c0.1,0,0.2-0.1,0.2-0.2c0.5,0.3,0.9,0.7,1.5,1.1
								c0,0.1-0.1,0.1-0.2,0.2c0.8,0.1,1,0.7,1.1,1.4c0.2,0,0.1-0.1,0.3-0.1c0.1-0.2-0.1-0.2-0.2-0.3c-0.1-0.1-0.2-0.1-0.1-0.3
								l0.1,0c0-0.2-0.4,0.1-0.2-0.1c0.1-0.1,0.2-0.1,0.2-0.1c-0.2-0.2-0.2-0.5-0.7-0.5c0.2-0.2-0.2-0.2,0-0.5c-0.1,0-0.2,0-0.3,0.1
								c-0.4-0.8-1.2-1.2-1.8-1.8c-0.7,0.2-0.5-0.7-1-0.8c0,0,0,0,0,0c-0.2,0-0.4-0.1-0.5-0.2l-0.3,0.1c-0.4-1.1-1.5-1.5-2.3-2.3
								c-0.9-0.9-1.5-1.9-3-1.8c0-0.1,0-0.1,0.1-0.1c-0.1,0-0.2-0.1-0.3-0.1c0,0-0.1-0.1-0.1-0.1c0,0,0-0.1,0-0.1c0,0,0,0,0,0
								c0,0-0.1,0-0.1,0.1l0,0c0,0,0,0,0,0c0,0,0.1,0,0,0c0,0,0-0.1,0-0.1c0-0.1,0.1-0.2,0.3-0.3c0.3-0.2,0.4-0.3,0.6-0.6
								c0,0,0.1,0,0.1-0.1c0.4,0.2,0.8,0.3,1.3,0.5c0.5,0.2,0.9,0.4,1.4,0.6l-0.1,0.1c0.4,0.1,0.7,0.4,0.8,0.8
								c0.2,0.3,0.3,0.7,0.6,0.9c0.1,0.4,0.3,0.6,0.6,1c0.3,0.4,0.5,0.7,0.6,1.1c-0.1,0.4,0.3,0.5,0.6,0.6c0.3,0.1,0.6,0.1,0.7,0.5
								c0.2,0.7,0.6,1,1.1,1.1c0.3,0,0.5,0,0.8,0c0.3,0,0.5-0.1,0.9-0.2c0.4,0.3,0.9,0.3,1.7,0.3l0.1,0c0,0,0,0.1,0,0.1l-0.1,0.2
								c-0.1,0.1-0.1,0.2-0.2,0.4c-0.2,0.2-0.4,0.5-0.7,0.7c0.1,0.2-0.2,0.5-0.4,0.5c-0.3,0.1-0.6,0.2-0.6,0.4l0.1,0.1
								c-0.5-0.1,0.4,0.7-0.3,0.4l0,0c-0.3-0.1,0.6,0.6,0.2,0.4l0.1,0.1c0,0.1-0.2-0.1-0.3-0.1c0,0,0.3,0.2,0.1,0.2
								c-0.6-0.4,0,0.3-0.7-0.1c0,0-0.3-0.1-0.4-0.3c-0.1,0-0.2,0.2,0.2,0.3c0.3,0.2,0.5,0.4,0.8,0.5l-0.2-0.2
								c0.2,0.1,0.1,0,0.3,0.1c0.1-0.1,0.4,0.1,0.6,0.1c0,0,0,0,0,0c-0.2-0.2,0-0.2,0-0.2l0.1,0.1c0.3,0.1-0.4-0.5,0-0.1
								c0-0.3,0.2-0.6,0.4-0.9c-0.1-0.1,0.1-0.2-0.2-0.3c0.2,0.1,0.3,0.1,0.5,0c0.1-0.1,0.2-0.2,0.3-0.3c0,0,0.1,0,0,0.1
								c0.4,0,0.3-0.2,0.2-0.3c-0.1-0.1-0.1-0.2,0.3-0.3c-0.3-0.1-0.1-0.2,0-0.3c0.1-0.1,0.2-0.3-0.1-0.3c0.2,0,0.3-0.1,0.4-0.1
								c0.3-0.4,0.9-1,1.2-1.5c-0.1,0-0.1-0.1-0.1-0.1c-0.4,0-0.5-0.3-1.4,0c-0.1-0.1-0.4-0.4-1-0.3l0.1-0.1
								c-0.5-0.1-1.1-0.2-1.4,0.1c0.1-0.6,0-0.5,0-0.7c-0.2,0.2-0.5,0-0.8,0.2c0.1-0.3-0.2,0-0.1-0.3c-0.8,0.5-1.5-0.2-1.5-1l0,0
								c-0.2,0.1-0.6,0.4-0.8,0.5c0,0,0.1-0.1,0.1-0.1c-0.1,0,0.1-0.4,0-0.4c0.1,0,0.1,0,0.1-0.1c-0.2,0,0.1-0.3-0.1-0.2l0.1-0.1
								l-0.2,0c0.1-0.1,0.3-0.1,0.3-0.1c-0.1-0.2-0.1-0.3-0.2-0.4c-0.1-0.3-0.3-0.7-0.5-1c-0.4-0.6-1-1-1.4-1.5l0.1-0.1
								c0,0-0.1,0-0.2,0c-0.1,0-0.2,0-0.2,0c0,0,0.1-0.1,0.1-0.1c-0.1-0.4-0.6-0.3-0.8-0.5c0-0.1,0.1-0.1,0.1-0.2
								c-0.4,0.2-0.1-0.6-0.5,0c0,0,0.1-0.2,0.1-0.2c-0.7-0.1-1.2-0.4-1.7-0.7c-0.4,0.3-0.9,0-1.3-0.1c-0.2,0.1-0.4,0.3-0.5,0.5
								l-0.1-0.1c-0.2,0.4-0.4,0.6-0.7,0.8c-0.1,0.1-0.3,0.3-0.3,0.5c0,0.2,0.1,0.5,0.2,0.6c0.2,0.3,0.5,0.2,0.7,0.3l-0.1,0.1
								c0.7-0.3,0.5,1,1.3,0.7l-0.2,0.2c0.3-0.2,0.2,0.3,0.5-0.2l0,0.2c0.7-0.4,0.3,0.6,0.9,0.5l-0.1,0.1c0.2,0,0.3,0,0.3,0.1
								c0,0,0,0-0.1,0.1c-0.1,0.6,0.6,0.4,0.9,0.6L88,21.1c0.3-0.1,0.4,0.3,0.7,0.3l-0.1,0.1l0.2-0.1l-0.2,0.2
								C88.8,21.8,89.2,21.8,89.4,22z"/>
							<path fill="#EF782C" d="M91.8,23.8C91.8,23.8,91.8,23.8,91.8,23.8C91.8,23.8,91.8,23.8,91.8,23.8z"/>
							<path fill="#EF782C" d="M95.2,27.6C95.2,27.6,95.2,27.6,95.2,27.6C95.2,27.7,95.2,27.6,95.2,27.6z"/>
						</g>
					</g>
				</g>
			</g>
		</g>
		<g>
			<path fill="#F6F6F6" d="M91.2,10c-2.9,0-2.1-2.1-4.1-2.1s1.2-2.5-2.1,0s-3.3,2.5-3.3,2.5s-4.5,4.1-3.3,4.6c1.2,0.4,1.2,0.8,2.9,0
				s-2.9,0.4,1.6-0.8S91.6,10,91.2,10z"/>
			<g>
				<g>
					<g>
						<g>
							<path fill="#EF782C" d="M91.2,10.1C91.2,10.1,91.1,10,91.2,10.1C91.1,10,91.2,10,91.2,10.1C91.1,10,91.1,10,91.2,10.1
								C91.1,10,91.1,10,91.2,10.1C91.1,10,91.2,10.1,91.2,10.1z"/>
							<path fill="#EF782C" d="M90.5,9.5C90.5,9.6,90.5,9.6,90.5,9.5c0.1,0.1,0,0-0.1-0.1c0,0,0-0.1,0,0L90.5,9.5
								c0.1,0,0.1,0.1,0.2,0.1c0.1,0.1,0.2,0.2,0.2,0.2C90.7,9.7,90.6,9.6,90.5,9.5c-0.1-0.1-0.3-0.4-0.2-0.2
								C90.4,9.4,90.5,9.6,90.5,9.5z"/>
							<path fill="#EF782C" d="M90.4,9.5c-0.1-0.1,0,0.1,0.1,0.2C90.4,9.6,90.6,9.7,90.4,9.5z"/>
							<path fill="#EF782C" d="M85.9,12.2C85.9,12.2,85.9,12.2,85.9,12.2C85.9,12.2,85.9,12.2,85.9,12.2z"/>
							<path fill="#EF782C" d="M84.9,13.6l0.1,0.2c0.1-0.5,0.5-0.2,0.7-0.5l0,0.1c0.7-0.2,1.2-0.8,1.7-1.3c0,0,0,0.1,0,0.1
								c0-0.1,0-0.2,0-0.2c0,0,0,0.1,0,0.1c0.3,0.3,0.3-0.4,0.5-0.2c0-0.1,0-0.2-0.1-0.3c0.4-0.3,0.9-0.7,1.3-1.2
								c0,0,0.1,0.1,0.2,0.2c0.1-0.8,0.6-0.8,1-1c-0.1-0.1-0.1-0.1-0.2-0.3c-0.2-0.1,0,0.5-0.2,0.3l-0.1-0.1c-0.1,0,0.2,0.3,0,0.2
								c-0.1-0.1-0.1-0.2-0.1-0.2c-0.1,0.2-0.4,0.2-0.4,0.6c-0.2-0.3-0.2,0.1-0.4-0.1c0,0.1,0,0.1,0,0.3c-0.7,0.2-1.3,0.9-2,1.2
								c-0.1,0.7-0.8,0.2-1.1,0.6c0,0,0,0,0-0.1c-0.1,0.2-0.2,0.4-0.4,0.3l0,0.3c-1.2-0.1-2,0.6-3.1,0.6c-0.6,0.1-2.1,0.2-2.4,0.7
								c0-0.1,0.1-0.2,0.3-0.3c0.1,0,0.2-0.1,0.3-0.1c0,0,0.1,0,0.1,0c0,0,0.1,0,0.1,0c0,0-0.1,0,0.1,0.2l0.1,0.1l0,0l0,0l0,0
								c-0.5-0.5,0.7,0.6,0.6,0.5l0,0c0,0-0.1-0.1-0.1-0.1c0,0-0.1-0.1-0.1-0.1l-0.2-0.2C81,14,81,14.1,81,14l0,0c0,0,0,0,0,0
								c0,0-0.1,0.1-0.1,0.2c-0.1,0.1-0.2,0.2-0.3,0.4c0-0.1,0-0.1,0-0.1c-0.2,0.2-0.3,0-0.5,0.2l0-0.1c-0.2,0.3-0.5,0.2-0.7,0.1
								c-0.1-0.1-0.3-0.1-0.5-0.2c-0.2-0.1-0.2-0.2-0.4-0.3c0.2-0.4,0.5-0.7,0.7-1c0.3-0.4,0.6-0.8,0.9-1.2l0.1,0.1
								c0.4-0.7,1.4-0.9,1.8-1.5c0.8-0.3,0.9-1.6,1.8-1.8c0.8,0.2,0.5-1.3,1.3-1c0.7,0.1,1.1-0.1,1.4-0.5c0,0,0.1-0.1,0.1-0.1
								c0,0,0,0,0,0c0,0-0.1-0.3-0.1-0.3c0,0,0-0.1,0,0l0,0c-0.1,0,0.3-0.1-0.3,0.1l0,0l0,0l0,0l0,0c0,0,0,0,0,0.1
								c0,0.1,0,0.2,0.1,0.3c0,0.1,0.1,0.2,0.2,0.3c0.1,0.1,0.3,0.1,0.4,0.1c0.1,0.2,0.3,0.1,0.5,0.1c0.2,0,0.4,0,0.7,0
								c0.6,0.1,0.9,0.6,0.9,1.1c0.3,0,0.3,0.2,0.4,0.5c0.1,0.3,0.2,0.6,0.5,0.6l0-0.2c0,0.5,0.5-0.5,0.5,0.2l0,0
								c0,0.4,0.3-0.8,0.3-0.4l0-0.2c0.1,0,0,0.2,0.1,0.3c0,0,0-0.3,0.1-0.2c0,0.7,0.3-0.1,0.2,0.7c-0.1,0,0.1,0.3-0.1,0.5
								c0,0.1,0.3,0.1,0.2-0.3c0-0.4,0.1-0.7,0-1l0,0.3c0-0.3,0-0.1,0-0.3c-0.1,0-0.1-0.4-0.2-0.6c0,0,0,0,0,0
								C90.8,9.2,90.7,9,90.7,9l0-0.1c0-0.3-0.2,0.6-0.1,0.1c-0.2,0.1-0.4,0-0.6,0c-0.1,0.2-0.1-0.1-0.3,0.3
								c0.2-0.4,0.2-0.6,0.1-0.6c0,0,0.1-0.1,0.1,0c0.4-0.5-0.5,0.3,0-0.3c-0.4,0.3,0-0.3-0.6,0C89.4,8.1,89.5,8,89.6,8
								c-0.2-0.2-0.4-0.8-0.9-1.1c-0.3,0.1-0.5,0-0.6-0.1c-0.1,0-0.2-0.1-0.3,0.2c0-0.1,0.2-0.4-0.1-0.1l0.1-0.1
								c-0.2,0.1-0.4,0.1-0.6,0.2c0.7-0.4,0.5-0.3,0.7-0.4c-0.1,0.1-0.2,0.1-0.2,0l0,0c0,0,0,0,0,0l0,0l0,0c0-0.1,0-0.2-0.1-0.2
								c-0.1-0.2-0.2-0.3-0.4-0.5c-0.1-0.1-0.4-0.2-0.4-0.2c-0.1,0-0.1,0-0.2,0c-0.1,0-0.2,0-0.4,0c-0.2,0-0.1,0-0.2,0l-0.1,0
								l-0.1,0.1l0,0c-0.1,0.1-0.1,0.2-0.2,0.3c-0.2-0.2-0.1,0.2-0.4-0.1c-0.1,1-0.9,1.3-1.8,1.3l0,0c0.1,0.2,0.2,0.7,0.3,0.9
								c0,0-0.1-0.1,0-0.1c-0.1,0.1-0.4-0.1-0.5,0c0-0.1,0-0.1-0.1-0.1c0,0.2-0.4-0.1-0.3,0.2l-0.1-0.1l0,0.2
								c-0.1-0.1-0.2-0.3-0.1-0.3c-0.5,0.3-0.9,0.7-1.2,1.2l-0.3,0.3c-0.2,0.2-0.2,0.3-0.3,0.4c-0.2,0.2-0.4,0.5-0.6,0.6l-0.1-0.1
								l0,0.3c0,0-0.1-0.1-0.1-0.1c-0.4,0.1-0.3,0.5-0.6,0.7c0,0-0.1-0.2-0.2-0.2c0.1,0.4-0.6-0.1-0.1,0.5c0,0-0.2-0.1-0.2-0.2
								c-0.1,0.3-0.3,0.6-0.5,0.8l-0.8,1c0.2,0.3,0.1,0.6,0,0.8c0,0.1-0.1,0.3,0,0.4c0,0.1,0.2,0.3,0.4,0.3l-0.1,0.1
								c0.4,0,0.6,0.1,0.8,0.2c0.4,0.2,0.8,0.5,1.3,0.3c0.3,0,0.5-0.3,0.7-0.4l0.1,0.1c0.1-0.4,0.3-0.3,0.7-0.4c0.1-0.1,0.1-0.1,0,0
								c0,0-0.1,0-0.1,0c-0.1,0-0.2,0-0.5-0.1l0.3,0.1c-0.2-0.1-0.3-0.1-0.3-0.1c0,0,0-0.1-0.3-0.2c0,0,0.3,0.1,0.3,0.1
								c-0.3-0.3,0-0.3,0.3-0.3c0.3,0,0.5,0.2,0.6-0.1l0,0.1c0-0.1,0.1-0.2,0.3-0.1c0,0,0,0.1,0,0.1c0.5,0.4,0.7-0.2,1-0.3l0,0.3
								c0.1-0.3,0.5-0.2,0.6-0.4l0,0.1l0.1-0.2l0.1,0.2C84.4,14.1,84.6,13.8,84.9,13.6z"/>
							<path fill="#EF782C" d="M87.5,12.2C87.5,12.2,87.5,12.2,87.5,12.2C87.5,12.2,87.5,12.2,87.5,12.2z"/>
							<path fill="#EF782C" d="M90.9,8.8C90.9,8.9,90.9,8.9,90.9,8.8C90.9,8.8,90.9,8.9,90.9,8.8z"/>
						</g>
					</g>
				</g>
			</g>
		</g>
		<g>
			<path fill="#F6F6F6" d="M147,49.3c1.2-0.4,0.7-1.8-1.1-2.8c-1.8-1.1-2.5-2.5-3.2-4.2s0-2.8-0.7-1.8c-0.7,1.1-0.4,3.2-0.4,3.2
				s-2.8,3.9-0.7,4.2c2.1,0.4,2.1,0.4,2.1,0.4S143.9,50.4,147,49.3z"/>
			<g>
				<g>
					<g>
						<g>
							<polygon fill="#EF782C" points="146.6,48.1 146.6,48 146.6,48.2 							"/>
							<path fill="#EF782C" d="M146.6,48.6c0,0,0,0.1,0,0.1l-0.1-0.6C146.4,47.8,146.7,48.8,146.6,48.6z"/>
							<path fill="#EF782C" d="M146.5,48.5c-0.1-0.1,0,0.1,0,0.2C146.5,48.5,146.6,48.8,146.5,48.5z"/>
							<path fill="#EF782C" d="M143.3,47.6C143.4,47.6,143.4,47.6,143.3,47.6C143.4,47.6,143.4,47.6,143.3,47.6z"/>
							<path fill="#EF782C" d="M141.9,48.2l0,0.2c0.3-0.4,0.4,0.1,0.7-0.1l0,0.1c0.1,0,0.2,0,0.3,0c0.1,0,0.1,0,0.2,0
								c0.1,0,0.1,0,0.2,0c0.1,0.1,0.2,0.1,0.3,0.2c0.2,0.1,0.3,0.2,0.5,0.2c0,0-0.1,0.1-0.1,0.1c0.1,0,0.2-0.1,0.2-0.1
								c0,0-0.1,0.1-0.1,0.1c-0.1,0.4,0.4,0,0.3,0.3c0,0,0.1-0.2,0.2-0.3c0.2,0.1,0.4,0.1,0.6,0c0.2,0,0.4-0.1,0.6-0.3
								c0,0,0,0.1,0,0.3c0.3-0.6,0.6-0.4,1-0.4c0-0.2-0.1-0.2-0.1-0.3c-0.1-0.2-0.1,0.4-0.2,0.2l0-0.2c-0.1-0.1,0.1,0.4,0,0.2
								c0-0.1,0-0.2,0-0.2c-0.1,0.1-0.3,0-0.4,0.3c0-0.3-0.1,0-0.2-0.3c0,0.1-0.1,0.1-0.1,0.3c-0.2,0-0.4-0.1-0.6-0.1
								c-0.2,0-0.4-0.1-0.5-0.2c-0.2,0.1-0.3,0.1-0.4,0c-0.1-0.2-0.1-0.3-0.3-0.5c0-0.1-0.2-0.2-0.3-0.2c0,0,0,0,0-0.1
								c-0.1,0-0.2,0-0.3,0c-0.1,0-0.3,0-0.4-0.1c0,0-0.2,0.2-0.2,0.2c-0.2-0.2-0.4-0.3-0.5-0.4c-0.1,0-0.2-0.1-0.3-0.1l-0.2,0
								c-0.2,0-0.5-0.1-0.4-0.4c0-0.1,0.1-0.2,0.2-0.3c0,0,0.1-0.1,0.1-0.1c0,0,0.1-0.1,0.1-0.2c0.2-0.3,0.2-0.7,0.1-1.3
								c0.1,0,0.1,0,0.1,0.1c0-0.3,0.4-0.4,0.3-0.6l0,0c-0.1-0.2,0-0.3,0-0.4c0-0.1,0-0.2,0-0.3c0-0.2,0-0.3-0.2-1.1
								c0.1-0.5,0.1-1.3,0.6-2.4l0,0.4c0.1-0.2,0-0.1,0.1-0.1l0,0.2l0,0.8c0,0.6,0.1,1,0.1,1c0.1,0.5,0.2,0.3,0.3,0.3
								c0.1,0,0.2,0,0.3,0.1c0.1,0.1,0.1,0.3,0.2,0.5c-0.1,0.5,0.1,0.4,0.3,0.5c0.3,0.1,0.5,0.2,0.4,0.5c-0.2,0.6,0.1,1,0.4,1.2
								c0.4,0.2,0.9,0.2,1.3,0.2c0.2,0.3,0.6,0.4,0.9,0.6c0.3,0.2,0.7,0.4,0.6,0.9c0.3,0,0.3,0.3,0.2,0.5c-0.1,0.2-0.3,0.4-0.2,0.5
								l0.2,0c-0.2,0-0.1,0.1,0,0.2c0.1,0.1,0.2,0.2-0.2,0.1l0,0c-0.2-0.1,0,0.1,0.1,0.2c0.1,0.2,0.2,0.3,0.1,0.2l0.1,0.1
								c-0.1,0.1-0.1-0.1-0.2-0.1c0,0,0.2,0.3,0.1,0.2c-0.4-0.6-0.1,0.3-0.5-0.5c0,0-0.2-0.3-0.2-0.4c0-0.1-0.1,0,0,0.3
								c0.1,0.3,0.1,0.7,0.3,0.9l-0.1-0.3c0.1,0.2,0.1,0.1,0.2,0.3c0.2,0,0.3,0.3,0.5,0.4c0,0,0,0,0,0c-0.1-0.3,0.1-0.2,0.2-0.3
								l0.1,0.1c0.3,0.2-0.2-0.6,0.1-0.2c0.3-0.5,0.4-1.1,0.3-1.6c-0.2,0-0.1-0.3-0.4-0.1c0.4-0.2,0.4-0.6,0.3-0.6c0,0,0.1,0,0.1,0
								c0.4-0.5-0.6,0.1-0.1-0.5c-0.4,0.3-0.1-0.4-0.6-0.1c0.1-0.1,0.1-0.2,0.2-0.2c-0.2-0.2-0.3-0.6-0.5-0.8
								c-0.4,0.2-0.3-0.5-0.8-0.1c0-0.2-0.1-0.5-0.3-0.4l0.1-0.1c-0.1-0.1-0.3-0.1-0.6,0.1c0.3-0.5,0.2-0.4,0.3-0.6
								c-0.2,0.1-0.3,0-0.6,0c0.2-0.2-0.2,0,0.1-0.3c-0.9,0.2-1-0.4-0.9-1.4l0,0c-0.2,0-0.6,0.2-0.9,0.4c0,0,0.1-0.1,0.1-0.1
								c-0.1-0.1,0.1-0.5,0-0.6c0-0.1,0-0.1,0.1-0.1c-0.1,0-0.1-0.1-0.1-0.3c0-0.2,0-0.4-0.1-0.3l0.1-0.2l-0.1,0
								c0.1-0.2,0.2-0.5,0.2-0.3c0-0.3-0.1-0.6-0.2-0.9c0-0.1-0.1-0.3-0.1-0.4l-0.2-0.2c-0.1-0.1-0.2-0.2-0.3-0.3l-0.1-0.1
								c0,0-0.1,0-0.1,0c-0.3,0.2-0.4,0.2-0.5-0.1l0-0.2l0,0.2c0-0.1,0-0.1,0-0.2c0-0.2,0-0.2,0-0.2c0,0,0,0,0,0c0,0,0,0-0.1,0
								c0-0.1,0-0.2,0-0.3c-0.1,0.4-0.2-0.4-0.2,0.5c0,0,0-0.2,0-0.3c-0.3,0.5-0.5,0.9-0.7,1.1c0.1,0.7,0.1,0.9,0,1.1
								c0,0.2-0.1,0.3,0.1,1l-0.1-0.2c0.2,0.7,0.2,0.9,0.2,1.1c-0.1,0.1-0.3,0.5-0.5,0.8c-0.2,0.2-0.1,0.4-0.2,0.6l-0.1-0.1
								c0.4,0.6-0.9,0.5-0.4,1.1l-0.2-0.1c0.3,0.2-0.2,0.2,0.4,0.4l-0.2,0c0.3,0.3,0.2,0.3,0.1,0.4c-0.1,0.1-0.3,0.3-0.1,0.4l-0.1,0
								c0.1,0.1,0.2,0.1,0.1,0.2c0,0-0.1,0-0.1,0c-0.3,0.2-0.2,0.4-0.1,0.5c0.1,0.1,0.2,0.1,0.2,0.1c0.1,0,0.2,0,0.2,0.1l-0.2,0.2
								c0.2,0,0.3,0,0.4,0c0.1,0,0.2,0.1,0.3,0.1l-0.1,0.1l0.2-0.1l-0.1,0.2c0,0,0.1,0,0.1,0C141.5,48.4,141.7,48.2,141.9,48.2z"/>
							<path fill="#EF782C" d="M143.9,49C143.9,49,143.9,49,143.9,49C143.9,49,143.9,49,143.9,49z"/>
							<path fill="#EF782C" d="M147.9,50.2C147.9,50.2,147.8,50.2,147.9,50.2C147.8,50.2,147.9,50.2,147.9,50.2z"/>
						</g>
					</g>
				</g>
			</g>
		</g>
	</g>
	<g>
		<g>
			<path fill="#EF782C" d="M109.7,86.6l13.1-21.8c0,0,2.4-3.3,8.5-1.2c9.3,3.1,12.6,11.2,12.6,11.2l-15,22.7L109.7,86.6z"/>
			<g>
				<g>
					<g>
						<g>
							<polygon fill="#EF782C" points="109,87.8 109,87.9 109.2,87.8 							"/>
							<path fill="#EF782C" d="M109.9,87.8c0,0,0-0.1,0-0.1l-0.7,0.3C109.3,88.3,109.9,87.5,109.9,87.8z"/>
							<path fill="#EF782C" d="M110,87.9c0.1,0.2,0.3,0,0.4-0.1C110.3,88,110.1,87.6,110,87.9z"/>
							<path fill="#EF782C" d="M124.4,95.8C124.3,95.8,124.3,95.8,124.4,95.8C124.3,95.8,124.3,95.8,124.4,95.8z"/>
							<path fill="#EF782C" d="M128.5,97l0-0.2c-0.3,0.1-0.6-0.1-1-0.4c-0.4-0.2-0.7-0.5-1.1-0.6l0.1,0c-1.8-1.1-3.7-1.8-5.6-2.6
								c0,0,0.1-0.1,0.1-0.1c-0.1,0-0.3,0.1-0.4,0c0-0.1,0.1-0.1,0.1-0.1c-0.2-0.5-1.3-0.4-1.4-0.8c-0.1,0-0.3,0.1-0.2,0.2
								c-1.5-0.7-3.1-1.5-4.7-2.1c0-0.1,0-0.2,0.1-0.3c-1.6-0.2-2.8-1.1-4-1.9c-0.1,0.1,0.1,0.2-0.2,0.3c0.3,0.4,0.9,0.1,1.2,0.5
								l-0.1,0.1c0.2,0.2,0.2-0.3,0.4,0c0.1,0.2-0.1,0.2-0.1,0.2c0.6,0.3,1.2,0.7,1.9,0.7c0,0.4,0.6,0.4,0.7,0.8
								c0.2,0,0.3,0.1,0.5-0.1c1.9,1.3,4.2,2.2,6.3,3.4c1.3,0,2.1,1.3,3.3,1.8c0,0,0,0,0,0.1c0.5,0.1,1,0.3,1.5,0.6l0.5,0
								c0.4,0.3,0.7,0.6,1.1,0.8c0.5,0.3,1.1,0.7,1.7,1.1c0.4-0.6,0.9-1.2,1.3-1.9l0.9-1.4c0.6-0.9,1.2-1.8,1.9-2.7
								c2.1-2.9,4.2-5.3,5.5-8.6c0,0,0.1,0,0.1,0.1c0.4-0.9,1.1-1.5,1.6-2.4l0.1,0c0.4-1.1,1.1-2.1,1.8-3.1c0.3-0.5,0.7-1,1-1.5
								c0.3-0.5,0.5-1,0.8-1.6l0.2-0.2c0,0,0.1-0.1,0.1-0.1l-0.1-0.1c-0.1-0.2-0.2-0.4-0.3-0.6c-0.2-0.4-0.3-0.7-0.5-1
								c-0.4-0.6-0.8-1.2-1.3-1.8c-0.9-1.2-2-2.3-3.1-3.2L139,68c-1.9-1.4-3.5-3.2-5.8-4c-0.5-0.3-1.1-0.5-1.7-0.7
								c-0.6-0.1-1.3-0.2-1.9-0.3c-1.3-0.1-2.5,0-3.7,0c-0.4-0.1-0.8,0-1.2,0.2c-0.4,0.2-0.7,0.5-1.1,0.8c-0.3,0.3-0.6,0.6-0.8,0.9
								c-0.2,0.3-0.4,0.7-0.7,0.9c-2.3,2-3.2,4.7-4.2,7.5c-1.7,2.1-2.3,4.8-4.2,6.7c-0.2,1.3-1.8,1.9-2.4,3.1l0.2,0
								c-0.7,0.2,0,1.3-0.8,1.2l0-0.1c-0.4,0,0.4,0.9,0,0.9l0.1,0.1c-0.1,0.3-0.2-0.1-0.4,0.1c0,0.1,0.3,0.2,0.1,0.3
								c-0.6-0.3-0.3,0.7-1,0.3c0.1-0.1-0.4,0.1-0.4-0.3c-0.1,0.1-0.4,0.5,0,0.7c0.3,0.2,0.5,0.6,0.9,0.4l-0.2-0.2
								c0.3,0,0.2,0,0.3,0.1c0.2-0.3,0.6-0.2,0.9-0.4c0,0,0,0,0,0c-0.2-0.3,0.1-0.5,0.3-0.6l0.2,0c0.3,0.1-0.3-0.7,0.1-0.3
								c0.3-0.8,0.8-1.6,1.3-2.4c-0.1-0.2,0.4-0.6,0-0.6c0.5,0,1-0.5,1.1-0.8c0,0,0.1,0.1,0,0.1c0.8-0.1-0.1-0.8,0.7-0.8
								c-0.4-0.3,0.6-0.7,0.2-1.2c0.1,0,0.2,0,0.3,0.1c0.5-0.7,1.1-1.4,1.5-2.1c-0.1-0.8,0.9-1.2,0.7-1.9c0.3-0.3,0.9-0.8,1-1.4
								l0,0.1c0.3-0.6,0.8-1.4,0.7-2c0.6,0.1,0.7-0.2,1-0.4c0-0.5,0.6-1.3,0.7-2c0.3,0,0.2-0.6,0.6-0.4c0.2-1,0.7-2.1,1.3-3
								c0.2-0.2,0.3-0.5,0.5-0.7l0.3-0.3l0.1-0.2c0,0,0,0,0.1,0c0.3-0.2,0.8-0.4,1.2-0.4l0,0c0.1-0.3,0.1-0.8,0.3-1.2
								c0,0,0.1,0.1,0,0.1c0.3-0.2,0.7,0.1,1.1-0.1c0,0.1,0,0.1,0,0.1c0.3-0.2,0.7,0.2,1-0.1l0,0.1l0.2-0.2c0,0.1,0,0.3-0.1,0.3
								c1.4,0.1,3,0.2,4.5,0.7c1.6,0.4,3.1,1.1,4.5,2.1l-0.2,0l0.7,0.2c0,0.1-0.1,0.1-0.1,0.1c0.5,0.7,1.4,0.9,2,1.5
								c0,0-0.2,0.1-0.2,0.2c0.7,0.1,0.4,1,1.1,0.7c0,0-0.1,0.2-0.2,0.2c1.3,1,2.4,2.4,3.1,3.8c0.3,0.2,0.6,0.5,0.8,0.8
								c0.1,0.1,0.2,0.2,0.2,0.3l0.1,0.2c0,0.1-0.1,0.1-0.1,0.2l-0.2,0.3c-0.1,0.2-0.2,0.3-0.3,0.5c-0.2,0.3-0.3,0.7-0.4,1.1
								l-0.1-0.1c-0.7,1.8-2.2,3.3-3.2,5c-0.5,0.7-0.7,1.2-1.1,1.9l-0.1-0.1c-0.3,1.5-2.1,2.1-2.3,3.7l-0.1-0.2
								c0.2,0.4-0.6,0.7,0,0.9l-0.3,0.1c0.1,1.2-1.3,1.3-1.5,2.6l-0.1-0.1c-0.1,0.3-0.2,0.7-0.5,0.8c0,0,0-0.1,0-0.1
								c-1,0.5-1.1,1.8-1.7,2.7l-0.1-0.2c0,0.6-0.8,1.2-1,1.9l-0.1-0.1l0,0.4l-0.2-0.1c-0.4,0.6-0.5,1-0.9,1.6
								C128.7,97.2,128.6,97.1,128.5,97z"/>
							<path fill="#EF782C" d="M120.7,93C120.7,93,120.7,93,120.7,93C120.7,93,120.7,93,120.7,93z"/>
							<path fill="#EF782C" d="M111.2,86.3C111.2,86.3,111.1,86.3,111.2,86.3C111.2,86.3,111.2,86.3,111.2,86.3z"/>
						</g>
					</g>
				</g>
			</g>
		</g>
		<g>
			<path fill="#EF782C" d="M130.4,61.1c0,0,9.1,1.5,13,8.2c3.9,6.7,9.7,16.6,9.7,16.6l-6.1,3.8l22.9,1.7l9.6-21.1l-7,4.1l-5.8-10.1
				c0,0,0.2-2.7-10.8-2.7c-5.9,0-12.9-0.2-18-0.3"/>
			<g>
				<g>
					<g>
						<g>
							<polygon fill="#EF782C" points="137.9,62.6 137.9,62.7 138.1,62.5 							"/>
							<path fill="#EF782C" d="M139,62.2c0,0,0-0.1,0-0.1l-0.7,0.6C138.6,63,138.8,62,139,62.2z"/>
							<path fill="#EF782C" d="M139.2,62.3c0.3,0.1,0.4-0.1,0.4-0.2C139.5,62.2,139.1,62,139.2,62.3z"/>
							<path fill="#EF782C" d="M161.3,62.7C161.3,62.7,161.3,62.7,161.3,62.7C161.3,62.7,161.3,62.7,161.3,62.7z"/>
							<path fill="#EF782C" d="M166.7,64.1l0.2,0c-0.2-0.3-0.5-0.5-0.7-0.7c-0.3-0.2-0.5-0.3-0.8-0.5c-0.3-0.2-0.5-0.3-0.8-0.4
								c-0.3-0.1-0.6-0.2-0.9-0.2l0.1-0.1c-0.7-0.2-1.4-0.4-2.1-0.4c-0.7-0.1-1.4-0.1-2.1-0.1c-1.4,0-2.8,0.1-4.2,0.2
								c0,0,0.1-0.1,0.1-0.1c-0.1,0.1-0.3,0.2-0.4,0.2c0-0.1,0-0.1,0.1-0.1c-0.6-0.4-1.8,0.2-2.2-0.1c-0.2,0-0.2,0.2-0.2,0.3
								c-2.3,0.1-4.7,0.1-7,0.3c-0.1-0.1-0.1-0.2-0.1-0.3c-2,0.6-4,0.3-6,0.2c-0.1,0.2,0.2,0.2,0,0.3c0.6,0.2,1.2-0.4,1.8-0.1
								l-0.1,0.1c0.4,0.1,0.1-0.4,0.5-0.2c0.2,0.1,0,0.2,0,0.2c0.9,0,1.9,0.1,2.7-0.2c0.2,0.3,1,0,1.3,0.3c0.2-0.1,0.5-0.1,0.6-0.3
								c3.2,0.2,6.4,0,9.7,0c1.5-0.6,3.3,0.2,5,0.2c0,0,0,0,0,0.1c0.6-0.1,1.4,0,2.1,0.2l0.6-0.1l0.7,0.4c0.2,0.1,0.5,0.2,0.6,0.4
								c0.2,0.2,0.4,0.3,0.5,0.4c0,0.1,0.1,0.2,0.2,0.2c0,0,0,0.2,0,0.1l0.1,0.4c1.5,2.8,3.2,5.5,4.6,8.4c0.5,0.9,0.9,1.8,1.4,2.6
								c0.9-0.5,1.7-0.9,2.6-1.4l0.9-0.5l0.4-0.2c0.1-0.1,0.1-0.1,0.2-0.1c0.3-0.2,0.5-0.3,1.1-0.7c0,0.2,0.1,0.3,0,1
								c-0.1,0-0.1,0-0.1,0c0,0.1,0,0.2-0.1,0.2c0,0.1,0,0.1-0.1,0.3c-0.1,0.3-0.3,0.6-0.4,0.9c-0.3,0.6-0.6,1.1-0.8,1.8l-0.1,0
								c-0.8,3.1-2.8,6-3.6,9.1c-0.4,0.8-0.8,1.7-1.2,2.6c-0.4,0.9-0.8,1.7-1.2,2.6c-0.9-0.1-1.9-0.1-2.9-0.2c-1,0-2.1-0.1-3.1-0.1
								l0-0.1c-3.2,0-6.2-0.9-9.4-0.9c-0.6-0.1-1.2-0.2-1.8-0.2c-0.6,0-1.3,0-1.7,0c-1,0-2.5,0.1-4,0c0.6-0.4,1.5-1,2.4-1.4
								c0.9-0.3,1.3-0.5,1.9-1.1c0.6-0.5,1.3-1.1,1.7-1.4c-0.4-0.6-0.7-1-0.8-1.7c-1.2-3.9-3.6-6.9-6.1-10c-0.8-1.7-1.8-3.2-2.8-4.7
								c-1-1.5-2.1-2.7-3.3-4.1c-0.8-0.3-1.4-0.9-2.1-1.6c-0.7-0.6-1.4-1.2-2.3-1.6l0,0.2c-0.4-0.7-1.6,0-1.8-0.7l0.1,0
								c-0.2-0.5-1,0.5-1.1,0.1l-0.1,0.2c-0.4-0.1,0-0.2-0.3-0.4c-0.1,0-0.1,0.3-0.4,0.1c0.1-0.7-1-0.1-0.9-0.9
								c0.2,0.1-0.3-0.4,0.3-0.4c-0.1-0.1-0.9-0.2-0.9,0.1c-0.1,0.3-0.4,0.6-0.1,1l0.1-0.2c0.1,0.3,0.1,0.2,0.1,0.4
								c0.5,0.2,0.5,0.6,0.8,0.8c0,0,0,0,0,0c0.3-0.2,0.6,0.1,0.8,0.2l0,0.2c0,0.3,0.8-0.4,0.5,0.1c1.1,0.2,2.3,0.7,3.4,1.3
								c0.2-0.1,0.8,0.5,0.8,0c0.1,0.5,0.8,1.1,1.1,1.3c0,0-0.1,0.1-0.1,0c0.2,0.8,0.9,0,1,0.9c0.4-0.3,0.7,0.8,1.4,0.6
								c0,0.1-0.1,0.2-0.2,0.3c0.8,0.7,1.4,1.8,1.8,2.5c0.8,0.4,0.9,1.8,1.7,2.1c0.2,0.6,0.5,1.5,1.1,2.2l-0.1,0
								c0.5,0.8,1.1,1.8,1.8,2.2c-0.4,0.5-0.1,0.8,0,1.3c0.5,0.4,1.1,1.6,1.8,2.3c-0.2,0.3,0.5,0.6,0.2,0.9c0.8,0.8,1.5,1.7,2.1,2.7
								c0.3,0.5,0.6,1,0.9,1.6l0.2,0.4l0,0.2c0,0.1,0,0.2,0,0.2c-0.1,0-0.2,0-0.3,0c-0.1,0,0,0-0.1,0l-0.4,0.2l0,0
								c-0.2,0.4-0.3,1-0.6,1.5c-0.1,0-0.1-0.1,0-0.1c-0.3,0.2-0.6,0.3-1,0.5c-0.4,0.2-0.8,0.3-1.1,0.6c-0.1,0-0.1,0-0.1-0.1
								c-0.2,0.2-0.7,0.4-1.2,0.6c-0.5,0.2-1,0.5-1.1,0.7l-0.3,0.1c0,0-0.2,0.3-0.1,0.3c-0.3,0.1-0.8,0.1-0.4-0.1
								c-0.5,0.3-1,0.6-1.5,0.9c9.2,0.7,11.7,0.3,16.3,0.8l-0.2,0.1l0.9-0.1c0,0.1-0.1,0.1-0.1,0.1c1.1,0.3,2.3,0,3.5,0.2
								c0,0.1-0.2,0.2,0,0.3c0.9-0.3,1.3,0.6,1.8-0.1c0,0,0,0.2,0,0.3c0.7,0,1.4,0,2.1,0l1.1,0l1.5,0.1l0.8-1.6l0.6-1.2
								c0.2-2,1.6-3.8,2-5.8l0.1,0.1c0.7-2.6,2.2-4.9,3.3-7.4c0.5-1,0.7-1.7,1.2-2.9l0.2-0.1c0-0.5,0.2-0.9,0.5-1.5
								c0.3-0.6,0.7-1.3,1.2-2.1c-0.6,0.3-1.8,0.8-2.8,1.8l0.3-0.4c-0.3,0.4-0.5,0.5-0.8,0.6c-0.3,0.1-0.4,0.3-0.4,0.6
								c0,0-0.3,0-0.3,0c-0.8,1.4-2.2,0.9-3.5,2.2l0.1-0.2c-0.1,0.1-0.1,0.1-0.2,0.2c-0.2-0.2-0.5-0.6-0.5-0.9c0,0,0.1,0,0.1,0
								c-0.2-1.4-1.5-2.5-2.2-3.7l0.3,0c-0.6-0.5-1-1.7-1.6-2.4l0.1,0l-0.4-0.3l0.2-0.1c-0.5-1-1.2-1.8-1.8-2.7l0,0.1
								C166.8,64.2,166.8,64.1,166.7,64.1z"/>
							<path fill="#EF782C" d="M155.2,61.7C155.2,61.7,155.2,61.7,155.2,61.7C155.3,61.7,155.3,61.7,155.2,61.7z"/>
							<path fill="#EF782C" d="M131.6,62.5c0,0-0.1-0.1-0.1-0.1C131.5,62.5,131.6,62.5,131.6,62.5z"/>
						</g>
					</g>
				</g>
			</g>
		</g>
		<g>
			<path fill="#EF782C" d="M183.7,89.7l12,22.4c0,0,1.6,3.7-3.3,8c-7.4,6.5-16,5.3-16,5.3L164.7,101L183.7,89.7z"/>
			<g>
				<g>
					<g>
						<g>
							<polygon fill="#EF782C" points="183,88.6 182.9,88.5 182.9,88.8 							"/>
							<path fill="#EF782C" d="M182.6,89.4c0,0,0.1,0.1,0.1,0.1l0.1-0.8C182.4,88.5,182.8,89.5,182.6,89.4z"/>
							<path fill="#EF782C" d="M182.4,89.4c-0.2,0-0.2,0.3-0.1,0.4C182.2,89.5,182.6,89.6,182.4,89.4z"/>
							<path fill="#EF782C" d="M168.4,97.8C168.4,97.8,168.4,97.8,168.4,97.8C168.4,97.8,168.4,97.8,168.4,97.8z"/>
							<path fill="#EF782C" d="M165.3,100.8l0.2,0.1c0.1-0.3,0.4-0.5,0.8-0.7c0.4-0.2,0.8-0.4,1.1-0.7l0,0.1c1.9-1,3.4-2.3,5.1-3.6
								c0,0,0,0.1,0,0.1c0-0.1,0.1-0.3,0.2-0.3c0.1,0,0,0.1,0,0.1c0.6,0.1,1-0.9,1.4-0.8c0.1-0.1,0.1-0.3-0.1-0.3
								c1.4-0.9,2.9-1.9,4.2-3c0.1,0,0.2,0.1,0.2,0.2c0.9-1.2,2.4-1.8,3.7-2.5c0-0.2-0.2-0.1-0.2-0.3c-0.5,0.1-0.6,0.8-1.1,0.7
								l0-0.2c-0.3,0.1,0.1,0.4-0.2,0.4c-0.2,0-0.1-0.2-0.1-0.2c-0.5,0.4-1.2,0.6-1.6,1.3c-0.3-0.2-0.6,0.4-1,0.2
								c-0.1,0.2-0.2,0.3-0.2,0.5c-2.1,1-4,2.5-6.1,3.7c-0.6,1.1-2.2,1.1-3.2,2c0,0,0,0,0-0.1c-0.3,0.4-0.8,0.7-1.3,0.9l-0.2,0.5
								c-0.4,0.2-0.9,0.3-1.3,0.5c-0.5,0.2-1.2,0.6-1.8,0.9c0.3,0.7,0.6,1.4,1,2l0.7,1.5c0.5,1,1,2,1.4,3c1.4,3.3,2.4,6.3,4.6,9.1
								c-0.1,0-0.1,0.1-0.1,0c0.6,0.9,0.7,1.8,1.3,2.6l-0.1,0c0.7,0.9,1.3,2.1,1.8,3.2c0.3,0.5,0.5,1.1,0.8,1.6c0.3,0.5,0.6,1,1,1.5
								l0.1,0.3c0,0,0,0.1,0.1,0.1l0.1,0c0.2,0,0.4,0,0.6,0.1c0.4,0,0.7,0,1.1,0c0.7,0,1.5-0.1,2.2-0.2c1.5-0.2,3-0.6,4.3-1.1l0,0.1
								c2.1-1,4.5-1.4,6.3-3c0.5-0.3,1-0.7,1.5-1.1c0.4-0.5,0.8-1,1.2-1.5c0.7-1.1,1.2-2.2,1.8-3.2c0.3-0.3,0.4-0.7,0.4-1.1
								c0-0.4,0-0.9-0.1-1.3c-0.1-0.4-0.3-0.8-0.4-1.1c-0.2-0.3-0.4-0.7-0.4-1.1c-0.5-3-2.4-5.2-4.3-7.5c-1-2.5-3-4.4-3.6-7
								c-1-0.9-0.7-2.5-1.5-3.7l-0.1,0.1c0.2-0.7-1.1-0.6-0.6-1.2l0.1,0c0.2-0.4-1-0.1-0.7-0.5l-0.2,0c-0.2-0.3,0.2-0.1,0.1-0.4
								c-0.1-0.1-0.3,0.1-0.3-0.1c0.6-0.4-0.5-0.6,0.2-1c0.1,0.2,0.1-0.4,0.5-0.1c0-0.1-0.3-0.6-0.5-0.4c-0.3,0.1-0.7,0.1-0.8,0.5
								l0.3-0.1c-0.2,0.2-0.1,0.1-0.2,0.3c0.2,0.4-0.1,0.6-0.1,1c0,0,0,0,0,0c0.4,0,0.3,0.4,0.4,0.5l-0.1,0.1
								c-0.2,0.2,0.8,0.1,0.2,0.3c0.5,0.7,1,1.5,1.4,2.4c0.2,0,0.3,0.6,0.6,0.3c-0.3,0.4,0,1.1,0.1,1.3c0,0-0.1,0-0.1,0
								c-0.3,0.7,0.8,0.3,0.4,1c0.5-0.2,0.3,0.8,0.9,0.8c-0.1,0.1-0.1,0.2-0.2,0.2c0.4,0.8,0.7,1.7,1,2.3c0.7,0.3,0.5,1.4,1.3,1.6
								c0.1,0.4,0.2,1.2,0.7,1.6l-0.1,0c0.4,0.6,0.8,1.3,1.4,1.6c-0.4,0.5-0.2,0.7-0.2,1c0.5,0.3,0.8,1.1,1.4,1.7
								c-0.2,0.2,0.4,0.5,0.1,0.7c0.8,0.7,1.4,1.6,1.9,2.6c0.1,0.3,0.2,0.5,0.3,0.8l0.2,0.4l0.1,0.2c0,0.1,0,0.1,0,0.1
								c0,0.4,0,0.9-0.2,1.2l0,0c0.2,0.2,0.7,0.5,0.9,0.8c0,0-0.1,0-0.1,0c0,0.4-0.5,0.6-0.5,0.9c-0.1,0-0.1,0-0.1-0.1
								c0,0.4-0.6,0.5-0.4,1l-0.1,0l0,0.3c-0.1-0.1-0.3-0.2-0.2-0.3c-0.8,1.2-1.7,2.5-2.9,3.6c-1.2,1.2-2.5,2.2-4,2.8l0.1-0.2
								l-0.5,0.5c0-0.1,0-0.1,0-0.1c-0.8,0.1-1.5,0.8-2.3,1c0-0.1,0.1-0.2-0.1-0.2c-0.5,0.5-1-0.2-1.1,0.6c0,0-0.1-0.2,0-0.2
								c-1.5,0.6-3.2,0.9-4.9,0.8c-0.3,0.2-0.7,0.3-1.1,0.3c-0.1,0-0.3,0-0.4,0l-0.2,0c-0.1,0-0.1-0.1-0.1-0.2l-0.2-0.4
								c-0.1-0.2-0.2-0.3-0.3-0.5c-0.2-0.3-0.4-0.6-0.7-0.9l0.1,0c-1.2-1.5-1.7-3.6-2.6-5.3c-0.3-0.8-0.7-1.2-1.1-1.9l0.1-0.1
								c-1.2-1-0.8-2.9-2-3.9l0.2,0c-0.4-0.1-0.3-0.8-0.8-0.5l0-0.3c-1.1-0.5-0.5-1.8-1.4-2.6l0.2,0c-0.2-0.2-0.5-0.5-0.5-0.8
								c0,0,0.1,0,0.1,0c0.1-1.1-1-1.9-1.4-2.8l0.3,0c-0.5-0.3-0.7-1.3-1.1-1.8l0.1,0l-0.3-0.2l0.2-0.1c-0.3-0.7-0.6-1-1-1.6
								C165,100.9,165.2,100.9,165.3,100.8z"/>
							<path fill="#EF782C" d="M172.7,96.1C172.7,96.1,172.7,96.1,172.7,96.1C172.7,96.1,172.7,96.1,172.7,96.1z"/>
							<path fill="#EF782C" d="M183.2,91.2c0,0,0-0.1,0-0.1C183.2,91.2,183.2,91.2,183.2,91.2z"/>
						</g>
					</g>
				</g>
			</g>
		</g>
		<g>
			<path fill="#EF782C" d="M195.1,120.7c0,0-5.9,7.1-13.7,7.1s-19.2,0-19.2,0l-0.1-7.2l-13,19l13.3,19l0-8.2l11.6,0.1
				c0,0,2.3,1.5,7.8-7.9c3-5.1,6.6-11.1,9.4-15.5"/>
			<g>
				<g>
					<g>
						<g>
							<polygon fill="#EF782C" points="190,126.3 189.9,126.3 190,126.6 							"/>
							<path fill="#EF782C" d="M189.8,127.5c0,0,0.1,0,0.1,0l-0.2-0.9C189.4,126.8,190.1,127.5,189.8,127.5z"/>
							<path fill="#EF782C" d="M189.7,127.7c-0.2,0.1-0.1,0.4,0,0.5C189.5,127.9,190,127.8,189.7,127.7z"/>
							<path fill="#EF782C" d="M178.1,146.6C178.1,146.6,178.1,146.5,178.1,146.6C178.1,146.5,178.1,146.6,178.1,146.6z"/>
							<path fill="#EF782C" d="M174.3,150.6l-0.1,0.2c0.2,0,0.4,0,0.5-0.1c0.2-0.1,0.3-0.1,0.4-0.2c0.3-0.2,0.5-0.3,0.8-0.4
								c0.5-0.4,1.1-0.6,1.4-1.2l0,0.1c0.5-0.5,1.1-1,1.4-1.6c0.4-0.6,0.8-1.2,1.2-1.8c0.7-1.2,1.3-2.5,2-3.8c0,0.1,0,0.1,0,0.1
								c0-0.2,0-0.4,0.1-0.5c0.1,0,0.1,0.1,0.1,0.1c0.6-0.3,0.7-1.7,1.2-1.8c0.1-0.2,0-0.3-0.2-0.3c1.1-2,2.3-4.1,3.2-6.2
								c0.1-0.1,0.2,0,0.3,0.1c0.5-2,1.8-3.6,2.9-5.3c-0.1-0.1-0.2,0.1-0.3-0.2c-0.5,0.5-0.3,1.2-0.8,1.6l-0.1-0.1
								c-0.3,0.3,0.3,0.3-0.1,0.6c-0.2,0.1-0.1-0.1-0.2-0.1c-0.4,0.8-1,1.6-1.2,2.5c-0.4,0-0.5,0.8-1,1c0,0.3-0.2,0.5,0,0.6
								c-1.8,2.6-3.2,5.6-4.9,8.3c-0.3,1.6-1.8,2.8-2.7,4.2c0,0,0,0,0,0c-0.1,0.3-0.3,0.6-0.5,0.9c-0.2,0.3-0.5,0.6-0.7,0.8
								l-0.2,0.6l-0.7,0.4c-0.2,0.1-0.4,0.3-0.7,0.4c-0.2,0.1-0.5,0.2-0.6,0.2c-0.1,0-0.2,0-0.3,0c0,0-0.1,0-0.1,0c0,0,0,0,0,0
								c0,0,0,0,0.1,0l-0.4-0.1c-3.1-0.1-6.3,0-9.5-0.2c-1,0-2-0.1-3-0.1c0,1-0.1,2-0.1,2.9l0,1l0,0.5c0,0.1,0,0.1,0,0.2
								c0,0.4,0,0.6,0,1.3c-0.1-0.1-0.3-0.1-0.9-0.5c0-0.1,0-0.1,0.1-0.1c-0.1-0.1-0.2-0.2-0.4-0.4c-0.2-0.3-0.4-0.5-0.5-0.8
								c-0.4-0.5-0.7-1.1-1.1-1.6l0.1,0c-2.3-2.3-3.8-5.5-6-7.7c-0.5-0.8-1.1-1.6-1.6-2.4c-0.5-0.8-1.1-1.6-1.7-2.4
								c0.5-0.8,1-1.6,1.6-2.4c0.6-0.9,1.1-1.7,1.6-2.6l0.1,0.1c1.6-2.8,3.9-4.9,5.5-7.7c0.4-0.5,0.7-1,1.1-1.5
								c0.3-0.5,0.7-1.1,0.9-1.5c0.5-0.9,1.2-2.2,2-3.5c0.1,0.7,0.1,1.7,0,2.7c-0.2,1-0.2,1.4-0.1,2.3c0.1,0.8,0.3,1.7,0.4,2.2
								c0.7-0.1,1.1,0,1.8,0.1c3.9,1,7.8,0.3,11.7-0.2c1.8,0.2,3.6,0,5.4-0.1c1.8-0.1,3.4-0.5,5.2-0.8c0.7-0.5,1.5-0.7,2.4-1
								c0.9-0.3,1.8-0.6,2.5-1.2l-0.1-0.1c0.8,0,0.8-1.4,1.5-1.2l0,0.1c0.5,0,0.1-1.2,0.5-1l-0.1-0.2c0.3-0.3,0.2,0.1,0.5-0.1
								c0.1-0.1-0.2-0.3,0.1-0.4c0.6,0.5,0.6-0.8,1.2-0.3c-0.2,0.2,0.5-0.1,0.2,0.5c0.2-0.1,0.6-0.6,0.3-0.8
								c-0.2-0.3-0.3-0.7-0.8-0.6l0.1,0.2c-0.3-0.1-0.2,0-0.4-0.1c-0.4,0.4-0.7,0.2-1.1,0.3c0,0,0,0,0,0c0,0.4-0.4,0.5-0.6,0.6
								l-0.2-0.1c-0.3-0.1-0.1,0.9-0.3,0.4c-0.7,0.8-1.8,1.6-2.8,2.3c0,0.3-0.8,0.5-0.4,0.7c-0.5-0.2-1.3,0.1-1.6,0.3
								c0,0,0-0.1,0-0.1c-0.8-0.2-0.5,0.8-1.3,0.4c0.1,0.5-1.1,0.2-1.2,0.9c-0.1-0.1-0.2-0.2-0.2-0.3c-1,0.3-2.2,0.3-3.1,0.3
								c-0.7,0.5-2-0.2-2.7,0.4c-0.6-0.1-1.6-0.4-2.4-0.1l0.1-0.1c-0.9,0-2.1,0.1-2.8,0.4c-0.3-0.6-0.7-0.5-1.1-0.6
								c-0.6,0.3-1.9,0.2-2.9,0.4c-0.1-0.3-0.8,0.1-0.8-0.3c-1,0.3-2.2,0.4-3.4,0.5c-0.6,0-1.2,0-1.8,0c-0.1,0-0.3,0-0.4,0l-0.2,0
								c-0.1,0-0.2-0.1-0.2-0.1c0-0.1,0.1-0.3,0.1-0.3c0,0,0,0,0,0l0,0l0-0.1l0.1-0.5l0,0c-0.2-0.4-0.7-0.7-1-1.3
								c0-0.1,0.1-0.1,0.1,0c0-0.3,0-0.7,0.1-1.1c0.1-0.4,0.1-0.9,0.1-1.3c0.1-0.1,0.1-0.1,0.1,0c-0.1-0.3,0-0.8,0-1.3
								c0.1-0.5,0.1-1.2-0.1-1.3l0.1-0.3c0,0-0.1-0.3-0.1-0.2c0.1-0.3,0.3-0.8,0.3-0.3c0-0.5,0-1.1,0-1.6c-1.1,1.6-2.2,3.2-3.2,4.8
								l-0.8,1.2l-0.4,0.6l-0.2,0.3l-0.8,1.4c-1.1,1.9-2.3,3.7-3.5,5.5l0-0.2l-0.3,0.9c-0.1,0-0.1-0.1-0.1-0.1
								c-0.8,0.8-1.2,2-1.9,2.9c0,0-0.1-0.2-0.2-0.2c-0.2,0.9-1.1,0.8-0.8,1.6c0,0-0.2-0.1-0.2-0.2c-0.3,0.6-0.7,1.2-1.1,1.8
								l-0.6,0.9l-0.9,1.3l1,1.5l0.7,1.1c1.6,1.2,2.4,3.3,4,4.7l-0.1,0.1c1.9,1.9,3,4.4,4.7,6.6c0.3,0.5,0.6,0.8,0.9,1.2
								c0.3,0.4,0.6,0.8,1,1.3l0,0.2c0.4,0.3,0.7,0.6,1,1.2c0.3,0.5,0.7,1.3,1.2,2c0.1-0.7,0.2-2-0.1-3.4l0.2,0.5
								c-0.2-0.4-0.1-0.7-0.1-1c0-0.3,0-0.5-0.3-0.6c0,0,0.2-0.3,0.2-0.3c-0.4-0.7-0.3-1.3-0.2-2c0.1-0.3,0.1-0.7,0.2-1
								c0-0.3,0-0.7-0.1-1.2l0.1,0.2c0-0.1,0-0.1,0-0.2c0.3-0.1,0.7-0.1,1,0c0,0,0,0.1-0.1,0.1c1.3,0.6,2.9,0,4.3,0l-0.2,0.3
								c0.7-0.3,2,0,2.9-0.1l-0.1,0.1l0.5-0.2l0,0.2c1.1,0,2.1-0.1,3.2-0.2l-0.1,0C174,150.6,174.2,150.6,174.3,150.6z"/>
							<path fill="#EF782C" d="M182.1,141.8C182.1,141.8,182.1,141.8,182.1,141.8C182.1,141.8,182.1,141.8,182.1,141.8z"/>
							<path fill="#EF782C" d="M193.3,121c0,0,0.1,0,0.1-0.1C193.4,120.9,193.3,121,193.3,121z"/>
						</g>
					</g>
				</g>
			</g>
		</g>
		<g>
			<path fill="#EF782C" d="M146.3,150.5l-25.3-0.2c0,0-4-0.4-5.4-6.8c-2.1-9.6,3.1-16.6,3.1-16.6l27,1.4L146.3,150.5z"/>
			<g>
				<g>
					<g>
						<g>
							<polygon fill="#EF782C" points="147.7,150.4 147.7,150.4 147.5,150.3 							"/>
							<path fill="#EF782C" d="M147.2,149.6c0,0-0.1,0-0.1,0l0.6,0.5C148,149.9,147,149.8,147.2,149.6z"/>
							<path fill="#EF782C" d="M147.2,149.5c0.1-0.2-0.1-0.3-0.2-0.3C147.2,149.2,146.9,149.5,147.2,149.5z"/>
							<path fill="#EF782C" d="M146.7,133.2C146.7,133.2,146.7,133.2,146.7,133.2C146.7,133.2,146.7,133.2,146.7,133.2z"/>
							<path fill="#EF782C" d="M145.6,129l-0.2,0.1c0.2,0.2,0.2,0.6,0.2,1.1c0,0.4-0.1,0.9,0,1.3l-0.1-0.1c0,2.1,0.4,4.1,0.6,6.2
								c0,0-0.1,0-0.1-0.1c0.1,0.1,0.2,0.2,0.2,0.3c0,0-0.1,0-0.1-0.1c-0.4,0.5,0.3,1.3,0,1.6c0,0.1,0.2,0.2,0.3,0.1
								c0.1,1.7,0.3,3.4,0.6,5.1c0,0.1-0.1,0.1-0.3,0.1c0.6,1.4,0.4,2.9,0.4,4.4c0.2,0.1,0.2-0.2,0.3,0c0.2-0.5-0.4-0.9-0.1-1.3
								l0.2,0.1c0.1-0.3-0.4-0.1-0.2-0.4c0.1-0.1,0.2,0,0.2,0c-0.1-0.7,0-1.4-0.3-2c0.3-0.2,0-0.7,0.3-1c-0.1-0.2-0.1-0.3-0.3-0.4
								c0.1-2.3-0.3-4.7-0.3-7.1c-0.7-1.1,0.1-2.5-0.2-3.8c0,0,0,0,0.1,0c-0.2-0.4-0.3-1.1-0.2-1.6l-0.3-0.4c0.1-0.5,0.1-1,0.2-1.4
								l0-0.5l0-0.5l0-1.1c-0.7,0-1.5-0.1-2.2-0.1l-1.6-0.1c-1.1-0.1-2.2-0.1-3.3-0.3c-3.6-0.3-6.7-1-10.2-0.3c0-0.1,0-0.1,0.1-0.1
								c-1,0.1-1.9-0.2-2.9-0.1l0-0.1c-1.2,0.2-2.4,0.1-3.6,0c-0.6,0-1.2-0.1-1.8-0.1c-0.6,0-1.1,0-1.8,0.1l-0.3,0c0,0-0.1,0-0.1,0
								l-0.1,0.1c-0.1,0.2-0.2,0.3-0.3,0.5c-0.2,0.3-0.4,0.6-0.6,1c-0.4,0.6-0.7,1.3-0.9,2c-0.6,1.4-0.9,2.9-1.1,4.3l-0.1,0
								c-0.2,2.3-1,4.6-0.5,7c0,0.6,0.1,1.2,0.3,1.8c0.2,0.6,0.5,1.2,0.7,1.8c0.6,1.1,1.3,2.1,1.9,3.2c0.1,0.4,0.4,0.7,0.8,1
								c0.3,0.3,0.8,0.4,1.2,0.5c0.2,0,0.4,0.1,0.6,0.1c0.2,0,0.4,0.1,0.6,0.1c0.4,0,0.8,0,1.1,0.2c2.9,1,5.7,0.4,8.6-0.2
								c2.7,0.4,5.3-0.5,7.9,0.2c1.2-0.4,2.6,0.6,3.9,0.5l0-0.2c0.5,0.5,1.1-0.7,1.4,0.1l-0.1,0c0.3,0.4,0.6-0.8,0.8-0.4l0-0.2
								c0.3,0,0,0.2,0.3,0.3c0.1,0,0-0.3,0.2-0.2c0,0.7,0.8-0.1,0.8,0.7c-0.2,0,0.3,0.3-0.1,0.5c0.1,0.1,0.6,0,0.6-0.3
								c0-0.4,0.3-0.7-0.1-1l-0.1,0.3c-0.1-0.3-0.1-0.1-0.1-0.3c-0.4,0-0.5-0.4-0.8-0.6c0,0,0,0,0,0c-0.2,0.3-0.5,0.1-0.6,0.1
								l-0.1-0.1c-0.1-0.3-0.5,0.6-0.3,0.1c-0.8,0.1-1.8,0.1-2.8,0.1c-0.1,0.2-0.7,0-0.5,0.4c-0.2-0.4-0.9-0.6-1.2-0.5
								c0,0,0-0.1,0.1-0.1c-0.5-0.6-0.6,0.5-1.1-0.2c-0.1,0.5-0.9-0.2-1.1,0.4c-0.1-0.1-0.1-0.2-0.1-0.3c-0.9,0-1.8-0.2-2.5-0.2
								c-0.6,0.4-1.5-0.2-2,0.4c-0.4-0.1-1.2-0.4-1.8-0.2l0.1-0.1c-0.7,0-1.6,0.1-2,0.4c-0.2-0.6-0.5-0.5-0.8-0.7
								c-0.5,0.3-1.4,0.2-2.1,0.4c-0.1-0.3-0.6,0.1-0.6-0.3c-1,0.4-2.1,0.5-3.2,0.4c-0.3,0-0.6,0-0.8-0.1c-0.3,0-0.7-0.1-0.7-0.1
								c-0.2-0.1-0.4-0.2-0.5-0.4c-0.2-0.1-0.3-0.3-0.5-0.5l0,0c-0.3,0.1-0.8,0.3-1.2,0.3c0,0,0-0.1,0.1-0.1
								c-0.3-0.2-0.3-0.7-0.6-0.9c0,0,0.1,0,0.1,0c-0.3-0.2-0.1-0.7-0.6-0.8l0.1-0.1c0,0-0.3-0.1-0.3-0.1c0.1-0.1,0.3-0.1,0.3,0
								c-0.7-1.3-1.3-2.7-1.7-4.3c-0.4-1.6-0.7-3.2-0.5-4.9l0.1,0.1l-0.2-0.7c0.1,0,0.1,0,0.1,0.1c0.3-0.8,0-1.7,0.3-2.4
								c0.1,0,0.2,0.2,0.2,0.1c-0.2-0.7,0.6-0.8,0-1.3c0,0,0.2,0,0.2,0.1c0.2-1.6,0.8-3.2,1.7-4.6c0-0.4,0.1-0.7,0.3-1.1
								c0.1-0.1,0.1-0.2,0.2-0.4l0.1-0.2c0,0,0.1,0,0.2,0l0.4,0c0.2,0,0.4,0,0.6,0c0.4,0,0.8,0,1.1-0.2l0,0.1
								c1.9-0.4,3.9,0.2,5.9,0.3c0.8,0.1,1.4,0,2.2,0l0,0.2c1.4-0.5,2.9,0.7,4.4,0.1l-0.1,0.2c0.2-0.3,0.9,0.2,0.8-0.4l0.2,0.2
								c1-0.7,1.8,0.5,3,0l-0.1,0.1c0.3-0.1,0.7-0.2,0.9,0c0,0,0,0.1-0.1,0.1c1,0.6,2.1,0.1,3.2,0.1l-0.1,0.3c0.5-0.3,1.4,0.1,2.1,0
								l0,0.1l0.3-0.2l0,0.2c0.3,0,0.7,0,0.9,0l0.8-0.1C145.6,128.6,145.6,128.8,145.6,129z"/>
							<path fill="#EF782C" d="M146.1,137.7C146.1,137.7,146.1,137.7,146.1,137.7C146.1,137.7,146.1,137.7,146.1,137.7z"/>
							<path fill="#EF782C" d="M145.2,149.3c0,0,0.1,0,0.1,0.1C145.3,149.3,145.2,149.3,145.2,149.3z"/>
						</g>
					</g>
				</g>
			</g>
		</g>
		<g>
			<path fill="#EF782C" d="M113.9,145.5c0,0-3.3-8.6,0.4-15.5c3.7-6.8,9.3-16.9,9.3-16.9l6.4,3.4l-10.2-20.6l-22.9,2.5l7.1,3.9
				l-5.7,10.2c0,0-2.4,1.3,3.1,10.7c3,5.1,6.4,11.2,8.9,15.7"/>
			<g>
				<g>
					<g>
						<g>
							<polygon fill="#EF782C" points="111.4,138.3 111.4,138.2 111.2,138.2 							"/>
							<path fill="#EF782C" d="M110.4,137.6c0,0-0.1,0.1-0.1,0.1l0.8,0.3C111.3,137.6,110.3,137.9,110.4,137.6z"/>
							<path fill="#EF782C" d="M110.4,137.4c0-0.3-0.3-0.2-0.4-0.2C110.2,137.1,110.2,137.6,110.4,137.4z"/>
							<path fill="#EF782C" d="M99.5,118C99.5,118.1,99.5,118.1,99.5,118C99.6,118.1,99.5,118.1,99.5,118z"/>
							<path fill="#EF782C" d="M97.8,112.7l-0.1-0.2l-0.1,0.3l0,0.2c0,0.2-0.1,0.3-0.1,0.5c0,0.3,0,0.6,0,0.9
								c0.1,0.6,0.1,1.2,0.3,1.8l-0.1-0.1c0.2,0.7,0.4,1.4,0.7,2.1c0.3,0.6,0.6,1.3,1,1.9c0.8,1.2,1.5,2.3,2.3,3.6c0,0-0.1,0-0.2,0
								c0.1,0.1,0.3,0.1,0.4,0.3c0,0.1-0.1,0-0.2,0c0,0.7,1.1,1.4,1,1.9c0.1,0.1,0.3,0.1,0.3,0c1.2,1.9,2.5,4,3.8,5.8
								c0,0.1-0.1,0.2-0.2,0.2c1.5,1.4,2.3,3.3,3.2,5.1c0.2,0,0-0.3,0.3-0.2c-0.2-0.7-0.9-0.8-1-1.5l0.2,0c-0.1-0.4-0.4,0.1-0.4-0.4
								c0-0.2,0.2-0.1,0.2-0.1c-0.5-0.8-0.9-1.7-1.6-2.2c0.2-0.3-0.5-0.9-0.4-1.3c-0.2-0.1-0.3-0.4-0.5-0.3
								c-1.4-2.9-3.3-5.5-4.9-8.4c-1.3-1-1.5-2.9-2.4-4.5c0,0,0,0,0.1,0c-0.4-0.5-0.7-1.2-0.9-1.9l-0.4-0.5l0-0.8
								c0-0.3-0.1-0.5,0-0.8c0.1-0.2,0-0.5,0.1-0.7c0-0.1,0.1-0.2,0.1-0.3c0,0,0,0,0.1-0.1c0,0,0,0,0,0c0,0,0,0,0,0l0.3-0.3
								c1.6-2.7,3-5.5,4.7-8.2c0.5-0.9,1.1-1.8,1.6-2.6c-0.8-0.5-1.7-1-2.5-1.5l-0.9-0.5l-0.4-0.3c-0.1-0.1-0.1-0.1-0.1-0.1l-0.1,0
								c-0.3-0.2-0.5-0.3-1.1-0.6c0.2-0.1,0.3-0.2,0.9-0.5c0,0.1,0.1,0.1,0,0.1c0.2-0.1,0.3-0.1,0.6-0.1c0.3,0,0.7-0.1,1-0.1
								c0.6,0,1.3-0.1,1.9-0.2l0,0.1c3.1-0.9,6.6-0.7,9.7-1.6c0.9-0.1,1.9-0.2,2.8-0.3c0.9-0.1,1.9-0.2,2.8-0.3
								c0.4,0.8,0.9,1.7,1.3,2.6c0.5,0.9,1,1.8,1.5,2.7l-0.1,0c1.7,2.7,2.4,5.8,4,8.6c0.2,0.6,0.5,1.1,0.8,1.7
								c0.3,0.5,0.6,1.1,0.9,1.5c0.5,0.9,1.3,2.1,2,3.4c-0.7-0.3-1.6-0.8-2.4-1.3c-0.7-0.6-1.1-0.8-1.9-1.1
								c-0.7-0.3-1.5-0.5-2.1-0.7c-0.3,0.7-0.5,1.1-1,1.6c-2.7,3-4,6.6-5.4,10.4c-1,1.5-1.8,3.2-2.6,4.8c-0.8,1.6-1.2,3.2-1.8,4.9
								c0.1,0.8-0.1,1.7-0.3,2.6c-0.2,0.9-0.3,1.9-0.2,2.8l0.1-0.1c-0.4,0.7,0.9,1.4,0.3,1.9l0-0.1c-0.3,0.4,1,0.6,0.6,0.9l0.2,0
								c0.1,0.4-0.2,0.1-0.2,0.4c0.1,0.1,0.3,0,0.3,0.2c-0.7,0.2,0.4,1-0.3,1.2c-0.1-0.2-0.2,0.5-0.5,0c0,0.2,0.2,0.9,0.6,0.7
								c0.4-0.1,0.8,0.1,0.9-0.4l-0.3,0c0.2-0.2,0.1-0.1,0.3-0.3c-0.1-0.5,0.2-0.7,0.3-1.1c0,0,0,0,0,0c-0.4-0.2-0.3-0.6-0.3-0.8
								l0.1-0.1c0.3-0.2-0.7-0.5-0.2-0.4c-0.4-1.1-0.6-2.3-0.6-3.6c-0.2-0.2,0-1-0.4-0.7c0.4-0.3,0.6-1.2,0.5-1.6c0,0,0.1,0,0.1,0.1
								c0.6-0.6-0.5-0.8,0.3-1.4c-0.5-0.2,0.3-1-0.2-1.5c0.1,0,0.2-0.1,0.3,0c0.1-0.5,0.3-1.1,0.6-1.5c0.2-0.5,0.5-0.9,0.7-1.3
								c-0.1-0.9,1.1-1.7,0.9-2.6c0.4-0.5,1.1-1.2,1.3-2.1l0,0.1c0.4-0.8,1-1.9,0.9-2.7c0.6,0,0.7-0.4,1.1-0.7
								c0.1-0.7,0.8-1.8,1-2.7c0.3,0,0.3-0.8,0.6-0.6c0.3-1.1,0.7-2.2,1.3-3.2c0.3-0.5,0.6-1.1,0.9-1.6l0.2-0.4l0.1-0.1
								c0.1-0.1,0.1-0.1,0.2-0.1c0.1,0.1,0.2,0.2,0.2,0.3c0,0,0,0.1,0.1,0.1l0.4,0.3l0,0c0.5,0,1-0.3,1.6-0.3c0,0.1,0,0.1-0.1,0.1
								c0.3,0.1,0.6,0.4,0.9,0.6c0.3,0.3,0.7,0.6,1.1,0.7c0,0.1,0,0.1-0.1,0.1c0.3,0.1,0.7,0.4,1.1,0.7c0.4,0.3,1,0.6,1.2,0.6
								l0.2,0.2c0,0,0.3,0,0.3,0c0.2,0.3,0.5,0.6,0.2,0.4c0.5,0.3,1,0.6,1.6,0.9c-0.8-1.7-1.7-3.5-2.6-5.2l-0.7-1.2l-0.3-0.6
								l-0.2-0.4l-0.8-1.4c-1.1-1.9-2.1-3.8-3.1-5.7l0.2,0.1l-0.6-0.7c0.1,0,0.1,0,0.2,0c-0.3-1.1-1.2-2-1.6-3.1
								c0.1,0,0.2,0.1,0.2-0.1c-0.7-0.6-0.2-1.4-1-1.4c0,0,0.1-0.1,0.2-0.1c-0.4-0.6-0.8-1.2-1.1-1.9l-0.5-1l-0.7-1.4l-1.8,0.2
								l-1.3,0.1c-1.9,0.9-4.1,0.5-6,1.2l0-0.1c-2.5,0.7-5.3,0.6-8,0.9c-1.1,0.1-1.8,0.3-3.1,0.4l-0.2-0.1c-0.5,0.2-0.9,0.3-1.5,0.3
								c-0.6,0-1.4,0-2.3,0.1c0.5,0.4,1.6,1.1,3,1.5l-0.5,0c0.4,0.1,0.7,0.2,0.9,0.4c0.3,0.1,0.5,0.2,0.7,0c0,0,0.1,0.3,0.2,0.3
								c0.8,0,1.3,0.4,1.8,0.8c0.2,0.2,0.5,0.4,0.8,0.6c0.3,0.2,0.6,0.3,1.1,0.5l-0.3,0c0.1,0,0.1,0,0.2,0.1c-0.1,0.3-0.2,0.7-0.5,1
								c0,0,0,0,0-0.1c-1.1,0.9-1.4,2.5-2.1,3.8l-0.1-0.3c-0.1,0.8-0.9,1.7-1.3,2.6l-0.1-0.1l-0.1,0.5l-0.2-0.1
								c-0.5,0.9-0.9,1.9-1.4,2.9l0.1-0.1C98,112.5,97.9,112.6,97.8,112.7z"/>
							<path fill="#EF782C" d="M101.8,123.8C101.8,123.8,101.8,123.8,101.8,123.8C101.7,123.8,101.7,123.8,101.8,123.8z"/>
							<path fill="#EF782C" d="M114.5,143.8c0,0.1,0,0.1,0,0.1C114.5,143.9,114.5,143.8,114.5,143.8z"/>
						</g>
					</g>
				</g>
			</g>
		</g>
	</g>
</g>
</svg>
