<?xml version="1.0" encoding="utf-8"?>
<!-- Generator: Adobe Illustrator 17.1.0, SVG Export Plug-In . SVG Version: 6.00 Build 0)  -->
<!DOCTYPE svg PUBLIC "-//W3C//DTD SVG 1.1//EN" "http://www.w3.org/Graphics/SVG/1.1/DTD/svg11.dtd">
<svg version="1.1" id="Layer_1" xmlns="http://www.w3.org/2000/svg" xmlns:xlink="http://www.w3.org/1999/xlink" x="0px" y="0px"
	 viewBox="0 0 166.4 165.3" enable-background="new 0 0 166.4 165.3" xml:space="preserve">
<ellipse fill="#E3E3E3" cx="87.6" cy="156.1" rx="76.1" ry="9.2"/>
<g>
	<g>
		<g>
			<path fill="#F6F6F6" d="M17,6.7c0,0,13-0.4,15,7.7s0,16.4,0,16.4s7.9,19.7,19,29.6s53,48.7,55.1,57s-26.7,1.4-26.7,1.4L65.2,91.5
				L31.6,62.9L12.3,29.4l1.8-15L17,6.7z"/>
			<g>
				<g>
					<g>
						<g>
							<polygon fill="#EF782C" points="15.7,6.3 15.6,6.4 15.7,6.8 							"/>
							<path fill="#EF782C" d="M15.3,8.8c0.1-0.1,0.1,0,0.2-0.1l0-1.6C14.9,7.7,15.7,8.5,15.3,8.8z"/>
							<path fill="#EF782C" d="M15.1,9.2c-0.3,0.5-0.2,0.8-0.1,1C14.8,9.9,15.4,9.2,15.1,9.2z"/>
							<path fill="#EF782C" d="M26.9,56.4c0,0-0.1-0.1-0.1-0.1C26.9,56.4,26.9,56.4,26.9,56.4z"/>
							<path fill="#EF782C" d="M35.8,66.3l0.3-0.1c-1.5-0.9-2.9-2.3-4.3-3.5c-0.3-0.6-0.8-1.4-1.2-2l0.2,0.1
								c-3.2-5.8-6.6-11-10.1-16.6c0.1,0.1,0.1,0.1,0.2,0.2c-0.2-0.2-0.5-0.5-0.7-0.8c0-0.1,0.1,0,0.2,0.1c-0.4-1.4-2.2-3.4-2.4-4.3
								c-0.2-0.3-0.4-0.4-0.4-0.1c-0.9-1.5-1.9-3.1-2.8-4.7c-1-1.6-2-3.3-3-5l0.1-1.4l0.1-1.2c0.1-0.8,0.1-1.6,0.2-2.4
								c0.1-0.2,0.2-0.3,0.3-0.2c0-1.6,0.1-3.3,0.2-5c0.1-0.8,0.2-1.7,0.3-2.5l0.4-2.6c0.5-1.2,1-2.5,1.5-3.7
								c-0.1-0.2-0.3,0.4-0.3-0.1c-0.3,0.6-0.5,1.3-0.6,1.9c-0.1,0.3-0.1,0.6-0.2,0.9c0,0.1-0.1,0.3-0.2,0.4
								c-0.1,0.2-0.1,0.2-0.2,0.5c0,0.1-0.1,0.3-0.1,0.3c0,0-0.1-0.3-0.1-0.3c0,0.3-0.1,0.3-0.1,0.4c0,0.1,0,0.1,0,0.2
								c0,0.1,0.1,0.1,0.1,0.1c0.1,0.1,0.1,0.1,0,0.6c-0.2,0.4-0.2-0.1-0.2,0.1c-0.2,2.1-0.6,4.2-0.5,6.2c-0.4,0.4-0.3,2.2-0.7,2.9
								c0.1,0.5,0,1.1,0.2,1.3c-0.2,1.2-0.3,2.4-0.5,3.6c0.8,1.4,1.7,2.9,2.5,4.3c0.8,1.3,1.6,2.7,2.4,4.1c1.6,2.7,3.2,5.4,4.8,8.2
								c2.3,2.7,3.7,6.7,6,10.2c0,0,0,0-0.1,0c0.8,1.1,1.9,2.8,2.6,4.2l0.9,1c0.3,0.5,0.5,1,0.8,1.5c0.9,0.8,1.7,1.6,2.6,2.4
								c0.9,0.8,1.7,1.5,2.6,2.3c1.8,1.5,3.5,3,5.3,4.5c3.5,3,7.1,6,10.6,9.1c2.1,1.9,4.2,3.7,6.2,5.5c2,1.7,3.9,3.4,5.9,5.1
								l1.7,3.2c0.6,1.1,1.2,2.3,1.8,3.4c1.3,2.3,2.6,4.5,4,6.8c-0.1,0-0.1,0.1-0.2-0.1c1.6,2.7,2.7,5.4,4.2,7.9l-0.1,0
								c1,1.6,1.9,3.2,2.8,4.9l0.4,0.8l0.1,0.2c0.1,0,0.1,0,0.2,0.1l0.5,0.1l1.5,0.3l2.8,0.6c3.7,0.7,7.5,1.3,11,1.3
								c2.2,0.2,4.4,0.3,6.7,0c1.1-0.2,2.3-0.4,3.3-1c0.5-0.3,1-0.8,1.2-1.4c0.2-0.3,0.1-0.6,0.2-0.9c0-0.3-0.1-0.6-0.1-0.9
								c-0.3-1.2-1-2.2-1.6-3.1c-0.7-1-1.4-1.9-2.1-2.8c-1.5-1.8-3-3.6-4.6-5.2l0.1-0.1c-5.1-5.3-9.5-10.8-14.9-15.8
								C78.1,84.8,71.7,80,66.4,74.6c-3-3.7-8.4-6.9-11.2-10.3c-1.5-1.7-3.1-3.3-4.7-4.9l-1.2-1.2l-1.1-1.2
								c-0.8-0.8-1.5-1.6-2.2-2.5c-2.8-3.4-5.5-6.9-8-10.7c-1.9-3.7-3.9-7.4-5.7-11.1l-0.6-1.4c-0.1-0.1-0.1-0.3-0.2-0.4l0.1-0.5
								l0.1-0.8c0.2-1,0.3-2,0.4-3c0.1-1,0.2-2,0.3-3c0.1-1,0.1-2,0.2-3c-0.2-0.9-0.3-1.9-0.4-2.9c-0.1-1-0.3-2-0.4-3
								c-0.1-0.5-0.2-1-0.4-1.5c-0.2-0.5-0.4-1-0.7-1.5c-0.3-0.4-0.6-0.9-1-1.3c-0.4-0.3-0.8-0.8-1.3-1l0,0.2
								c-0.3-0.3-0.6-0.5-1-0.7c-0.4-0.2-0.8-0.3-1.2-0.4c-0.8-0.2-1.5-0.3-1.8-0.8l0.2,0c-0.3-0.3-0.9-0.2-1.3-0.1
								c-0.5,0.1-0.9,0.2-1.1-0.1l-0.2,0.1c-1-0.1-0.1-0.2-0.8-0.4c-0.3,0-0.2,0.3-0.7,0.1c0-0.8-2.4-0.1-2.4-0.9
								c0.5,0-0.8-0.4,0.4-0.5c-0.3-0.1-2-0.1-1.9,0.2c-0.1,0.4-0.7,0.7,0.2,1l0.2-0.3c0.3,0.3,0.3,0.1,0.4,0.3
								C19,7.3,19.2,7.7,20.1,8c0,0,0,0,0,0C20.7,7.7,21.5,8,22,8.2l0.2,0.2c0.2,0.4,1.5-0.3,1,0.2c1.2,0.3,2.5,0.6,3.7,1.3
								c1.2,0.6,2.3,1.5,3.1,2.5c0.2,0.1,0.4,0.5,0.6,0.9c0.2,0.3,0.3,0.6,0.4,0.2c0,0.2,0,0.5,0,0.8c0,0.1,0,0.3,0.1,0.5
								c0,0.2,0,0.4,0,0.5c0.1,0.7,0.2,1.4,0.3,1.8c0,0-0.1,0-0.1-0.2c-0.1,0.8,0,1.2,0.2,1.6c0.2,0.4,0.3,0.9,0,1.6
								c0.3,0.1,0.3,0.7,0.2,1.5c0,0.7,0,1.5,0.3,1.9c-0.1,0.2-0.2,0.2-0.3,0.2c0,0.6-0.1,1.3-0.1,2c-0.1,0.7-0.2,1.3-0.3,2
								c-0.1,0.6-0.2,1.3-0.4,1.9c-0.1,0.4-0.2,0.7-0.2,1.1l-0.1,0.4c0,0.1,0.1,0.3,0.1,0.4c0.1,0.2,0.2,0.4,0.3,0.6
								c1.2,1.6,1.8,4.4,3,5.7c0.5,1.3,1.3,3.4,2.4,5l-0.2-0.1c1.1,1.9,2.5,4.3,3.6,5.3c-0.1,0.8,0.5,1.6,0.8,2.5
								c1,1.1,2.7,3.6,4.3,5.1c0,0.4,1.3,1.4,1,1.7c0.6,0.5,1.2,1.1,1.8,1.6c0.6,0.6,1.3,1.1,1.9,1.7c1.3,1.1,2.6,2.2,3.9,3.5
								c2.6,2.4,5.1,5,7.3,7.4l-0.1,0c0.8,0.4,1.8,0.8,2.6,1.2c0,0.1,0,0.1-0.1,0c0.9,0.8,1.5,1.8,2.4,2.6c-0.1,0-0.1,0-0.2,0
								c0.9,0.7,1.5,1.8,2.7,2.5l0,0.1l0.7,0.5c-0.1,0.1-0.3,0.2-0.6-0.1c7.4,7.2,15.6,14.2,22.9,21.9l-0.4-0.2l1.6,1.3
								c-0.1,0-0.1,0-0.2-0.1c1.6,2.1,3.8,3.8,5.4,5.7c-0.1,0-0.4-0.2-0.2,0.1c1.5,1.2,1.6,2.6,2.8,2.8c0,0.1-0.1,0.2-0.2,0.1
								c1.7,1.9,3.5,4,4.8,6.2c0.7,1.1,1,2.3,0.5,3.1c-0.5,0.8-1.8,1.2-3.1,1.4c-2,0.7-4.4,0.7-6.7,0.5c-2.3-0.2-4.7-0.5-7-0.6
								l0-0.1c-2.9-0.2-6-0.8-8.9-1.6c-0.1,0-0.1-0.1-0.2-0.2l-0.1-0.2l-0.2-0.5l-0.5-1l-1-2.1c-0.7-1.4-1.4-2.8-2.1-4.1
								c-1.1-2.3-2.1-3.8-3.3-6l0.1-0.1c-2.5-3.6-3.7-8.3-6.4-12l0.3,0.2c-0.3-0.2-0.5-0.7-0.8-1.2c-0.6-0.5-1-0.8-1.1-0.5l-0.5-0.7
								c-2.8-1.4-4-3.9-7.2-5.9l0.3,0.1c-0.8-0.6-1.8-1.3-2.3-1.8c0.1,0.1,0.1,0,0.3,0.1c-2-2.5-5.1-4.2-7.6-6.4l0.5,0
								c-1.4-0.8-3.5-2.9-5.2-4.2l0.2,0l-0.9-0.6l0.1-0.2C39.9,69.5,37.8,68,35.8,66.3z"/>
							<path fill="#EF782C" d="M20.4,43.7C20.4,43.7,20.4,43.7,20.4,43.7C20.5,43.8,20.4,43.8,20.4,43.7z"/>
							<path fill="#EF782C" d="M20.4,8.1C20.3,8,20.2,8,20.1,8C20.1,8,20.3,8,20.4,8.1z"/>
						</g>
					</g>
				</g>
			</g>
		</g>
		<g>
			<path fill="#F6F6F6" d="M107.7,110.5l27.3,1c0,0,6.5-3.4,17.6-1.2c11.1,2.2,16,13.4,12.3,18c-3.6,4.7-12.3-1.6-13.2-1.6
				c-0.8,0-35.2,0-36-0.6C115,125.5,107.7,110.5,107.7,110.5z"/>
			<g>
				<g>
					<g>
						<g>
							<polygon fill="#EF782C" points="106.5,111.1 106.4,111.2 106.7,111.3 							"/>
							<path fill="#EF782C" d="M107.4,111.9c0,0,0.1-0.1,0.1-0.1l-0.8-0.3C106.5,111.9,107.5,111.6,107.4,111.9z"/>
							<path fill="#EF782C" d="M107.4,112.1c0,0.3,0.3,0.3,0.4,0.3C107.6,112.4,107.7,111.9,107.4,112.1z"/>
							<path fill="#EF782C" d="M121.8,127.3C121.8,127.3,121.8,127.3,121.8,127.3C121.8,127.3,121.8,127.3,121.8,127.3z"/>
							<path fill="#EF782C" d="M127.7,126.5l0.1-0.2c-1.1,0.4-2.3,0-3.5,0.1l0.1-0.1c-1.5-0.1-2.9,0-4.3,0c-0.7,0-1.4,0.1-2.1,0.1
								c-0.7,0-1.4,0.1-2.2-0.1c0.1,0,0.1-0.1,0.2-0.1c-0.2,0.1-0.4,0-0.5-0.1c0-0.1,0.1,0,0.2,0c-0.1-0.7-1.2-1.4-1.1-1.9
								c-0.1-0.1-0.3-0.1-0.3,0c-1.2-2-2.3-4.1-3.6-6c0-0.1,0.1-0.2,0.2-0.2c-1.4-1.5-2.1-3.5-2.9-5.3c-0.2,0-0.1,0.3-0.3,0.2
								c0.1,0.7,0.9,0.9,0.9,1.6l-0.2,0c0.1,0.4,0.4-0.1,0.4,0.4c0,0.2-0.2,0-0.2,0.1c0.5,0.8,0.8,1.7,1.5,2.3
								c-0.2,0.3,0.4,0.9,0.3,1.3c0.2,0.2,0.3,0.4,0.5,0.4c0.6,1.5,1.4,2.9,2.2,4.3c0.4,0.7,0.8,1.4,1.3,2.1l0.3,0.5l0.2,0.3
								c0.1,0.1,0.2,0.3,0.3,0.4l0.3,0.3c0.1,0.1,0.3,0.1,0.4,0.1c0.3,0.1,0.7,0.1,0.8,0.1c1.6-0.5,3.4,0.3,5.2,0.1c0,0,0,0,0,0.1
								c0.6-0.1,1.5-0.2,2.2-0.1l0.6-0.3c4.2,0.6,8.6,0.3,12.9,0.5c4.9,0.2,9.2,0.7,14-0.2c0,0.1,0,0.1-0.1,0.1c0.4,0,0.4,0,0.7,0.1
								c0.3,0.1,0.6,0.3,0.8,0.5c0.6,0.3,1.1,0.6,1.8,0.9l0,0.1c1.6,0.5,3.2,1.2,4.9,1.5c0.4,0.1,0.9,0.2,1.3,0.1l0.7,0
								c0.2,0,0.4-0.1,0.7-0.1c0.4,0,0.8-0.2,1.2-0.4c0.4-0.2,0.7-0.5,1-0.8c1.6-1.3,2.2-3.5,2-5.6c-0.2-2.1-1.1-4.1-2.2-5.7
								l0.1-0.1c-0.9-1.3-2-2.5-3.1-3.7c-0.6-0.5-1.1-1.1-1.8-1.6c-0.3-0.2-0.7-0.5-1-0.7c-0.4-0.2-0.7-0.4-1.1-0.5l-0.5-0.3
								l-0.6-0.2c-0.4-0.2-0.8-0.3-1.2-0.4c-0.8-0.2-1.7-0.3-2.5-0.4c-0.9,0-1.7-0.1-2.5-0.2l-1.2-0.2c-0.4,0-0.8-0.1-1.2-0.1
								c-1-0.4-2.2-0.3-3.4,0c-0.6,0.1-1.2,0.2-1.7,0.3c-0.5,0.1-1.1,0.1-1.6,0c-1-0.1-2,0-3,0.2c-0.5,0.1-1,0.3-1.4,0.4
								c-0.2,0.1-0.5,0.2-0.7,0.3l-0.3,0.2c-0.1,0-0.2,0.1-0.2,0.1l-1.4,0.1l-1.5,0.1c-1,0.1-2,0.2-3,0.3c-3.6-0.5-7.3,0.3-10.8-0.6
								c-1.7,0.4-3.5-0.7-5.4-0.6l0.1,0.2c-0.7-0.5-1.5,0.6-1.9-0.1l0.1,0c-0.3-0.4-0.9,0.8-1.1,0.4l-0.1,0.2c-0.4,0,0-0.2-0.4-0.3
								c-0.1,0-0.1,0.3-0.3,0.2c0-0.7-1.1,0.1-1.1-0.7c0.2,0-0.4-0.3,0.2-0.5c-0.1-0.1-0.9-0.1-0.8,0.3c-0.1,0.4-0.4,0.7,0.1,1
								l0.1-0.3c0.1,0.3,0.1,0.1,0.2,0.3c0.6,0.1,0.6,0.4,1,0.6c0,0,0,0,0,0c0.3-0.3,0.7-0.1,0.9-0.1l0.1,0.2
								c0.1,0.3,0.7-0.6,0.5-0.1c1.2-0.1,2.5,0,3.8,0c0.2-0.2,1,0.1,0.7-0.3c0.3,0.5,1.3,0.6,1.6,0.6c0,0,0,0.1-0.1,0.1
								c0.7,0.6,0.8-0.5,1.5,0.2c0.1-0.5,1.2,0.2,1.6-0.4c0.1,0.1,0.1,0.2,0.1,0.3c1.2,0.1,2.5,0.3,3.4,0.3c0.9-0.4,2,0.3,2.8-0.3
								c0.6,0.1,1.6,0.4,2.4,0.2l-0.1,0.1c1,0,2.1,0,2.8-0.3c0.3,0.6,0.7,0.5,1.1,0.7c0.3-0.1,0.8-0.2,1.3-0.2c0.3,0,0.5,0,0.8,0
								c0.1,0,0.3,0,0.4,0c0.2,0,0.4,0,0.6-0.1c0.1,0,0.2,0,0.3,0c0.1,0,0.1-0.1,0.2-0.1l0.1-0.1c0.2-0.1,0.3-0.1,0.4,0
								c0.5-0.4,1.1-0.7,1.8-1c0.7-0.2,1.4-0.5,2.1-0.5c0.7-0.1,1.5-0.2,2.2-0.1c0.7,0.1,1.5,0.1,2.2,0.2l0,0c0.4-0.2,0.8-0.7,1.2-1
								c0,0,0,0.1,0,0.1c0.5,0,1,0.4,1.5,0.3c0,0.1,0,0.1-0.1,0.1c0.5-0.1,1,0.3,1.6,0.1l0,0.1l0.4-0.1c0,0.1-0.1,0.3-0.2,0.2
								c1.1,0.2,2.2,0.3,3.3,0.5c1.1,0.2,2.2,0.4,3.2,0.7c2.1,0.7,4.1,1.8,5.7,3.3l-0.2,0l0.8,0.5c-0.1,0-0.1,0-0.2,0
								c0.6,0.9,1.6,1.6,2.1,2.6c-0.1,0-0.2,0-0.2,0.1c0.7,0.5,0.2,1.3,1,1.3c0,0-0.1,0.1-0.2,0.1c1.2,1.8,1.6,4.3,1,6.3
								c0,0.4,0,0.9-0.3,1.3c-0.1,0.2-0.2,0.4-0.3,0.6l-0.5,0.5c-0.7,0.6-1.6,0.9-2.6,1.2l0-0.1c-1.3,0.3-2.6,0-3.9-0.5
								c-1.3-0.5-2.4-1.2-3.7-1.7c-0.5-0.3-0.9-0.5-1.3-0.7c-0.2-0.1-0.4-0.2-0.7-0.3c-0.3,0-0.5,0-0.8,0l0-0.2
								c-1.9,0.6-4-0.6-6,0.1l0.1-0.2c-0.3,0.3-1.2-0.1-1.1,0.5l-0.3-0.2c-1.3,0.8-2.4-0.4-4.1,0.1l0.1-0.1c-0.4,0.1-1,0.2-1.3,0.1
								c0.1,0,0-0.1,0.1-0.1c-1.4-0.6-2.9,0-4.4,0l0.2-0.3c-0.7,0.3-2,0-2.9,0.1l0.1-0.1l-0.5,0.2l0-0.2
								C130,126.2,128.9,126.4,127.7,126.5z"/>
							<path fill="#EF782C" d="M115.6,126.1C115.6,126.1,115.6,126.1,115.6,126.1C115.6,126.1,115.6,126.1,115.6,126.1z"/>
							<path fill="#EF782C" d="M109.2,111.7c-0.1,0-0.1,0-0.1-0.1C109.1,111.7,109.2,111.7,109.2,111.7z"/>
						</g>
					</g>
				</g>
			</g>
		</g>
		<g>
			<path fill="#FFFFFF" d="M31.2,52.3c0,0,4.9-12.8,0-28.4C28.9,16.7,22.9,6.7,17,4.7s-7.3,4.1-6.9,5.5s5.3,28,5.3,28
				s5.3,5.3,5.5,6.3C21,45.5,31.2,52.3,31.2,52.3z"/>
			<g>
				<g>
					<g>
						<g>
							<polygon fill="#EF782C" points="31.9,51.2 31.9,51.2 31.7,51.2 							"/>
							<path fill="#EF782C" d="M30.9,51.1c0,0,0,0.1,0,0.1l0.8-0.2C31.6,50.6,30.9,51.4,30.9,51.1z"/>
							<path fill="#EF782C" d="M30.8,51c-0.1-0.2-0.3-0.1-0.4,0C30.6,50.8,30.7,51.2,30.8,51z"/>
							<path fill="#EF782C" d="M17.3,39C17.3,39,17.3,39,17.3,39C17.3,39,17.3,39,17.3,39z"/>
							<path fill="#EF782C" d="M14.7,35.3l-0.2,0c0.6,0.8,0.3,1.8,0.7,2.8l-0.1,0c0,0.1,0,0.1,0,0.2c0.2,0.2,0.4,0.5,0.7,0.7
								l0.6,0.6c0.4,0.4,0.8,0.8,1.3,1.1c0.8,0.8,1.7,1.5,2.5,2.4c0,0-0.1,0-0.1,0c0.1,0,0.3,0.1,0.4,0.2c0,0.1-0.1,0-0.1,0
								c0,0.3,0.3,0.6,0.5,0.8c0.1,0.1,0.1,0.2,0.2,0.2l0,0.1c0,0,0,0,0,0c0,0,0,0.1,0.1,0.1c0.1,0.1,0.1,0.2,0.1,0.3
								c0.1,0.1,0.3,0,0.3-0.1c1.4,1.2,3.1,2.3,4.7,3.2c0,0.1,0,0.2-0.1,0.3c1.7,0.5,2.9,1.6,4.2,2.7c0.1-0.1,0-0.2,0.2-0.3
								c-0.3-0.5-1-0.2-1.3-0.8l0.1-0.1c-0.2-0.3-0.3,0.3-0.5-0.1c0-0.2,0.1-0.1,0.1-0.2c-0.6-0.4-1.2-0.9-2-1.1
								c0.1-0.4-0.6-0.5-0.7-0.9c-0.2,0-0.4-0.2-0.6,0c-1-0.8-2.1-1.6-3.1-2.4c-0.3-0.2-0.5-0.4-0.7-0.6c-0.1-0.1-0.2-0.2-0.3-0.3
								c0,0,0,0,0,0c0,0,0,0,0,0c0,0-0.1,0.1-0.2,0.1l-0.1,0l-0.3,0l-0.1,0l0,0l0,0c-0.1,0,1.3-0.2,0.7-0.1l0,0l0-0.1L21.6,44
								c-0.2-0.5-0.5-0.7-0.7-1l-0.7-0.8c-1.3-0.6-1.8-2.2-3-3.1c0,0,0,0,0,0c-0.2-0.1-0.5-0.3-0.7-0.5c-0.2-0.2-0.5-0.5-0.5-0.6
								l-0.1,0c-0.1,0-0.1-0.1-0.2-0.2c-0.1-3.5-1.1-7-1.5-10.5c-0.6-4-0.8-7.6-2.4-11.3c0.1,0,0.1,0,0.1,0
								c-0.3-1.1-0.3-2.2-0.6-3.2l0.1,0c-0.3-0.6-0.4-1.3-0.6-1.9c-0.2-0.7-0.3-1.2-0.2-1.8c0.1-0.6,0.3-1.2,0.5-1.8
								c0.2-0.6,0.5-1.1,0.9-1.6c1.1-1,2.8-1.3,4.4-0.8c1.6,0.4,3.1,1.3,4.4,2.3l-0.1,0.1c2.2,1.5,3.3,4,4.9,6
								c1.2,2.4,3.5,4.4,4.2,7.1c0.1,1.7,2.1,3.4,1.9,5.2c-0.1,3.4,1.1,6.2,1.9,9.5c-0.1,3,0.7,6.1-0.4,8.9c0.3,1.4-0.9,2.8-1.1,4.3
								l0.2,0c-0.6,0.4,0.4,1.3-0.4,1.5l0-0.1c-0.4,0.2,0.7,0.9,0.2,0.9l0.2,0.1c0,0.4-0.2,0-0.3,0.2c0,0.1,0.3,0.1,0.1,0.3
								c-0.7-0.2-0.1,0.9-0.9,0.7c0.1-0.2-0.4,0.2-0.4-0.3c-0.1,0.1-0.3,0.6,0.1,0.7c0.3,0.2,0.5,0.5,0.9,0.3l-0.2-0.2
								c0.3,0,0.2,0,0.4,0c0.2-0.4,0.6-0.4,0.8-0.7c0,0,0,0,0,0c-0.2-0.3,0-0.6,0.1-0.7l0.2,0c0.3,0-0.4-0.7,0-0.4
								c0.1-1,0.4-2.1,0.6-3.1c-0.2-0.2,0.2-0.8-0.3-0.6c0.5-0.2,0.7-1,0.7-1.3c0,0,0.1,0,0.1,0.1c0.7-0.5-0.4-0.8,0.3-1.2
								c-0.5-0.1,0.3-1-0.3-1.3c0.1-0.1,0.2-0.1,0.3,0c0.1-1,0.3-2.1,0.4-2.9c-0.4-0.7,0.2-1.7-0.4-2.3c0.1-0.5,0.3-1.3,0.1-2
								l0.1,0.1c0-0.8-0.2-1.8-0.6-2.3c0.6-0.3,0.4-0.6,0.6-1c-0.3-0.5-0.4-1.6-0.8-2.3c0.2-0.2-0.2-0.6,0.1-0.8
								c-0.6-1-0.9-2.3-1.3-3.5c-0.2-0.6-0.3-1.3-0.3-1.9c-0.1-0.6-0.2-1.3-0.3-1.9l0,0c-0.3-0.2-0.9-0.4-1.2-0.6c0,0,0.1-0.1,0.1,0
								c-0.2-0.4,0-0.9-0.3-1.3c0.1,0,0.1,0,0.1,0c-0.3-0.3-0.1-0.9-0.5-1.2l0.1-0.1l-0.3-0.2c0.1,0,0.3-0.1,0.3,0.1
								c-1.5-3.5-4.1-6.6-6.6-9.6l0.2,0l-0.7-0.4c0.1,0,0.1,0,0.1,0c-0.5-0.9-1.5-1.3-2.2-2c0,0,0.2,0,0.2-0.2
								c-0.7-0.2-0.6-1.1-1.4-0.7c0,0,0.1-0.2,0.2-0.2c-1.8-1-3.7-1.9-5.9-1.8c-0.9,0.4-1.7,0.8-2.4,1.4c-0.7,0.6-1.2,1.4-1.3,2.3
								l-0.1-0.1c-0.2,1.1-0.5,2.2-0.2,3.4c0.2,1.1,0.3,2.2,0.5,3.3c0.1,0.9,0.4,1.5,0.6,2.4L11,16.4c0.9,1.4,0.1,3.3,1,4.8
								l-0.2-0.1c0.4,0.2,0.1,1,0.6,0.8l-0.1,0.3c1,0.9,0,2,0.8,3.3L13,25.5c0.2,0.3,0.3,0.7,0.3,1c0,0-0.1,0-0.1-0.1
								c-0.3,1.2,0.5,2.3,0.7,3.5l-0.3-0.1c0.4,0.5,0.3,1.6,0.6,2.3l-0.1,0l0.2,0.3L14,32.6C14.1,33.5,14.5,34.4,14.7,35.3z"/>
							<path fill="#EF782C" d="M20.3,43.3C20.3,43.3,20.3,43.3,20.3,43.3C20.2,43.3,20.2,43.3,20.3,43.3z"/>
							<path fill="#EF782C" d="M32.6,51.5c0,0-0.1,0.1-0.1,0.1C32.6,51.6,32.6,51.5,32.6,51.5z"/>
						</g>
					</g>
				</g>
			</g>
		</g>
		<g>
			<path fill="#FFFFFF" d="M18.3,32.8c0,0,3-21.6-0.3-25.9S8.7,1.4,1.5,8.4c0,0-2.2,15.3,4.2,26.6s15.5,29.1,22.4,37.3
				c7.8,9.3,24.6,16.9,30.8,28.2s16.5,28.5,16.5,28.5L91,131c0,0-9.2-27.8-22.1-41.4s-32.1-27-37.4-34.9S18.3,32.8,18.3,32.8z"/>
			<g>
				<g>
					<g>
						<g>
							<polygon fill="#EF782C" points="17.1,33.4 17.1,33.6 17.5,33.8 							"/>
							<path fill="#EF782C" d="M18.8,35.5c0-0.1,0.1-0.1,0.1-0.2l-1.3-1.1C17.7,35,18.8,35,18.8,35.5z"/>
							<path fill="#EF782C" d="M19,35.9c0.2,0.6,0.6,0.7,0.7,0.8C19.4,36.6,19.2,35.7,19,35.9z"/>
							<path fill="#EF782C" d="M53.5,76.4c0,0-0.1-0.1-0.2-0.1C53.4,76.4,53.5,76.4,53.5,76.4z"/>
							<path fill="#EF782C" d="M64.5,85.1l0.3-0.1c-2.2-1.5-4.1-3.8-6.2-5.5l0.2,0.1c-5.2-4.7-10.4-8.5-15.7-13
								c0.1,0.1,0.2,0,0.3,0.1c-0.3-0.2-0.7-0.3-0.9-0.6c0-0.1,0.1,0,0.3,0.1c-0.9-1.2-3.4-2.7-3.9-3.5c-0.3-0.3-0.6-0.3-0.5,0
								c-2-1.8-4.1-3.7-6-5.9c-0.5-0.6-0.9-1.1-1.3-1.7l-1.2-1.8c-0.8-1.2-1.6-2.3-2.4-3.5c-0.1-0.3,0-0.3,0.1-0.4
								c-3-3.7-5.3-8.1-7.6-12.4c-0.2-0.1,0.1,0.5-0.3,0.2c0.6,1.4,1.8,2.3,2.2,3.6l-0.2-0.1c0.4,0.9,0.4,0,0.8,1
								c0.1,0.4-0.2,0-0.1,0.2c1.2,1.8,2.2,3.9,3.6,5.4c0,0.6,1.2,2,1.4,2.9c0.4,0.4,0.7,0.9,1,1c0.5,0.8,1,1.6,1.5,2.5
								c0.5,0.8,1,1.6,1.6,2.4c1.2,1.6,2.6,3,4,4.4c2.8,2.7,5.8,5.2,8.8,7.8c3.2,1.9,6,5.3,9.4,8c0,0,0,0.1,0,0
								c1.2,0.8,2.8,2.1,4,3.3l1.2,0.8c3.6,3.6,7.3,7.1,10.8,10.9c3.4,3.8,6.2,8.1,8.7,12.6c2.8,5.1,5,10.1,7.1,15.1
								c1,2.5,2.1,5,3.1,7.5c0.3,0.6,0.5,1.3,0.8,1.9c0.3,0.8,0.3,0.8,0.5,1.2l0.1,0.2c0,0.1,0.1,0.2,0,0.2l-0.5,0l-0.6,0l-1.1-0.1
								c0-0.1-0.1-0.1,0.2-0.1c-3.3-0.3-6.2-0.9-9.3-1.1l0-0.1c-0.9-0.1-1.8-0.1-2.8-0.2c-0.1,0-0.2,0-0.2,0l-0.1-0.2l-0.3-0.5
								l-0.8-1.3c-1-1.7-2-3.4-3-5.1c-2-3.4-3.9-6.9-6-9.9c-2.2-3.9-4.5-8.1-7.1-12.3l-0.5-0.8l-0.6-0.7c-0.4-0.5-0.7-1-1.1-1.5
								c-0.8-0.9-1.6-1.9-2.5-2.7c-1.7-1.7-3.6-3.3-5.5-4.8l0.1-0.1c-6.1-4.6-12-9.1-17.6-14.2c-0.7-0.7-1.3-1.5-2-2.2
								c-0.6-0.8-1.2-1.6-1.9-2.3c-1.3-1.5-2.4-3.2-3.6-4.8c-1.2-1.6-2.3-3.3-3.4-5c-1.1-1.7-2.1-3.5-3-5.2
								C14.9,50.3,10.6,45.3,9,41c-0.9-2.2-2-4.3-3-6.4c-1-2.1-1.9-4.2-2.6-6.4c-1.3-4.4-2.2-9-2.5-13.8c0-1.1,0.1-2.2,0.2-3.3
								l0.1-1.6l0.1-0.8l0-0.2c0-0.1,0-0.2,0.1-0.2L1.8,8C3.3,6.4,5.1,5,7.1,4.1c1-0.5,2.1-0.8,3.2-1c1.1-0.2,2.3-0.1,3.3,0.2
								c1.1,0.3,2.1,0.9,2.9,1.6c0.8,0.7,1.6,1.5,2,2.6c0.5,0.9,0.8,1.9,0.9,3c0.1,1.1,0.1,2.1,0.1,3.2c-0.1,2.2-0.3,4.4-0.4,6.6
								l0.2-0.2c-0.5,1.6,0.5,3.6-0.3,4.5l0-0.2c-0.4,0.8,0.7,2,0.2,2.5l0.2,0.2c0,1-0.2,0.1-0.4,0.9c0,0.3,0.3,0.1,0.1,0.8
								c-0.7,0.1-0.1,2.5-0.9,2.5c0.1-0.6-0.4,0.8-0.4-0.4c-0.1,0.3-0.3,2,0.1,1.9c0.3,0.2,0.6,0.9,1-0.1l-0.2-0.2
								c0.3-0.3,0.2-0.2,0.4-0.3c0.2-1.4,0.6-1.5,0.9-2.5c0,0,0,0,0,0c-0.2-0.7,0-1.6,0.1-2.1l0.2-0.2c0.3-0.3-0.5-1.6,0-1.1
								c0.1-2.8,0.3-6,0.4-9.1c-0.2-0.4,0-2.4-0.4-1.7c0.4-0.8,0.5-3.2,0.3-4c0,0,0.1,0.1,0.1,0.2c0.2-0.9,0-1.4-0.2-1.9
								C20,9,19.8,8.6,19.9,7.6c-0.3,0-0.5-0.9-1.1-1.7c-0.5-0.7-1.2-1.4-1.8-1.5c-0.1-0.2-0.1-0.3,0-0.4c-1.2-1-2.9-1.7-4.5-2
								c-1.6-0.2-3.2,0-4.5,0.4C7,3.1,5.8,3.6,4.7,4.3C3.6,4.9,2.6,5.7,2.1,6.5C1.8,6.8,1.5,7,1.1,7.3c-0.3,0.3-0.7,0.5-0.7,1
								c-0.1,0.3-0.1,0.7-0.2,1c-0.2,1-0.2,2.1-0.1,3.2L0,12.3c-0.1,2.3,0,5.2,0.6,6.8c-0.5,0.7-0.3,1.7-0.4,2.7
								c0.5,1.5,0.9,4.6,1.8,6.9c-0.1,0.4,0.7,1.8,0.4,2.1c0.4,0.8,0.8,1.5,1.2,2.3c0.4,0.8,0.9,1.6,1.3,2.4
								c0.9,1.5,1.8,3.1,2.7,4.7c1.7,3.3,3.4,6.6,4.8,9.8l-0.1-0.1c0.6,0.7,1.5,1.4,2.2,2c0,0.1,0,0.1-0.1-0.1
								c0.7,1.1,0.9,2.3,1.6,3.4c-0.1,0-0.1,0-0.2-0.1c0.7,0.9,1,2.3,1.9,3.3l0,0.1l0.6,0.7c-0.1,0-0.3,0.1-0.5-0.3
								c0.7,1.2,1.4,2.4,2.1,3.5c0.7,1.2,1.4,2.3,2.2,3.5c0.8,1.1,1.6,2.3,2.4,3.4c0.9,1.1,1.8,2.2,2.6,3.3
								c3.8,4.3,8.5,7.5,12.9,10.9l-0.4-0.1l1.9,1.1c0,0-0.1,0-0.2,0c2.1,1.8,4.6,3.2,6.6,5c0,0-0.4-0.1-0.2,0.2
								c1.7,1,2.1,2.4,3.3,2.5c0,0.1,0,0.2-0.2,0.2c2.1,1.7,4.1,3.7,5.7,5.9c1.6,2.2,2.9,4.7,4.2,7.2c2.9,3.7,4.9,8.5,7.8,12.4
								l-0.1,0c1.7,2.6,3.4,5.4,5,8.2l1.2,2.1l0.6,1.1c0.2,0.1,0.4,0.1,0.7,0.1l0.6,0.1c1.6,0.2,3.2,0.4,4.8,0.6
								c2.7,0.4,4.5,0.4,7.2,0.8l0,0.2c0.6,0,1.3,0,1.9,0.1l0.4,0c0.1,0,0.4,0.1,0.3-0.1l-0.3-0.9c-0.4-1.2-0.8-2.4-1.1-3.5
								c-0.7-2.3-1.5-4.6-2.8-6.7l0.3,0.2c-0.6-0.5-1-2.7-1.4-2.2l-0.2-0.8c-2-2.6-2.1-5.5-4.3-8.8l0.2,0.2
								c-0.6-0.9-1.2-1.9-1.5-2.7c0.1,0.1,0.1,0,0.2,0.2c-0.5-1.6-1.4-3.1-2.4-4.6c-1-1.4-2-2.9-3-4.3l0.4,0.2
								c-0.6-0.6-1.3-1.6-2-2.6c-0.8-1-1.5-2.1-2.3-2.9l0.2,0l-0.9-0.7l0.2-0.2c-0.5-0.5-1-1.1-1.4-1.6c-0.5-0.5-1-1-1.5-1.4
								C66.5,87,65.5,86,64.5,85.1z"/>
							<path fill="#EF782C" d="M42.6,66.2C42.6,66.2,42.6,66.2,42.6,66.2C42.7,66.3,42.7,66.2,42.6,66.2z"/>
							<path fill="#EF782C" d="M19.8,29.2c0,0.1-0.1,0.2-0.1,0.3C19.8,29.5,19.8,29.3,19.8,29.2z"/>
						</g>
					</g>
				</g>
			</g>
		</g>
		<g>
			<path fill="#FFFFFF" d="M19.3,30.7c0,0,3-21.6-0.3-25.9S9.7-0.6,2.5,6.4c0,0-2.2,15.3,4.2,26.6s15.5,29.1,22.4,37.3
				c7.8,9.3,24.6,16.9,30.8,28.2s16.5,28.5,16.5,28.5L92,129c0,0-9.2-27.8-22.1-41.4s-32.1-27-37.4-34.9S19.3,30.7,19.3,30.7z"/>
			<g>
				<g>
					<g>
						<g>
							<polygon fill="#EF782C" points="18.1,31.4 18.1,31.6 18.5,31.8 							"/>
							<path fill="#EF782C" d="M19.8,33.5c0-0.1,0.1-0.1,0.1-0.2l-1.3-1.1C18.7,33,19.8,33,19.8,33.5z"/>
							<path fill="#EF782C" d="M20,33.9c0.2,0.6,0.6,0.7,0.7,0.8C20.4,34.6,20.2,33.6,20,33.9z"/>
							<path fill="#EF782C" d="M54.5,74.4c0,0-0.1-0.1-0.2-0.1C54.4,74.4,54.5,74.4,54.5,74.4z"/>
							<path fill="#EF782C" d="M65.5,83l0.3-0.1c-2.2-1.5-4.1-3.8-6.2-5.5l0.2,0.1c-5.2-4.7-10.4-8.5-15.7-13c0.1,0.1,0.2,0,0.3,0.1
								c-0.3-0.2-0.7-0.3-0.9-0.6c0-0.1,0.1,0,0.3,0.1c-0.9-1.2-3.4-2.7-3.9-3.5c-0.3-0.3-0.6-0.3-0.5,0c-2-1.8-4.1-3.7-6-5.9
								c-0.5-0.6-0.9-1.1-1.3-1.7l-1.2-1.8c-0.8-1.2-1.6-2.3-2.4-3.5c-0.1-0.3,0-0.3,0.1-0.4c-3-3.7-5.3-8.1-7.6-12.4
								c-0.2-0.1,0.1,0.5-0.3,0.2c0.6,1.4,1.8,2.3,2.2,3.6l-0.2-0.1c0.4,0.9,0.4,0,0.8,1c0.1,0.4-0.2,0-0.1,0.2
								c1.2,1.8,2.2,3.9,3.6,5.4c0,0.6,1.2,2,1.4,2.9c0.4,0.4,0.7,0.9,1,1c0.5,0.8,1,1.6,1.5,2.5c0.5,0.8,1,1.6,1.6,2.4
								c1.2,1.6,2.6,3,4,4.4c2.8,2.7,5.8,5.2,8.8,7.8c3.2,1.9,6,5.3,9.4,8c0,0,0,0.1,0,0c1.2,0.8,2.8,2.1,4,3.3l1.2,0.8
								c3.6,3.6,7.3,7.1,10.8,10.9c3.4,3.8,6.2,8.1,8.7,12.6c2.8,5.1,5,10.1,7.1,15.1c1,2.5,2.1,5,3.1,7.5c0.3,0.6,0.5,1.3,0.8,1.9
								c0.3,0.8,0.3,0.8,0.5,1.2l0.1,0.2c0,0.1,0.1,0.2,0,0.2l-0.5,0l-0.6,0l-1.1-0.1c0-0.1-0.1-0.1,0.2-0.1
								c-3.3-0.3-6.2-0.9-9.3-1.1l0-0.1c-0.9-0.1-1.8-0.1-2.8-0.2c-0.1,0-0.2,0-0.2,0l-0.1-0.2l-0.3-0.5l-0.8-1.3
								c-1-1.7-2-3.4-3-5.1c-2-3.4-3.9-6.9-6-9.9c-2.2-3.9-4.5-8.1-7.1-12.3l-0.5-0.8l-0.6-0.7c-0.4-0.5-0.7-1-1.1-1.5
								c-0.8-0.9-1.6-1.9-2.5-2.7c-1.7-1.7-3.6-3.3-5.5-4.8l0.1-0.1c-6.1-4.6-12-9.1-17.6-14.2c-0.7-0.7-1.3-1.5-2-2.2
								c-0.6-0.8-1.2-1.6-1.9-2.3c-1.3-1.5-2.4-3.2-3.6-4.8c-1.2-1.6-2.3-3.3-3.4-5c-1.1-1.7-2.1-3.5-3-5.2
								c-1.9-4.6-6.2-9.5-7.8-13.9c-0.9-2.2-2-4.3-3-6.4c-1-2.1-1.9-4.2-2.6-6.4c-1.3-4.4-2.2-9-2.5-13.8c0-1.1,0.1-2.2,0.2-3.3
								l0.1-1.6l0.1-0.8l0-0.2c0-0.1,0-0.2,0.1-0.2l0.3-0.3C4.3,4.4,6.1,3,8.1,2c1-0.5,2.1-0.8,3.2-1c1.1-0.2,2.3-0.1,3.3,0.2
								c1.1,0.3,2.1,0.9,2.9,1.6c0.8,0.7,1.6,1.5,2,2.6c0.5,0.9,0.8,1.9,0.9,3c0.1,1.1,0.1,2.1,0.1,3.2c-0.1,2.2-0.3,4.4-0.4,6.6
								l0.2-0.2c-0.5,1.6,0.5,3.6-0.3,4.5l0-0.2c-0.4,0.8,0.7,2,0.2,2.5l0.2,0.2c0,1-0.2,0.1-0.4,0.9c0,0.3,0.3,0.1,0.1,0.8
								c-0.7,0.1-0.1,2.5-0.9,2.5c0.1-0.6-0.4,0.8-0.4-0.4c-0.1,0.3-0.3,2,0.1,1.9c0.3,0.2,0.6,0.9,1-0.1l-0.2-0.2
								c0.3-0.3,0.2-0.2,0.4-0.3c0.2-1.4,0.6-1.5,0.9-2.5c0,0,0,0,0,0c-0.2-0.7,0-1.6,0.1-2.1l0.2-0.2c0.3-0.3-0.5-1.6,0-1.1
								c0.1-2.8,0.3-6,0.4-9.1c-0.2-0.4,0-2.4-0.4-1.7c0.4-0.8,0.5-3.2,0.3-4c0,0,0.1,0.1,0.1,0.2c0.2-0.9,0-1.4-0.2-1.9
								C21,7,20.8,6.6,20.9,5.6c-0.3,0-0.5-0.9-1.1-1.7c-0.5-0.7-1.2-1.4-1.8-1.5c-0.1-0.2-0.1-0.3,0-0.4c-1.2-1-2.9-1.7-4.5-2
								c-1.6-0.2-3.2,0-4.5,0.4C8,1,6.8,1.6,5.7,2.2C4.6,2.9,3.6,3.7,3.1,4.5C2.8,4.7,2.5,5,2.1,5.3c-0.3,0.3-0.7,0.5-0.7,1
								c-0.1,0.3-0.1,0.7-0.2,1c-0.2,1-0.2,2.1-0.1,3.2L1,10.2c-0.1,2.3,0,5.2,0.6,6.8c-0.5,0.7-0.3,1.7-0.4,2.7
								c0.5,1.5,0.9,4.6,1.8,6.9c-0.1,0.4,0.7,1.8,0.4,2.1c0.4,0.8,0.8,1.5,1.2,2.3c0.4,0.8,0.9,1.6,1.3,2.4
								c0.9,1.5,1.8,3.1,2.7,4.7c1.7,3.3,3.4,6.6,4.8,9.8l-0.1-0.1c0.6,0.7,1.5,1.4,2.2,2c0,0.1,0,0.1-0.1-0.1
								c0.7,1.1,0.9,2.3,1.6,3.4c-0.1,0-0.1,0-0.2-0.1c0.7,0.9,1,2.3,1.9,3.3l0,0.1l0.6,0.7c-0.1,0-0.3,0.1-0.5-0.3
								c0.7,1.2,1.4,2.4,2.1,3.5c0.7,1.2,1.4,2.3,2.2,3.5c0.8,1.1,1.6,2.3,2.4,3.4c0.9,1.1,1.8,2.2,2.6,3.3
								c3.8,4.3,8.5,7.5,12.9,10.9l-0.4-0.1l1.9,1.1c0,0-0.1,0-0.2,0c2.1,1.8,4.6,3.2,6.6,5c0,0-0.4-0.1-0.2,0.2
								c1.7,1,2.1,2.4,3.3,2.5c0,0.1,0,0.2-0.2,0.2c2.1,1.7,4.1,3.7,5.7,5.9c1.6,2.2,2.9,4.7,4.2,7.2c2.9,3.7,4.9,8.5,7.8,12.4
								l-0.1,0c1.7,2.6,3.4,5.4,5,8.2l1.2,2.1l0.6,1.1c0.2,0.1,0.4,0.1,0.7,0.1l0.6,0.1c1.6,0.2,3.2,0.4,4.8,0.6
								c2.7,0.4,4.5,0.4,7.2,0.8l0,0.2c0.6,0,1.3,0,1.9,0.1l0.4,0c0.1,0,0.4,0.1,0.3-0.1l-0.3-0.9c-0.4-1.2-0.8-2.4-1.1-3.5
								c-0.7-2.3-1.5-4.6-2.8-6.7l0.3,0.2c-0.6-0.5-1-2.7-1.4-2.2l-0.2-0.8c-2-2.6-2.1-5.5-4.3-8.8l0.2,0.2
								c-0.6-0.9-1.2-1.9-1.5-2.7c0.1,0.1,0.1,0,0.2,0.2c-0.5-1.6-1.4-3.1-2.4-4.6c-1-1.4-2-2.9-3-4.3l0.4,0.2
								c-0.6-0.6-1.3-1.6-2-2.6c-0.8-1-1.5-2.1-2.3-2.9l0.2,0l-0.9-0.7l0.2-0.2c-0.5-0.5-1-1.1-1.4-1.6c-0.5-0.5-1-1-1.5-1.4
								C67.5,84.9,66.5,84,65.5,83z"/>
							<path fill="#EF782C" d="M43.6,64.2C43.6,64.2,43.6,64.2,43.6,64.2C43.7,64.2,43.7,64.2,43.6,64.2z"/>
							<path fill="#EF782C" d="M20.8,27.2c0,0.1-0.1,0.2-0.1,0.3C20.8,27.5,20.8,27.3,20.8,27.2z"/>
						</g>
					</g>
				</g>
			</g>
		</g>
		<g>
			<g>
				<g>
					<g>
						<g>
							<polygon fill="#EF782C" points="28.6,53.6 28.5,53.7 28.8,53.7 							"/>
							<path fill="#EF782C" d="M29.4,54c0,0,0.1-0.1,0.1-0.1l-0.8,0C28.6,54.3,29.5,53.8,29.4,54z"/>
							<path fill="#EF782C" d="M29.5,54.2c0,0.2,0.3,0.1,0.4,0.1C29.6,54.4,29.7,54,29.5,54.2z"/>
							<path fill="#EF782C" d="M41,65.4C41,65.4,41,65.4,41,65.4C41,65.4,41,65.4,41,65.4z"/>
							<path fill="#EF782C" d="M44.8,67.4l0.2-0.1c-0.8-0.2-1.2-1.1-2-1.5l0.1,0c-1.5-1.4-3.2-2.4-4.8-3.7c0,0,0.1,0,0.1,0
								c-0.1,0-0.3,0-0.4-0.1c0-0.1,0.1-0.1,0.1,0C38,61.4,37,61.2,37,60.8c-0.1-0.1-0.3,0-0.3,0.2c-1.3-1-2.6-2.2-3.9-3.2
								c0-0.1,0-0.2,0.1-0.2c-1.4-0.6-2.3-1.9-3.1-3.1c-0.2,0,0,0.2-0.3,0.2c0.1,0.5,0.8,0.5,0.9,1l-0.2,0.1
								c0.1,0.3,0.3-0.2,0.4,0.2c0,0.2-0.2,0.1-0.1,0.2c0.5,0.5,0.8,1.1,1.5,1.3c-0.1,0.3,0.5,0.5,0.4,0.9c0.2,0,0.3,0.2,0.5,0.1
								c1.5,1.8,3.4,3.1,5.1,4.7c1.2,0.3,1.7,1.7,2.8,2.4c0,0,0,0,0,0c0.4,0.2,0.9,0.5,1.3,0.9l0.5,0.1c1.9,2.4,4.5,4.1,6.7,6.3
								C52,75,54,77.3,57.1,79c0,0,0,0.1-0.1,0c0.8,0.6,1.3,1.3,2.1,1.8l0,0c1,0.6,1.9,1.4,2.7,2.2c0.8,0.8,1.7,1.6,2.7,2.2
								c1.9,1.9,4,4.1,5.9,6.2l-0.1,0.1c1.6,1.6,2.3,3.8,3.7,5.6c0.5,1.1,1.3,2,2.1,2.9c0.7,1,1.5,1.9,1.9,3
								c0.1,1.6,2.2,2.6,2.3,4.2c0.4,2.9,2.1,5.1,3.8,7.5c0.7,2.5,2.5,4.6,2.8,7.2c0.9,0.9,0.4,2.5,1,3.7l0.1-0.1
								c-0.3,0.6,1,0.8,0.4,1.3l0,0c-0.3,0.4,1,0.3,0.6,0.6l0.2,0c0.2,0.3-0.2,0.1-0.2,0.3c0.1,0.1,0.3-0.1,0.3,0.1
								c-0.7,0.3,0.4,0.7-0.4,0.9c-0.1-0.2-0.2,0.3-0.5,0.1c0,0.1,0.2,0.6,0.5,0.4c0.4-0.1,0.7,0,0.9-0.4l-0.3,0
								c0.2-0.2,0.1-0.1,0.3-0.2c-0.1-0.4,0.2-0.6,0.3-0.9c0,0,0,0,0,0c-0.4-0.1-0.3-0.4-0.3-0.6l0.1-0.1c0.3-0.2-0.7-0.2-0.2-0.3
								c-0.4-0.7-0.7-1.6-1.1-2.5c-0.2-0.1-0.2-0.7-0.5-0.3c0.3-0.4,0.2-1.1,0.1-1.3c0,0,0.1,0,0.1,0c0.4-0.7-0.7-0.4-0.2-1
								c-0.5,0.1-0.2-0.8-0.8-0.9c0.1-0.1,0.2-0.1,0.3-0.2c-0.3-0.8-0.5-1.7-0.7-2.4c-0.6-0.4-0.4-1.4-1.1-1.7
								c0-0.4-0.1-1.2-0.6-1.6l0.1,0c-0.3-0.6-0.7-1.4-1.2-1.6c0.4-0.4,0.2-0.6,0.3-1c-0.4-0.3-0.8-1.2-1.3-1.7
								c0.2-0.2-0.3-0.5,0-0.7c-1.5-1.4-2.3-3.7-2.8-5.8l0,0c-0.3-0.1-0.9-0.2-1.2-0.3c0,0,0.1-0.1,0.1,0c-0.2-0.3-0.1-0.8-0.3-1.1
								c0.1,0,0.1,0,0.1,0c-0.3-0.2-0.1-0.8-0.6-1l0.1-0.1l-0.3-0.2c0.1-0.1,0.3-0.1,0.3,0c-0.4-0.7-0.8-1.4-1.2-2.1
								c-0.5-0.7-1-1.4-1.5-2c-1-1.4-2.1-2.6-3-4l0.2,0L72.2,93c0.1,0,0.1,0,0.1,0c-0.3-0.8-1.1-1.3-1.6-1.9c0.1,0,0.2,0,0.2-0.1
								c-0.6-0.3-0.2-1-1-0.8c0,0,0.1-0.2,0.2-0.2c-1.3-1.1-2.4-2.4-3.5-3.7c-1.4-0.5-2.1-2-3.5-2.7l0.1-0.1c-1.6-1-2.8-2.6-4.2-3.9
								c-0.6-0.6-1.1-0.8-1.7-1.4l0.1-0.1c-1.4-0.4-1.8-2.3-3.3-2.7l0.2-0.1c-0.4,0.1-0.6-0.7-0.9-0.2l-0.1-0.3
								c-1.2,0-1.1-1.4-2.3-1.8l0.1-0.1c-0.3-0.1-0.6-0.3-0.7-0.5c0,0,0.1,0,0.1,0c-0.4-1.1-1.6-1.3-2.4-2l0.3-0.1
								c-0.6-0.1-1.1-0.9-1.7-1.2l0.1-0.1L46.6,69l0.2-0.2C46.2,68.3,45.4,67.9,44.8,67.4z"/>
							<path fill="#EF782C" d="M38.1,61.9C38.1,61.9,38.1,61.9,38.1,61.9C38.1,61.9,38.1,61.9,38.1,61.9z"/>
							<path fill="#EF782C" d="M89.9,127.7c0,0,0,0.1,0,0.1C89.9,127.8,89.9,127.7,89.9,127.7z"/>
						</g>
					</g>
				</g>
			</g>
		</g>
		<g>
			<path fill="#FFFFFF" d="M152.6,140.7c0,0,6.9,3.5,10.9-7.3c4-10.8,0.5-15.8-13-17.3c-13.5-1.5-41-0.1-41-0.1l33.2,26.2
				L152.6,140.7z"/>
			<g>
				<g>
					<g>
						<g>
							<polygon fill="#EF782C" points="152.4,139.4 152.4,139.4 152.2,139.6 							"/>
							<path fill="#EF782C" d="M151.4,140c0,0,0,0.1,0.1,0.1l0.5-0.7C151.7,139.2,151.6,140.2,151.4,140z"/>
							<path fill="#EF782C" d="M151.2,140c-0.3-0.1-0.3,0.2-0.4,0.3C150.9,140.1,151.3,140.3,151.2,140z"/>
							<path fill="#EF782C" d="M132.9,133.4C133,133.5,133,133.5,132.9,133.4C133,133.4,133,133.4,132.9,133.4z"/>
							<path fill="#EF782C" d="M127.9,130.7l-0.2,0.1c1.1,0.3,1.8,1.4,2.8,2l-0.1,0c2.2,1.8,4.5,3.2,6.8,4.8c0,0-0.1,0-0.2,0
								c0.2,0,0.4,0,0.5,0.1c0,0.1-0.1,0.1-0.1,0c0.2,0.7,1.5,0.9,1.6,1.4c0.2,0.1,0.3,0,0.3-0.2c0.6,0.5,1.3,0.9,1.9,1.4l1,0.7
								l0.5,0.3l0.3,0.2l0.3-0.1c0.1,0,0.3-0.1,0.5-0.1c0.3-0.1,0.7-0.2,1-0.3c0.1,0,0.1,0.1,0.1,0.3c1.8-0.9,3.9-0.9,5.8-1.1
								c0.1-0.2-0.2-0.1-0.1-0.3c-0.7-0.1-1.1,0.6-1.7,0.4l0.1-0.2c-0.4,0,0,0.4-0.5,0.3c-0.2-0.1,0-0.2-0.1-0.2
								c-0.9,0.2-1.8,0.2-2.6,0.7c-0.3-0.3-0.9,0.1-1.3-0.1c-0.2,0.2-0.4,0.2-0.5,0.4c-0.3,0-0.6,0.1-1,0.1l-0.1-0.1l-0.3-0.3
								l-0.8-0.6c-0.5-0.4-1.1-0.8-1.6-1.2c-1.1-0.8-2.2-1.6-3.3-2.5c-1.6-0.4-2.5-2.1-4-3.1c0,0,0,0,0,0c-0.6-0.2-1.3-0.7-1.8-1.2
								l-0.6-0.2c-2.9-3-6.5-5.3-9.7-8.1c-1.8-1.5-3.5-3.1-5.2-4.5c-0.4-0.4-0.9-0.7-1.3-1l-0.7-0.5l-0.3-0.2l-0.2-0.1
								c0,0,0,0-0.1,0c-0.3-0.2-0.8-0.4-1.9-1c0.2,0.1,0.2,0.1,0.4,0.1l-0.2-0.1c0,0,0,0,0.1,0c0.1,0,0.2,0,0.3,0c0.2,0,0.4,0,0.6,0
								c0.4,0,0.8,0,1.2-0.1l0,0.1c0.1,0,0.2-0.1,0.3-0.1c0.1,0,0.2-0.1,0.5-0.1c0.4,0,0.8-0.1,1.2-0.1c0.8-0.1,1.6-0.1,2.4-0.1
								c1.6,0,3.2-0.1,4.7-0.4c1.8,0,3.8-0.1,5.8-0.1c2-0.1,4-0.1,6-0.2l0,0.1c1.6-0.1,3.1,0,4.6,0.1c1.5,0.2,3.1,0.3,4.6,0.3
								c1.6,0.2,3.2,0.2,4.9,0.1c1.7-0.1,3.3,0,4.9,0.4c0.5,0.2,1,0.4,1.5,0.4c0.5,0.1,1.1,0.2,1.7,0.2c1.1,0.1,2.3,0.4,3,1.1
								c1.5,1.2,2.9,2.4,3.9,3.9c1,1.5,1.5,3.4,1.6,5.4c-0.4,1.8-0.7,3.5-1.2,5.2c-0.2,0.9-0.6,1.7-0.9,2.5
								c-0.2,0.4-0.4,0.8-0.7,1.1c-0.1,0.2-0.3,0.4-0.4,0.5c-0.2,0.2-0.3,0.3-0.5,0.5c-0.3,0.8-1,1.4-1.7,1.9
								c-0.4,0.2-0.8,0.5-1.2,0.6l-0.6,0.3c-0.2,0.1-0.4,0.2-0.6,0.3l0.1,0.1c-0.4-0.1-0.6,0.1-0.9,0.4c-0.3,0.2-0.6,0.3-0.8,0
								l0.1,0c-0.3-0.3-0.8,0.9-1,0.5l-0.1,0.2c-0.4,0,0-0.2-0.4-0.3c-0.1,0-0.1,0.3-0.3,0.2c0-0.4-0.2-0.4-0.5-0.4
								c-0.3,0-0.5-0.1-0.4-0.5c0.2,0.1-0.2-0.4,0.3-0.4c-0.1-0.1-0.7-0.3-0.7,0.1c-0.2,0.3-0.6,0.4-0.3,0.9l0.2-0.2
								c0,0.3,0.1,0.2,0,0.4c0.6,0.2,0.5,0.6,1,0.9c0,0,0,0,0,0c0.4-0.2,0.7,0,1,0l0.1,0.2c0.2,0.3,0.7-0.6,0.5-0.1
								c1.3-0.1,2.8-0.6,4-1.4c0-0.1,0.3-0.3,0.4-0.4c0.1-0.1,0.2-0.3,0-0.3c0.5,0.1,1.4-0.5,1.6-0.8c0,0,0,0.1,0,0.1
								c0.9-0.2,0.2-1,1.1-1.1c-0.3-0.4,0.9-1,0.5-1.6c0.1,0,0.2,0,0.3,0.1c0.6-1.1,1.3-2.2,1.7-3.2c-0.1-1,0.9-1.9,0.5-2.8
								c0.1-0.3,0.3-0.6,0.5-1.1c0.1-0.4,0.2-0.9,0.2-1.3l0.1,0.1c0.1-0.5,0.1-1.1,0.1-1.6c0-0.5-0.1-1-0.3-1.4
								c0.5-0.3,0.5-0.8,0.5-1.3c-0.2-0.3-0.3-0.9-0.6-1.4c-0.3-0.5-0.5-1.1-0.9-1.5c0.1-0.3-0.6-0.7-0.3-1c-1.2-1-2.6-1.8-4-2.6
								c-0.7-0.3-1.4-0.8-2.1-1.1c-0.4-0.2-0.7-0.4-1.1-0.5c-0.4-0.2-0.7-0.3-1-0.5l0,0c-0.4,0.1-1,0.4-1.4,0.6c0,0,0-0.1,0.1-0.1
								c-0.5,0-0.9-0.5-1.5-0.5c0-0.1,0-0.1,0.1-0.1c-0.5,0.1-1-0.5-1.6-0.3l0-0.1l-0.4,0.1c0-0.1,0.1-0.3,0.3-0.2
								c-1.1-0.2-2.3-0.3-3.4-0.3c-1.1,0-2.3-0.1-3.4-0.1c-2.3,0-4.6,0.1-6.9,0l0.2-0.1l-0.9,0.2c0-0.1,0-0.1,0.1-0.1
								c-1.1-0.2-2.3,0.1-3.4,0.1c0-0.1,0.2-0.2,0-0.3c-0.8,0.3-1.3-0.5-1.7,0.3c0,0-0.1-0.2,0-0.3c-2.3,0.2-4.6,0.3-6.9,0.2
								c-1.9,0.7-4,0.2-6,0.7l0-0.1c-1.3,0.3-2.6,0.3-3.9,0.3c-0.7,0-1.3,0-2,0c-0.7,0-1.5,0-2.2,0.1c-0.7,0-1.1,0-1.6,0.1
								c-0.4,0.1-1.3,0-0.4,0.5l-0.4-0.1c0.8,0.4,1.2,0.7,1.6,1.1c0.4,0.3,0.7,0.7,1.1,1.1l0.6,0.6c0.2,0.2,0.4,0.3,0.6,0.5
								c0.4,0.3,0.8,0.6,1.3,0.7l-0.2,0.1c0.4-0.1,0.8,0.8,1.1,0.3l0.2,0.4c1.5,0.2,1.7,1.8,3.2,2.4l-0.2,0c0.4,0.2,0.8,0.4,1,0.7
								c-0.1,0-0.1,0-0.2,0c0.7,1.3,2.3,1.7,3.4,2.6l-0.3,0.1c0.7,0.2,1.5,1.2,2.3,1.6l-0.1,0.1l0.5,0.1l-0.1,0.2
								C126,129.4,127,130,127.9,130.7z"/>
							<path fill="#EF782C" d="M137.3,137.8C137.3,137.8,137.3,137.7,137.3,137.8C137.3,137.7,137.3,137.7,137.3,137.8z"/>
							<path fill="#EF782C" d="M153.9,142.3c-0.1,0-0.1,0-0.2-0.1C153.7,142.3,153.8,142.3,153.9,142.3z"/>
						</g>
					</g>
				</g>
			</g>
		</g>
		<g>
			<path fill="#DADADA" d="M144.5,137.5c0,0,10.9,1.8,11.7,3.8c0.1,0.7-7,10.8-14.7,12.8c-7.7,2-66.9-23-66.4-22.6
				c0.5,0.4-0.9-7.3,1.8-9.5c2.7-2.2,34.8,0.3,34.8,0.3s20.2,5.4,20.7,5.5C132.8,128,144.5,137.5,144.5,137.5z"/>
			<g>
				<g>
					<g>
						<g>
							<polygon fill="#EF782C" points="145.4,136.5 145.4,136.3 145,136.4 							"/>
							<path fill="#EF782C" d="M143.9,135.9c0,0.1,0,0.1,0,0.1l1.1,0.1C144.9,135.6,144,136.2,143.9,135.9z"/>
							<path fill="#EF782C" d="M143.8,135.7c-0.2-0.3-0.5-0.2-0.6-0.2C143.4,135.4,143.6,136,143.8,135.7z"/>
							<path fill="#EF782C" d="M117.1,123c0,0,0.1,0,0.1,0C117.1,122.9,117.1,122.9,117.1,123z"/>
							<path fill="#EF782C" d="M109.2,122.3l-0.1,0.2c0.7-0.1,1.5-0.1,2.3,0c0.2,0,0.3,0,0.5,0.1l0.6,0.2c0.4,0.1,0.8,0.2,1.1,0.3
								l-0.1,0c3.7,1.1,7.3,1.7,11.1,2.5c-0.1,0-0.1,0.1-0.2,0.1c0.2,0,0.4-0.1,0.6,0c0,0.1-0.1,0.1-0.2,0.1
								c0.7,0.6,2.4,0.4,2.8,0.8c0.2,0,0.4-0.1,0.3-0.2c1.5,0.3,3,0.7,4.5,1.1c0.9,0.5,1.4,1,2.1,1.4c0.7,0.4,1.3,0.9,1.9,1.3
								c0.1,0.1,0,0.2-0.1,0.3c2.4,1.2,4.4,3.1,6.5,4.8c0.2-0.1-0.1-0.3,0.2-0.3c-0.6-0.7-1.5-0.7-1.9-1.4l0.2-0.1
								c-0.4-0.4-0.3,0.2-0.7-0.3c-0.1-0.2,0.2-0.1,0.1-0.2c-1-0.7-1.9-1.6-3-2c0-0.4-1-0.8-1.2-1.3c-0.3-0.1-0.6-0.3-0.8-0.2
								c-0.4-0.3-0.8-0.7-1.2-1l-0.6-0.5c-0.2-0.2-0.4-0.3-0.7-0.5c-0.7-0.5-1.2-0.5-1.7-0.7l-1.6-0.4c-2.1-0.5-4.2-1-6.3-1.6
								c-2.2,0.1-4.3-1.3-6.7-1.7c0,0,0,0,0-0.1c-0.8-0.1-1.9-0.3-2.8-0.6l-0.8,0.1l-1-0.4l-0.5-0.2l-0.6-0.1
								c-0.7-0.1-1.4-0.2-2.1-0.2c-1.4-0.1-2.9-0.2-4.3-0.3c-2.9-0.2-5.8-0.3-8.6-0.5c-3.3-0.2-6.3-0.5-9.4-0.5
								c-1.5,0-3.1,0-4.6,0.1c-0.8,0.1-1.6,0.2-2.4,0.3c-0.8,0.2-1.6,0.3-2.4,0.7c0-0.1-0.1-0.1,0.1-0.2c-0.3,0.1-0.6,0.2-0.8,0.3
								l-0.1,0l0,0l0,0l-0.1,0.1l0,0l0,0l-0.2,0.1c-0.1,0.1-0.2,0.2-0.3,0.3c-0.3,0.4-0.6,0.8-0.8,1.3c-0.4,0.9-0.6,1.8-0.6,2.7
								l-0.1,0c0,1.1,0.1,2.2,0.1,3.4l0,0.8l0,0.4c0,0.1,0,0.2,0,0.2l0.4,0.2c0,0.1,0,0.3,0,0.4c0,0.1,0,0.2-0.1,0.1
								c0.1,0,0.1,0,0.2,0.1l0.2,0.1c0,0,0.1,0,0,0l-0.1,0.1c0,0.1-0.1,0.2-0.1,0.3l0.5,0.2c2.1,0.8,4.1,1.7,6.1,2.2
								c4.7,1.9,10,4,15,5.8l-0.1,0.1c4.1,1.3,7.7,3.4,11.8,4.7c4,1.8,8.7,2.4,12.8,4.2c2.4,1.5,6.2,1.3,8.5,2.6
								c2.4,1.2,4.9,2,7.5,2.3c1.3,0.2,2.7,0.3,4-0.1c1.3-0.5,2.4-1.1,3.5-1.9c2.2-1,4-2.7,5.7-4.4c1.6-1.7,3.2-3.5,4.8-5.3
								c0.2-0.6,0.5-0.9,0.6-1.4c-0.2-0.5-0.6-0.8-1.1-1.1c-1-0.7-2.2-1.3-3.4-1.5l0,0.2c-0.8-0.7-2.1,0.1-2.5-0.7l0.1,0
								c-0.4-0.5-1.3,0.6-1.4,0.1l-0.1,0.2c-0.6-0.1,0-0.2-0.4-0.4c-0.2,0-0.1,0.3-0.4,0.1c0.1-0.7-1.4-0.1-1.3-0.9
								c0.3,0.1-0.4-0.4,0.3-0.4c-0.2-0.1-1.1-0.2-1.1,0.1c-0.1,0.3-0.6,0.6,0,1l0.2-0.2c0.1,0.3,0.1,0.2,0.2,0.4
								c0.7,0.2,0.8,0.6,1.3,0.8c0,0,0,0,0,0c0.4-0.2,0.9,0,1.2,0.1l0.1,0.2c0.1,0.3,1-0.4,0.6,0.1c1.5,0.2,3.2,0.6,4.8,1.1
								c0.3-0.1,1.2,0.4,1,0c0.1,0.3,0.4,0.6,0.7,0.8c0.2,0.1,0.2,0.2,0.2,0.2c0,0,0.1,0.1,0.1,0.1c0,0-0.1,0-0.1,0
								c-0.2,0.2-0.1,0.1,0,0.2c0.1,0,0.1,0.1,0.1,0.1c0,0,0,0-0.1,0c0,0-0.1,0-0.2,0c0.4,0.4-1,1.1-0.8,1.9c-0.2,0-0.3,0-0.3-0.1
								c-0.9,1.2-2.2,2.3-3.1,3.2c-0.5,1.1-2,1.7-2.4,2.7c-0.7,0.4-1.8,0.9-2.6,1.7l0-0.1c-1,0.7-2.3,1.4-2.9,2
								c-0.3-0.2-0.5-0.2-0.7-0.2c-0.1,0-0.2,0-0.4,0c-0.1,0-0.3,0-0.3,0c-0.2,0.2-0.7,0.3-1.4,0.2c-0.6,0-1.4-0.1-2-0.1
								c-0.1-0.3-1-0.1-1-0.5c-3.6,0-7.9-1.6-11.4-3.3l0.1,0c-0.5,0-1.2,0.3-1.8,0.4c0,0,0-0.1,0.1-0.1c-0.7-0.2-1.2-0.7-1.9-0.9
								c0-0.1,0-0.1,0.2-0.1c-0.7,0-1.2-0.7-2-0.7l0-0.1l-0.5,0c0.1-0.1,0.1-0.3,0.4-0.2c-5.7-2.1-11.8-3.7-17.5-6l0.3,0l-1.2-0.2
								c0-0.1,0.1-0.1,0.2-0.1c-1.4-0.8-3-1-4.3-1.6c0-0.1,0.3-0.1,0.1-0.2c-1.2-0.1-1.5-1.1-2.3-0.6c0-0.1,0-0.2,0.1-0.2
								c-3-0.9-5.9-2.1-8.7-3.4c-2.6-0.4-5.1-2-7.8-2.5l0.1-0.1c-0.8-0.2-1.7-0.5-2.5-0.8l-0.6-0.2c-0.1,0-0.2-0.1-0.3-0.1
								c0.1,0,0.1-0.2,0.1-0.2c0-0.4,0-0.9,0-1.3c0-1.8,0.1-3.6,0.4-5.4c0.2-0.7,0.4-1.3,0.7-1.8c0.2-0.2,0.4-0.5,0.6-0.7
								c0.1-0.1,0.3-0.2,0.4-0.2c0.1-0.1,0.3-0.1,0.5-0.1l0.1,0.2c1.2-0.6,2.5-0.5,3.9-0.4c1.3,0.1,2.7,0.2,4-0.2l-0.2,0.2
								c0.4-0.3,1.6,0.1,1.4-0.5l0.5,0.2c1.8-0.8,3.3,0.4,5.5,0l-0.1,0.1c0.6-0.1,1.3-0.1,1.7,0c-0.1,0,0,0.1-0.2,0.1
								c1.8,0.6,3.9,0.1,5.8,0.2l-0.2,0.2c0.9-0.3,2.6,0.1,3.9,0.1l-0.1,0.1l0.6-0.1l0,0.2C106.2,122.4,107.7,122.3,109.2,122.3z"/>
							<path fill="#EF782C" d="M124.9,125.8C124.9,125.8,124.9,125.8,124.9,125.8C124.9,125.8,124.9,125.8,124.9,125.8z"/>
							<path fill="#EF782C" d="M146.4,139c-0.1,0-0.1-0.1-0.2-0.1C146.2,138.9,146.3,138.9,146.4,139z"/>
						</g>
					</g>
				</g>
			</g>
		</g>
		<g>
			<path fill="#FFFFFF" d="M78.5,136.7L78.5,136.7c-0.5,0.3-1.1,0.1-1.4-0.4l-15.4-27c-0.3-0.5-0.1-1.1,0.4-1.4h0
				c0.5-0.3,1.1-0.1,1.4,0.4l15.4,27C79.2,135.8,79,136.4,78.5,136.7z"/>
			<g>
				<g>
					<g>
						<g>
							<polygon fill="#EF782C" points="79.2,137.8 79.3,137.8 79.3,137.6 							"/>
							<path fill="#EF782C" d="M79.7,136.7c0,0-0.1,0-0.1,0c0,0,0.1,0.2,0.1,0.4c0,0.2,0,0.5,0,0.5c0.2,0,0.2-0.2,0.2-0.4
								C79.7,136.9,79.5,136.7,79.7,136.7z"/>
							<path fill="#EF782C" d="M79.8,136.5c0.2-0.2,0-0.4-0.1-0.4C79.9,136.3,79.5,136.5,79.8,136.5z"/>
							<path fill="#EF782C" d="M74.6,126.1C74.6,126.1,74.6,126.1,74.6,126.1C74.6,126.1,74.6,126.1,74.6,126.1z"/>
							<path fill="#EF782C" d="M72.3,124.1l-0.2,0.1c0.6,0.3,0.6,1,1,1.4l-0.1,0c0.6,1.3,1.6,2.3,2.5,3.4c0,0-0.1,0-0.1,0
								c0.1,0,0.3,0,0.3,0.1c0,0-0.1,0-0.1,0c-0.2,0.4,0.6,0.7,0.5,1c0.1,0.1,0.2,0,0.3-0.1c0.6,0.9,1.3,1.9,2.1,2.8
								c0,0.1-0.1,0.1-0.2,0.2c0.5,0.3,0.8,0.7,1.1,1.1c0.1,0.2,0.2,0.4,0.3,0.7l0,0.1l0,0l0,0.1l0,0l0,0l0,0l0,0
								c0,0.1,0,0.1,0.1,0.3c0.1,0.3,0.1,0.5,0,0.7c0.1,0.1,0.2-0.2,0.3,0c0.1-0.2,0.1-0.3,0-0.5c0-0.2-0.2-0.4-0.2-0.5l-0.1-0.1
								l0,0l0,0l0,0l0-0.1l0,0l0,0l0,0c0-0.1-0.1-0.1,0-0.2l0.1,0c0-0.2-0.4,0.2-0.3-0.1c0.1-0.1,0.2-0.1,0.2-0.1
								c-0.3-0.4-0.4-0.8-0.9-1c0.2-0.3-0.2-0.4,0-0.7c-0.2,0-0.2-0.2-0.4-0.1c-0.6-1.5-1.7-2.7-2.5-4.1c-0.9-0.3-0.7-1.5-1.4-2.2
								c0,0,0,0,0.1,0c-0.3-0.2-0.6-0.5-0.7-0.9l-0.4-0.1c-0.6-2.1-2-3.8-2.8-5.7c-1.1-2.2-1.7-4.3-3.6-5.9c0.1,0,0.1-0.1,0.1,0
								c-0.4-0.5-0.6-1.2-1-1.7l0.1,0c-0.6-0.6-1-1.3-1.4-2c-0.2-0.4-0.4-0.7-0.6-1.1c-0.1-0.2-0.2-0.3-0.4-0.5
								c-0.1-0.1-0.4-0.4-0.6-0.4c-0.5-0.3-1.2-0.3-1.6,0.2c-0.2,0.2-0.3,0.5-0.3,0.8c0,0.3,0.2,0.6,0.3,0.8
								c0.5,0.9,1.1,1.7,1.6,2.5l-0.1,0.1c1,1.2,1.2,2.9,2.2,4.2c0.6,1.6,2.3,2.5,2.8,4.2c0,1.2,1.8,1.7,1.7,2.8
								c0.1,2.2,1.6,3.5,3.1,4.9c0.6,1.7,2.3,2.9,2.5,4.7c0.8,0.5,0.4,1.8,1,2.5l0.1-0.1c-0.2,0.5,0.9,0.3,0.4,0.8l0,0
								c-0.1,0.2,0.1,0.2,0.4,0.1c0.2,0,0.4-0.2,0.3,0l0.1-0.1c0.1,0-0.1,0.2,0,0.3c0.1,0,0.2-0.3,0.2-0.2c-0.1,0.3,0,0.3,0.2,0.3
								c0.1,0,0.2-0.1,0.3,0.3c-0.1,0,0,0.1,0.1,0.2c0.1,0.1,0.1,0.2-0.1,0.3c0.1,0,0.4,0,0.5-0.1c0,0,0.1-0.1,0.1-0.1
								c0,0,0-0.1,0-0.1l0,0c-0.1-0.2-0.2-0.4-0.3-0.6c-0.1-0.1-0.1-0.2-0.2-0.4l0.1,0.3c-0.2-0.2-0.1-0.1-0.2-0.3
								c-0.1,0-0.2-0.5-0.1-0.5v0c-0.1,0.3-0.1,0.1,0,0c0,0,0,0,0,0c0,0,0,0,0,0c-0.1,0.1-0.1,0.1,0,0c0,0,0,0,0,0l-0.1-0.2
								c-0.1-0.1-0.2-0.3-0.3-0.4c-0.2-0.3-0.3-0.5-0.5-0.8c-0.2,0-0.2-0.4-0.5-0.1c0.3-0.4,0.2-0.8,0.1-1c0,0,0.1,0,0.1,0
								c0.3-0.6-0.7-0.1-0.2-0.7c-0.5,0.2-0.2-0.6-0.8-0.5c0.1-0.1,0.2-0.2,0.2-0.2c-0.3-0.5-0.4-1.2-0.7-1.6c-0.6-0.1-0.3-1-1-1
								c0-0.3-0.1-0.9-0.5-1.1l0.1,0c-0.3-0.4-0.6-0.9-1.1-1c0.4-0.4,0.2-0.5,0.3-0.8c-0.4-0.1-0.6-0.7-1.1-1c0.2-0.2-0.3-0.3,0-0.5
								c-1.3-0.8-1.9-2.4-2.1-3.9l0,0c-0.3-0.1-0.8,0-1.1,0c0,0,0.1-0.1,0.1,0c-0.2-0.2,0-0.6-0.2-0.8c0.1,0,0.1,0,0.1,0
								c-0.3-0.1,0-0.6-0.4-0.7l0.1-0.1l-0.2-0.1c0.1-0.1,0.3-0.1,0.3,0c-1-2-2.7-3.7-3.8-5.7l0.1,0l-0.4-0.3c0.1,0,0.1,0,0.1,0
								c-0.1-0.6-0.7-0.9-0.9-1.4c0.1,0,0.2,0,0.2-0.1c-0.5-0.2,0.1-0.8-0.7-0.6c0,0,0.2-0.1,0.2-0.1c-0.4-0.4-0.7-0.9-1-1.4
								l-0.2-0.4l-0.1-0.1l0,0l0,0l0,0c0.1,0.1,0,0,0,0.1l0,0l0,0l0,0l0,0c0,0-0.1-0.2-0.1-0.2c0,0,0-0.2,0.1-0.2
								c-0.1-0.2-0.1-0.3,0.1-0.4c0.1-0.1,0.3-0.1,0.4,0c0.2,0.1,0.4,0.7,0.9,1l-0.1,0.1c1,0.9,1.3,2.3,2,3.4
								c0.2,0.5,0.6,0.8,0.8,1.2l-0.1,0.1c1,0.5,0.5,2,1.6,2.5l-0.2,0.1c0.4,0,0.2,0.6,0.7,0.2l-0.1,0.2c1,0.2,0.3,1.2,1.1,1.7
								l-0.1,0c0.2,0.1,0.4,0.3,0.4,0.5c0,0-0.1,0-0.1,0c-0.1,0.9,0.8,1.2,1.1,1.9l-0.3,0.1c0.4,0.1,0.5,0.8,0.9,1.2l-0.1,0l0.3,0.1
								l-0.2,0.1C71.5,123.2,72,123.6,72.3,124.1z"/>
							<path fill="#EF782C" d="M75.5,129.1C75.5,129.1,75.5,129.1,75.5,129.1C75.5,129.1,75.5,129.1,75.5,129.1z"/>
							<path fill="#EF782C" d="M78,135.8L78,135.8L78,135.8z"/>
						</g>
					</g>
				</g>
			</g>
		</g>
		<g>
			<path fill="#EDEDED" d="M84.1,155.3c0,0-8.8-12.4-10.1-27.7c-0.1-1.9,2-1.9,5.4-1.8c3.4,0.1,45.1-2.7,65.9,28.9
				C145.3,154.9,124.8,159.9,84.1,155.3z"/>
			<g>
				<g>
					<g>
						<g>
							<polygon fill="#EF782C" points="83.9,156.7 84,156.7 84.2,156.6 							"/>
							<path fill="#EF782C" d="M85.4,156.4c0,0,0-0.1,0-0.1l-0.9,0.5C84.8,157.1,85.1,156.1,85.4,156.4z"/>
							<path fill="#EF782C" d="M85.6,156.4c0.3,0.2,0.5-0.1,0.5-0.2C86,156.5,85.6,156.1,85.6,156.4z"/>
							<path fill="#EF782C" d="M113.5,158.1C113.5,158.1,113.5,158.1,113.5,158.1C113.5,158.1,113.5,158.1,113.5,158.1z"/>
							<path fill="#EF782C" d="M120.8,157.1l0.1-0.2c-1.3,0.4-2.9,0-4.3,0.2l0.1-0.1c-3.6-0.1-7,0.2-10.6,0.2c0.1,0,0.1-0.1,0.1-0.1
								c-0.2,0.1-0.4,0.2-0.6,0.2c0-0.1,0.1-0.1,0.1-0.1c-0.7-0.4-2.3,0.1-2.7-0.2c-0.2,0-0.3,0.2-0.2,0.3c-2.8-0.1-5.9-0.2-8.8-0.1
								c-0.1-0.1-0.2-0.2-0.1-0.3c-2.5,0.4-5.1-0.1-7.6-0.5c-0.1,0.1,0.2,0.2,0,0.3c0.8,0.3,1.5-0.2,2.2,0.1l-0.1,0.1
								c0.5,0.1,0.1-0.4,0.7-0.1c0.2,0.1-0.1,0.2,0,0.2c1.1,0,2.3,0.3,3.4,0c0.2,0.4,1.2,0.1,1.6,0.5c0.3-0.1,0.6,0,0.7-0.3
								c4,0.5,8.1,0.4,12.1,0.6c1.9-0.6,4.2,0.3,6.5,0.1c0,0,0,0,0,0.1c0.7-0.1,1.8-0.2,2.7-0.1l0.7-0.3c5.3,0.5,10.7,0,16.2-0.3
								c2.3-0.1,4.6-0.3,6.8-0.5c1.1-0.1,2.2-0.3,3.3-0.5l0.6-0.1l0.7-0.2c0.4-0.1,1-0.2,1-0.5c0.1-0.1,0.1-0.3,0.2-0.4l0.1-0.2l0,0
								c-0.3-0.1,0.4,0.2,0.4,0.1l0,0l0,0l0,0l0-0.1l0-0.1l-0.3-0.9c-0.4-0.5-0.7-0.9-1-1.4l-0.7-0.8c-0.4-0.5-1-1-1.5-1.5
								c0.1,0,0-0.1,0.2,0c-1.1-1.3-2.1-2.6-3.2-3.7l0,0c-3.1-2.6-6.1-5.9-9.7-7.7c-3.8-2.8-8.6-5.2-13.3-6.9l0.1-0.1
								c-3.8-1.2-7.3-3-11.3-3.8c-4-1.2-8.4-1-12.5-1.7c-2.5-0.9-5.9,0.2-8.3-0.4c-1.2-0.3-2.5-0.4-3.7-0.5l-1.8-0.1
								c-0.6,0-1.2,0-1.8,0c-0.6,0-1.2,0.1-1.9,0.3c-0.6,0.1-1.4,0.5-1.5,1.2c-0.2,0.7,0.1,1.3,0.2,1.9c0.1,0.6,0.3,1.2,0.4,1.8
								c0.2,2.3,0.8,4.5,1.5,6.6c0.7,2.1,1.5,4.2,2,6.4c1.2,1.8,1.2,4.3,2.4,6.3l0.1-0.1c0,1,1.5,1.3,1.1,2.1l-0.1-0.1
								c-0.1,0.6,1.2,0.5,1,0.9l0.2,0c0.3,0.4-0.1,0.2,0,0.5c0.1,0.1,0.3-0.1,0.4,0.2c-0.6,0.4,0.8,1,0.2,1.5
								c-0.2-0.2,0,0.6-0.5,0.1c0,0.2,0.6,1,0.8,0.7c0.3-0.1,0.8,0,0.7-0.6l-0.3,0.1c0.1-0.3,0-0.2,0.2-0.4
								c-0.4-0.6-0.1-0.9-0.2-1.4c0,0,0,0,0,0c-0.4-0.1-0.5-0.6-0.6-0.9l0.1-0.2c0.2-0.3-0.9-0.4-0.4-0.5c-0.8-1.2-1.6-2.6-2.3-4
								c-0.3-0.1-0.5-1.1-0.7-0.6c0.2-0.6-0.2-1.7-0.4-2.1c0,0,0.1,0,0.1,0.1c0.2-1-0.9-0.7-0.5-1.7c-0.5,0.1-0.4-1.4-1.1-1.6
								c0.1-0.1,0.2-0.2,0.2-0.2c-0.5-1.3-0.8-2.9-1.1-4.1c-0.7-0.9-0.5-2.5-1.2-3.2c0-0.4,0-0.9-0.1-1.4c0-0.5-0.1-1.1-0.3-1.5
								l0.1,0.1c-0.3-1.1-0.4-2.6-0.9-3.3c0.3-0.2,0.4-0.4,0.4-0.6c0.1-0.1,0.1-0.1,0.2-0.1c-0.1-0.1-0.2-0.1,0.3-0.3
								c0.5-0.1,1.1-0.2,1.7-0.3c0.2,0.3,1-0.1,1,0.3c1.7-0.3,3.6-0.5,5.5-0.4c1.9,0.1,3.8,0.3,5.6,0.7l-0.1,0
								c0.5-0.2,1-0.6,1.5-0.8c0,0,0,0.1-0.1,0.1c0.7,0,1.2,0.4,1.9,0.4c0,0.1,0,0.1-0.1,0.1c0.6-0.1,1.2,0.4,2,0.2l0,0.1l0.5-0.1
								c0,0.1-0.1,0.3-0.3,0.2c5.5,0.8,11.4,1.3,16.8,3.2l-0.2,0l1.1,0.1c0,0.1-0.1,0.1-0.1,0.1c1.3,0.6,2.8,0.8,4.1,1.4
								c0,0.1-0.3,0.1-0.1,0.2c1.1,0.1,1.3,1,2.1,0.6c0,0,0,0.2-0.1,0.2c2.7,0.9,5.3,2.3,7.7,3.9c2.4,0.7,4.3,2.7,6.6,3.8l-0.1,0.1
								c1.4,0.8,2.7,1.9,3.9,3.1c1.2,1.2,2.3,2.5,3.4,3.7c0.9,1.1,1.6,1.7,2.5,2.8l-0.1,0.1c0.5,0.4,0.9,0.8,1.2,1.3
								c0.4,0.5,0.6,1,0.8,1.4l0.3,0.6c0.1,0.1-0.1,0.1-0.1,0.1l-0.2,0l-0.4,0.1c-0.5,0.1-0.8,0.2-1.5,0.5l0.1-0.2
								c-0.3,0.4-1.5,0.1-1.2,0.7l-0.5-0.1c-1.6,1-3.1,0.1-5.1,0.8l0.1-0.2c-0.5,0.2-1.2,0.3-1.6,0.2c0.1,0,0-0.1,0.2-0.1
								c-1.8-0.4-3.6,0.4-5.4,0.5l0.2-0.3c-0.9,0.4-2.5,0.2-3.6,0.4l0.1-0.1l-0.6,0.2l0-0.2C123.7,156.8,122.3,157,120.8,157.1z"/>
							<path fill="#EF782C" d="M105.7,157.2C105.7,157.2,105.7,157.2,105.7,157.2C105.8,157.2,105.8,157.2,105.7,157.2z"/>
							<path fill="#EF782C" d="M84,153.1c0,0.1,0,0.1,0.1,0.2C84.1,153.3,84,153.2,84,153.1z"/>
						</g>
					</g>
				</g>
			</g>
		</g>
		<g>
			<path fill="#FFFFFF" d="M149.9,149c-2.4,1.3-18-13.8-37.5-20.3c-15.7-5.2-29.4-3.9-31.7-3.9c-5,0-9-4.1-9-9.1s4-9.1,9-9.1
				c3.7,0,30.2-2.2,51.9,13.9C140.6,126.5,157.5,144.8,149.9,149z"/>
			<g>
				<g>
					<g>
						<g>
							<polygon fill="#EF782C" points="150.6,150.2 150.7,150.2 150.9,149.8 							"/>
							<path fill="#EF782C" d="M151.8,148.5c-0.1,0-0.1,0-0.2,0c0,0-0.1,0.3-0.2,0.6c-0.1,0.3-0.3,0.6-0.3,0.6
								c0.3,0,0.4-0.3,0.4-0.6C151.7,148.8,151.6,148.6,151.8,148.5z"/>
							<path fill="#EF782C" d="M152.1,148.2c0.4-0.3,0.2-0.6,0.1-0.8C152.4,147.7,151.7,148.2,152.1,148.2z"/>
							<path fill="#EF782C" d="M135.5,121.9C135.5,121.9,135.6,121.9,135.5,121.9C135.6,121.9,135.5,121.9,135.5,121.9z"/>
							<path fill="#EF782C" d="M128.3,117.8l-0.2,0.1c1.5,0.5,2.7,1.8,4.1,2.6l-0.1,0c3.2,2.4,6.2,4.8,9.2,7.6c-0.1,0-0.1,0-0.2,0
								c0.2,0.1,0.4,0.2,0.6,0.3c0,0.1-0.1,0-0.2,0c0.3,0.9,1.9,1.7,2,2.3c0.2,0.2,0.4,0.1,0.4,0c2.2,2.4,4.3,5,6.3,7.7
								c0,0.2,0,0.2-0.2,0.3c1,1.1,1.7,2.3,2.2,3.8c0.2,0.7,0.4,1.5,0.5,2.3c0.1,0.8,0,1.7-0.3,2.5c0.1,0.2,0.3-0.3,0.3,0.1
								c0.3-0.5,0.3-1.1,0.2-1.6c-0.1-0.5-0.2-0.9-0.1-1.4l0.2,0.1c0-0.7-0.4-0.1-0.3-0.8c0.1-0.3,0.2,0,0.2-0.1
								c-0.4-1.4-0.9-2.7-1.8-3.7c0.2-0.4-0.7-1.3-0.6-1.8c-0.3-0.2-0.4-0.5-0.7-0.5c-2.3-4-5.6-7.3-8.8-10.6c-2-1.1-3.3-3.4-5.4-5
								c0,0,0,0,0,0c-0.7-0.4-1.7-1.1-2.5-1.8l-0.9-0.3c-4.6-4-10.3-6.5-15.9-8.8c-6.5-2.5-12.5-4.3-19.3-4.2c0-0.1,0-0.1,0.1-0.1
								c-1.9-0.1-3.7-0.5-5.5-0.4l0-0.1c-2.3,0.1-4.6,0.1-7,0.1c-1.2,0-2.3,0-3.5,0.1c-1.2,0-2.4,0.3-3.4,0.8
								c-1.3,0.4-2.5,1.2-3.5,2.2c-1,1-1.8,2.3-2.2,3.7c-0.9,2.8-0.3,6,1.5,8.2l-0.1,0.1c1.5,1.8,3.4,3.1,5.6,3.7
								c1.1,0.3,2.3,0.3,3.4,0.3c1.1,0,2.2-0.1,3.3-0.1c1.1,0.1,2.3,0,3.5,0.1c1.2,0,2.4-0.1,3.5,0c1.2,0,2.4,0,3.6,0.1
								c1.2,0.1,2.3,0.3,3.5,0.6c1.4,0.5,3,0.7,4.7,0.8c0.8,0.1,1.6,0.2,2.4,0.3c0.8,0.2,1.5,0.4,2.1,0.8c1.3,0.6,2.6,1.1,3.8,1.6
								c1.3,0.5,2.5,1,3.8,1.4c2.6,0.9,5.2,1.8,7.8,2.8c4.4,2.6,9.2,4.6,13,7.9c2.2,0.9,3.8,3.2,6,4.6l0-0.2
								c0.5,0.9,2.1,0.6,2.2,1.5l-0.1,0c0.2,0.6,1.4-0.1,1.5,0.4l0.2-0.1c0.5,0.3,0,0.2,0.3,0.5c0.2,0.1,0.2-0.2,0.5,0
								c-0.1,0.3,0.2,0.5,0.6,0.6c0.3,0.1,0.7,0.2,0.6,0.6c-0.4-0.1,0.5,0.5-0.4,0.4c0,0,0.2,0.1,0.3,0.1c0.2,0,0.3,0.1,0.6,0.1
								c0.1,0,0.2,0,0.3,0c0.1,0,0.2-0.1,0.3-0.1c0.2-0.1,0.2-0.2,0.1-0.3c-0.1-0.2,0-0.4-0.1-0.5c0-0.1-0.1-0.1-0.1-0.2
								c-0.1-0.1-0.2,0-0.3-0.1c0,0,0,0.3,0,0.3c-0.2-0.3-0.1-0.1-0.2-0.3c-0.3,0-0.5-0.2-0.6-0.4c-0.1-0.2-0.2-0.4-0.4-0.5
								c0,0,0,0,0,0c-0.5,0.1-0.8-0.3-1.1-0.5l0-0.2c0-0.3-1.1,0.1-0.6-0.3c-1.4-0.7-3-1.8-4.5-2.8c-0.3,0-1.1-0.8-1-0.3
								c-0.1-0.6-1.2-1.5-1.6-1.7c0,0,0.1-0.1,0.1,0c-0.5-1-1.3-0.2-1.6-1.3c-0.4,0.3-1.3-1.1-2.1-0.9c0-0.2,0-0.3,0.1-0.3
								c-1.4-0.9-2.8-2-4-2.8c-1.2-0.3-2.4-1.7-3.6-1.7c-0.7-0.5-1.8-1.4-2.9-1.8l0.1,0c-1.2-0.6-2.7-1.3-3.7-1.4
								c-0.1-0.7-0.7-0.8-1.1-1.2c-0.9-0.1-2.6-0.9-3.9-1.2c-0.1-0.3-1.1-0.3-1-0.7c-1-0.2-2-0.4-3-0.7c-1-0.3-2.1-0.5-3.1-0.8
								c-1-0.3-2.1-0.7-3.1-1.1c-1-0.3-2.1-0.6-3.1-1l0.1,0c-0.6,0.1-1.3,0.4-1.8,0.6c0,0,0-0.1,0.1-0.1c-0.7-0.1-1.4-0.5-2.1-0.6
								c0-0.1,0-0.1,0.1-0.1c-0.7,0.1-1.4-0.5-2.3-0.3l0-0.1l-0.5,0.1c0-0.1,0.1-0.3,0.3-0.2c-3.2-0.5-6.5-0.5-9.8-0.5
								c-1.6,0.1-3.3,0.1-4.9,0.3c-0.8,0-1.6,0.1-2.4,0.1c-0.8,0-1.5-0.2-2.2-0.4c0,0,0.2,0,0.2,0c0,0-0.3,0-0.6-0.1
								c-0.3,0-0.6-0.1-0.6-0.1c0-0.1,0.1-0.1,0.2-0.1c-0.6-0.4-1.3-0.8-1.9-1.2c-0.6-0.5-1.2-0.9-1.6-1.6c0.1,0,0.3,0.1,0.2-0.1
								c-0.4-0.3-0.6-0.8-0.7-1.1c-0.1-0.3-0.2-0.6-0.6-0.7c0-0.1,0.2-0.1,0.2-0.1c-0.6-1.3-0.8-2.9-0.5-4.4c0.3-1.5,1-2.9,2.1-4
								c0.6-1.2,1.8-2,3.1-2.5c0.6-0.3,1.3-0.4,2-0.5c0.7-0.1,1.4-0.2,2.1-0.3l0,0.1c3.7-0.6,7.5-0.1,11.3,0.1
								c1.6,0.2,2.6,0.1,4.2,0.3l0,0.2c1.4-0.1,2.7,0.2,4.1,0.6c0.7,0.2,1.4,0.4,2.1,0.5c0.7,0.1,1.4,0.2,2.1,0.2l-0.2,0.2
								c0.5-0.2,1.6,0.5,1.6-0.1l0.4,0.3c1-0.1,1.8,0.2,2.7,0.5c0.9,0.4,1.7,0.8,2.9,0.9l-0.2,0.1c0.6,0.1,1.3,0.2,1.7,0.5
								c-0.1,0-0.1,0-0.2,0c0.4,0.3,0.9,0.5,1.3,0.7c0.5,0.2,0.9,0.4,1.4,0.5c1,0.3,2,0.6,2.9,1l-0.3,0.2c1,0.1,2.5,1.2,3.7,1.6
								l-0.1,0.1l0.7,0.1l-0.1,0.2C125.4,116.4,126.8,117,128.3,117.8z"/>
							<path fill="#EF782C" d="M141.4,128.5C141.4,128.5,141.4,128.4,141.4,128.5C141.4,128.4,141.4,128.4,141.4,128.5z"/>
							<path fill="#EF782C" d="M148.4,147.5c0.1,0,0.1,0.1,0.1,0.1C148.5,147.6,148.4,147.5,148.4,147.5z"/>
						</g>
					</g>
				</g>
			</g>
		</g>
		<path fill="#DADADA" d="M104.5,108.4c-1.1-0.1-4.7-1.1-4.7-1.1s-3.4-0.1-0.7,4.3c2.3,3.9,9.9,5.3,12.2,5.8c2.3,0.5,16.4,6,23.5,12
			c7.1,6,15.4,16.5,15.4,16.5s0.7,1.6,1.3,1.6s4.1-5.2-9.6-19.3C126.7,112.5,104.5,108.4,104.5,108.4z"/>
		<g>
			<ellipse fill="#FFFFFF" cx="80.8" cy="115.8" rx="6.2" ry="6.2"/>
			<g>
				<g>
					<g>
						<g>
							<polygon fill="#EF782C" points="88.3,115.8 88.4,115.8 88.2,115.7 							"/>
							<path fill="#EF782C" d="M87.8,115.4c0,0-0.1,0-0.1,0l0.6,0.2C88.6,115.6,87.6,115.5,87.8,115.4z"/>
							<path fill="#EF782C" d="M87.9,115.4c0.1-0.1-0.2-0.1-0.2-0.1C87.8,115.3,87.6,115.4,87.9,115.4z"/>
							<path fill="#EF782C" d="M84.1,109.7C84.1,109.7,84.1,109.7,84.1,109.7C84.1,109.6,84.1,109.6,84.1,109.7z"/>
							<path fill="#EF782C" d="M82.2,109.9l-0.1,0.2c0.4-0.3,0.6,0.2,0.9,0.1l0,0.1c0.3,0.2,0.7,0.3,1.1,0.4
								c0.4,0.1,0.7,0.3,1.1,0.5c0,0-0.1,0.1-0.1,0.1c0.1,0,0.2-0.1,0.2-0.1c0,0-0.1,0.1-0.1,0.1c-0.1,0.4,0.5,0.2,0.4,0.5
								c0.1,0,0.2-0.1,0.3-0.2c0.3,0.2,0.5,0.5,0.7,0.8c0.2,0.3,0.5,0.6,0.8,0.9c0,0.1-0.1,0.1-0.2,0.1c0.4,0.2,0.6,0.5,0.7,0.8
								c0.1,0.3,0,0.7,0,1c0.2,0,0.2-0.1,0.3,0c0.2-0.2-0.4-0.3-0.2-0.6l0.2,0c0.1-0.2-0.4,0-0.2-0.1c0.1-0.1,0.2,0,0.2-0.1
								c-0.1-0.3-0.1-0.6-0.5-0.8c0.3-0.2-0.1-0.3,0.2-0.5c-0.1,0-0.1-0.1-0.3-0.1c-0.2-0.5-0.4-1-0.8-1.4l-0.6-0.6
								c-0.2-0.2-0.4-0.4-0.6-0.5c-0.4,0.1-0.6-0.1-0.7-0.3c-0.2-0.2-0.4-0.5-0.7-0.5c0,0,0,0,0-0.1c-0.2,0-0.5,0-0.7-0.2l-0.3,0.2
								c-0.3-0.2-0.5-0.4-0.9-0.5c-0.3-0.1-0.7-0.1-1-0.2l-0.5,0c-0.2,0-0.3,0-0.5,0c-0.3,0-0.7,0-1,0c-0.4,0.1-0.8,0.1-1.1,0.2
								c-0.4,0.1-0.7,0.2-1.1,0.4c-0.4,0.1-0.6,0.4-0.9,0.7c-0.2,0.3-0.5,0.6-0.5,1.1c0,0-0.1-0.1-0.1-0.1c-0.2,0.4-0.6,0.5-0.7,1
								l-0.1,0c0,0.6-0.3,1-0.4,1.5c-0.1,0.2-0.2,0.5-0.2,0.7c0,0.2,0,0.5,0.2,0.7c-0.2,1.1,0.1,2.4,0.7,3.3l-0.1,0.1
								c0.4,0.3,0.4,0.8,0.7,1.2c0.2,0.4,0.4,0.9,0.9,1.1c0.1,0.2,0.3,0.4,0.6,0.5c0.2,0.1,0.5,0.1,0.8,0.2c0.5,0.1,1,0,1.4,0.4
								c0.2,0.4,0.6,0.2,0.9,0.1c0.2-0.1,0.3-0.1,0.5-0.1c0.2,0,0.3,0,0.4,0.1c0.3,0.2,0.6,0.3,0.9,0.4c0.3,0,0.6-0.1,0.8-0.2
								c0.1-0.1,0.3-0.1,0.4-0.2c0.1-0.1,0.2-0.2,0.3-0.4c0.2-0.2,0.4-0.5,0.5-0.8c0.2-0.1,0.4-0.2,0.6-0.4c0.1-0.1,0.2-0.2,0.2-0.3
								c0.1-0.1,0.1-0.2,0.2-0.3c0.1-0.2,0.2-0.4,0.4-0.6c0.2-0.2,0.3-0.4,0.6-0.5c-0.1-0.3,0.2-0.4,0.4-0.6
								c0.2-0.2,0.5-0.4,0.6-0.7l-0.2,0c0.5-0.1-0.6-0.5,0.1-0.5l0,0c0.4-0.1-0.8-0.3-0.4-0.3l-0.2,0c0-0.1,0.2,0,0.3-0.1
								c0,0-0.3,0-0.2-0.1c0.7,0-0.1-0.3,0.7-0.3c0,0.1,0.3-0.1,0.5,0.1c0.1,0,0.1-0.3-0.3-0.3c-0.4,0-0.7-0.1-1,0l0.3,0
								c-0.3,0-0.1,0-0.3,0c-0.1,0.1-0.4,0.2-0.6,0.2c0,0,0,0,0,0c0.3,0.1,0.1,0.2,0.1,0.2l-0.1,0c-0.3,0,0.6,0.2,0.1,0.1
								c0,0.1,0.1,0.3,0.1,0.5c0,0.1-0.1,0.3-0.1,0.4c0.2,0.1-0.1,0.2,0.3,0.3c-0.4-0.1-0.6,0.1-0.6,0.2c0,0-0.1,0-0.1,0
								c-0.6-0.1,0.4,0.4-0.3,0.2c0.4,0.3-0.3,0.2,0.2,0.5c-0.1,0-0.2-0.1-0.3-0.1c-0.1,0.3-0.5,0.3-0.6,0.5
								c0.2,0.4-0.4,0.2-0.1,0.7c-0.2,0-0.5-0.1-0.5,0.3l0-0.1c-0.1,0.2-0.4,0.3-0.3,0.7c-0.3-0.5-0.4-0.3-0.5-0.4
								c0,0.2-0.1,0.2-0.2,0.3c-0.1,0.1-0.2,0.1-0.3,0.3c-0.1-0.2-0.1,0.2-0.3-0.2c-0.1,0.2-0.2,0.4-0.4,0.5
								c-0.2,0.1-0.4,0.1-0.5,0.1c-0.2,0-0.4,0-0.6-0.1c-0.2-0.1-0.3-0.3-0.5-0.4l0,0c-0.1,0.2-0.3,0.7-0.4,0.9c0,0,0-0.1,0-0.1
								c-0.2,0.1-0.2-0.3-0.3-0.3c0-0.1,0-0.1,0.1-0.1c-0.2,0.1-0.2-0.4-0.4-0.1l0-0.1l-0.1,0.1c0-0.1,0.1-0.3,0.1-0.2
								c-0.1-0.1-0.2-0.1-0.4-0.1l-0.4-0.1c-0.2-0.1-0.6-0.1-0.8-0.3c-0.3-0.1-0.5-0.3-0.8-0.4c-0.2-0.2-0.4-0.4-0.6-0.6l0.1,0
								l-0.3-0.1c0.1,0,0.1,0,0.1-0.1c0-0.4-0.4-0.4-0.5-0.7c0.1,0,0.2,0,0.2-0.1c-0.4,0,0.3-0.5-0.4-0.3c0,0,0.2-0.1,0.2-0.1
								c-0.2-0.2-0.3-0.5-0.4-0.8c0-0.3,0-0.6,0-0.9c-0.4-0.2-0.3-0.5-0.3-0.8c0-0.3,0-0.5-0.1-0.9l0.1,0c-0.1-0.4,0-0.8,0.2-1.1
								c0.2-0.3,0.5-0.6,0.6-0.9c0.2-0.2,0.2-0.5,0.4-0.7l0.1,0.1c-0.1-0.4,0.3-0.5,0.6-0.6c0.3-0.1,0.5-0.2,0.6-0.6l0.1,0.2
								c-0.1-0.3,0.3,0,0-0.5l0.2,0.1c0-0.4,0.2-0.4,0.4-0.4c0.2,0,0.5,0.1,0.6-0.2l0,0.1c0.1-0.1,0.2-0.3,0.3-0.2c0,0,0,0.1,0,0.1
								c0.5,0.4,0.8-0.2,1.2-0.2l0,0.3c0.2-0.3,0.5-0.1,0.8-0.2l0,0.1l0.1-0.2l0,0.2C81.5,110.1,81.8,109.8,82.2,109.9z"/>
							<path fill="#EF782C" d="M85.2,111.3C85.2,111.3,85.2,111.3,85.2,111.3C85.2,111.3,85.2,111.3,85.2,111.3z"/>
							<path fill="#EF782C" d="M85.8,116.2C85.8,116.1,85.8,116.1,85.8,116.2C85.8,116.1,85.8,116.1,85.8,116.2z"/>
						</g>
					</g>
				</g>
			</g>
		</g>
		<g>
			<g>
				<g>
					<g>
						<g>
							<polygon fill="#EF782C" points="151.7,147.7 151.7,147.6 151.5,147.6 							"/>
							<path fill="#EF782C" d="M151,147.4c0,0-0.1,0.1-0.1,0.1l0.7,0C151.8,147.2,150.8,147.6,151,147.4z"/>
							<path fill="#EF782C" d="M151,147.3c0.1-0.2-0.2-0.1-0.3-0.1C150.9,147.2,150.7,147.5,151,147.3z"/>
							<path fill="#EF782C" d="M144.4,138.1C144.4,138.1,144.4,138.1,144.4,138.1C144.4,138.1,144.4,138.1,144.4,138.1z"/>
							<path fill="#EF782C" d="M141.7,136.6l-0.2,0.1c0.7,0.1,0.8,0.9,1.3,1.2l-0.1,0c0.9,1.1,2,2,3.1,3c0,0-0.1,0-0.1,0
								c0.1,0,0.3,0,0.3,0.1c0,0-0.1,0-0.1,0c-0.1,0.5,0.8,0.6,0.6,0.9c0.1,0,0.2,0,0.3-0.1c0.7,0.9,1.5,1.8,2.4,2.6
								c0,0.1-0.1,0.1-0.2,0.2c1,0.5,1.3,1.6,1.8,2.5c0.2,0,0.1-0.2,0.3-0.2c0-0.4-0.6-0.3-0.5-0.7l0.1,0c0-0.2-0.4,0.2-0.3-0.1
								c0.1-0.1,0.2-0.1,0.2-0.1c-0.3-0.4-0.4-0.9-1-1c0.2-0.3-0.2-0.4-0.1-0.7c-0.2,0-0.2-0.1-0.4-0.1c-0.4-0.7-0.9-1.4-1.4-2
								l-0.8-1c-0.3-0.3-0.5-0.6-0.8-0.9c-1-0.2-1-1.4-1.7-2c0,0,0,0,0,0c-0.3-0.1-0.7-0.4-0.8-0.7l-0.4,0c-0.5-1-1.2-1.8-2-2.6
								c-0.8-0.8-1.6-1.5-2.3-2.3c-0.9-0.9-1.7-1.7-2.5-2.5c-0.9-0.8-1.8-1.4-3-1.8c0,0,0-0.1,0.1-0.1c-0.6-0.3-1-0.9-1.6-1.1l0,0
								c-0.8-0.3-1.5-0.8-2.2-1.2c-0.7-0.5-1.4-0.9-2.2-1.1c-0.8-0.5-1.6-1-2.5-1.5c-0.9-0.5-1.8-1-2.7-1.3l0.1-0.1
								c-1.5-0.5-2.6-1.8-4.2-2.3c-1.4-0.9-3.4-0.7-4.8-1.6c-0.8-1-2.5-0.1-3.2-1c-0.8-0.7-1.8-1.1-2.7-1.2c-0.5-0.1-1-0.1-1.5-0.1
								c-0.5,0-1-0.1-1.5-0.1c-0.4-0.2-0.8-0.4-1.2-0.6l-0.7-0.2l-0.6-0.3c-0.2-0.1-0.4-0.2-0.6-0.3c-0.2-0.1-0.4-0.3-0.6-0.4
								c-0.4-0.3-0.7-0.7-0.8-1.1c-0.5-0.1-0.7-0.6-0.8-1.1c-0.1-0.5-0.1-1-0.3-1.3l-0.1,0.1c0.2-0.2,0-0.3-0.2-0.5
								c-0.2-0.1-0.3-0.3,0-0.4l0,0c0.3-0.2-0.9-0.3-0.5-0.5l-0.2,0c-0.1-0.2,0.2,0,0.3-0.2c0-0.1-0.3,0-0.2-0.2
								c0.7,0-0.1-0.6,0.7-0.5c0,0.1,0.3-0.1,0.5,0.1c0.1-0.1,0.1-0.3-0.2-0.3c-0.3-0.1-0.6-0.4-0.9-0.2l0.2,0.1c-0.3,0-0.1,0-0.3,0
								c-0.1,0.3-0.5,0.3-0.7,0.6c0,0,0,0,0,0c0.3,0.2,0.1,0.4,0.1,0.5l-0.1,0.1c-0.3,0.1,0.6,0.3,0.1,0.3c0.2,0.7,0.4,1.4,0.7,2.1
								c0.2,0,0.3,0.5,0.5,0.2c-0.3,0.4-0.1,0.9,0.1,1.1c0,0-0.1,0-0.1,0c-0.2,0.7,0.7,0,0.4,0.8c0.4-0.3,0.4,0.6,0.9,0.3
								c0,0.1-0.1,0.2-0.2,0.3c0.2,0.2,0.5,0.5,0.7,0.7c0.2,0.2,0.5,0.5,0.7,0.6c0.6-0.1,0.9,0.8,1.5,0.4c0.2,0.2,0.6,0.7,1.1,0.6
								l-0.1,0.1c0.5,0.1,1.1,0.3,1.5,0.1c0,0.6,0.2,0.6,0.4,0.8c0.4-0.2,1,0.1,1.6,0c0,0.3,0.4,0,0.4,0.4c0.7-0.2,1.5-0.1,2.2,0.1
								c0.7,0.3,1.4,0.7,2,1.2l0,0c0.2-0.1,0.6-0.5,0.9-0.7c0,0,0,0.1-0.1,0.1c0.3,0,0.4,0.5,0.6,0.5c0,0.1,0,0.1-0.1,0.1
								c0.3-0.1,0.4,0.5,0.7,0.3l0,0.1l0.2-0.1c0,0.1-0.1,0.3-0.2,0.2c2,0.9,4.4,1.2,6.4,2.3l-0.1,0.1l0.5,0c0,0.1-0.1,0.1-0.1,0.1
								c0.4,0.5,1.1,0.4,1.6,0.7c0,0.1-0.2,0.1-0.1,0.2c0.5-0.1,0.4,0.7,0.9,0.2c0,0-0.1,0.2-0.1,0.2c1.1,0.3,2.1,1,3.1,1.6
								c1.2-0.1,1.7,1,2.9,1.1l-0.1,0.1c1.4,0.3,2.2,1.5,3.3,2.2c0.4,0.4,0.8,0.5,1.3,0.8l-0.1,0.1c1.1,0.1,1.2,1.7,2.4,1.7
								l-0.2,0.1c0.3-0.2,0.4,0.5,0.7,0l0,0.3c1-0.2,0.7,1.1,1.6,1.2l-0.1,0.1c0.2,0.1,0.5,0.2,0.5,0.4c0,0-0.1,0-0.1,0
								c0.2,0.8,1.1,0.9,1.6,1.5l-0.2,0.1c0.5,0,0.7,0.7,1.1,0.9l-0.1,0.1l0.3,0l-0.2,0.2C140.8,135.9,141.3,136.2,141.7,136.6z"/>
							<path fill="#EF782C" d="M145.8,141C145.8,141,145.8,141,145.8,141C145.8,141,145.8,141,145.8,141z"/>
							<path fill="#EF782C" d="M97.1,108.2C97.2,108.2,97.2,108.1,97.1,108.2C97.1,108.1,97.2,108.2,97.1,108.2z"/>
						</g>
					</g>
				</g>
			</g>
		</g>
	</g>
	<g>
		<g>
			<path fill="#EF782C" d="M131.2,99c-5.5-31.7-33-51.3-64.6-45.8l-1.3-11.8c36.1-6.2,72.1,20.3,78.3,56.4L131.2,99z"/>
			<g>
				<g>
					<g>
						<g>
							<polygon fill="#EF782C" points="131.4,101 131.6,101.1 131.8,100.7 							"/>
							<path fill="#EF782C" d="M133.1,100.1c-0.1-0.1,0-0.1-0.1-0.2l-0.9,1C132.6,101.3,132.8,99.8,133.1,100.1z"/>
							<path fill="#EF782C" d="M133.4,100.2c0.4,0.2,0.5-0.3,0.6-0.4C134,100.1,133.3,99.7,133.4,100.2z"/>
							<path fill="#EF782C" d="M135.8,73.7C135.8,73.8,135.9,73.8,135.8,73.7C135.9,73.8,135.9,73.7,135.8,73.7z"/>
							<path fill="#EF782C" d="M129.3,66.9l-0.3,0.1c0.8,0.5,1.3,1.2,1.8,2c0.5,0.8,1,1.6,1.6,2.3l-0.2,0c2.5,3.9,5,7.3,7.1,11.5
								c-0.1-0.1-0.2,0-0.2-0.1c0.2,0.2,0.5,0.3,0.6,0.5c0,0.1-0.2,0-0.2-0.1c-0.1,0.6,0.3,1.2,0.6,1.8c0.3,0.6,0.7,1.1,0.6,1.5
								c0.1,0.2,0.4,0.3,0.5,0.1c0.4,0.8,0.7,1.7,1,2.6c0.3,0.9,0.7,1.8,0.9,2.7c0.3,0.9,0.6,1.8,0.9,2.7l0.2,0.7l0.3,1
								c0.2,0.7,0.4,1.5,0.6,2.2c0,0.2-0.2,0.1-0.4-0.1c0.3,0.4-0.1,0.4-0.3,0.5c-0.2,0.1-0.5,0.1-0.8,0.2c-0.5,0.1-1.2,0.3-1.8,0.4
								l-0.7,0.1l-0.6,0.1c-0.4,0.1-0.8,0.1-1.2,0.2c-1.6,0.2-3.2,0.2-4.8,0.3c-0.1,0.2,0.4,0.2,0.1,0.5c1.1,0.2,1.8-0.8,2.8-0.4
								l-0.1,0.2c0.7,0.1,0.1-0.6,0.8-0.4c0.3,0.2,0,0.3,0.1,0.3c0.7-0.1,1.5-0.2,2.2-0.3c0.4-0.1,0.7-0.1,1.1-0.2
								c0.1,0,0.1,0,0.3-0.1l0.4-0.1c0.3-0.1,0.6-0.2,0.8-0.3c0.4,0.2,1.1,0.1,1.8,0.1l0.6-0.1l0.3,0c0,0,0.1,0,0.1,0l0-0.1
								c0-0.3,0-0.6,0.1-0.8c-0.4-0.8-0.4-1.4-0.8-1.7c-0.1-0.8-0.3-1.6-0.4-2.5c-0.1-0.6-0.3-1.3-0.5-1.9c-0.3-1.3-0.7-2.5-1.2-3.8
								c-0.9-2.5-1.9-4.9-3-7.3c-1-0.9-1.5-2.1-2-3.5c-0.6-1.3-1.1-2.7-2-3.9c0,0,0.1-0.1,0.1,0c-0.7-0.7-1.5-1.8-2.1-2.8l-0.9-0.6
								c-1.6-3-3.7-5.8-6.1-8.3c-2.4-2.5-5-4.9-7.6-7.2c-3-2.6-6-4.8-9.2-6.7c-3.2-1.9-6.6-3.4-10.4-4.1c0-0.1,0-0.2,0.2-0.1
								c-1.1-0.3-2.1-0.7-3-1.1c-0.5-0.2-1-0.4-1.5-0.5c-0.5-0.1-1-0.3-1.5-0.4l0-0.1c-0.7-0.1-1.3-0.2-1.9-0.3
								c-0.7-0.1-1.3-0.2-2-0.3c-1.3-0.3-2.6-0.5-3.9-0.7c-1.3-0.2-2.6-0.4-3.9-0.5c-1.3,0-2.6-0.1-3.8,0.1c-1,0-2.1-0.1-3.1-0.1
								c-1.1,0-2.1,0.1-3.2,0.1c-1.1,0.1-2.2,0.2-3.3,0.3c-1.2,0.2-2.4,0.4-3.6,0.6c0.3,2.4,0.6,4.3,0.9,6.3l-0.2,0
								c0.2,1.3,0.4,2.5,0.5,3.8l0.2,2.1l0,0.1c0,0,0.1,0,0.1,0l0.3,0l0.5,0l1.1-0.1l1.9-0.1l1.9-0.1c1.2-0.1,2.5,0,3.7-0.2
								c2.6,0,5.2,0.1,7.9,0c1.3,0.1,2.7,0.2,4,0.4c0.7,0.1,1.3,0.1,2,0.4c0.6,0.2,1.3,0.4,1.9,0.6c0.7,0.4,1.5,0.7,2.4,0.9
								c0.9,0.2,1.8,0.5,2.7,0.7c0.9,0.2,1.8,0.4,2.7,0.7c0.8,0.3,1.5,0.8,2.1,1.3c1.2,1,2.5,1.8,3.8,2.8c0.6,0.5,1.3,0.9,1.9,1.3
								c0.6,0.4,1.3,0.8,1.9,1.3c1.2,0.9,2.6,1.7,3.9,2.5c1.3,0.9,2.5,1.9,3.8,2.8c1.7,2.4,3.8,4.4,5.5,6.8l1.3,1.7
								c0.4,0.6,0.7,1.2,1.1,1.9c0.6,1.3,1.3,2.6,1.7,3.9c0.8,1.1,1.2,2.5,1.5,3.9c0.1,0.4,0.2,0.7,0.2,1.1c0,0.4,0.1,0.7,0.2,1.1
								c0.1,0.7,0.3,1.4,0.6,2.1l0.2-0.2c-0.4,1.2,1.7,2,0.8,2.9l-0.1-0.1c-0.4,0.7,1.5,1,1,1.5l0.3,0c0.2,0.7-0.3,0.1-0.3,0.7
								c0.1,0.2,0.5,0,0.4,0.4c-1,0.3,0.6,1.6-0.6,1.9c-0.1-0.4-0.3,0.6-0.8-0.1c-0.1,0.3,0.2,1.3,0.7,1.1c0.6,0,1.1,0.4,1.4-0.4
								l-0.4-0.1c0.3-0.3,0.2-0.2,0.4-0.3c-0.1-0.9,0.4-1.1,0.5-1.8c0,0,0,0,0,0c-0.6-0.3-0.4-1-0.4-1.4l0.2-0.2
								c0.4-0.3-1.1-0.8-0.3-0.7c-0.1-0.4-0.3-0.9-0.4-1.4c-0.2-0.5-0.3-1-0.5-1.4c-0.3-1-0.7-2-1-3c-0.4-0.2-0.5-1.5-0.9-0.9
								c0.4-0.7,0-2.2-0.3-2.8c0.1,0,0.1,0,0.2,0.1c0.3-1.4-1.3-0.9-0.7-2.3c-0.4,0.1-0.5-0.4-0.7-0.9c-0.2-0.5-0.5-1-1-1.1
								c0.1-0.2,0.2-0.3,0.3-0.3c-0.9-1.7-1.6-3.7-2.6-5c-0.7-0.4-1.1-1.1-1.5-1.8c-0.4-0.7-0.9-1.4-1.6-1.5
								c-0.5-0.9-1.2-2.3-2.4-3.2l0.2,0c-0.3-0.3-0.5-0.6-0.8-0.9c-0.3-0.3-0.6-0.6-1-0.8c-0.6-0.5-1.3-0.9-1.9-1.1
								c0.3-0.9-0.3-1.3-0.6-2c-1.1-0.4-2.7-1.7-4.1-2.4c0.1-0.5-1.1-0.7-0.9-1.2c-1.1-0.4-2.2-0.8-3.3-1.4
								c-0.5-0.3-1.1-0.6-1.6-0.9c-0.6-0.3-1.1-0.5-1.7-0.8c-1.1-0.6-2.2-1.3-3.3-1.9c-1.1-0.6-2.2-1.2-3.2-1.8l0.1,0
								c-0.7,0.1-1.6,0.5-2.3,0.7c0-0.1,0-0.2,0.1-0.1c-0.8-0.1-1.5-0.9-2.3-1c0-0.1,0-0.1,0.2-0.1c-0.8,0-1.5-0.9-2.5-0.7l0-0.2
								L89,52.2c0.1-0.2,0.1-0.5,0.4-0.3c-1.8-0.3-3.7-0.7-5.5-0.9c-1.9-0.1-3.8-0.1-5.7-0.1c-1.9,0.1-3.8,0.3-5.6,0.4
								c-0.9,0.1-1.9,0.3-2.8,0.4l-1.3,0.2L67.8,52c0,0,0.2-0.2,0.2-0.2c0,0-0.2,0.1-0.4,0.2c0,0-0.1,0-0.1,0l0,0c0,0,0-0.1-0.1-0.1
								c0-0.1-0.1-0.1-0.1-0.1c0.1-0.1,0.1-0.1,0.2-0.1c0-0.3,0.1-0.5,0-0.7l-0.1-0.5l-0.1-0.7c-0.2-0.9-0.4-1.8-0.5-2.7
								c0.1,0,0.3,0.2,0.4,0c-0.7-1.3,0.4-2.2-0.7-2.7c0-0.1,0.3-0.1,0.4,0l-0.2-0.8l-0.1-0.4l0-0.2c-0.1-0.3-0.1-0.5-0.2-0.8
								c0.3-0.1,0.6-0.1,1-0.2c0.6-0.1,1.3-0.2,1.9-0.2c1.3-0.1,2.6-0.2,3.9-0.2c3-1.2,6.4-0.1,9.6-0.6l0,0.2
								c4.2-0.2,8.4,1.4,12.5,2.5c1.7,0.6,2.9,0.8,4.5,1.4l0,0.2c1.6,0.1,2.9,1,4.3,1.8c1.3,0.9,2.7,1.7,4.3,2.1l-0.3,0.2
								c0.7-0.2,1.6,1.1,1.8,0.2l0.3,0.5c1.2,0.1,2,0.7,2.7,1.4c0.8,0.7,1.5,1.5,2.8,2l-0.3,0.1c0.7,0.3,1.4,0.7,1.7,1.1
								c-0.1,0-0.1,0-0.3,0c0.3,0.5,0.7,0.9,1.1,1.3c0.4,0.4,0.9,0.7,1.4,1.1c1,0.6,2,1.3,2.8,2.1l-0.5,0.1c1.1,0.4,2.3,2.1,3.5,3
								l-0.2,0.1c0,0,0.2,0.1,0.4,0.2c0.2,0.1,0.3,0.2,0.3,0.2l-0.3,0.3c0.6,0.7,1.3,1.3,2,2C128.1,65.6,128.7,66.2,129.3,66.9z"/>
							<path fill="#EF782C" d="M139.5,83.1C139.5,83.1,139.5,83.1,139.5,83.1C139.5,83,139.5,83.1,139.5,83.1z"/>
							<path fill="#EF782C" d="M132.4,96.2c0,0.1,0,0.2,0,0.2C132.4,96.4,132.4,96.3,132.4,96.2z"/>
						</g>
					</g>
				</g>
			</g>
		</g>
	</g>
	<g>
		<path fill="#EF782C" d="M77,48.1c-2.4,6.5-2.4,4.5-2.4,4.5L66,53.6l0.7,6.5L56.3,49.8l6.1-13.2l0.9,4.5c0,0,11.6,2.9,16.4,2.1
			L77,48.1z"/>
		<g>
			<g>
				<g>
					<g>
						<polygon fill="#EF782C" points="78.2,48.7 78.3,48.7 78.2,48.5 						"/>
						<path fill="#EF782C" d="M78.1,47.9c0,0-0.1,0-0.1,0l0.4,0.6C78.7,48.5,77.8,47.9,78.1,47.9z"/>
						<path fill="#EF782C" d="M78.2,47.9c0.2-0.1,0-0.2-0.1-0.3C78.3,47.7,77.9,47.8,78.2,47.9z"/>
						<path fill="#EF782C" d="M72.3,42C72.3,42,72.3,42,72.3,42C72.3,42,72.3,42,72.3,42z"/>
						<path fill="#EF782C" d="M68.9,42.4l-0.1,0.2c0.7-0.3,1.3,0.2,1.9,0.2l-0.1,0.1c1.6,0.3,3.1,0.2,4.7,0.1c0,0,0,0.1-0.1,0.1
							c0.1-0.1,0.2-0.2,0.3-0.2c0,0.1,0,0.1-0.1,0.1c0.3,0.4,1-0.2,1.2,0.1c0.1,0,0.1-0.2,0.1-0.3c0.2,0,0.5,0,0.7,0
							c0.3,0,0.6-0.1,0.9-0.1c0.7-0.1,1.4-0.2,2.1-0.4c0.1,0,0,0.2-0.1,0.3L80.5,43l-0.3,0.7c-0.1,0.1-0.3,0.2-0.4,0.2
							c0,0.3-0.1,0.7-0.2,1.1c-0.1,0.2-0.2,0.4-0.3,0.6l-0.2,0.4c-0.3,0.5-0.6,1-0.9,1.4c0.1,0.1,0.2,0,0.3,0.2
							c0.3-0.2,0-0.8,0.4-0.9l0.1,0.1c0.2-0.2-0.3-0.2,0-0.3c0.2,0,0.2,0.1,0.2,0.1c0.1-0.2,0.2-0.4,0.3-0.7
							c0.2-0.4,0.4-0.9,0.3-1.2c0.5-0.2,0.4-0.8,1-1.2c-0.1-0.2,0.1-0.4-0.2-0.3c0.2-0.4,0.5-0.9,0.7-1.2c-1.3,0.1-2.8,0.4-4.1,0.4
							c-0.8,0-1.5,0-2.3,0c-0.9,0.6-1.8-0.3-2.8-0.3c0,0,0,0,0-0.1c-0.3,0.1-0.8,0.1-1.2,0l-0.4,0.2c-1.1-0.5-2.3-0.7-3.4-1
							l-1.7-0.4l-0.9-0.2c-0.1,0-0.3-0.1-0.4-0.1c-0.1,0-0.1-0.1-0.2-0.1L64,40.4c0,0,0-0.1,0-0.1l0-0.3c-0.1-0.8-0.2-1.5-0.3-2.2
							c-0.2-1.5-0.5-3.1-0.8-4.5c-0.7,1.6-1.4,3.4-1.8,5.1c0-0.1-0.1-0.1,0-0.2c-0.2,0.6-0.4,1-0.7,1.5l-0.3,0.7
							c-0.1,0.2-0.1,0.3-0.2,0.5l-0.1,0c-0.3,1.8-1.6,3.3-1.8,5.2c-0.3,0.6-0.6,1.2-0.9,1.8c-0.3,0.7-0.6,1.4-0.9,2.1
							c0.7,0.7,1.3,1.2,2,1.8L58,51.7c1.4,1.1,2.2,2.8,3.6,3.9c0.5,0.7,1.3,1.3,2.1,1.8c0.4,0.3,0.8,0.6,1.1,0.8
							c0.3,0.3,0.6,0.6,1,1.1c0.4,0.7,0.8,1.1,1,1.2c-0.2-0.7-0.4-1.5-0.5-2c-0.1-0.5-0.2-0.8,0-0.9c0.1-0.2,0.2-0.5,0.2-0.9
							c0-0.2,0-0.4,0-0.6c0-0.2,0-0.3,0-0.5c0-0.8-0.1-1-0.3-1.7l0.9-0.4c0.4-0.2,0.8-0.3,1.2-0.5c0.8,0,1.6-0.1,2.4-0.3
							c0.8-0.2,1.7-0.4,2.5-0.4c0.3,0,0.6,0,1,0.1c0.1-0.1,0.2-0.2,0.2,0c0,0,0,0.1,0.1,0.1c0,0,0.1,0,0.1,0
							c0.2-0.1,0.3-0.2,0.5-0.4c0.4-0.3,0.8-0.8,1-1.2l-0.2,0c0.6-0.2-0.3-1,0.4-1l0,0c0.4-0.1-0.6-0.7-0.2-0.7l-0.2-0.1
							c0-0.2,0.2,0,0.3-0.1c0-0.1-0.3-0.1-0.1-0.2c0.7,0.2,0.1-0.6,0.8-0.3c0,0.1,0.4-0.1,0.4,0.3c0.1,0,0.2-0.4-0.1-0.5
							c-0.3-0.2-0.6-0.4-0.9-0.3l0.2,0.1c-0.3,0-0.1,0-0.3,0c-0.1,0.3-0.5,0.2-0.8,0.3c0,0,0,0,0,0c0.2,0.3,0,0.4-0.1,0.5l-0.2,0
							c-0.3,0,0.4,0.6,0,0.3c-0.1,0.6-0.4,1.3-0.7,1.9c0.1,0.1,0,0.2,0,0.3c0,0.1,0,0.1,0.2,0.2c-0.4-0.1-0.6-0.1-0.6-0.1
							c0,0,0-0.1,0-0.1c-0.2-0.3-0.1-0.1-0.1,0c0,0.1,0,0.2-0.1-0.2c0.1,0.2,0,0.2,0,0.2c0,0,0,0-0.2,0.3c0-0.1,0.1-0.2,0.1-0.3
							c0,0-0.1,0-0.1,0c-0.5,0-1,0-1.5,0c-0.8,0.5-1.3,0-2,0.7c-0.3-0.1-0.9-0.3-1.5,0.1l0.1-0.1c-0.6,0.1-1.4,0.2-1.8,0.7
							c-0.3-0.5-0.7-0.4-1.3-0.5c-0.3,0.2-0.8,0.3-1.4,0.4c0.1,0.5,0.2,1,0.3,1.5c-0.3,0.1,0.2,0.8-0.2,0.8c0,0.1,0.1,0.2,0.1,0.2
							l0.1,0.1c0,0.1,0.1,0.2,0.1,0.3c0.1,0.2,0.2,0.4,0.2,0.6c0,0.1,0,0.1,0.1,0.2c0,0,0,0.1,0,0.1c0,0.1,0,0.2,0,0.3
							c0,0.4-0.2,0.4-0.6-0.2l0-0.1c0.1,0.3,0.3,0.7,0.5,1.2c0.2,0.5,0.4,0.9,0.5,1.3c0-0.1-0.1-0.3-0.1-0.2c-0.1,0-0.5-1-0.6-0.9
							c0-0.1,0-0.1-0.1-0.2c0,0.1-0.1-0.1-0.1-0.2C65,57.1,65,57,65,57.2l0-0.2c0,0,0,0.2,0,0.2c0-0.2,0-0.5,0-0.4
							c-0.1-0.2-0.1-0.2-0.3-0.3c-0.5-0.4-1-0.8-1.5-1.2c-1-0.8-2-1.6-2.9-2.6l0.2,0l-0.5-0.2c0,0,0.1,0,0.1-0.1
							c-0.3-0.6-1-0.8-1.4-1.3c0,0,0.2-0.1,0.2-0.2c-0.6-0.1-0.2-0.8-0.9-0.5c0,0,0.1-0.2,0.2-0.2c-0.5-0.4-0.6-0.4-0.9-0.6
							c0-0.1,0.1-0.2,0.1-0.3l0.2-0.4c0.2-0.4,0.4-0.7,0.6-1c-0.1-1.3,0.9-2.1,0.9-3.3l0.1,0.1c0.2-1.5,1.3-2.7,1.8-4.1
							c0.3-0.4,0.3-0.9,0.5-1.4l0.1,0.2c0.1-0.7,0.3-1.1,0.4-1.2c0.2-0.2,0.3,0,0.4-0.4c0,0.1,0.1,0.1,0.2-0.1l-0.1,0.5
							c0.1-0.4,0.1-0.2,0.1-0.1c0,0.1,0.1,0.1,0.2-0.6l-0.1,0.6c0.3-0.4,0.4,0.3,0.3,0.8c0,0.6-0.1,0.9,0.2,1.3l-0.1,0
							c0.2,0.2,0.3,0.4,0.2,0.7c0,0-0.1,0-0.1,0c0,0.1-0.1,0.3-0.1,0.4c0.1,0.1,0.2,0.1,0.3,0.2c0.2,0.1,0.5,0.1,0.7,0.1
							c0.4,0,0.9,0,1.2,0.1l-0.1,0.2c0.4-0.2,1.1,0.2,1.6,0.2l-0.1,0.1L67,42l0,0.2C67.6,42.4,68.3,42.3,68.9,42.4z"/>
						<path fill="#EF782C" d="M75.6,43.1C75.6,43.1,75.6,43.1,75.6,43.1C75.6,43.1,75.6,43.1,75.6,43.1z"/>
						<path fill="#EF782C" d="M75.7,48.5C75.7,48.5,75.7,48.4,75.7,48.5C75.7,48.4,75.7,48.5,75.7,48.5z"/>
					</g>
				</g>
			</g>
		</g>
	</g>
</g>
</svg>
