<?xml version="1.0" encoding="utf-8"?>
<!-- Generator: Adobe Illustrator 17.1.0, SVG Export Plug-In . SVG Version: 6.00 Build 0)  -->
<!DOCTYPE svg PUBLIC "-//W3C//DTD SVG 1.1//EN" "http://www.w3.org/Graphics/SVG/1.1/DTD/svg11.dtd">
<svg version="1.1" id="Layer_1" xmlns="http://www.w3.org/2000/svg" xmlns:xlink="http://www.w3.org/1999/xlink" x="0px" y="0px"
	 viewBox="0 0 200 159" enable-background="new 0 0 200 159" xml:space="preserve">
<g>
	<defs>
		<rect id="SVGID_1_" width="200" height="159"/>
	</defs>
	<clipPath id="SVGID_2_">
		<use xlink:href="#SVGID_1_"  overflow="visible"/>
	</clipPath>
	<g clip-path="url(#SVGID_2_)">
		<defs>
			<rect id="SVGID_3_" width="200" height="159"/>
		</defs>
		<clipPath id="SVGID_4_">
			<use xlink:href="#SVGID_3_"  overflow="visible"/>
		</clipPath>
		<g clip-path="url(#SVGID_4_)">
			<g>
				<defs>
					<rect id="SVGID_5_" y="142.3" width="191.5" height="16.7"/>
				</defs>
				<clipPath id="SVGID_6_">
					<use xlink:href="#SVGID_5_"  overflow="visible"/>
				</clipPath>
				<path clip-path="url(#SVGID_6_)" fill="#EDEDED" d="M184.9,159H6.6C3,159,0,156.1,0,152.5v-3.6c0-3.6,3-6.5,6.6-6.5h178.3
					c3.6,0,6.6,2.9,6.6,6.5v3.6C191.5,156.1,188.6,159,184.9,159"/>
			</g>
		</g>
		<path clip-path="url(#SVGID_4_)" fill="#EDEDED" d="M24.1,100.2c0,0-4-1.5-2.7-5.9c1.3-4.4,2.7-12.3,5.1-10.1
			c2.4,2.2,1.3,5.7,1.3,5.7L25,99.6"/>
		<polygon clip-path="url(#SVGID_4_)" fill="#EF782C" points="26.5,100 26.6,100 26.4,99.9 		"/>
		<path clip-path="url(#SVGID_4_)" fill="#EF782C" d="M26.1,99.6c0,0-0.1,0-0.2,0l0.6,0.4C26.9,99.9,25.8,99.5,26.1,99.6"/>
		<path clip-path="url(#SVGID_4_)" fill="#EF782C" d="M26.2,99.5c0.2,0-0.1-0.1-0.2-0.2C26.2,99.5,25.8,99.5,26.2,99.5"/>
		<path clip-path="url(#SVGID_4_)" fill="#EF782C" d="M27.7,93.9C27.7,93.9,27.7,94,27.7,93.9C27.7,94,27.7,93.9,27.7,93.9"/>
		<path clip-path="url(#SVGID_4_)" fill="#EF782C" d="M27,92.2l-0.2-0.1c0.4,0.4-0.2,0.6-0.1,0.9l-0.1,0c-0.3,0.7-0.1,1.5-0.1,2.3
			c0,0-0.1,0-0.1-0.1c0.1,0.1,0.2,0.1,0.2,0.2c-0.1,0-0.1,0-0.1-0.1c-0.5,0,0.1,0.5-0.2,0.5c0,0.1,0.2,0.1,0.3,0.1
			c-0.1,0.6-0.2,1.2,0,1.9c-0.1,0-0.2,0-0.3-0.1c0.5,0.7,0.1,1.1-0.2,1.6c0.2,0.1,0.2,0,0.4,0.1c0.3-0.1-0.3-0.4,0-0.5l0.2,0.1
			c0.1-0.1-0.4-0.1-0.2-0.2c0.2,0,0.2,0.1,0.2,0.1c0-0.2,0.2-0.4-0.1-0.8c0.4,0.1,0.1-0.2,0.5-0.2c-0.1-0.1-0.1-0.1-0.3-0.2
			c0.4-0.7,0.3-1.6,0.6-2.5c-0.6-0.6,0.4-0.8,0.3-1.3c0,0,0.1,0,0.1,0c-0.1-0.2-0.1-0.4,0-0.6l-0.3-0.2c0.9-0.9,0.8-2.1,1.4-3.1
			c0.3-0.7,0.5-1.3,0.5-2c0-0.7-0.2-1.4-0.9-2c0.1,0,0.1,0,0.1,0c-0.3-0.3-0.2-0.8-0.5-1.1l0.1,0c-0.5-0.3-0.8-0.6-1.1-1
			c-0.2-0.2-0.4-0.4-0.7-0.5c-0.3-0.1-0.7,0-0.9,0.2c-0.6,0.2-1,0.7-1.2,1.2c-0.3,0.5-0.4,1-0.5,1.5l-0.1-0.1c0,0.9-1,1.4-1,2.3
			c-0.6,0.7,0.3,1.9-0.3,2.6c-0.8,0.3,0.5,1.4-0.4,1.7c-0.7,0.4-0.9,0.8-0.9,1.3c0,0.3,0,0.6,0.1,0.8c0.1,0.3,0.3,0.6,0.4,0.8
			c-0.2,0.4,0,0.9,0.2,1.3c0.2,0.4,0.4,0.7,0.3,1.3c0.3,0,0.3,0.3,0.3,0.6c0,0.3,0,0.7,0.3,0.8l0.1-0.2c-0.2,0.5,0.8-0.4,0.4,0.3
			l0,0c-0.1,0.4,0.7-0.7,0.5-0.3l0.1-0.2c0.1,0-0.1,0.2-0.1,0.3c0,0,0.2-0.3,0.2-0.2c-0.4,0.7,0.3,0-0.1,0.8c-0.1,0-0.1,0.4-0.3,0.5
			c0,0.1,0.3,0.2,0.4-0.2c0.2-0.4,0.4-0.7,0.4-1l-0.1,0.3c0.1-0.3,0-0.2,0.1-0.4c-0.1-0.1,0.1-0.5,0.1-0.7c0,0,0,0,0,0
			c-0.2,0.3-0.2,0.1-0.2,0l0.1-0.2c0.2-0.3-0.5,0.5-0.1,0c-0.3,0-0.5-0.2-0.7-0.3c-0.2,0.1-0.1-0.2-0.4,0.2c0.3-0.4,0.3-0.6,0.2-0.7
			c0,0,0.1-0.1,0.1,0c0.4-0.5-0.6,0.3,0-0.3c-0.5,0.3,0.1-0.3-0.6,0c0.1-0.1,0.2-0.1,0.3-0.2c-0.1-0.2,0-0.5,0-0.6
			c-0.5,0,0.1-0.4-0.6-0.4c0.1-0.1,0.4-0.3,0.1-0.5l0.1,0c-0.1-0.2-0.1-0.4-0.5-0.6c0.7,0,0.5-0.1,0.8-0.1c-0.3-0.2-0.1-0.4-0.3-0.7
			c0.3,0.1-0.1-0.2,0.4-0.1c-0.6-0.9-0.1-1.7,0.7-2.3l0,0c-0.2-0.2-0.7-0.4-1-0.6c0,0,0.1,0,0.1,0c0-0.2,0.4-0.2,0.4-0.3
			c0.1,0,0.1,0,0.1,0.1c-0.2-0.2,0.4-0.2,0.1-0.4l0.1,0L23.4,91c0.1,0,0.4,0.1,0.3,0.1c0.4-1.1,0-2.5,0.5-3.5l0.1,0.1l-0.2-0.3
			c0.1,0,0.1,0,0.1,0.1c0.3-0.2,0-0.6,0.2-0.9c0.1,0,0.2,0.1,0.3,0.1c-0.3-0.3,0.6-0.1-0.1-0.5c0,0,0.2,0.1,0.3,0.1
			c0-0.6,0.3-1.2,0.6-1.4c-0.2-0.4,0-0.6,0.1-0.6c0.1,0,0.2,0,0.5-0.2l-0.1,0.1c0.4-0.1,0.7,0.2,0.8,0.5c0.2,0.3,0.3,0.6,0.5,0.9
			c0.1,0.3,0.3,0.4,0.4,0.6l-0.2,0.1c0.4,0.1,0.3,0.4,0.2,0.7c-0.1,0.3-0.2,0.5,0.2,0.7l-0.3,0c0.4,0.1-0.1,0.3,0.5,0.3L28,88.2
			c0.9,0.4-0.4,0.6,0.1,1.1L28,89.2c0.1,0.1,0.2,0.3,0,0.3c0,0-0.1,0-0.1-0.1c-0.7,0.2-0.1,0.7-0.3,1.1l-0.3-0.1
			c0.3,0.3-0.1,0.5,0,0.8l-0.1-0.1l0.2,0.2L27,91.2C26.9,91.5,27.1,91.9,27,92.2"/>
		<path clip-path="url(#SVGID_4_)" fill="#EF782C" d="M26.5,95.3C26.5,95.3,26.5,95.3,26.5,95.3C26.4,95.3,26.4,95.3,26.5,95.3"/>
		<path clip-path="url(#SVGID_4_)" fill="#EF782C" d="M24.4,98.9C24.4,98.9,24.4,98.9,24.4,98.9C24.4,98.9,24.4,98.9,24.4,98.9"/>
		<path clip-path="url(#SVGID_4_)" fill="#DADADA" d="M87.1,50.4c0,0-3.5-5.3-3.8-12.1c-0.2-6.8,2.2-31.8,25-31.8s28.9,23,28.2,34.6
			c-3.3,1.9-4.3,8.1-4.3,8.1s1.5,11.6,2.9,11.6c1.3,0,7.3,0.2,7.3,0.2s1.5-10.1,0.7-12.3c-0.9-2.2-1.5-46.2-35-46.2
			c-33.4,0-29.4,36.6-29.4,36.6L76,49.3l2.4,11.6l7.1-0.2C85.5,60.7,87.5,51.9,87.1,50.4"/>
		<path clip-path="url(#SVGID_4_)" fill="#EF782C" d="M86.2,50.6c0,0-0.2,0.1-0.5,0.1l-0.3,0.1c0,0,0.1,0,0.1,0
			c0.1,0,0.1,0.1,0.1,0.1c0,0,0-0.1-0.1-0.1l0,0l0,0c0,0,0,0,0.1,0C86,50.7,86.2,50.6,86.2,50.6"/>
		<path clip-path="url(#SVGID_4_)" fill="#EF782C" d="M86,52.7c0.1-0.1,0.1,0,0.2-0.1c0,0-0.1-0.4-0.3-0.7c-0.1-0.4-0.3-0.7-0.3-0.7
			C85.2,51.7,86.3,52.3,86,52.7"/>
		<path clip-path="url(#SVGID_4_)" fill="#EF782C" d="M85.9,53.1c-0.2,0.5,0,0.8,0.1,0.9C85.8,53.8,86.2,53,85.9,53.1"/>
		<path clip-path="url(#SVGID_4_)" fill="#EF782C" d="M80.3,26.7c0,0.1,0,0.1,0,0.2C80.3,26.8,80.3,26.7,80.3,26.7"/>
		<path clip-path="url(#SVGID_4_)" fill="#EF782C" d="M83.8,14.4l-0.1-0.3c-0.9,2.3-2.5,4.6-3.1,7.1l0-0.2c-1,3-1.6,6-1.8,9
			c-0.2,3-0.2,6,0.2,9.1c0,0.2-0.1,0.4-0.1,0.6c0-0.1-0.1-0.2-0.1-0.3c0,0.3,0.1,0.7,0,1c-0.1,0.1-0.1-0.1-0.1-0.2
			c-0.8,1.2-0.8,3.9-1.3,4.7c-0.1,0.4,0.1,0.6,0.3,0.4c-0.3,1.2-0.6,2.5-0.9,3.9c0.4,1.8,0.9,3.6,1.3,5.4c0.2,0.9,0.5,1.9,0.7,2.8
			c0.2,0.9,0.5,2.1,0.6,2.2c0,0.1-0.1,0.3-0.2,0.4l0,0.1c0.8-0.3,4.6-0.6,5.5-0.6l0.1,0c0,0,0-0.1,0-0.1l0.1-0.3l0.4-1.6
			c0.2-1.1,0.5-2.2,0.7-3.2c-0.2-0.2-0.3,0.4-0.4,0c-0.5,1.4,0,2.6-0.6,3.8L84.7,58c-0.3,0.9,0.4,0.3,0,1.2c-0.2,0-0.2-0.1-0.2,0
			c0,0,0,0.2-0.1,0.2l-0.8,0c-1,0.1-2,0.2-3,0.4c-0.1-0.1-0.2-0.1-0.4-0.1c-0.1,0-0.2,0-0.3,0c-0.1,0-0.1,0-0.2,0
			c-0.1,0-0.2,0-0.3,0c0-0.1,0-0.2,0.1-0.2c0,0-0.1,0-0.1,0c0,0,0,0-0.1-0.1c-0.1-0.2-0.2-0.4-0.3-0.4c-0.3-1.6-0.6-3.2-0.9-4.8
			c-0.3-1.5-0.7-3.1-1-4.6c0.4-1.6,0.8-3.2,1.2-4.8c0.4-1.7,0.9-3.5,1.3-5.2l-0.1-0.8l0-0.6c-0.9-3.3,0.2-7.3,0.7-11.2
			c0,0,0.1,0,0.1,0c0.1-1.3,0.4-3.2,1-4.6l0.1-0.7c0-0.3,0.1-0.7,0.1-0.7c1.8-4.3,4.4-8.3,7.9-11.3C91.1,8,93,6.7,95.2,5.8
			c2.2-0.9,4.4-1.5,6.8-1.8c2.6-0.3,5.3-0.5,7.8-0.2c2.5,0.1,5,0.6,7.3,1.3c4.7,1.4,8.9,4,12.7,7.6c-0.1,0,0,0.1-0.2-0.1
			c2.1,2.1,3.4,4.6,4.9,7l-0.1,0c2,2.9,3.3,6.4,4.4,9.9c1.1,3.5,1.9,7,2.7,10.4c0.3,2.1,0.6,4.2,0.9,6.4c0.1,0.5,0.1,1.1,0.2,1.7
			c0,0.5,0.2,1.2,0.3,1.6c0.2,1.1,0.1,2.2,0.1,3.3c-0.1,2.2-0.3,4.5-0.6,6.8l-0.1,0.8l0,0.4c0,0.1,0,0.3-0.2,0.2l-1.6,0
			c-1.1,0-2.3,0-3.4,0l0-0.1l-1.8,0c-0.1,0-0.3,0-0.4-0.1c-0.1-0.1-0.2-0.2-0.3-0.3c-0.1-0.2-0.2-0.5-0.3-0.8
			c-0.4-1.1-0.6-2.3-0.8-3.4c-0.4-2.3-0.7-4.7-0.9-6.9c0.5-2,1.2-4.3,2.4-6.1c0.3-0.3,0.6-0.7,0.9-0.9c0.2-0.1,0.3-0.3,0.6-0.4
			l0.4-0.2l0.2-0.1c0-0.1,0-0.1,0-0.2l0-0.9c0-0.2,0-0.5,0-0.7c0-0.5,0-0.9-0.1-1.4c-0.1-1.9-0.4-3.7-0.9-5.6
			c-0.8-3.7-2.1-7.2-3.5-10.6c-0.7-2.2-2.3-4.4-4.1-6.3c-1.8-1.9-3.8-3.4-5.4-4.9c-3.3-2.9-7.8-4.5-12.2-4.7c-2.2-0.1-4.4,0-6.6,0.5
			c-2.2,0.5-4.2,1.2-6.1,2.3c-3.8,1.5-6.8,4.5-8.8,7.9c-2.1,3.4-3.4,7.1-4.7,10.8c-0.2,1.9-0.7,3.7-1.1,5.7c-0.4,2-0.8,4-0.6,6.1
			l0.2-0.2c-0.2,0.8,0.1,1.6,0.4,2.3c0.3,0.7,0.6,1.3,0.3,1.9l-0.1-0.1c-0.2,0.9,1.4,1.5,1.1,2.1l0.2,0.1c0.4,0.9-0.2,0.2,0,0.9
			c0.1,0.2,0.4,0,0.5,0.5c-0.7,0.5,1.1,2,0.4,2.5c-0.3-0.5,0.1,0.9-0.7-0.1c0.1,0.4,1,1.8,1.2,1.4c0.4-0.1,1.1,0.2,0.8-0.8l-0.4,0
			c0.1-0.4,0-0.3,0.2-0.5c-0.6-1.1-0.2-1.5-0.4-2.3c0,0,0,0,0,0c-0.6-0.4-0.7-1.2-0.8-1.7l0.1-0.2c0.2-0.4-1.1-1.1-0.4-0.9
			c-0.9-2.3-1.4-5.1-1.2-7.9c-0.2-0.4,0.1-2.1-0.3-1.6c0.5-0.7,0.9-2.7,1-3.5c0,0,0.1,0.1,0.1,0.2c0.9-1.4-0.3-1.9,0.8-3.1
			c-0.5-0.4,0.8-2.4,0.4-3.3c0.2-0.1,0.3-0.1,0.4-0.1c0.7-2.4,2.1-4.8,3.2-6.6c0.2-0.9,0.9-1.8,1.5-2.6c0.7-0.8,1.3-1.5,1.6-2.3
			c1-0.8,2.7-1.9,4.1-3L97,10.8c1.7-1.1,4-1.9,5.3-2.7c0.7,0.5,1.6,0.2,2.4,0.3c1.3-0.5,4-0.5,6.1-0.6c0.3,0.3,1.7,0,1.8,0.5
			c2.9,0,6.2,0.8,9,2.6c2.8,1.7,5.1,4.3,6.7,6.9l-0.1-0.1c0.7,0.5,1.7,0.9,2.4,1.5c0,0.1-0.1,0.1-0.1,0c0.7,0.9,0.8,2.1,1.4,3.1
			c-0.1,0-0.1,0-0.2-0.1c0.7,0.9,0.6,2.1,1.4,3.2l-0.1,0.1l0.4,0.7c-0.1,0-0.4,0.1-0.5-0.3c1.3,3.8,2.3,7.9,2.6,12
			c0,0.5,0.1,1,0.1,1.5l0,1.2c0,0.1-0.1,0.1-0.2,0.2c0,0-0.2,0.2-0.3,0.3l-0.3,0.3c-0.4,0.5-0.8,0.9-1.1,1.4c-0.6,1-1,2.1-1.4,3.1
			c-0.2,0.5-0.3,1.1-0.5,1.6l-0.2,0.8c-0.1,0.3-0.1,0.5-0.2,0.9l0.4,2.8l0.4,2.6l-0.2-0.4l0.6,1.9c-0.1,0-0.1-0.1-0.2-0.2
			c0.1,1.3,0.5,2.6,1,3.9c0.3,0.7,0.8,1.8,1.8,1.7c0.4,0,0.8,0,1.1,0c0.3,0,0.6,0,0.9,0c0,0.1-0.4,0.2,0,0.3c0.9-0.2,1.7,0,2.3,0.1
			c0.3,0,0.6,0.1,0.9,0.1c0.1,0,0.3,0,0.4-0.1c0.2,0,0.4-0.1,0.5-0.2c0.1,0,0.3,0.2,0,0.3l1.5,0l0.2,0h0.1l0-0.1l0-0.4l0.1-0.8
			l0.2-1.3l0.1-1c0.1-1.3,0.2-2.6,0.3-3.9c0.1-1.3,0.2-2.6,0.2-4c0-0.3,0-0.7-0.1-1.1c0-0.2,0-0.3-0.1-0.6l-0.1-0.3l0-0.2l0-0.1
			c-0.1-0.4-0.2-1.2-0.2-1.8c-1.2-4.2-1.3-9.1-3-13.3l0.2,0c-1.9-5.5-3.5-11.5-6.8-16.6c-0.7-1.1-1.3-1.9-2-2.7
			c-0.3-0.4-0.7-0.8-1-1.2c-0.4-0.4-0.8-0.8-1.2-1.3l0.1-0.2c-1.7-1.3-3.3-2.9-5.1-4.3c-0.9-0.7-1.9-1.3-2.9-1.9
			c-0.5-0.3-1.1-0.5-1.6-0.7c-0.5-0.2-1.1-0.4-1.6-0.4l0.4-0.1c-0.8,0.2-2.5-1-2.5-0.2l-0.7-0.4c-0.8,0.1-1.5,0-2.2-0.1
			c-0.7-0.1-1.4-0.2-2.1-0.4c-0.7-0.2-1.5-0.2-2.3-0.3c-0.4,0-0.8,0-1.2,0c-0.4,0-0.9,0.1-1.3,0.2l0.2-0.2c-1,0.2-2.1,0.3-2.8,0.2
			c0.1,0,0.1-0.1,0.3-0.1c-3.2-0.4-6.5,1-9.5,2.3l0.2-0.4c-1.3,0.9-4.1,1.9-5.6,3.4l0-0.2c0,0-0.2,0.2-0.4,0.4
			c-0.2,0.2-0.3,0.4-0.3,0.4l-0.2-0.2C86.6,10.1,85.1,12.2,83.8,14.4"/>
		<path clip-path="url(#SVGID_4_)" fill="#EF782C" d="M78.5,40.3C78.5,40.3,78.5,40.3,78.5,40.3C78.5,40.2,78.5,40.3,78.5,40.3"/>
		<path clip-path="url(#SVGID_4_)" fill="#EF782C" d="M86.7,46.8c0,0.1,0.1,0.2,0.1,0.3C86.8,47.1,86.7,46.9,86.7,46.8"/>
		<path clip-path="url(#SVGID_4_)" fill="#FFFFFF" d="M81.2,44.6c0,0-24.3-2-26.1-2c-1.8,0-11.1-0.2-12.4-0.2
			c-1.3,0-9.5,3.1-11.1,8.1c-1.5,5-5.5,26.5-5.3,27.4c0.2,0.9-1.3,21.7-1.3,21.7s-2,18.2-1.1,20.4c0.9,2.2,3.3,30.7,4.6,30.7
			c1.3,0,91.4,0.4,94.1,0s40.5-0.7,43.8-1.1c3.3-0.4,26.1,0,26.8-0.2c0.7-0.2,3.1-1.5,3.1-1.5s3.1-32,2.4-35.9
			c-0.7-3.9-1.3-39-2-41.6c-0.7-2.6-3.8-14.7-4.4-15.8c-0.7-1.1-4.4-2.6-4.4-3.7c0-1.1-4-7.7-7.5-7.7c-3.5,0-9.5,0.4-10.4,0.7
			c-0.9,0.2-4.2,0.9-4.2,0.9l-14.8,1.3l-6.2,0.2"/>
		<polygon clip-path="url(#SVGID_4_)" fill="#EF782C" points="144.8,47.6 145,47.7 145.6,47.4 		"/>
		<path clip-path="url(#SVGID_4_)" fill="#EF782C" d="M148.6,47c-0.1,0-0.1-0.1-0.2-0.2l-2.2,0.8C147.2,47.9,147.9,46.7,148.6,47"/>
		<path clip-path="url(#SVGID_4_)" fill="#EF782C" d="M149.3,47c0.9,0.1,1.2-0.2,1.4-0.3C150.4,46.9,149,46.7,149.3,47"/>
		<path clip-path="url(#SVGID_4_)" fill="#EF782C" d="M196.5,81.1c0-0.1,0-0.2,0-0.3C196.4,81,196.5,81.1,196.5,81.1"/>
		<path clip-path="url(#SVGID_4_)" fill="#EF782C" d="M198.3,100.7l0.3,0.2c-0.6-3.6-0.3-7.8-0.6-11.7l0.1,0.3
			c-0.1-4.9-0.4-9.7-0.7-14.4c-0.2-2.3-0.3-4.8-1.1-7c-0.7-2.3-1.3-4.6-2-6.9c0.1,0.1,0.2,0.2,0.2,0.3c-0.2-0.4-0.5-0.9-0.6-1.4
			c0-0.1,0.2,0.1,0.2,0.3c-0.1-1.6-1.2-4.3-1.8-5.8c-0.2-0.4-0.6-0.6-0.7-0.8c-0.5-0.3-0.8-0.3-0.6,0c-0.8-0.5-1.6-1-2.5-1.6
			c-0.2-0.2-0.4-0.3-0.6-0.6c-0.1-0.1-0.2-0.3-0.3-0.5c0-0.1-0.1-0.2-0.1-0.3c0,0.1,0-0.1,0-0.1c-0.1-0.3-0.3-0.8-0.5-1.2
			c-0.9-1.6-2.2-3.2-3.6-4.4c-0.7-0.6-1.5-1.1-2.3-1.2c-0.2,0-0.4,0-0.6,0l-0.7,0l-1.5,0.1c-2,0.1-4,0.3-5.9,0.6
			c-0.4,0-0.5-0.1-0.4-0.3l-1.2,0.3c-0.1,0-0.2,0-0.3,0.1l-0.3,0.1l-0.6,0.2c-0.8,0.2-1.7,0.5-2.5,0.7l-0.6,0.2
			c-0.2,0.1-0.6,0.1-0.7,0.1l-1.3,0.1l-2.6,0.3c-3.5,0.3-6.9,0.5-10.4,0.8c-0.3,0.2,0.7,0.1,0,0.4c2.2,0,4-0.8,6-0.6l-0.2,0.2
			c1.5,0,0.3-0.5,1.8-0.4c0.6,0.1-0.1,0.2,0.1,0.2c1.5-0.1,3.1-0.3,4.7-0.5c0.4,0,0.8-0.1,1.2-0.1l0.6-0.1l0.3,0
			c0.1,0,0.4-0.1,0.4-0.1c0.7-0.2,1.5-0.4,2.2-0.7c0.2,0.1,0.5,0,0.9,0c0.2,0,0.4-0.1,0.6-0.1c0.2,0,0.4-0.1,0.6-0.1
			c0.7-0.1,1.7-0.2,2.3-0.1c0.8-0.2,1.6-0.2,1.9-0.5c1.9-0.1,3.8-0.2,5.7-0.2c1.3-0.1,2.7,1.2,3.9,2.5c0.6,0.7,1.1,1.4,1.6,2.1
			c0.5,0.7,1,1.6,1.1,2.2c0.1,0.7,0.4,0.9,0.7,1.2c0.2,0.2,0.5,0.4,0.7,0.6c0.4,0.3,0.9,0.6,1.3,0.8c0.4,0.3,0.8,0.5,1.2,0.8
			c0.4,0.2,0.7,0.5,0.8,0.7c0,0.1,0.1,0.2,0.2,0.4c0.1,0.2,0.1,0.4,0.2,0.5l0.4,1.1l0.7,2.3c0.5,1.6,0.9,3.2,1.3,4.7
			c0.5,1.2,0.9,2.5,1.3,3.8c0.2,0.7,0.4,1.4,0.5,2.1c0.1,0.4,0.1,0.7,0.2,1c0,0.3,0,0.7,0.1,1.1c0.1,2.9,0.1,6,0.3,9
			c0,0-0.1,0-0.1,0c0.3,2,0.4,4.9,0.4,7.3l0.4,2c0,3.6,0,7.2,0.1,10.8c0.1,3.6,0.2,7.2,0.6,10.9c0.1,1.6,0,3.5,0,5.3
			c-0.1,1.8-0.2,3.6-0.3,5.4c-0.3,3.6-0.6,7.3-0.9,10.9c-0.2,2.4-0.5,4.8-0.7,7.1c-0.2,2.1-0.5,4.2-0.7,6.3l-1.3,0.7
			c-0.3,0.1-0.6,0.3-0.9,0.4l-0.2,0.1l-0.1,0c-0.1-0.2,0.7,1.8,0.3,0.8l-0.1-0.2l-0.2-0.5c-0.1-0.2-0.1-0.2-0.1-0.2l0,0l0,0
			c0,0-0.2,0-0.4,0c-1.4,0-2.7,0-4.1,0c-2.8,0-5.5,0-8.3,0c-2.8,0-5.5,0.1-8.3,0.2c-1.4,0.1-2.8,0.1-4.3,0.3c-0.4,0-0.7,0.1-1.1,0.1
			l-1,0.1c-0.7,0.1-1.4,0.1-2.1,0.2c0-0.1-0.1-0.1,0.3-0.1c-4.7,0.3-9,0.1-13.4,0.3l0-0.1c-5.5,0.4-11.2,0.5-16.8,0.6
			c-2.8,0.1-5.6,0.1-8.4,0.2c-0.7,0-1.4,0.1-2.1,0.2c-0.7,0.1-1.3,0.1-2,0.2c-1.4,0.1-2.7,0.2-4,0.2c-12.9,0-27.4,0.1-41,0.2l0-0.1
			c-10.9,0.3-21.4-0.5-32.3-0.3c-2.8-0.1-5.6-0.1-8.5-0.1c-1.4,0-2.9,0.1-4.3,0.1l-2,0.1c-0.2,0-0.2-0.2-0.3-0.3
			c-0.1-0.1-0.1-0.3-0.2-0.4c-0.1-0.3-0.2-0.6-0.3-1c-1.2-5.6-2-11.3-2.4-16.8c-0.1-3.5-0.7-7.4-1.5-11.3c-0.3-0.9-0.5-1.9-0.5-2.9
			c-0.1-1-0.1-1.9,0-2.9c0.1-1.9,0.2-3.7,0.5-5.3c0.5-3.3,1-6.6,1.4-9.8c0.3-3.3,0.6-6.6,0.7-9.9c0.2-3.3,0.3-6.6,0.3-9.9
			c0-0.8,0-1.7-0.1-2.5c0-0.8,0.1-1.6,0.2-2.5c0.2-1.7,0.4-3.3,0.6-5c1.3-6,2.3-12.1,3.6-18.1c0.2-0.7,0.3-1.5,0.6-2.2
			c0.3-0.8,0.7-1.4,1.2-2.1c1-1.2,2.2-2.2,3.6-3.1c1.3-0.8,2.7-1.5,4.2-2c0.7-0.2,1.4-0.5,2.3-0.5l2.3,0.2c2.8-0.2,5.8,0,8.9,0.3
			c3.1,0.3,6.2,0.9,9.4,1l-0.2-0.2c2.2,0.7,5.1-0.4,6.5,0.5l-0.2,0c1.2,0.5,2.8-0.8,3.5-0.2l0.2-0.2c1.5,0.1,0.2,0.2,1.3,0.4
			c0.4,0,0.2-0.4,1.1-0.2c0.1,0.8,3.6,0.1,3.6,1c-0.8-0.1,1.2,0.5-0.6,0.5c0.5,0.1,2.9,0.3,2.7-0.1c0.2-0.4,1.2-0.7-0.2-1.1
			l-0.3,0.3c-0.5-0.3-0.4-0.2-0.5-0.4c-1.9-0.2-2.2-0.7-3.5-0.9c0,0,0,0,0,0c-1,0.3-2.3,0-3-0.1l-0.3-0.2c-0.4-0.4-2.2,0.5-1.6,0
			c-4-0.1-8.5-0.5-12.9-0.8c-0.6,0.2-3.4-0.3-2.4,0.2c-1.1-0.7-4.4-0.8-5.6-0.8c0,0,0.1-0.1,0.3-0.1c-2.4-0.7-2.8,0.6-5-0.3
			c-0.2,0.3-1.2,0.2-2.3,0.2c-0.3,0-0.6,0-0.8,0c-0.1,0-0.4,0-0.7,0.1c-0.2,0-0.3,0.1-0.5,0.1c-0.6,0.2-1,0.4-1.3,0.7
			c-0.3,0-0.4-0.1-0.4-0.2c-2,0.8-4,1.8-5.7,3.1c-1.8,1.3-3.4,3-4.1,5c-0.3,1.6-0.7,3.2-1.1,4.9c-0.4,1.6-0.7,3.2-0.7,4.5
			c-0.6,2-1.5,5.2-1.7,8l0-0.3c-0.6,3.2-1.2,7.1-1.1,9.4c-0.2,0.2-0.3,0.5-0.5,0.8c-0.1,0.2-0.1,0.2-0.1,0.6c0,0.2,0,0.3,0,0.5l0,0
			v0v0c-1.1,0.3,1.4-0.4,1.2-0.3l-0.1,0L25.7,78L25,78.1c-0.1,0,0,0-0.1,0.1l0,0.1c0,0.3-0.1,0.5-0.1,0.8c0,0.3-0.1,0.7-0.2,1
			c0.2,2.1-0.2,6.4-0.1,9.7c-0.3,0.5-0.1,2.7-0.5,2.8c0.1,2.3,0,4.8-0.1,7.2c-0.2,2.5-0.4,5.1-0.7,7.7c-0.2,2.6-0.5,5.2-0.7,7.8
			c-0.1,1.3-0.2,2.6-0.2,4c0,0.3,0.2,1,0.2,1.2l0.1,0.7c0.1,0.6,0.1,1.2,0.2,1.8l-0.1-0.1c0.4,1.2,1.1,2.6,1.6,3.8
			c0,0.1-0.1,0.1-0.1-0.1c0.3,1.8,0.1,3.5,0.3,5.2c-0.1,0-0.1,0-0.2-0.3c0.4,1.6,0,3.5,0.6,5.4L25,137l0.3,1.2c-0.2,0-0.4,0-0.4-0.7
			c0.4,3.8,0.9,7.6,1.7,11.6l0.1,0.4l0.1,0.5c0.1,0.4,0.3,0.8,0.5,1.2c0.2,0.3,0.5,0.7,0.9,0.6l1.1,0.1c0.2,0,0.4,0,0.5,0l0.4,0
			l0.7,0l1.5,0c2,0,3.9-0.1,5.9-0.1c7.9-0.1,15.9-0.3,23.8-0.2l-0.6,0.1l3.1-0.2c0,0.1-0.2,0.1-0.3,0.1c3.9,0.3,8-0.1,11.8-0.1
			c0,0.1-0.6,0.2-0.1,0.3c2.8-0.4,4.5,0.5,6-0.3c0.1,0,0.2,0.2-0.1,0.3c7.9-0.3,16-0.2,23.9-0.1c3.3-0.4,6.8-0.4,10.3-0.4
			c1.8,0,3.5,0,5.3-0.1c0.4,0,0.9-0.1,1.3-0.1c0.4-0.1,0.8-0.1,1.3-0.1c0.9-0.1,1.7-0.2,2.6-0.3l0,0.2c8.9-0.8,18.3-0.3,27.5-0.6
			c3.8,0,6.4-0.2,10.2-0.4l0.1,0.2c3.2-0.6,6.6-0.5,10-0.4c3.4,0.1,6.9,0.3,10.3-0.1l-0.5,0.3c1-0.4,4.1,0.2,3.7-0.5l1.2,0.2
			c1.3-0.3,2.5-0.3,3.7-0.4c0.5-0.1,1.1-0.4,1.6-0.6c0.5-0.2,1.1-0.5,1.7-0.7c0.3-1.9,0.6-4,0.6-6.5l0.1,0.4c0-1.5,0.1-3.2,0.3-4.3
			c0,0.2,0.1,0.1,0.1,0.5c1-4.6,0.8-9.8,1.1-14.6l0.3,0.6c-0.2-2.4,0.4-6.7,0.3-9.8l0.1,0.2c0,0-0.2-1.6-0.2-1.6l0.3-0.1
			C198.8,108.5,198.5,104.7,198.3,100.7"/>
		<path clip-path="url(#SVGID_4_)" fill="#EF782C" d="M194,60.4C194,60.4,194,60.4,194,60.4C194.1,60.5,194,60.5,194,60.4"/>
		<path clip-path="url(#SVGID_4_)" fill="#EF782C" d="M76.1,42.9c0.2,0,0.3,0.1,0.5,0.1C76.5,42.9,76.2,42.9,76.1,42.9"/>
		<g clip-path="url(#SVGID_4_)">
			<g>
				<defs>
					<rect id="SVGID_7_" x="72" y="76.2" width="25.3" height="45.8"/>
				</defs>
				<clipPath id="SVGID_8_">
					<use xlink:href="#SVGID_7_"  overflow="visible"/>
				</clipPath>
				<path clip-path="url(#SVGID_8_)" fill="#EDEDED" d="M75.3,78.9c0,0-4.4,3.9-3.1,13.4c1.3,9.4,5.5,29.8,5.5,29.8l19.5-2l-6-33.8
					c0,0,0.2-11.8-12.4-9.9"/>
			</g>
		</g>
		<path clip-path="url(#SVGID_4_)" fill="#EDEDED" d="M88.4,61.3l-1,2.5c0,0-3.8,12.2-5.5,13.5c-1.7,1.3-1.3,1.2-0.2,1.2
			s5.3-0.8,5.3-0.8S90.9,68.2,88.4,61.3"/>
		<polygon clip-path="url(#SVGID_4_)" fill="#EF782C" points="87,61.8 86.9,61.8 87.1,61.8 		"/>
		<path clip-path="url(#SVGID_4_)" fill="#EF782C" d="M87.6,61.9c0,0,0.1,0,0.1-0.1l-0.7,0C86.6,62.1,87.8,61.8,87.6,61.9"/>
		<path clip-path="url(#SVGID_4_)" fill="#EF782C" d="M87.5,62c-0.1,0.1,0.2,0,0.3,0C87.5,62.1,87.8,61.9,87.5,62"/>
		<path clip-path="url(#SVGID_4_)" fill="#EF782C" d="M88.3,68.2C88.3,68.2,88.3,68.2,88.3,68.2C88.2,68.2,88.3,68.2,88.3,68.2"/>
		<path clip-path="url(#SVGID_4_)" fill="#EF782C" d="M89.2,70.1l0.3,0.1c-0.4-0.4,0.1-0.7-0.1-1.1l0.1,0c0.2-0.9-0.2-1.7-0.4-2.6
			c0,0,0.1,0,0.1,0c-0.1,0-0.3-0.1-0.2-0.1c0.1,0,0.1,0,0.1,0c0.4-0.2-0.3-0.5,0-0.7c0,0-0.2-0.1-0.4,0c-0.1-0.7-0.3-1.4-0.7-2
			c0.1,0,0.2-0.1,0.3-0.1c-0.8-0.4-0.6-1-0.7-1.6c-0.2,0-0.2,0.1-0.4,0.1c-0.2,0.2,0.5,0.2,0.2,0.4l-0.2,0c-0.1,0.1,0.4-0.1,0.3,0.1
			c-0.1,0.1-0.2,0-0.2,0.1c0.1,0.2,0,0.5,0.5,0.7c-0.4,0.1,0,0.3-0.3,0.4c0.2,0,0.1,0.1,0.4,0.1c0,0.5,0,0.9,0.2,1.4
			c0.1,0.5,0.2,0.9,0.2,1.4c0.7,0.5-0.2,1,0,1.5c0,0-0.1,0-0.1,0c0.2,0.2,0.2,0.4,0.1,0.6l0.3,0.2c-0.8,1.2-0.5,2.5-1.1,3.7
			c-0.3,0.7-0.6,1.3-0.8,1.9c-0.1,0.3-0.2,0.6-0.2,1c0,0.2,0,0.4,0,0.5c0,0.2,0.1,0.2,0.2,0.4c-0.1,0-0.1-0.1-0.1-0.1
			c0,0.1,0,0.2-0.1,0.3c-0.1,0-0.2,0-0.3,0.1l0-0.1c0,0.1-0.1,0.2-0.2,0.2c-0.1,0.1-0.2,0.1-0.3,0.1c-0.2,0.1-0.5,0.1-0.7,0.1
			c-0.5,0.1-0.7,0.1-1.2,0.5c-0.5,0.1-1,0.1-1.5,0.2c-0.3,0-0.6,0.1-0.9,0c0-0.2,0.2-0.3,0.3-0.5l0.3-0.1c0.1-0.2,0.7-0.5,1-0.9
			c0.4-0.4,0.6-0.6,0.7-1c0.7-0.8,0.1-2.2,0.9-3c0.9-0.3-0.2-1.6,0.6-1.9c1.5-0.7,1.2-2.1,0.9-3.4c0.7-0.9,0.1-2.3,1.2-3
			c-0.4-0.7,1-0.8,1-1.3l-0.2,0c0.6,0-0.5-0.7,0.3-0.5l0,0c0.4,0.1-0.8-0.6-0.3-0.5l-0.2-0.1c0-0.1,0.2,0.1,0.3,0
			c0,0-0.3-0.2-0.2-0.2c0.8,0.3-0.1-0.4,0.8,0c0,0.1,0.4,0,0.5,0.3c0.1,0,0.1-0.2-0.2-0.4c-0.4-0.2-0.7-0.4-1.1-0.4l0.3,0.1
			c-0.3-0.1-0.2,0-0.4-0.1c-0.1,0.1-0.5,0-0.7,0c0,0,0,0,0,0c0.3,0.2,0.1,0.2,0,0.3l-0.2,0c-0.4-0.1,0.6,0.4,0,0.2
			c0,0.4-0.1,0.8-0.3,1.1c0.2,0.1-0.1,0.3,0.3,0.4c-0.5-0.1-0.7,0.1-0.8,0.3c0,0-0.1,0-0.1-0.1c-0.7,0,0.5,0.4-0.3,0.4
			c0.5,0.2-0.3,0.3,0.3,0.6c-0.1,0-0.2,0-0.3-0.1c-0.1,0.3-0.4,0.6-0.6,0.9c0.4,0.4-0.4,0.5,0.2,0.9c-0.2,0.1-0.6,0.3-0.4,0.6
			l-0.1,0c-0.1,0.3-0.1,0.6,0.2,1c-0.7-0.1-0.6,0-0.8,0.1c0.2,0.3,0,0.6,0.2,1c-0.3-0.1,0,0.3-0.4,0.1c0.5,1-0.1,1.9-1,2.5l0,0
			c0.2,0.2,0.7,0.5,0.9,0.7c0,0-0.1,0-0.1-0.1c0,0.2-0.4,0.2-0.4,0.3c-0.1,0-0.1,0-0.1-0.1c0.1,0.2-0.4,0.2-0.2,0.4l-0.1,0l0.1,0.2
			c-0.1-0.1-0.3-0.1-0.3-0.2c-0.3,0.6-0.4,1.3-0.6,2L82.2,75c-0.1,0.2-0.2,0.5-0.3,0.7c-0.1,0.4-0.6,0.9-1,1.4l-0.2,0
			c-0.1,0,0.2,0.2,0.2,0.2c-0.1,0-0.2,0-0.2,0c-0.7,0.6,0,0.5-0.3,0.7c-0.1,0-0.3,0.1-0.4,0.2c0.2,0,0,0.1-0.1,0.2
			c-0.1,0.1-0.1,0.1,0.3,0c0,0-0.2,0.1-0.3,0.1c0,0,0,0.1,0.1,0.1c0,0.1,0.1,0.2,0.2,0.2c0.2,0.1,0.3,0.1,0.5,0.1
			c0.3,0.1,0.6,0.2,1,0.3c0.7-0.4,1.1-0.5,1.5-0.5c0.4,0,0.8-0.1,1.2-0.5l0,0.2c0.8-0.7,1.6-0.2,2.6-0.5c0.1,0,0.2,0,0.3-0.1
			c0.1-0.3,0.1-0.5,0.2-0.8l0.2,0.1c-0.2-0.5,0-0.7,0.3-0.9c0.2-0.2,0.5-0.5,0.2-0.9l0.2,0.1c-0.4-0.2,0.2-0.3-0.4-0.5l0.2,0
			c-0.8-0.6,0.6-0.6,0.2-1.2l0.1,0.1c-0.1-0.2-0.1-0.3,0-0.4c0,0,0.1,0,0.1,0.1c0.7-0.3,0.1-0.9,0.2-1.3l0.3,0.1
			c-0.3-0.3,0.1-0.6,0-0.9l0.1,0L89,71.1l0.3,0C89.4,70.8,89.2,70.4,89.2,70.1"/>
		<path clip-path="url(#SVGID_4_)" fill="#EF782C" d="M89.1,66.4C89.1,66.4,89.1,66.4,89.1,66.4C89.1,66.4,89.1,66.4,89.1,66.4"/>
		<path clip-path="url(#SVGID_4_)" fill="#EF782C" d="M87,61.2C87,61.2,87.1,61.2,87,61.2C87,61.2,87,61.2,87,61.2"/>
		<path clip-path="url(#SVGID_4_)" fill="#FFFFFF" d="M77.9,75.9c0,0-4.4,3.9-3.1,13.4c1.3,9.4,5.5,29.8,5.5,29.8l19.5-2l-6-33.8
			c0,0,0.2-11.8-12.4-9.9"/>
		<polygon clip-path="url(#SVGID_4_)" fill="#EF782C" points="81.7,75 81.8,75.1 81.9,74.8 		"/>
		<path clip-path="url(#SVGID_4_)" fill="#EF782C" d="M82.5,74.4c0,0,0-0.1-0.1-0.2L82,75C82.3,75.3,82.3,74.2,82.5,74.4"/>
		<path clip-path="url(#SVGID_4_)" fill="#EF782C" d="M82.7,74.4c0.2,0.1,0.3-0.2,0.3-0.3C82.9,74.4,82.6,74.1,82.7,74.4"/>
		<path clip-path="url(#SVGID_4_)" fill="#EF782C" d="M93.2,85C93.2,85,93.2,85,93.2,85C93.2,85,93.2,85,93.2,85"/>
		<path clip-path="url(#SVGID_4_)" fill="#EF782C" d="M95.1,89.7l0.3,0c-0.6-0.8-0.3-1.9-0.7-2.8l0.1,0c-0.2-1.2-0.5-2.4-0.8-3.5
			c-0.2-1.1-0.5-2.3-0.9-3.4c0,0,0.1,0,0.2,0c-0.1-0.1-0.3-0.2-0.3-0.3c0,0,0.1,0,0.2,0c0.1-0.3-0.1-0.6-0.3-0.9
			c-0.2-0.3-0.4-0.5-0.4-0.8c-0.1-0.1-0.3-0.1-0.4,0.1c-0.9-1.6-2.5-2.9-4.3-3.2c-0.1-0.1,0-0.2,0-0.3c-0.8,0-1.6,0-2.4-0.1
			c-0.4,0-0.8,0-1.2-0.1l-0.6-0.1c-0.2,0-0.4,0-0.6,0c0,0.2,0.2,0.2,0,0.4c0.5,0.1,0.9-0.5,1.4-0.1l-0.1,0.2
			c0.3,0.1,0.1-0.4,0.4-0.2c0.1,0.1,0,0.2,0,0.2c0.2,0,0.3,0,0.5,0l0.5,0.1c0.3,0,0.7,0,1.1-0.1c0,0.4,0.7,0.3,0.8,0.7
			c0.2-0.1,0.4,0,0.5-0.2c1,0.6,1.9,1.3,2.7,2.3c0.8,0.9,1.3,2.1,1.6,3.3c0.5,0.5,0.6,1.2,0.5,1.9c0,0.2,0,0.3-0.1,0.5
			c0,0.1,0,0.3,0,0.4l0,0.3c0,0.4,0.1,0.8,0.2,1.1c0,0-0.1,0-0.1,0c0.3,0.5,0.5,1.2,0.5,1.8l0.4,0.4c0,3.6,1.1,7.2,1.4,10.8
			c0.5,4.1,0.6,7.7,2.3,11.5c-0.1,0-0.1,0-0.2-0.1c0.3,1.1,0.3,2.2,0.6,3.3l-0.1,0c0.3,0.7,0.5,1.4,0.7,2.2l0.2,0.9l0.1,0.7
			c-0.5,0-0.8,0.1-1.3,0.2c-0.6,0.1-1.2,0.2-1.8,0.5c-3.2,0.3-6.8,0.7-10.2,1.2l0-0.1c-1.3,0.3-2.7,0.3-4,0.3l-0.8,0l-0.4,0
			c-0.1,0-0.1-0.2-0.1-0.3c0-0.3-0.1-0.5-0.1-0.7c-0.1-0.3-0.1-0.6-0.2-1c-0.2-2.8-1.9-5.4-2-8.2c0.4-1.8-1.6-3.8-1.1-5.5
			c0.5-3.5-0.8-6.5-2-9.7c0-1.6-0.5-3-0.7-4.5c-0.3-1.5-0.4-3.1,0.2-4.6c-0.2-0.7,0.1-1.5,0.4-2.2c0.4-0.7,0.8-1.4,1-2.1l-0.2,0
			c0.7-0.3-0.2-1.5,0.7-1.4l0,0.1c0.5,0-0.5-1.1,0-1l-0.1-0.1c0.2-0.3,0.2,0.1,0.4-0.1c0-0.1-0.3-0.2-0.1-0.4
			c0.7,0.4,0.4-0.8,1.2-0.3c-0.1,0.1,0.5,0,0.4,0.5c0.1,0,0.4-0.4,0.1-0.7c-0.3-0.3-0.3-0.8-0.8-0.8l0.2,0.3c-0.3-0.1-0.2,0-0.4-0.2
			c-0.4,0.4-0.8,0.1-1.2,0.3c0,0,0,0,0,0c0.1,0.4-0.2,0.6-0.4,0.7l-0.2,0c-0.4-0.1,0.3,0.9-0.2,0.4c-0.4,1-0.9,2.1-1.2,3.2
			c0.2,0.2-0.2,0.9,0.3,0.7c-0.6,0.1-0.9,1-0.9,1.3c0,0-0.1,0-0.1-0.1c-0.8,0.5,0.5,0.8-0.4,1.3c0.6,0.1-0.3,1.1,0.4,1.4
			c-0.1,0.1-0.2,0.1-0.3,0.1c0,0.5-0.1,1.1-0.1,1.6c0,0.5-0.1,1.1,0,1.5c0.6,0.7,0,1.8,0.8,2.3c-0.1,0.5-0.2,1.4,0.2,2.1l-0.1-0.1
			c0.2,0.8,0.4,1.8,0.9,2.2c-0.6,0.3-0.4,0.7-0.6,1c0.4,0.5,0.5,1.6,0.9,2.3c-0.3,0.2,0.2,0.6-0.2,0.8c1.3,2.1,1.5,4.9,1.3,7.4l0,0
			c0.3,0.3,0.9,0.5,1.3,0.8c0,0-0.1,0-0.1,0c0.2,0.4-0.2,0.9,0,1.3c-0.1,0-0.1,0-0.2,0c0.3,0.4-0.2,0.9,0.2,1.3l-0.1,0l0.2,0.3
			c-0.1,0-0.4,0.1-0.4-0.1c0.3,1.9,0.8,3.8,1.4,5.7L79,117l0.2,0.7l0.3,1.1l0.3,1c0,0.1,0,0.1,0.1,0l0.1,0l0.3,0l0.6-0.1l1.1-0.1
			l0.8-0.1l-0.1,0.2l0.7-0.3c0,0.1,0,0.1-0.1,0.2c1,0.1,2-0.4,2.9-0.4c0,0.1-0.1,0.2,0,0.3c0.7-0.5,1.2,0.4,1.4-0.5
			c0,0,0.1,0.2,0,0.3c1.9-0.5,3.9-0.7,5.9-0.7c1.6-0.9,3.4-0.4,5.2-1.2l0.1,0.1c0.5-0.1,0.9-0.3,1.3-0.3c-0.5-2-0.5-3.8-0.9-5.6
			c-0.1-0.9-0.4-1.5-0.6-2.5l0.2-0.1c-1-1.5,0.1-3.4-1-4.9l0.3,0.1c-0.4-0.2,0-1-0.7-0.8l0.2-0.3c-1.1-1,0.1-2.1-0.8-3.4l0.2,0.1
			c-0.2-0.3-0.4-0.7-0.3-1c0,0,0.1,0,0.1,0.1c0.4-1.2-0.5-2.4-0.7-3.6l0.3,0.1c-0.5-0.5-0.3-1.6-0.6-2.4l0.1,0l-0.3-0.4l0.3-0.1
			C95.8,91.5,95.3,90.7,95.1,89.7"/>
		<path clip-path="url(#SVGID_4_)" fill="#EF782C" d="M93.1,79.7C93.1,79.7,93.1,79.8,93.1,79.7C93.1,79.8,93.1,79.8,93.1,79.7"/>
		<path clip-path="url(#SVGID_4_)" fill="#EF782C" d="M76,76.1c0,0,0.1-0.1,0.1-0.1C76.1,76,76,76.1,76,76.1"/>
		<path clip-path="url(#SVGID_4_)" fill="#FFFFFF" d="M89.6,54.6c0,0-3.5-5.3-3.8-12.1c-0.2-6.8,2.7-37.5,25.4-37.5
			c22.8,0,28.1,25.4,27.4,37c-0.7,11.6-4.2,12.1-4.2,12.1s1.8,11,3.1,11c1.3,0,7.3,0.2,7.3,0.2s1.5-10.1,0.7-12.3
			c-0.9-2.2-1.1-51.9-34.5-51.9c-33.4,0-29.9,42.3-29.9,42.3l-2.7,10.1L81,65.2l7.1-0.2C88.1,64.9,90.1,56.2,89.6,54.6"/>
		<path clip-path="url(#SVGID_4_)" fill="#EF782C" d="M88.8,54.9c0,0-0.2,0.1-0.5,0.2c-0.1,0-0.2,0.1-0.2,0.1s0.1,0,0.1,0
			c0.1,0,0.1,0.1,0.1,0.1c0,0,0-0.2-0.1-0.1c0,0-0.1,0,0,0C88.6,55,88.8,54.9,88.8,54.9"/>
		<path clip-path="url(#SVGID_4_)" fill="#EF782C" d="M88.5,57.1c0.1-0.1,0.1,0,0.2-0.1c0,0-0.5-1.5-0.6-1.5
			C87.7,56.1,88.8,56.7,88.5,57.1"/>
		<path clip-path="url(#SVGID_4_)" fill="#EF782C" d="M88.4,57.5c-0.2,0.6,0,0.8,0.1,1C88.3,58.3,88.8,57.5,88.4,57.5"/>
		<path clip-path="url(#SVGID_4_)" fill="#EF782C" d="M83.2,27.7c0,0.1,0,0.1,0,0.2C83.3,27.8,83.3,27.7,83.2,27.7"/>
		<path clip-path="url(#SVGID_4_)" fill="#EF782C" d="M86.8,14.5l-0.2-0.3c-0.9,2.5-2.5,4.9-3.1,7.6l0-0.2c-1.1,3.3-1.7,6.6-2,9.9
			c-0.3,3.3-0.3,6.6-0.1,10c0-0.1-0.1-0.1-0.1-0.2c0.1,0.3,0.3,0.7,0.3,1.1c-0.1,0.1-0.1-0.1-0.2-0.2c-0.1,0.4-0.1,0.8-0.1,1.3
			c-0.4,1.4-0.5,3.2-0.9,3.8c-0.1,0.4,0.1,0.6,0.3,0.4c-0.5,1.9-0.9,3.9-1.4,5.9c0.4,1.6,0.8,3.2,1.2,4.9c0.4,1.7,0.8,3.4,1.3,5
			c0,0.3-0.1,0.3-0.3,0.3c0.1,0.2,0.2,0.4,0.3,0.6l0.4-0.1c0.2,0,0.1-0.1,0.5-0.1l1.6-0.1l1.6-0.1l1.2,0c0.2,0.1,0.2-0.2,0.3-0.3
			l0.3-1.4c0.2-1.1,0.5-2.1,0.7-3.2c-0.2-0.2-0.3,0.4-0.4,0c-0.5,1.4-0.1,2.8-0.7,4.1l-0.1-0.2c-0.2,0.5-0.1,0.6,0,0.6
			c0.1,0.1,0.2,0.1,0,0.2c-0.2,0-0.2-0.2-0.2-0.1c0,0.1-0.1,0.1-0.2,0.1c-0.5,0-1,0-1.4,0.1c-0.5,0-1.1,0.1-1.6,0.1
			c-0.3,0-0.5,0.1-0.8,0.1L82.6,64l-0.2,0c0,0,0,0-0.1,0c-0.1-0.2-0.1-0.2-0.3-0.2c0-0.2-0.1-0.1,0-0.9c-0.3-0.5-0.3-1.1-0.6-1.2
			c-0.3-1.4-0.5-2.8-0.8-4.2c-0.3-1.3-0.6-2.6-0.9-4c0.8-3.3,1.6-6.7,2.5-10l-0.1-1.1l0-0.9c0-0.6,0-1.3,0-1.9
			c-0.7-3.6,0.5-7.8,1.1-12c0,0,0.1,0,0.1,0c0.1-1.4,0.5-3.4,1-4.9c0,0,0-0.4,0.1-0.7c0-0.4,0.1-0.7,0.1-0.7c1.9-4.6,4.3-9,7.9-12.5
			c1.8-1.7,3.8-3.2,6-4.3c2.2-1.1,4.7-1.8,7.1-2.1c2.8-0.4,5.6-0.4,8.2-0.2c2.6,0.3,5.2,0.9,7.6,1.9c2.4,1,4.6,2.3,6.7,3.9
			c2.1,1.6,3.9,3.5,5.7,5.7c-0.1,0-0.1,0.1-0.2-0.1c2,2.5,3.1,5.2,4.5,7.9l-0.1,0c1.8,3.3,3,7.1,3.9,10.9c0.9,3.8,1.6,7.6,2.4,11.1
			c0.3,2.2,0.5,4.5,0.8,6.8c0.1,0.6,0.1,1.2,0.2,1.8c0,0.3,0.1,0.6,0.2,0.9c0.1,0.3,0.1,0.5,0.2,0.8c0.1,1.1,0.1,2.3,0,3.5
			c-0.1,1.2-0.2,2.4-0.3,3.6c-0.1,1.2-0.3,2.5-0.4,3.5c0.1,0.8-0.7,0.5-1.2,0.5l-1.8,0c-1.2,0-2.4,0-3.6,0l0-0.1c-0.2,0-0.4,0-0.7,0
			c-0.2,0-0.3-0.3-0.5-0.4c-0.2-0.4-0.4-0.8-0.6-1.3c-0.3-0.9-0.5-1.9-0.8-2.8c-0.2-0.9-0.4-1.9-0.5-2.9l-0.2-1.4l-0.2-1.3l0-0.3
			c0,0,0-0.1,0-0.1c0.1,0,0.1,0,0.2,0c0.2-0.1,0.3-0.2,0.5-0.3c1.3-1.1,2-2.6,2.5-4.1c0.5-1.5,0.7-3.1,0.9-4.6
			c0.7-3.9,0.4-8-0.4-11.9c-0.8-3.9-2-7.7-3.3-11.4c-0.6-2.4-2.1-4.8-3.9-6.9c-1.8-2.1-3.9-3.8-5.5-5.5c-3.4-3.3-8.3-4.9-13-5
			c-4.7-0.2-9.5,1.3-13.1,4.2c-3.7,2.3-6.2,5.9-8.1,9.7c-1.8,3.8-3,7.8-4.3,11.8c-0.3,3.9-2.1,8.1-1.8,12.6l0.2-0.2
			c-0.2,0.8,0,1.7,0.3,2.5c0.3,0.8,0.6,1.4,0.3,2l-0.1-0.2c-0.2,0.9,1.5,1.6,1.1,2.2l0.2,0.1c0.4,0.9-0.2,0.2,0,0.9
			c0.1,0.3,0.4,0,0.5,0.6c-0.7,0.5,1.2,2.2,0.4,2.6c-0.3-0.5,0.1,1-0.7-0.1c0.1,0.4,1,1.9,1.3,1.6c0.4-0.1,1.1,0.2,0.8-0.8l-0.4,0
			c0.1-0.4,0-0.3,0.1-0.5c-0.6-1.2-0.3-1.5-0.5-2.4c0,0,0,0,0,0c-0.6-0.4-0.7-1.3-0.8-1.8l0.1-0.2c0.2-0.4-1.1-1.2-0.4-1
			c-0.9-2.5-1.3-5.4-1.1-8.4c-0.2-0.4,0.2-2.3-0.3-1.7c0.6-0.7,1-2.9,1.1-3.7c0,0,0.1,0.1,0.1,0.2c0.9-1.5-0.3-2,0.8-3.3
			c-0.5-0.4,0.8-2.6,0.3-3.6c0.2-0.1,0.3-0.2,0.4-0.1c0.7-2.6,1.9-5.3,2.9-7.3c0.4-2,2.4-4,2.8-5.6c0.9-1,2.6-2.5,3.8-3.8l-0.1,0.2
			c1.6-1.4,3.8-2.7,5.1-3.6c0.4,0.2,0.8,0.2,1.2,0.1c0.4-0.1,0.9-0.2,1.3-0.2c1.3-0.7,4.1-0.9,6.4-1c0.3,0.3,1.8,0,1.9,0.5
			c0.8,0,1.6,0.1,2.4,0.1c0.8,0.2,1.6,0.3,2.4,0.5c1.6,0.4,3.2,1.2,4.7,2.2c3,1.9,5.2,4.8,6.7,7.7l-0.1-0.1c0.7,0.6,1.7,1.1,2.4,1.8
			c0,0.1-0.1,0.1-0.2,0c0.7,1,0.8,2.3,1.3,3.3c-0.1,0-0.1,0-0.2-0.1c0.7,1,0.6,2.3,1.3,3.5l-0.1,0.1l0.4,0.8c-0.1,0-0.4,0.1-0.5-0.4
			c1.3,4.4,2.2,9.1,2.4,13.8c0.1,2.3-0.1,4.8-0.4,7.1c-0.2,1.2-0.4,2.3-0.8,3.4c-0.4,1.1-0.9,2.1-1.6,2.8c-0.2,0.2-0.4,0.5-0.6,0.6
			c-0.1,0-0.1,0.1-0.2,0.1c0,0.1,0,0.1-0.1,0.2l-0.2,0.5l0.4,2.5l-0.2-0.4l0.7,2.1c-0.1,0-0.1-0.1-0.2-0.2c0.2,1.4,0.5,2.7,1,4.1
			c0.2,0.7,0.4,1.3,0.8,2.1c0.2,0.4,0.5,0.9,0.9,1c0.2,0.1,0.5,0.1,0.7,0.1l0.6,0c0,0.1-0.4,0.2,0,0.3c2-0.3,3.1,0.6,4.2-0.2
			c0.1,0,0.1,0.2-0.1,0.3l1.2,0l1.6,0h0.2c0.1,0,0.1,0,0.1-0.1l0.1-0.4l0.1-0.8l0.2-1.4c0.1-1.4,0.3-2.8,0.4-4.2
			c0.1-1.4,0.2-2.8,0.2-4.2c0-0.7,0-1.4-0.2-2.3c-0.1-0.4-0.2-1.2-0.2-1.9c-1.2-4.5-1.1-9.7-2.7-14.2l0.2,0c-1.7-5.9-3-12.4-6-18.1
			c-1.2-2.4-2.3-3.9-3.8-6l0.1-0.2c-1.7-1.6-3.1-3.5-4.8-5.1c-1.7-1.6-3.7-3.2-6.1-3.8l0.4-0.1c-0.4,0-1-0.4-1.6-0.6
			c-0.6-0.2-1-0.3-1,0l-0.7-0.5c-0.8-0.1-1.6-0.1-2.3-0.3c-0.7-0.2-1.4-0.4-2.2-0.5c-1.5-0.4-3.2-0.7-5.1-0.4l0.3-0.2
			c-1,0.2-2.2,0.3-3,0.2c0.1,0,0.1-0.1,0.3-0.1c-3.4-0.4-6.9,1.2-10,2.6l0.2-0.4c-1.4,1-4.2,2.3-5.7,3.9l0-0.2c0,0-0.2,0.2-0.4,0.4
			C92.1,7.7,91.9,8,91.9,8l-0.2-0.2C89.6,9.8,88.1,12.1,86.8,14.5"/>
		<path clip-path="url(#SVGID_4_)" fill="#EF782C" d="M81.3,42.2C81.3,42.2,81.3,42.2,81.3,42.2C81.3,42.1,81.3,42.1,81.3,42.2"/>
		<path clip-path="url(#SVGID_4_)" fill="#EF782C" d="M89.2,50.9c0,0.1,0.1,0.2,0.1,0.3C89.3,51.2,89.2,51,89.2,50.9"/>
		<polygon clip-path="url(#SVGID_4_)" fill="#EF782C" points="138.4,45.1 138.3,45.1 138.3,45.2 		"/>
		<path clip-path="url(#SVGID_4_)" fill="#EF782C" d="M137.9,45.3C137.9,45.4,137.9,45.4,137.9,45.3l0.3-0.3
			C138.1,44.9,138,45.5,137.9,45.3"/>
		<path clip-path="url(#SVGID_4_)" fill="#EF782C" d="M137.9,45.3c-0.1-0.1-0.1,0.1-0.2,0.1C137.7,45.3,137.9,45.5,137.9,45.3"/>
		<path clip-path="url(#SVGID_4_)" fill="#EF782C" d="M129.5,45C129.5,45,129.5,45,129.5,45C129.5,45,129.5,45,129.5,45"/>
		<path clip-path="url(#SVGID_4_)" fill="#EF782C" d="M127.3,45.4l0,0.1c0.4-0.2,0.9,0.1,1.3,0l0,0c1.1,0.1,2.1-0.1,3.2-0.1
			c0,0,0,0.1,0,0.1c0.1,0,0.1-0.1,0.2-0.1c0,0,0,0.1,0,0.1c0.2,0.2,0.7-0.1,0.8,0.1c0.1,0,0.1-0.1,0.1-0.2c0.9,0,1.8,0,2.6-0.1
			c0,0,0,0.1,0,0.2c0.8-0.3,1.5-0.1,2.3-0.1c0-0.1-0.1-0.1,0-0.2c-0.2-0.1-0.5,0.2-0.7,0l0-0.1c-0.2-0.1,0,0.2-0.2,0.1
			c-0.1-0.1,0-0.1,0-0.1c-0.3,0-0.7-0.1-1,0.1c-0.1-0.2-0.4,0-0.5-0.2c-0.1,0.1-0.2,0-0.2,0.2c-1.2-0.2-2.4,0-3.6-0.1
			c-0.6,0.3-1.3-0.1-1.9,0c0,0,0,0,0,0c-0.2,0.1-0.5,0.1-0.8,0l-0.2,0.1c-1.6-0.4-3.2-0.3-4.8-0.5c-0.9-0.1-1.8-0.2-2.6-0.4
			c-0.4,0-0.8-0.1-1.3-0.1c-0.5,0-0.9,0-1.4,0.1c0,0,0-0.1,0-0.1c-0.5,0.1-1-0.1-1.5,0l0,0c-1.2,0.3-2.5,0-3.7,0.3
			c-1.4,0-3,0.1-4.5,0.3v-0.1c-1.2,0.2-2.4-0.1-3.6,0c-1.2-0.1-2.5,0.5-3.8,0.2c-0.8-0.3-1.8,0.4-2.5,0.1c-1.5-0.5-2.9-0.2-4.4,0.2
			c-1.4-0.2-2.7,0.3-4.1,0c-0.6,0.3-1.3-0.3-2-0.2l0,0.1c-0.3-0.3-0.6,0.4-0.7,0l0,0c-0.1-0.2-0.3,0.5-0.4,0.2l0,0.1
			c-0.2,0,0-0.1-0.1-0.2c0,0,0,0.2-0.1,0.1c0-0.4-0.4,0.1-0.4-0.4c0.1,0-0.1-0.2,0.1-0.3c-0.1,0-0.3,0-0.3,0.2c0,0.2-0.1,0.4,0,0.6
			l0-0.2c0.1,0.2,0,0.1,0.1,0.2c0.2,0,0.2,0.2,0.4,0.3c0,0,0,0,0,0c0.1-0.2,0.2-0.1,0.3-0.1l0,0.1c0.1,0.2,0.2-0.4,0.2,0
			c0.4-0.1,0.9-0.1,1.4-0.1c0.1-0.1,0.4,0,0.3-0.2c0.1,0.3,0.5,0.3,0.6,0.3c0,0,0,0.1,0,0c0.3,0.3,0.3-0.3,0.6,0.1
			c0-0.3,0.4,0.1,0.6-0.3c0,0.1,0,0.1,0,0.2c0.4,0,0.9,0.1,1.3,0.1c0.3-0.3,0.8,0.1,1-0.2c0.2,0.1,0.6,0.2,0.9,0.1l0,0
			c0.4,0,0.8,0,1-0.3c0.1,0.3,0.3,0.3,0.4,0.4c0.2-0.2,0.7-0.1,1.1-0.3c0.1,0.2,0.3-0.1,0.3,0.2c1-0.4,2.3-0.3,3.4,0l0,0
			c0.1-0.1,0.3-0.4,0.4-0.6c0,0,0,0.1,0,0.1c0.2,0,0.4,0.2,0.6,0.1c0,0,0,0,0,0.1c0.2-0.1,0.4,0.2,0.6,0l0,0.1l0.1-0.1
			c0,0.1,0,0.2-0.1,0.2c1.7,0.1,3.5-0.3,5.2-0.4l-0.1,0.1l0.3-0.1c0,0,0,0.1,0,0.1c0.4,0.1,0.9-0.1,1.3-0.1c0,0-0.1,0.1,0,0.1
			c0.3-0.2,0.5,0.2,0.6-0.2c0,0,0,0.1,0,0.1c0.9-0.2,1.7-0.2,2.6-0.2c0.7-0.4,1.5-0.1,2.3-0.4l0,0.1c1-0.3,2,0,3-0.1
			c0.4,0,0.7,0,1.1,0l0,0.1c0.7-0.3,1.4,0.5,2.2,0.2l-0.1,0.1c0.1-0.2,0.4,0.1,0.4-0.2l0.1,0.1c0.5-0.4,0.9,0.3,1.5,0l0,0.1
			c0.2-0.1,0.4-0.1,0.5,0c0,0,0,0-0.1,0.1c0.5,0.4,1.1,0,1.6,0.1l-0.1,0.1c0.3-0.2,0.7,0,1.1,0l0,0.1l0.2-0.1l0,0.1
			C126.4,45.5,126.8,45.4,127.3,45.4"/>
		<path clip-path="url(#SVGID_4_)" fill="#EF782C" d="M131.8,45.5L131.8,45.5C131.8,45.5,131.8,45.5,131.8,45.5"/>
		<path clip-path="url(#SVGID_4_)" fill="#EF782C" d="M87.1,45.9C87.1,45.8,87.1,45.8,87.1,45.9C87.1,45.9,87.1,45.8,87.1,45.9"/>
		<polygon clip-path="url(#SVGID_4_)" fill="#EF782C" points="78.2,52 78.2,52 78,52.2 		"/>
		<path clip-path="url(#SVGID_4_)" fill="#EF782C" d="M77.2,52.8c0,0,0,0.1,0.1,0.1l0.5-0.8C77.5,51.8,77.5,53,77.2,52.8"/>
		<path clip-path="url(#SVGID_4_)" fill="#EF782C" d="M77,52.8c-0.3-0.1-0.3,0.2-0.4,0.3C76.7,52.9,77.1,53.1,77,52.8"/>
		<path clip-path="url(#SVGID_4_)" fill="#EF782C" d="M54.1,50.7C54.2,50.7,54.2,50.7,54.1,50.7C54.2,50.6,54.1,50.7,54.1,50.7"/>
		<path clip-path="url(#SVGID_4_)" fill="#EF782C" d="M47.9,50.9l-0.1,0.2c1.2-0.3,2.4,0.3,3.7,0.3l-0.1,0.1c3,0.5,5.9,0.6,9,0.7
			c-0.1,0-0.1,0.1-0.1,0.1c0.1-0.1,0.3-0.2,0.5-0.2c0,0.1-0.1,0.1-0.1,0.1c0.6,0.5,1.9,0.1,2.3,0.5c0.2,0,0.3-0.2,0.2-0.3
			c1.2,0.2,2.4,0.5,3.6,0.7c0.6,0.1,1.2,0.2,1.8,0.3l0.9,0.1l0.4,0c0.1,0,0.2,0,0.3,0c0.1,0.1,0.1,0.2,0.1,0.3c1.9-0.6,4-0.8,6.1-1
			c0-0.2-0.2-0.1-0.1-0.4c-0.7-0.1-1.1,0.7-1.8,0.4l0-0.2c-0.5,0,0,0.4-0.5,0.3c-0.2-0.1,0-0.2-0.1-0.2c-0.9,0.2-1.9,0.2-2.7,0.7
			c-0.2-0.4-1,0-1.1-0.4c-0.1,0.1-0.4,0-0.5,0.3c-1.6-0.5-3.2-0.9-4.9-1.3c-0.8-0.2-1.7-0.4-2.6-0.5c-0.4-0.1-0.9-0.1-1.4-0.2
			c-0.2,0-0.6,0-0.7,0c-0.2,0-0.3,0-0.6-0.1c-1.7,0.5-3.5-0.6-5.4-0.7c0,0,0-0.1,0-0.1c-0.6,0.1-1.6,0-2.3-0.2l-0.7,0.2
			c-2.2-0.6-4.4-1-6.7-1.2c-1.1-0.1-2.3-0.2-3.5-0.3c-0.6,0-1.2-0.1-1.8-0.1c-0.3,0-0.6,0-0.9,0c-0.3,0-0.6,0-1,0.1
			c-0.2,0.1-0.5,0.1-0.6,0.2l-0.4,0.2c-0.3,0.1-0.6,0.3-0.9,0.4c-0.6,0.3-1.2,0.7-1.7,1.1c-1.1,0.8-2,1.9-2.6,3
			c-1.3,2.3-1.8,4.8-1.7,7.4c-0.1,0-0.1,0-0.1-0.1c0,0.7-0.1,1.4-0.2,2.1c-0.1,0.7-0.2,1.4-0.1,2.1l-0.1,0c0.5,3.4-0.1,7.1,0.6,10.3
			c0,4,0.2,8.4,0.5,12.6l-0.1,0c0.4,3.3-0.2,6.6,0.2,9.9c-0.2,3.5,1.1,7,0.9,10.5c-0.6,2.1,0.8,5,0.1,7c-1.2,4.1-0.5,8.1-0.2,12.3
			c-0.2,0.9-0.3,1.9-0.4,2.9c0,0.2-0.1,0.5-0.1,0.7c-0.1,0.2-0.1,0.5-0.2,0.7l-0.2,0.4l-0.1,0.3c-0.1,0.2-0.1,0.4-0.1,0.6
			c-0.3,1.8-0.3,3.7-0.8,5.5c0.5,1.8-0.7,3.7-0.6,5.6l0.2-0.1c-0.6,0.7,0.8,1.6,0,2l0-0.1c-0.4,0.4,1,0.8,0.5,1.1l0.2,0.1
			c0.1,0.4-0.2,0.1-0.3,0.4c0,0.1,0.4,0,0.3,0.3c-0.8,0.1,0.2,1.1-0.7,1.1c0-0.2-0.4,0.4-0.6-0.2c-0.1,0.2,0,0.9,0.4,0.8
			c0.4,0.1,0.8,0.3,1.1-0.1l-0.3-0.1c0.3-0.2,0.2-0.1,0.4-0.2c0-0.6,0.5-0.7,0.7-1.1c0,0,0,0,0,0c-0.4-0.3-0.2-0.7-0.1-0.9l0.2-0.1
			c0.4-0.1-0.7-0.7-0.1-0.5c-0.2-1.2-0.2-2.6-0.2-3.9c-0.2-0.2,0-1-0.4-0.7c0.5-0.3,0.7-1.3,0.7-1.7c0,0,0.1,0,0.1,0.1
			c0.7-0.7-0.6-0.9,0.2-1.5c-0.6-0.1,0.2-1.2-0.4-1.6c0.1-0.1,0.2-0.1,0.4-0.1c0.1-1.2,0.4-2.5,0.6-3.4c-0.1-0.2-0.1-0.4-0.1-0.6
			c0-0.1,0-0.2,0.1-0.3c0,0,0,0,0,0c0,0-0.1,0-0.1-0.1l-0.2-0.2l-0.2-0.2l0,0l0,0c0.3,0.2-0.6-0.4,0.6,0.4v0l0,0l0,0l0,0
			c0.1-0.1,0.1-0.2,0.2-0.3c0.1-0.2,0.2-0.5,0.2-0.6c0-0.3,0-0.6-0.1-0.8c0.3-0.7,0.7-1.7,0.5-2.6l0.1,0.1c0.1-1,0.1-2.3-0.3-3
			c0.7-0.3,0.6-0.7,0.8-1.1c-0.3-0.7-0.1-2-0.4-3.1c0.3-0.1-0.1-0.8,0.3-0.9c-0.8-2.9-0.4-6.4,0.2-9.4l0,0c-0.2-0.4-0.8-0.9-1.1-1.3
			c0,0,0.1,0,0.1,0c-0.1-0.6,0.3-1.1,0.2-1.7c0.1,0,0.1,0,0.1,0.1c-0.2-0.5,0.3-1.1-0.1-1.7l0.1,0l-0.2-0.4c0.1,0,0.4,0,0.3,0.2
			c-0.1-4.8-1.1-9.6-1.1-14.5L31,93L30.7,92c0.1,0,0.1,0,0.1,0.1c0.2-1.2-0.3-2.4-0.2-3.6c0.1,0,0.2,0.2,0.3,0
			c-0.4-0.9,0.5-1.4-0.4-1.8c0,0,0.2-0.1,0.3,0c-0.4-2.4-0.4-4.9-0.3-7.3c-0.8-2-0.2-4.3-0.8-6.4l0.2,0c-0.6-2.7-0.1-5.6,0.1-8.4
			c0.1-1.2,0.1-2,0.2-3.1h0.2c-0.2-1,0.2-2,0.6-3c0.4-1,0.9-1.9,1-2.9l0.2,0.2c-0.2-0.5,0.7-1,0.1-1.2l0.4-0.2c0-0.4,0.1-0.7,0.3-1
			c0.2-0.3,0.5-0.5,0.8-0.7c0.6-0.4,1.2-0.7,1.8-1.4l0,0.2c0.3-0.4,0.8-0.7,1.1-0.7c0,0,0,0.1-0.1,0.2c0.4,0,0.8-0.2,1.1-0.2
			c0.3-0.1,0.6-0.1,1-0.2c0.7-0.1,1.5-0.3,2.3-0.2l-0.2,0.3c0.8-0.3,2.1,0.1,3.1,0l-0.1,0.1l0.5-0.1l0,0.3
			C45.4,50.8,46.6,50.8,47.9,50.9"/>
		<path clip-path="url(#SVGID_4_)" fill="#EF782C" d="M60.6,52.3C60.6,52.3,60.5,52.3,60.6,52.3C60.5,52.3,60.5,52.3,60.6,52.3"/>
		<path clip-path="url(#SVGID_4_)" fill="#EF782C" d="M29.8,149c0,0.1,0,0.1-0.1,0.2C29.8,149.1,29.8,149,29.8,149"/>
		<polygon clip-path="url(#SVGID_4_)" fill="#EF782C" points="134.6,52.7 134.5,52.6 134.5,52.8 		"/>
		<path clip-path="url(#SVGID_4_)" fill="#EF782C" d="M134.2,53.2c0,0,0,0.1,0,0.2l0.2-0.7C134.3,52.3,134.3,53.4,134.2,53.2"/>
		<path clip-path="url(#SVGID_4_)" fill="#EF782C" d="M134.1,53.1c-0.1-0.2-0.1,0.2-0.1,0.3C134,53.1,134.2,53.5,134.1,53.1"/>
		<path clip-path="url(#SVGID_4_)" fill="#EF782C" d="M126.9,53.5C127,53.5,127,53.5,126.9,53.5C127,53.5,126.9,53.5,126.9,53.5"/>
		<path clip-path="url(#SVGID_4_)" fill="#EF782C" d="M125.2,54.9l0,0.3c0.3-0.5,0.8-0.1,1.1-0.4l0,0.1c0.9,0,1.7-0.5,2.6-0.7
			c0,0,0,0.1,0,0.1c0-0.1,0.1-0.3,0.1-0.2c0,0.1,0,0.1,0,0.1c0.2,0.4,0.6-0.3,0.7,0c0.1,0,0.1-0.2,0-0.4c0.7-0.1,1.5-0.2,2.2-0.6
			c0,0.1,0,0.2,0,0.3c0.6-0.7,1.3-0.4,1.9-0.3c0-0.2-0.1-0.2,0-0.4c-0.2-0.2-0.4,0.4-0.6,0.1l0-0.2c-0.1-0.1,0,0.4-0.2,0.2
			c-0.1-0.1,0-0.2,0-0.2c-0.3,0.1-0.6-0.1-0.9,0.4c-0.1-0.4-0.3,0-0.4-0.4c-0.1,0.2-0.1,0.1-0.2,0.4c-1-0.2-2.1,0.2-3.1,0.2
			c-0.4,0.8-1.1-0.1-1.7,0.2c0,0,0-0.1,0-0.1c-0.2,0.2-0.4,0.3-0.7,0.3l-0.2,0.3c-0.2-0.1-0.4-0.1-0.6-0.1c-0.2,0-0.3,0-0.5,0
			c-0.3,0-0.7,0-1,0c-0.7,0.1-1.4,0.1-2,0c-1.6-0.1-2.9-0.6-4.4,0.4c0-0.1,0-0.1,0-0.1c-0.4,0.2-0.8-0.1-1.2,0.1v-0.1
			c-1,0.6-2.1,0-3.1,0.6c-1.2,0-2.6,0-3.8,0.2l0-0.1c-1,0.3-2-0.5-3-0.3c-1-0.3-2.2,0.8-3.2,0.4c-0.6-0.7-1.5,0.8-2.1,0.1
			c-1.3-1.1-2.5-0.4-3.7,0.2c-1.2-0.4-2.3,0.6-3.4-0.2c-0.5,0.5-1.1-0.7-1.7-0.5l0,0.2c-0.2-0.5-0.5,0.8-0.6-0.1l0,0
			c-0.1-0.4-0.3,1-0.3,0.5l0,0.2c-0.1,0.1,0-0.2-0.1-0.3c0,0,0,0.4-0.1,0.3c0-0.8-0.3,0.2-0.3-0.8c0.1,0-0.1-0.4,0.1-0.6
			c0-0.1-0.3-0.1-0.3,0.3c0,0.4-0.1,0.8,0,1.1l0-0.3c0,0.3,0,0.2,0,0.4c0.2,0,0.2,0.5,0.3,0.7c0,0,0,0,0,0c0.1-0.4,0.2-0.1,0.3-0.1
			l0,0.2c0,0.4,0.2-0.7,0.2-0.1c0.4-0.1,0.8-0.1,1.2-0.1c0.1-0.2,0.3,0,0.2-0.4c0.1,0.5,0.4,0.6,0.5,0.6c0,0,0,0.1,0,0.1
			c0.2,0.7,0.3-0.6,0.5,0.2c0-0.6,0.4,0.2,0.5-0.5c0,0.1,0,0.2,0,0.3c0.4,0,0.8,0.2,1.1,0.3c0.3-0.5,0.7,0.2,0.9-0.5
			c0.2,0.1,0.5,0.4,0.8,0.2l0,0.1c0.3,0,0.7-0.1,0.9-0.5c0.1,0.7,0.2,0.5,0.3,0.7c0.2-0.3,0.6-0.2,0.9-0.5c0,0.3,0.3-0.1,0.3,0.3
			c0.9-0.8,1.9-0.5,2.9,0.1l0,0c0.1-0.2,0.3-0.8,0.4-1.1c0,0,0,0.1,0,0.1c0.2-0.1,0.3,0.4,0.5,0.3c0,0.1,0,0.1,0,0.1
			c0.2-0.2,0.3,0.4,0.5,0l0,0.1l0.1-0.2c0,0.1,0,0.4-0.1,0.3c1.4,0.2,2.9-0.6,4.4-0.5l-0.1,0.1l0.3-0.2c0,0.1,0,0.1,0,0.1
			c0.4,0.3,0.8-0.2,1.1-0.1c0,0.1-0.1,0.2,0,0.3c0.3-0.4,0.4,0.5,0.6-0.3c0,0,0,0.2,0,0.3c0.7-0.3,1.5-0.3,2.2-0.2
			c0.6-0.8,1.3-0.1,1.9-0.7v0.1c0.8-0.5,1.7,0,2.6-0.1c0.4,0,0.6-0.1,1-0.2l0,0.2c0.6-0.7,1.3,0.6,1.9-0.2l0,0.3
			c0.1-0.4,0.4,0.1,0.3-0.6l0.1,0.2c0.4-0.9,0.8,0.4,1.3-0.2l0,0.2c0.1-0.1,0.3-0.2,0.4-0.1c0,0,0,0.1,0,0.1
			c0.5,0.6,0.9-0.1,1.4-0.1l0,0.3c0.2-0.4,0.6-0.1,0.9-0.2l0,0.1l0.1-0.2l0,0.3C124.5,55.2,124.9,55,125.2,54.9"/>
		<path clip-path="url(#SVGID_4_)" fill="#EF782C" d="M129,54.2C129,54.2,129,54.2,129,54.2C129,54.2,129,54.2,129,54.2"/>
		<path clip-path="url(#SVGID_4_)" fill="#EF782C" d="M91,56.4C91,56.4,91,56.3,91,56.4C91,56.4,91,56.4,91,56.4"/>
		<g clip-path="url(#SVGID_4_)">
			<g>
				<defs>
					<rect id="SVGID_9_" x="85.2" y="42.5" width="84.4" height="109.2"/>
				</defs>
				<clipPath id="SVGID_10_">
					<use xlink:href="#SVGID_9_"  overflow="visible"/>
				</clipPath>
				<path clip-path="url(#SVGID_10_)" fill="#EDEDED" d="M169.3,44.5c0,0-6-2-7.1-2c-1.1,0-6.4,8.8-9.5,16.2s-10,24.3-14.2,28.5
					c-1.1,1.1-2.1,2.3-2.9,3.3c-1.7,0.2-3.8,1.4-5.7,3.7c-3.1,3.7-41.4,51.3-44.2,55.4c-2.9,4.2,9,0.6,9,0.6s13.8-11.9,16.6-17.9
					c4,1.1,9.5-4.4,10.4-5.3c0.9-0.9,13.5-18,18.6-25.2c2.5-3.5,2.7-5.1,1.9-6.6c3.1-4.1,6.9-9.4,7.8-11.7
					c1.5-3.9,13.5-31.7,14.4-33.4c0.9-1.8,2.9-3.1,2.9-3.1l2.3-2.3L169.3,44.5z"/>
			</g>
		</g>
		<path clip-path="url(#SVGID_4_)" fill="#FFFFFF" d="M105.6,127.2c0,0-3.3-2.2-0.4-6.4c2.9-4.2,20.8-24.8,23.9-28.5
			c3.1-3.7,6.4-4.6,8.4-2.8s7.1,3.3,2,10.5c-5.1,7.2-17.7,24.3-18.6,25.2c-0.9,0.9-6.4,6.4-10.4,5.3
			C106.5,129.4,105.6,127.2,105.6,127.2"/>
		<path clip-path="url(#SVGID_4_)" fill="#EF782C" d="M104.1,127.8c0,0,0,0.1,0,0.1c0,0,0,0.1,0,0.1c0,0,0.3,0.1,0.3,0.1
			C104.4,128,104.2,127.9,104.1,127.8"/>
		<path clip-path="url(#SVGID_4_)" fill="#EF782C" d="M105.3,128.6c0-0.1,0.1-0.1,0.1-0.1c0,0-1-0.1-1-0.2
			C104.3,128.8,105.4,128.3,105.3,128.6"/>
		<path clip-path="url(#SVGID_4_)" fill="#EF782C" d="M105.4,128.8c0.1,0.3,0.4,0.1,0.5,0.1C105.6,129,105.6,128.5,105.4,128.8"/>
		<path clip-path="url(#SVGID_4_)" fill="#EF782C" d="M122.7,124.3C122.7,124.4,122.7,124.4,122.7,124.3
			C122.7,124.4,122.7,124.4,122.7,124.3"/>
		<path clip-path="url(#SVGID_4_)" fill="#EF782C" d="M124.8,119.8l-0.2-0.2c-0.2,1-1.2,1.6-1.6,2.4l0-0.1c-0.8,0.9-1.4,1.9-2.1,2.9
			c-0.7,0.9-1.5,1.8-2.4,2.7c0,0,0-0.1,0-0.2c0,0.1,0,0.4-0.2,0.4c-0.1,0,0-0.1,0-0.2c-0.7,0-1.1,1.1-1.5,1
			c-0.1,0.1-0.1,0.3,0.1,0.4c-0.8,0.6-1.7,1.1-2.6,1.6c-1,0.5-2,0.9-3.2,0.9c-0.1-0.1-0.1-0.2-0.1-0.3c-1.1,0.2-1.9,0-2.8-0.4
			c-0.9-0.4-1.7-1-2.3-1.7c-0.2,0.1,0,0.3-0.3,0.3c0.4,0.6,1.2,0.4,1.5,1l-0.2,0.1c0.3,0.3,0.3-0.3,0.6,0.1c0.1,0.2-0.1,0.2-0.1,0.2
			c0.8,0.4,1.6,0.8,2.5,0.6c0,0.4,1,0.2,1.3,0.6c0.3-0.1,0.5-0.1,0.6-0.4c1.7,0,3.1-0.7,4.3-1.4c1.2-0.8,2.3-1.7,3.4-2.6
			c0.3-0.7,0.8-1.2,1.4-1.6c0.2-0.1,0.3-0.2,0.5-0.4c0.2-0.2,0.3-0.3,0.5-0.4c0.3-0.3,0.5-0.6,0.7-0.9c0,0,0,0,0.1,0
			c0.2-0.5,0.5-1.1,1-1.6l0.1-0.6c2.7-2.5,4.5-5.7,6.8-8.4c2.6-3.2,5.2-5.8,6.7-9.7c0.1,0,0.1,0,0.1,0.1c0.6-1,1.4-1.7,1.9-2.7
			l0.1,0c0.5-1.3,1.4-2.4,2-3.7c0.2-0.3,0.3-0.7,0.4-1c0.1-0.3,0.2-0.7,0.3-1.1c0.1-0.7,0-1.5-0.3-2.1c-0.2-0.8-0.7-1.6-1.3-2.2
			c-0.6-0.6-1.4-1.1-2.1-1.6c-0.4-0.2-0.7-0.5-1-0.8c-0.4-0.3-0.8-0.4-1.3-0.5c-0.9-0.2-1.8,0-2.6,0.3l0-0.1
			c-1.3,0.6-2.4,1.3-3.4,2.2c-1.1,0.9-2,1.8-2.8,2.9c-2,1.9-3.1,4.9-5.2,6.7c-1.7,0.8-2,3.6-3.6,4.3c-3,1.8-4.6,4.7-6.2,7.7
			c-2.3,2.1-3.4,5.1-5.9,6.9c-0.2,0.7-0.8,1.2-1.4,1.7c-0.6,0.5-1.2,1.2-1.3,2.1l0.2,0c-0.3,0.2-0.2,0.6,0,0.9
			c0.2,0.3,0.3,0.5,0,0.8l-0.1-0.1c-0.2,0.2,0.1,0.3,0.4,0.4c0.3,0.1,0.5,0.1,0.3,0.3l0.2,0c0.2,0.3-0.2,0.1-0.1,0.4
			c0.1,0.1,0.3-0.2,0.3,0.1c-0.3,0.2-0.2,0.4,0,0.6c0.2,0.1,0.3,0.3,0,0.6c-0.2-0.2,0,0.5-0.5,0.3c0,0.2,0.7,0.7,0.9,0.3
			c0.3-0.3,0.7-0.5,0.6-1l-0.2,0.2c0.1-0.3,0-0.2,0.2-0.4c-0.3-0.3,0-0.7,0-1c0,0,0,0,0,0c-0.4,0.1-0.4-0.3-0.4-0.4l0.1-0.1
			c0.3-0.2-0.8-0.1-0.2-0.2c-0.4-0.6-0.3-1.5,0-2.3c-0.2-0.2,0.3-0.6-0.2-0.7c0.6,0,1-0.5,1.2-0.7c0,0,0.1,0.1,0,0.1
			c0.9-0.1-0.1-0.9,0.9-0.8c-0.4-0.4,0.7-0.7,0.4-1.3c0.1,0,0.2,0.1,0.3,0.2c0.6-0.8,1.5-1.5,2-2.1c0.1-0.9,1.3-1.2,1.1-2.1
			c0.4-0.3,1.2-0.7,1.4-1.5l0,0.1c0.5-0.6,1.1-1.4,1.1-2.1c0.7,0.2,0.8-0.1,1.2-0.2c0.1-0.6,0.9-1.4,1.2-2.2
			c0.3,0.1,0.3-0.6,0.7-0.3c0.8-2.3,2.9-4.2,5-5.7l0,0c0-0.4-0.2-1-0.2-1.5c0.1,0,0.1,0.1,0.1,0.1c0.2-0.4,0.8-0.4,1.1-0.8
			c0.1,0.1,0.1,0.1,0.1,0.2c0.1-0.4,0.8-0.4,0.9-1l0.1,0.1l0.1-0.3c0.1,0.1,0.3,0.3,0.1,0.3c1.3-1.4,2.4-3,3.6-4.6l1.7-2.4
			c0.6-0.8,1.2-1.5,1.9-2.1l0,0.2l0.2-0.3c0.1-0.2,0.2-0.3,0.2-0.3c0,0.1,0,0.1,0,0.2c0.8-0.4,1.4-1.2,2.2-1.4c0,0.1,0,0.2,0.1,0.3
			c0.2-0.3,0.5-0.2,0.7-0.2c0.2,0,0.3,0.1,0.5-0.4c0,0,0,0.2,0,0.3c0.4-0.1,0.8-0.1,1.1,0c0.2,0,0.3,0.1,0.5,0.2
			c0.2,0.1,0.3,0.2,0.5,0.4c0.9,0.7,1.7,1.2,2.3,1.8c0.8,0.2,1.3,0.8,1.6,1.6c0.2,0.7,0.2,1.5,0.2,2.4l-0.1,0c0,1.1-0.5,2.1-1.2,3
			c-0.6,0.9-1.4,1.8-2,2.7c-0.6,0.7-0.8,1.4-1.4,2.1l-0.2-0.1c-0.3,1.7-2.5,2.3-2.8,4.1l-0.1-0.2c0.2,0.4-0.7,0.7-0.1,1l-0.3,0.1
			c0.1,1.4-1.6,1.4-1.9,2.9l-0.1-0.2c-0.1,0.4-0.3,0.8-0.6,0.9c0,0,0-0.1,0-0.2c-1.2,0.6-1.4,2-2.1,3L128,115
			c-0.1,0.7-1,1.4-1.3,2.1l-0.1-0.1l-0.1,0.4l-0.2-0.2C125.7,118,125.4,119,124.8,119.8"/>
		<path clip-path="url(#SVGID_4_)" fill="#EF782C" d="M118.4,127.6C118.4,127.6,118.4,127.6,118.4,127.6
			C118.4,127.6,118.4,127.6,118.4,127.6"/>
		<path clip-path="url(#SVGID_4_)" fill="#EF782C" d="M105.7,125.5c0,0,0,0.1,0,0.1C105.8,125.6,105.7,125.5,105.7,125.5"/>
		<path clip-path="url(#SVGID_4_)" fill="#EF782C" d="M193.5,150.8l0.2,0c0,0,0.4-0.4,0.4-0.4C194,150.5,193.5,150.9,193.5,150.8"/>
		<path clip-path="url(#SVGID_4_)" fill="#EF782C" d="M194.9,149.1c-0.1,0-0.1,0-0.2,0c0,0,0,0.3,0,0.6c-0.1,0.3-0.3,0.7-0.3,0.7
			c0.4,0,0.5-0.4,0.5-0.7C194.9,149.4,194.7,149.1,194.9,149.1"/>
		<path clip-path="url(#SVGID_4_)" fill="#EF782C" d="M195.1,148.9c0.3-0.2,0-0.5-0.1-0.6C195.3,148.5,194.8,148.8,195.1,148.9"/>
		<path clip-path="url(#SVGID_4_)" fill="#EF782C" d="M194.4,125.9C194.4,125.9,194.4,126,194.4,125.9
			C194.4,126,194.4,125.9,194.4,125.9"/>
		<path clip-path="url(#SVGID_4_)" fill="#EF782C" d="M192.9,120.1l-0.3,0c0.5,1.1,0.1,2.3,0.4,3.5l-0.1-0.1c0.1,3,0.8,5.6,1.3,8.5
			c0,0-0.1-0.1-0.1-0.1c0.1,0.1,0.3,0.3,0.3,0.4c-0.1,0-0.1,0-0.2-0.1c-0.4,0.7,0.4,1.8,0.1,2.2c0.1,0.2,0.2,0.2,0.4,0.1
			c0.3,2.3,0.6,4.7,1,7.1c-0.1,0.1-0.2,0.1-0.3,0.1c0.7,2,0.5,4.1-0.1,6.4c0.2,0.1,0.2-0.2,0.4,0.1c0.4-0.7-0.2-1.4,0.2-2l0.2,0.1
			c0.2-0.5-0.4-0.1-0.2-0.6c0.2-0.2,0.2,0.1,0.2,0c0-1,0.2-2-0.3-2.9c0.4-0.2,0-1,0.3-1.4c-0.2-0.2-0.1-0.5-0.4-0.6
			c0.1-3.3-0.6-6.5-0.9-9.8c-0.9-1.5-0.2-3.4-0.6-5.2c0,0,0.1,0,0.1,0c-0.2-0.6-0.4-1.4-0.4-2.2l-0.4-0.6c0.2-2.2,0.1-4.3,0-6.5
			c-0.1-2.2,0.1-4.2,0.3-6.4c0.4-4.9,1.2-9.3,0.5-14.1c0.1,0,0.1,0,0.1,0.1c-0.1-1.4,0.3-2.7,0.2-4l0.1,0c-0.4-3.3,0.4-6.7-0.1-9.9
			c0.2-3.8,0.2-8.1-0.1-12.2l0.1,0c-0.2-1.6-0.1-3.2-0.3-4.8c-0.2-1.6-0.5-3.2-1.2-4.7c-0.5-1.6-1.5-3.1-2.5-4.5
			c-0.5-0.7-1.1-1.3-1.7-2c-0.6-0.6-1.1-1.4-2-1.5c-1-0.5-2.3-0.2-3.4,0.1c-1.2,0.3-2.3,0.6-3.3,0.4c-1-0.1-2.1-0.1-3-0.1
			c-1,0-2,0.1-2.9,0.3c-2,0.3-3.9,0.8-5.9,1.3c-1.9,0-3.7,0.3-5.5,0.6c-0.5,0.1-0.8,0.2-1.4,0.3c-0.5,0-1,0-1.4,0
			c-0.9-0.1-1.8-0.2-2.7-0.5c-1.8,0.3-3.5-1-5.4-1.2l0,0.2c-0.6-0.6-1.6,0.5-1.9-0.3l0.1,0c-0.3-0.5-1,0.8-1.1,0.3l-0.1,0.2
			c-0.4,0,0-0.2-0.3-0.4c-0.1,0-0.1,0.4-0.4,0.2c0.1-0.8-1.1,0-0.9-0.9c0.2,0-0.3-0.4,0.3-0.5c-0.1-0.1-0.3-0.1-0.4-0.1
			c-0.2,0-0.3,0.1-0.4,0.3c-0.2,0.4-0.6,0.6-0.3,1.1l0.2-0.3c0.1,0.3,0.1,0.2,0.1,0.4c0.6,0.2,0.6,0.6,1,0.9c0,0,0,0,0,0
			c0.4-0.3,0.7,0,0.9,0.1l0.1,0.2c0.1,0.4,0.8-0.6,0.5,0c1.2,0,2.5,0.2,3.9,0.4c0.2-0.2,1,0.2,0.8-0.3c0.3,0.5,1.2,0.8,1.6,0.8
			c0,0,0,0.1-0.1,0.1c0.6,0.7,0.9-0.5,1.5,0.4c0.2-0.6,1.2,0.3,1.6-0.3c0.1,0.1,0.1,0.3,0.1,0.3c0.6,0.1,1.3,0.2,1.9,0.2
			c0.3,0,0.7,0.1,1,0.1c0.2,0,0.4,0,0.6,0c0.1,0,0.2,0,0.3,0c0.7-0.6,2,0,2.6-0.8c0.6,0.1,1.6,0.3,2.5-0.1l-0.1,0.1
			c1-0.1,2.2-0.3,2.8-0.7c0.3,0.6,0.7,0.5,1.2,0.7c0.6-0.4,1.9-0.4,2.9-0.7c0.2,0.3,0.8-0.2,0.9,0.2c0.7-0.3,1.4-0.5,2.2-0.7
			c0.8-0.2,1.5-0.4,2.3-0.4c1.5-0.2,3.1-0.1,4.6,0.1l0,0c0.3-0.3,0.7-0.8,1.1-1.2c0,0,0,0.1,0,0.1c0.5-0.1,1,0.3,1.5,0.3
			c0,0.1,0,0.1-0.1,0.1c0.2-0.1,0.4,0,0.5,0.1c0.1,0.1,0,0.1,0.4,0.2l-0.1,0.1c0,0,0.3,0.1,0.3,0.1c-0.1,0.1-0.3,0.2-0.4,0.1
			c2.6,3.2,5.4,7.3,6,11.8l-0.2-0.1c0,0,0.1,0.2,0.2,0.4c0.1,0.2,0.2,0.4,0.2,0.4c-0.1,0-0.1,0-0.2-0.1c-0.1,1.1,0.3,2.3,0.3,3.4
			c-0.1,0-0.2-0.2-0.3,0c0.4,0.8-0.5,1.3,0.4,1.7c0,0-0.2,0.1-0.3,0c0.3,2.3,0.3,4.7,0.1,7c0.7,2-0.1,4.1,0.5,6.2l-0.2,0
			c0.4,2.7-0.3,5.4-0.3,8.2c-0.1,1.1,0,1.9,0,3l-0.2,0c0.6,1.9-0.9,4-0.2,6l-0.3-0.2c0.4,0.3-0.2,1.2,0.5,1.1l-0.2,0.3
			c0.8,1.4-0.5,2.4,0,4.1l-0.2-0.1c0.1,0.5,0.2,1,0,1.3c0-0.1-0.1,0-0.1-0.1c-0.7,1.3-0.1,2.9-0.2,4.4l-0.3-0.2c0.3,0.7-0.1,2,0.1,3
			l-0.1-0.1l0.2,0.5l-0.3,0C192.5,117.8,192.8,119,192.9,120.1"/>
		<path clip-path="url(#SVGID_4_)" fill="#EF782C" d="M194.2,132.3C194.2,132.3,194.2,132.3,194.2,132.3
			C194.2,132.2,194.2,132.2,194.2,132.3"/>
		<path clip-path="url(#SVGID_4_)" fill="#EF782C" d="M148,55.1c-0.1,0-0.1-0.1-0.1-0.1C147.9,55.1,148,55.1,148,55.1"/>
		<path clip-path="url(#SVGID_4_)" fill="#FFFFFF" d="M168.6,45l-0.2-2.4c0,0-6-2-7.1-2c-1.1,0-6.4,8.8-9.5,16.2
			c-3.1,7.5-10,24.3-14.2,28.5c-4.2,4.2-6.2,8.3-6.2,8.3l5.5,4.6c0,0,10.4-13.1,12-17.1c1.5-3.9,13.7-31.1,14.6-32.9
			c0.9-1.8,2.9-3.1,2.9-3.1L168.6,45z"/>
		<polygon clip-path="url(#SVGID_4_)" fill="#EF782C" points="168.5,43.5 168.4,43.4 168.3,43.6 		"/>
		<path clip-path="url(#SVGID_4_)" fill="#EF782C" d="M167.4,44.1c0,0,0,0.1,0.1,0.2l0.6-0.7C167.7,43.1,167.6,44.3,167.4,44.1"/>
		<path clip-path="url(#SVGID_4_)" fill="#EF782C" d="M167.2,44c-0.3-0.1-0.4,0.2-0.4,0.3C166.9,44.1,167.3,44.4,167.2,44"/>
		<path clip-path="url(#SVGID_4_)" fill="#EF782C" d="M155.4,64.1C155.4,64.1,155.4,64,155.4,64.1C155.4,64,155.4,64.1,155.4,64.1"
			/>
		<path clip-path="url(#SVGID_4_)" fill="#EF782C" d="M154,70l0.2,0.2c0-1.2,1-2.2,1.3-3.3l0.1,0.1c1.3-2.7,2-5.4,3.1-8.2
			c0,0.1,0.1,0.1,0.1,0.2c0-0.2-0.1-0.4,0-0.5c0.1,0,0.1,0.1,0.1,0.1c0.6-0.4,0.5-1.8,1-2c0-0.2-0.1-0.3-0.3-0.3
			c0.9-2.2,1.8-4.5,2.5-6.7c0.1-0.1,0.2-0.1,0.3,0c0.1-0.5,0.2-1,0.3-1.6c0.2-0.5,0.5-1.1,0.9-1.6c0.4-0.5,0.8-0.9,1.2-1.2
			c0.2-0.2,0.5-0.3,0.7-0.5c0.3-0.2,0.7-0.5,1.1-0.5c0.1-0.2-0.4-0.1-0.1-0.4c-0.2,0-0.3,0-0.5,0c-0.1,0.1-0.2,0.2-0.4,0.2
			c-0.1,0.1-0.2,0.2-0.3,0.3c-0.1,0.1-0.1,0.1-0.2,0.2c-0.2,0.3-0.4,0.5-0.7,0.7l-0.1-0.2c-0.4,0.3,0.2,0.4-0.3,0.6
			c-0.2,0-0.1-0.2-0.2-0.1c-0.3,0.4-0.7,0.8-1,1.3c-0.1,0.2-0.3,0.5-0.4,0.8c-0.1,0.3-0.1,0.5-0.1,0.7c-0.4,0-0.4,0.9-0.9,1.1
			c0,0.3-0.1,0.5,0.1,0.7c-1.5,2.9-2.6,6.1-4,9.1c0,1.7-1.5,3.1-2.1,4.9c0,0-0.1,0-0.1,0c-0.1,0.6-0.4,1.5-0.7,2.1l0,0.7
			c-2.3,3.7-3.7,7.9-5.7,11.9c-0.3,0.6-0.5,1.1-0.8,1.7c-0.3,0.6-0.5,1-0.8,1.5c-0.6,1-1.3,1.9-1.9,2.9c-1.3,1.9-2.6,3.8-3.6,6.1
			c-0.1,0-0.1,0-0.1-0.2c-0.7,1.2-1.7,2.1-2.4,3.2l-0.1,0c-0.4,0.7-0.8,1.5-1.3,2.1l-0.6,0.9l-0.3,0.3l-0.1,0.2l-0.1,0.1
			c0,0-0.1,0-0.1-0.1l-0.7-0.5c-0.3-0.2-0.6-0.5-0.9-0.7c-0.7-0.5-1.3-1-2.1-1.4c-0.3-0.3-0.7-0.6-1-0.9l-0.2-0.2l-0.1-0.1
			c0,0,0-0.1,0.1-0.1l0.3-0.6c0.4-0.8,1-1.7,1.6-2.6c1.2-1.7,2.5-3.4,3.8-4.9l0.1,0.1c1.1-1.3,2-2.6,3-3.9c0.9-1.3,1.8-2.7,2.5-4.2
			c1.8-2.9,2.3-6.6,4-9.5c1.5-1.6,1.2-4.8,2.6-6.3c1.3-1.6,2.2-3.5,2.8-5.3c0.7-1.9,1.2-3.8,1.8-5.8c1-1.6,1.8-3.3,2.7-4.9
			c0.9-1.6,1.8-3.3,3.3-4.4c0.2-0.4,0.6-0.9,1.1-0.9c0.5,0.1,1,0.3,1.4,0.5c0.8,0.4,1.7,0.9,2.6,1.1l0-0.2c0.5,0.7,1.7-0.3,1.9,0.6
			l-0.1,0c0.1,0.2,0.3,0.1,0.6-0.1c0.3-0.1,0.7-0.2,0.6,0l0.3-0.1c0.2,0.4-0.2,0.2-0.2,0.6c0,0.1,0.4-0.1,0.3,0.2
			c-0.4,0.2-0.3,0.4-0.3,0.7c0.1,0.3,0.1,0.5-0.4,0.6c0-0.2-0.3,0.4-0.6-0.1c-0.1,0.2,0,0.9,0.4,0.8c0.4,0,0.8,0.3,1.1-0.2l-0.3-0.1
			c0.3-0.2,0.1-0.1,0.4-0.2c0-0.6,0.4-0.6,0.6-1.2c0,0,0,0,0,0c-0.4-0.4-0.2-1.1-0.2-1.5c0,0,0.2-0.3,0.1-0.3c0-0.2-0.4-0.1-0.7-0.1
			c-0.3,0-0.5,0.1-0.2-0.1c-1.2-0.3-1.6-0.4-2.3-0.6c-0.6-0.2-1.3-0.4-1.9-0.6c-0.2,0.2-1-0.3-0.8,0.2c-0.1-0.3-0.4-0.5-0.7-0.7
			c-0.3-0.2-0.6-0.3-1-0.3c0,0,0.1-0.1,0.2-0.1c-0.6-0.4-1.1-0.3-1.4,0c-0.3,0.2-0.5,0.5-1.2,0.6c0.1,0.1,0,0.3-0.1,0.4
			c-0.1,0.1-0.2,0.2-0.3,0.4c-0.3,0.3-0.5,0.6-0.4,0.9c-0.2,0-0.3,0-0.3-0.1c-0.7,1-1.6,2.1-2.2,2.9c0,1-1.3,1.7-1,2.7
			c-0.4,0.5-1.2,1.2-1.3,2.1l0-0.1c-0.4,0.9-0.9,2-0.8,2.8c-0.7,0-0.8,0.4-1.2,0.7c0,0.7-0.6,1.9-0.8,2.9c-0.3,0-0.2,0.8-0.6,0.7
			c-0.3,2.9-1.9,5.9-3.6,8.4l0-0.1c0.1,0.4,0.4,1.1,0.5,1.5c-0.1,0-0.1,0-0.1-0.1c-0.1,0.5-0.7,0.8-0.9,1.3c-0.1,0-0.1,0-0.1-0.1
			c0,0.5-0.8,0.8-0.7,1.5l-0.1,0l0,0.4c-0.1-0.1-0.3-0.2-0.2-0.3c-2,4.1-3.3,8.8-5.9,12.8l0-0.2l-0.3,0.9c-0.1,0-0.1-0.1-0.1-0.2
			c-0.8,0.8-1.2,2-2,2.7c0-0.1,0-0.3-0.2-0.2c-0.3,0.9-1.4,0.7-1,1.5c-0.1,0-0.2-0.1-0.2-0.2c-0.7,1-1.4,2-2.1,3l-1.1,1.5l-0.5,0.8
			l-0.5,0.8c-0.1,0.3-0.2,0.7-0.3,1l-0.2,0.5c0,0,0,0.1,0,0.1l0.1,0.1l0.2,0.2c0.5,0.4,1.1,0.9,1.5,1.2c0.8,0.7,1.6,1.4,2.6,1.8
			l-0.1,0.1c0.3,0.2,0.6,0.4,0.9,0.6c0.3,0.2,0.6,0.4,0.9,0.6c0,0,0.1,0.1,0.1,0.1l0.1-0.1l0.2-0.2l0.3-0.4l0.7-0.8
			c0.9-1.1,1.8-2.1,2.6-3.2c0.7-0.9,1.1-1.6,1.7-2.5l0.2,0.1c0.6-2,2.9-2.9,3.4-5.1l0.1,0.3c-0.2-0.5,0.8-0.9,0.2-1.2l0.4-0.2
			c0-1.6,1.7-1.9,1.9-3.7l0.1,0.2c0.1-0.5,0.2-1,0.4-1.2c0,0.1,0.1,0.1,0.1,0.2c1.1-1,1.1-2.7,1.7-4.1l0.2,0.3c0-0.8,0.8-1.9,1-2.8
			l0.1,0.1l0-0.5l0.3,0.1C153.3,72.2,153.5,71.1,154,70"/>
		<path clip-path="url(#SVGID_4_)" fill="#EF782C" d="M158.7,58.5C158.7,58.5,158.7,58.6,158.7,58.5
			C158.7,58.6,158.7,58.6,158.7,58.5"/>
		<path clip-path="url(#SVGID_4_)" fill="#EF782C" d="M169.8,43.1c0,0.1,0,0.2,0,0.3C169.8,43.4,169.8,43.2,169.8,43.1"/>
		<path clip-path="url(#SVGID_4_)" fill="#FFFFFF" d="M86.1,55.6c0,1-0.8,1.9-1.9,1.9c-1,0-1.9-0.8-1.9-1.9c0-1,0.8-1.9,1.9-1.9
			C85.3,53.8,86.1,54.6,86.1,55.6"/>
		<polygon clip-path="url(#SVGID_4_)" fill="#EF782C" points="87.7,55.6 87.7,55.6 87.5,55.6 		"/>
		<path clip-path="url(#SVGID_4_)" fill="#EF782C" d="M87.1,55.5c0,0-0.1,0-0.2,0l0.7,0.1C88,55.5,86.9,55.5,87.1,55.5"/>
		<path clip-path="url(#SVGID_4_)" fill="#EF782C" d="M87.2,55.4c0.2,0-0.2,0-0.3,0C87.2,55.4,86.8,55.5,87.2,55.4"/>
		<path clip-path="url(#SVGID_4_)" fill="#EF782C" d="M85.6,53.2C85.6,53.2,85.6,53.2,85.6,53.2C85.6,53.1,85.6,53.2,85.6,53.2"/>
		<path clip-path="url(#SVGID_4_)" fill="#EF782C" d="M84.6,54l-0.1,0.2c0.2-0.4,0.2,0,0.3-0.1l0,0.1c0.1,0.2,0.5-0.1,0.9-0.1
			c0,0-0.1,0.1-0.1,0.1c0.1-0.1,0.2-0.2,0.2-0.1c0,0-0.1,0.1-0.1,0.1c-0.3,0.3,0.3-0.1,0.1,0.2c0,0,0.2-0.1,0.3-0.2
			c0.2,0.1,0.4,0.3,0.9,0.4c0,0-0.2,0.1-0.3,0.1c0.7,0,0.6,0.4,0.5,0.6c0.2,0,0.2,0,0.4,0c0.2-0.1-0.5-0.1-0.1-0.2l0.2,0
			c0.1-0.1-0.4,0.1-0.2,0c0.1-0.1,0.2,0,0.2,0c-0.1-0.1,0-0.3-0.4-0.3c0.4-0.1,0-0.1,0.3-0.3c-0.2,0-0.1,0-0.4,0.1
			c0-0.5-0.6-0.7-0.8-0.9c-0.6,0.4-0.2-0.4-0.6-0.3c0,0,0,0,0-0.1c-0.2,0.1-0.3,0.2-0.3,0l-0.2,0.3C85,53.1,84.7,53,84.4,53
			c-0.3,0-0.5,0-0.8,0c-0.3,0-0.7-0.1-1,0.1c-0.3,0.1-0.5,0.4-0.3,1c-0.1,0-0.1-0.1-0.1-0.1c0,0.2-0.3,0.2-0.3,0.4l-0.1,0
			c0.2,0.3,0.1,0.5,0,0.6c-0.1,0.2-0.1,0.4,0.2,0.5c-0.1,0.4,0,0.8,0.4,1l-0.1,0.1c0.2,0.1,0.2,0.2,0.2,0.4c0,0.2,0,0.4,0.2,0.4
			c0,0.2,0.3,0.2,0.5,0.1c0.2-0.1,0.4-0.2,0.5,0c0,0.4,0.2,0.2,0.3,0c0.1-0.2,0.2-0.4,0.3,0c0.2,0.5,0.5,0.6,0.7,0.4
			c0.2-0.2,0.2-0.6,0.1-0.9c0.2,0.1,0.2-0.1,0.2-0.3c0-0.2,0-0.3,0.4-0.2c-0.2-0.2,0-0.1,0.2-0.2c0.2,0,0.5,0,0.4-0.1l-0.2,0
			c0.6,0-0.7-0.3,0.1-0.2l0,0c0.4,0-1-0.2-0.5-0.2l-0.2,0c-0.1,0,0.2,0,0.3,0c0,0-0.4,0-0.3,0c0.8,0.1-0.2-0.1,0.8-0.1
			c0,0,0.4,0,0.6,0c0.1,0,0.1-0.1-0.3-0.1c-0.4,0-0.8,0-1.1,0l0.3,0c-0.3,0-0.2,0-0.4,0c0,0-0.5,0-0.7,0c0,0,0,0,0,0
			c0.4,0,0.2,0,0.1,0l-0.2,0c-0.4,0,0.7,0.1,0.1,0c0.1,0.1,0.1,0.1,0.1,0.2c0.2,0.1,0,0,0.4,0.2c-0.5-0.1-0.6-0.2-0.6-0.2
			c0,0-0.1,0-0.1,0c-0.6-0.3,0.5,0.3-0.2-0.1c0.5,0.3-0.2-0.1,0.4,0.3c-0.1-0.1-0.2-0.1-0.3-0.2c0,0-0.2-0.1-0.2-0.1
			c0.4,0.3-0.2-0.1,0.3,0.4c-0.1-0.1-0.3-0.3-0.2-0.1l0-0.1c0,0,0,0.1,0.2,0.5c-0.3-0.6-0.3-0.5-0.4-0.6c0.1,0.3,0.1,0.2,0.1,0.5
			c-0.1-0.3,0,0.1-0.1-0.3c0.2,0.9-0.2,0.6-0.2-0.1l0,0c0,0.2-0.1,0.8-0.2,1.1c0,0,0-0.1,0-0.1c-0.1,0.1,0-0.4,0-0.3
			c0-0.1,0-0.1,0-0.1c-0.1,0.2,0.1-0.4-0.1,0l0-0.1l-0.1,0.2c0-0.1,0.1-0.3,0.1-0.3c0-0.1-0.1,0-0.3,0.1c-0.2,0.1-0.4,0.1-0.4,0
			l0.1-0.1l-0.2,0.1c0.1,0,0.1-0.1,0.1-0.1c0.2-0.2-0.2,0-0.2-0.1c0.1,0,0.2-0.1,0.3-0.1c-0.4,0.1,0.5-0.2-0.3,0
			c0,0,0.2-0.1,0.3-0.1c-0.3,0-0.3-0.2-0.2-0.3c-0.4,0-0.4-0.1-0.4-0.2c0-0.1,0-0.1-0.2-0.3l0.1,0c-0.5-0.3,0.2-0.4,0.2-0.5
			c0.1,0,0-0.2,0-0.3l0.1,0.1c-0.2-0.3,0-0.2,0.1-0.2c0.2,0.1,0.3,0.2,0.1-0.2l0.1,0.2c-0.2-0.3,0.1,0.1-0.2-0.5l0.1,0.2
			c-0.3-0.9,0.3,0.3,0.3-0.3l0,0.2c0-0.1,0-0.2,0.1-0.1c0,0,0,0.1,0,0.1c0.2,0.6,0.2-0.1,0.3-0.1l0,0.3c0-0.4,0.1,0,0.2-0.2l0,0.1
			l0-0.2l0,0.3C84.4,54.2,84.5,54,84.6,54"/>
		<path clip-path="url(#SVGID_4_)" fill="#EF782C" d="M85.6,54.2C85.6,54.2,85.6,54.2,85.6,54.2C85.6,54.2,85.6,54.2,85.6,54.2"/>
		<path clip-path="url(#SVGID_4_)" fill="#EF782C" d="M84.8,55.7C84.8,55.7,84.8,55.7,84.8,55.7C84.8,55.7,84.8,55.7,84.8,55.7"/>
		<path clip-path="url(#SVGID_4_)" fill="#FFFFFF" d="M142.8,55.8c0,0.9-0.8,1.6-1.8,1.6c-1,0-1.8-0.7-1.8-1.6
			c0-0.9,0.8-1.6,1.8-1.6C142,54.2,142.8,54.9,142.8,55.8"/>
		<polygon clip-path="url(#SVGID_4_)" fill="#EF782C" points="144.3,55.8 144.4,55.8 144.2,55.8 		"/>
		<path clip-path="url(#SVGID_4_)" fill="#EF782C" d="M143.8,55.7c0,0-0.1,0-0.2,0l0.7,0.1C144.7,55.7,143.5,55.7,143.8,55.7"/>
		<path clip-path="url(#SVGID_4_)" fill="#EF782C" d="M143.8,55.7c0.2,0-0.2,0-0.3,0C143.8,55.6,143.5,55.7,143.8,55.7"/>
		<path clip-path="url(#SVGID_4_)" fill="#EF782C" d="M142.2,53.6C142.2,53.6,142.2,53.6,142.2,53.6
			C142.2,53.5,142.2,53.5,142.2,53.6"/>
		<path clip-path="url(#SVGID_4_)" fill="#EF782C" d="M141.3,54.4l-0.1,0.3c0.2-0.4,0.1,0,0.3-0.1l0,0.1c0.1,0.2,0.5-0.1,0.8-0.1
			c0,0-0.1,0.1-0.1,0.1c0.1-0.1,0.2-0.2,0.2-0.1c0,0-0.1,0.1-0.1,0.1c-0.3,0.3,0.3-0.1,0.1,0.2c0,0,0.2-0.1,0.3-0.2
			c0.2,0.1,0.4,0.2,0.9,0.4c0,0-0.2,0.1-0.3,0.1c0.7,0,0.6,0.4,0.5,0.6c0.2,0,0.2,0,0.4,0c0.2-0.1-0.5-0.1-0.1-0.2l0.2,0
			c0.1-0.1-0.4,0.1-0.2,0c0.1-0.1,0.2,0,0.2-0.1c-0.1-0.1,0-0.3-0.4-0.3c0.3-0.2,0-0.1,0.3-0.3c-0.2,0-0.1,0-0.4,0.1
			c0-0.5-0.6-0.6-0.9-0.9c-0.6,0.5-0.2-0.3-0.6-0.2c0,0,0,0,0-0.1c-0.1,0.1-0.3,0.2-0.3,0.1l-0.2,0.3c-0.1-0.4-0.3-0.5-0.6-0.5
			c-0.2,0-0.5,0-0.7,0c-0.3,0-0.6-0.1-0.9,0c-0.3,0.1-0.5,0.4-0.3,0.9c-0.1,0-0.1-0.1-0.1-0.1c0,0.2-0.3,0.2-0.2,0.4l-0.1,0
			c0.2,0.3,0.1,0.4,0,0.6c-0.1,0.1-0.1,0.3,0.2,0.5c-0.1,0.3,0,0.8,0.4,0.9l-0.1,0.1c0.2,0.1,0.2,0.2,0.2,0.4c0,0.2,0,0.4,0.2,0.4
			c0,0.2,0.3,0.2,0.5,0c0.2-0.1,0.4-0.3,0.4,0c0,0.4,0.2,0.2,0.3,0c0.1-0.2,0.2-0.4,0.3,0c0.2,0.6,0.5,0.6,0.6,0.4
			c0.2-0.2,0.2-0.6,0.1-0.9c0.2,0.1,0.2-0.1,0.2-0.3c0-0.2,0-0.2,0.4-0.1c-0.2-0.2,0-0.1,0.2-0.1c0.2,0,0.5,0,0.4-0.1l-0.2,0
			c0.6,0.1-0.7-0.3,0.1-0.2l0,0c0.4,0-1-0.2-0.5-0.2l-0.2,0c-0.1,0,0.2,0,0.3,0c0,0-0.4,0-0.3,0c0.8,0.1-0.2-0.1,0.8,0
			c0,0,0.4,0,0.6,0c0.1,0,0.1-0.1-0.3-0.1c-0.4,0-0.8,0-1.1,0l0.3,0c-0.3,0-0.2,0-0.4,0c0,0-0.5,0-0.7,0c0,0,0,0,0,0
			c0.4,0,0.2,0,0.1,0l-0.2,0c-0.4,0,0.7,0.1,0.1,0c0.2,0,0.1,0.1,0.1,0.1c0.2,0.1,0,0,0.4,0.2c-0.5-0.2-0.6-0.2-0.6-0.2
			c0,0-0.1,0-0.1,0c-0.6-0.3,0.5,0.3-0.2-0.1c0.5,0.3-0.2-0.1,0.4,0.3c-0.1-0.1-0.2-0.1-0.3-0.2c0,0-0.2-0.1-0.2-0.1
			c0.4,0.4-0.2-0.2,0.3,0.4c-0.1-0.1-0.3-0.3-0.1-0.1l0-0.1c0,0,0,0.1,0.2,0.5c-0.3-0.6-0.2-0.5-0.3-0.7c0.1,0.3,0.1,0.2,0.1,0.5
			c-0.1-0.3,0,0.1-0.1-0.3c0.2,0.9-0.2,0.6-0.1-0.1l0,0c0,0.2-0.1,0.8-0.2,1.1c0,0,0-0.1,0-0.1c0,0.1,0-0.4,0-0.3c0-0.1,0-0.1,0-0.1
			c-0.1,0.2,0.1-0.4-0.1,0l0-0.1l-0.1,0.2c0-0.1,0.1-0.4,0.1-0.3c0-0.1-0.1,0-0.3,0.1c-0.1,0.1-0.3,0.1-0.4,0l0.1-0.1l-0.2,0.1
			c0.1,0,0.1-0.1,0.1-0.1c0.2-0.2-0.2,0-0.2-0.1c0.1,0,0.2-0.1,0.3-0.1c-0.4,0.1,0.5-0.2-0.3,0.1c0,0,0.2-0.1,0.3-0.1
			c-0.3,0-0.3-0.1-0.2-0.2c-0.4,0-0.4-0.1-0.4-0.1c0-0.1,0-0.1-0.2-0.2l0.2,0c-0.5-0.3,0.2-0.3,0.2-0.5c0.1,0,0-0.2,0-0.2l0.1,0.1
			c-0.2-0.3,0-0.2,0.1-0.2c0.2,0.1,0.3,0.2,0.1-0.2l0.1,0.2c-0.2-0.4,0.1,0.1-0.2-0.5l0.1,0.2c-0.3-0.9,0.3,0.3,0.2-0.3l0,0.2
			c0-0.1,0-0.2,0.1-0.1c0,0,0,0.1,0,0.1c0.2,0.6,0.2-0.1,0.3-0.1l0,0.3c0-0.4,0.1,0,0.2-0.2l0,0.1l0-0.2l0,0.3
			C141.1,54.7,141.2,54.4,141.3,54.4"/>
		<path clip-path="url(#SVGID_4_)" fill="#EF782C" d="M142.3,54.5C142.3,54.5,142.3,54.5,142.3,54.5
			C142.3,54.5,142.3,54.5,142.3,54.5"/>
		<path clip-path="url(#SVGID_4_)" fill="#EF782C" d="M141.4,55.9C141.5,55.9,141.5,55.9,141.4,55.9
			C141.4,55.9,141.4,55.9,141.4,55.9"/>
		<polygon clip-path="url(#SVGID_4_)" fill="#EDEDED" points="91.4,85.5 77.7,87.3 82.3,114.9 95.8,114.2 		"/>
		<polygon clip-path="url(#SVGID_4_)" fill="#EF782C" points="89.9,85.8 89.8,85.8 90,85.9 		"/>
		<path clip-path="url(#SVGID_4_)" fill="#EF782C" d="M90.5,86.4c0,0,0.1,0,0.2-0.1L89.9,86C89.6,86.2,90.7,86.2,90.5,86.4"/>
		<path clip-path="url(#SVGID_4_)" fill="#EF782C" d="M90.5,86.5c-0.1,0.2,0.2,0.2,0.3,0.2C90.5,86.7,90.8,86.4,90.5,86.5"/>
		<path clip-path="url(#SVGID_4_)" fill="#EF782C" d="M92.7,99.9C92.7,99.9,92.7,99.9,92.7,99.9C92.6,99.9,92.7,99.9,92.7,99.9"/>
		<path clip-path="url(#SVGID_4_)" fill="#EF782C" d="M94.3,103.2l0.3,0c-0.6-0.6-0.2-1.4-0.5-2.1l0.1,0c-0.2-1.8-0.8-3.3-1.3-5
			c0,0,0.1,0,0.1,0c-0.1-0.1-0.3-0.1-0.3-0.2c0.1,0,0.1,0,0.2,0c0.4-0.4-0.4-1-0.1-1.3c-0.1-0.1-0.2-0.1-0.4,0
			c-0.3-1.3-0.6-2.8-1.2-4.1c0-0.1,0.2-0.1,0.3-0.1c-0.9-1.1-0.8-2.4-0.9-3.6c-0.2,0-0.2,0.2-0.4,0.1c-0.2,0.4,0.6,0.6,0.3,1.1
			l-0.2,0c-0.1,0.3,0.4,0,0.3,0.3c-0.1,0.1-0.2,0-0.2,0.1c0.2,0.5,0.1,1.1,0.6,1.6c-0.4,0.2,0.1,0.6-0.3,0.8
			c0.2,0.1,0.2,0.3,0.4,0.3c0.1,1.9,0.8,3.8,1,5.8c0.9,0.8,0.2,2,0.6,3.1c0,0-0.1,0-0.1,0c0.2,0.3,0.4,0.8,0.4,1.3l0.4,0.3
			c-0.2,2.6,0.6,5.2,0.7,7.8c0.1,0.9,0.1,1.8,0.2,2.6l0.1,0.6c0,0.2,0,0.2,0,0.2c0,0.1,0,0.2,0,0.3c-0.1,0-0.2,0.1-0.4,0.2
			c0,0-0.2,0.1-0.3,0.1l-0.4,0.1c-0.3,0.1-0.6,0.2-0.8,0.3c0-0.1,0-0.1,0-0.1c-0.8,0.2-1.6,0-2.4,0.2l0-0.1c-1.9,0.7-4.1,0.1-6,0.9
			c-0.5,0-1,0-1.5,0c-0.1-0.4-0.1-0.7-0.2-1.1c-0.1-0.4-0.2-0.9-0.3-1.4c-0.2-0.9-0.4-1.8-0.6-2.8l0.1,0c-0.6-1.9-0.2-3.8-0.7-5.7
			c0-2-1.5-3.9-1.4-6c0.5-1.3-1.3-2.7-0.7-4c0.3-1.2,0.3-2.2,0-3.3c-0.1-0.5-0.3-1.1-0.5-1.5c-0.2-0.4-0.4-1-0.7-1.7
			c0.2-0.1,0.3-0.2,0.6-0.3c0.7,0,1.3-0.1,1.9-0.2c0.5-0.1,1.1-0.2,1.6-0.4c1.1-0.2,2.2-0.4,3.3-0.2c1-0.6,2.2,0.4,3.3,0.1l-0.1-0.2
			c0.5,0.5,0.8-0.9,1.2-0.1l0,0c0.3,0.4,0.4-1,0.6-0.6l0-0.2c0.3-0.1,0.1,0.2,0.3,0.3c0.1,0,0-0.4,0.2-0.3c0.1,0.8,0.6-0.3,0.8,0.7
			c-0.1,0,0.3,0.3,0,0.6c0.1,0.1,0.5,0,0.4-0.4c0-0.4,0.1-0.8-0.2-1.1l0,0.3c-0.1-0.3-0.1-0.1-0.1-0.4c-0.4,0-0.5-0.4-0.7-0.6
			c0,0,0,0,0,0c-0.1,0.4-0.4,0.2-0.5,0.2l-0.1-0.2c-0.1-0.3-0.3,0.7-0.3,0.1c-0.7,0.2-1.5,0.3-2.3,0.4c-0.1,0.2-0.6,0.1-0.4,0.5
			C86.6,85,86,85,85.8,85c0,0,0-0.1,0-0.1c-0.5-0.6-0.4,0.7-0.9-0.1c0,0.6-0.7-0.1-0.9,0.6c-0.1-0.1-0.1-0.2-0.1-0.3
			c-0.7,0.1-1.5,0-2.1,0c-0.5,0.6-1.3-0.1-1.6,0.7c-0.2,0-0.4-0.1-0.7-0.1c-0.2,0-0.9,0.1-1.2,0.2l0.1-0.1c-0.7,0.1-1.5,0.2-2,0.4
			c0.1,0.4,0.3,0.8,0.5,1c-0.7-0.1-0.5,0.5-0.6,0.9c0.5,1,0.5,1.6,0.9,2.2c-0.3,0.1,0.2,0.5-0.2,0.6c1.1,1.5,1.2,3.5,0.8,5.4l0,0
			c0.3,0.2,0.9,0.4,1.2,0.5c0,0-0.1,0-0.1,0c0.1,0.3-0.3,0.7-0.1,1c-0.1,0-0.1,0-0.2,0c0.2,0.3-0.3,0.7,0.2,1l-0.1,0l0.2,0.2
			c-0.1,0-0.4,0-0.3-0.1c0.3,2.7,1.5,5.4,1.9,8.2l-0.2-0.1l0.3,0.5c-0.1,0-0.1,0-0.2,0c-0.1,0.7,0.4,1.4,0.5,2.1
			c-0.1,0-0.2-0.1-0.3,0c0.5,0.4-0.4,0.9,0.5,1c0,0-0.2,0.1-0.3,0c0.3,0.7,0.4,1.4,0.6,2.1l0.1,0.5l0.1,0.6l0.2,1.6
			c0.1,0.1,0.1,0.1,0.1,0.2c2-0.7,3-0.1,4.2-0.8l0,0.1c1.6-0.6,3.3-0.1,4.9-0.3c0.7,0,1.1-0.2,1.8-0.2l0,0.2c0.5-0.3,1-0.3,1.6-0.2
			c0.6,0.1,1.5,0.2,2,0.1c-0.1-0.2-0.2-0.5-0.3-0.8l0.3,0.3c-0.5-0.4,0-0.8-0.7-1c0,0,0.2-0.2,0.2-0.2c-1-0.7,0.2-1.6-0.6-2.5l0.2,0
			c-0.2-0.2-0.3-0.5-0.2-0.8c0,0,0.1,0,0.1,0.1c0.5-0.9-0.3-1.7-0.4-2.6l0.3,0.1c-0.4-0.4-0.2-1.2-0.5-1.7l0.1,0l-0.2-0.3l0.3,0
			C94.8,104.6,94.5,103.9,94.3,103.2"/>
		<path clip-path="url(#SVGID_4_)" fill="#EF782C" d="M92.9,96C92.9,96,92.9,96,92.9,96C92.9,96,92.9,96,92.9,96"/>
		<path clip-path="url(#SVGID_4_)" fill="#EF782C" d="M90.3,84.4C90.3,84.4,90.4,84.4,90.3,84.4C90.4,84.4,90.3,84.4,90.3,84.4"/>
		<path clip-path="url(#SVGID_4_)" fill="#FFFFFF" d="M86.1,78.7l-5.5,1.1c0,0-5.1-6.1-5.3-9.6c-0.2-3.5,4.2-13.4,4.2-13.4l0.9,2.6
			l0.2,1.3c0,0-2.7,6.6-2.2,7.7C78.8,69.5,80.3,75.9,86.1,78.7"/>
		<polygon clip-path="url(#SVGID_4_)" fill="#EF782C" points="86.8,77.4 86.8,77.3 86.7,77.5 		"/>
		<path clip-path="url(#SVGID_4_)" fill="#EF782C" d="M86.2,77.6c0,0-0.1,0.1-0.1,0.1l0.5-0.5C86.8,76.9,86.1,77.9,86.2,77.6"/>
		<path clip-path="url(#SVGID_4_)" fill="#EF782C" d="M86.2,77.5c0-0.2-0.2,0.1-0.3,0.2C86,77.5,86,77.9,86.2,77.5"/>
		<path clip-path="url(#SVGID_4_)" fill="#EF782C" d="M80.5,71.4C80.5,71.4,80.5,71.4,80.5,71.4C80.5,71.4,80.5,71.4,80.5,71.4"/>
		<path clip-path="url(#SVGID_4_)" fill="#EF782C" d="M78.6,69.7l-0.3,0.1c0.6,0.3,0.3,0.9,0.7,1.3l-0.1,0c0.4,1.2,1.3,2,2.1,2.8
			c0,0-0.1,0-0.1,0c0.1,0,0.3,0,0.3,0c0,0-0.1,0.1-0.1,0c-0.2,0.4,0.6,0.4,0.5,0.8c0.1,0,0.2-0.1,0.3-0.2c0.6,0.7,1.3,1.3,2.2,1.6
			c0,0.1-0.1,0.2-0.2,0.3c1,0,1.4,0.6,2.1,1.1c0.1-0.1,0-0.2,0.2-0.3c-0.1-0.3-0.6,0.2-0.6-0.2l0.1-0.1c-0.1-0.2-0.3,0.3-0.3,0.1
			c0-0.2,0.1-0.2,0.1-0.2c-0.3-0.1-0.5-0.4-1-0.3c0.2-0.3-0.3-0.2-0.1-0.6c-0.2,0.1-0.2,0-0.4,0.1c-0.7-0.9-1.8-1.7-2.4-2.8
			c-0.9-0.1-0.5-1.2-1-1.7c0,0,0,0,0.1,0C80.2,71.3,80,71,80,70.7l-0.4-0.1c0-0.8-0.2-1.6-0.5-2.3c0-0.1,0-0.2,0-0.4
			c0-0.2,0-0.4,0.1-0.6c0.1-0.4,0.2-0.9,0.4-1.3c0.3-0.8,0.8-1.6,1.1-2.4c0.2-0.4,0.3-0.8,0.4-1.2c0.1-0.4,0.1-0.8,0.2-1.6
			c-0.1-0.2-0.2-0.4-0.3-0.5c0.1,0,0.1,0,0.2,0c-0.2-0.5-0.1-0.6-0.2-1.1C81,59,81,58.9,80.9,58.7l0.1,0c-0.5-0.6-0.7-1.3-1-2
			l-0.4-1.3L79,56.6c-0.3,0.6-0.5,1.1-0.4,1.8c-0.7,1.4-1.2,3-1.6,4.6L76.8,63c-0.1,1.3-1.3,2.3-1.4,3.6c-0.3,0.6-0.3,1.4-0.2,2.1
			c0.1,0.7,0.2,1.4,0.1,2.1c-0.3,0.5,0.1,0.9,0.4,1.3c0.3,0.4,0.7,0.7,0.5,1.2c-0.3,2,1.2,3,2.7,3.9c0.3,0.7,0.8,1.2,1.3,1.7
			c0.1,0.1,0.2,0.2,0.3,0.3c0.1,0.1,0.2,0.2,0.3,0.2c0.3,0,0.5,0,0.9,0.1c0.6-0.6,1.5,0.3,2.3,0.1L84,79.4c0.4,0.5,0.4-0.9,0.8-0.1
			l0,0c0.2,0.4,0.1-1,0.3-0.6l0-0.2c0.2-0.1,0.1,0.2,0.2,0.3c0,0-0.1-0.4,0.1-0.3c0.2,0.8,0.4-0.3,0.6,0.7c-0.1,0,0.2,0.3,0,0.6
			c0.1,0.1,0.4,0,0.3-0.4c-0.1-0.4,0-0.8-0.3-1.1l0,0.3c-0.1-0.3-0.1-0.1-0.1-0.4c-0.2,0-0.4-0.4-0.6-0.6c0,0,0,0,0,0
			c0,0.4-0.2,0.2-0.3,0.2l-0.1-0.2c-0.1-0.3-0.1,0.7-0.2,0.1c-0.4,0.2-1,0.3-1.5,0.4c0,0.2-0.4,0.1-0.2,0.5
			c-0.2-0.5-0.6-0.5-0.8-0.5c0,0,0-0.1,0-0.1c-0.4-0.6-0.2,0.7-0.6-0.1c0,0.3-0.1,0.3-0.2,0.3c0,0-0.1,0-0.1,0c0,0,0,0,0,0
			c0,0,0,0.1,0,0.3c0-0.1,0-0.2,0-0.3c-0.1,0,0-0.2,0-0.3c-0.1,0.1-0.1,0.1-0.1,0.1c0,0-0.1-0.1-0.1-0.2c-0.1-0.2-0.2-0.3-0.6-0.2
			c0-0.3,0-0.8-0.4-0.9l0.1,0c-0.3-0.3-0.5-0.6-1.1-0.6c0.5-0.5,0.3-0.5,0.4-0.8c-0.4,0-0.6-0.5-1-0.7c0.2-0.2-0.3-0.2,0.1-0.4
			c-1.3-0.5-1.7-1.9-1.4-3l0,0c-0.3,0-0.8,0-1.2-0.1c0,0,0.1,0,0.1,0c-0.1-0.2,0.2-0.5,0.1-0.6c0.1,0,0.1,0,0.1,0
			c-0.2-0.1,0.3-0.4-0.1-0.5l0.1,0l-0.2-0.1c0.1,0,0.4,0,0.3,0.1c0-0.8,0.1-1.6,0.1-2.5c0-0.9,0.2-1.9,0.5-2.7l0.1,0.1l-0.1-0.4
			c0.1,0,0.1,0.1,0.1,0.1c0.4-0.4,0.1-0.9,0.4-1.3c0.1,0,0.2,0.1,0.3,0.1c-0.3-0.4,0.7-0.3-0.1-0.8c0,0,0.2,0.1,0.3,0.1
			c0.1-1,0.4-1.9,0.9-2.7c-0.4-1,0.6-1.6,0.3-2.5l0.1,0.1c0-0.2,0-0.4,0.1-0.6l-0.3,0c0.4,0.8,0.4,1.8,0.7,2.6c0,0,0,0.1,0,0.1
			c0,0.3,0.2,0.7,0.3,1l-0.2,0c0.1,0.1,0.1,0.1,0.2,0.2c0.1,0.7-1.2,1.1-0.8,2l-0.2-0.1c0.3,0.3-0.3,0.4,0.4,0.6l-0.2,0.1
			c0.7,0.8-0.7,0.8-0.4,1.6L79,64.8c0.1,0.2,0.1,0.4-0.1,0.5c0,0-0.1,0-0.1-0.1c-0.8,0.4-0.3,1.2-0.4,1.7l-0.3-0.1
			c0.3,0.4-0.2,0.8,0,1.3l-0.1,0c0,0,0.2,0.2,0.2,0.2l-0.3,0c0,0.1,0,0.2,0.1,0.3C78.2,69,78.4,69.3,78.6,69.7"/>
		<path clip-path="url(#SVGID_4_)" fill="#EF782C" d="M81,73.9C81,73.9,81,73.9,81,73.9C81,73.9,81,73.9,81,73.9"/>
		<path clip-path="url(#SVGID_4_)" fill="#EF782C" d="M85.2,77.6C85.2,77.6,85.3,77.6,85.2,77.6C85.3,77.6,85.2,77.6,85.2,77.6"/>
		<polygon clip-path="url(#SVGID_4_)" fill="#EDEDED" points="120.8,69.3 102.5,68.9 102.5,65.8 119.5,65.8 		"/>
		<polygon clip-path="url(#SVGID_4_)" fill="#EF782C" points="121.6,69 121.6,69 121.5,69 		"/>
		<path clip-path="url(#SVGID_4_)" fill="#EF782C" d="M121.2,68.8C121.2,68.8,121.1,68.8,121.2,68.8l0.3,0.1
			C121.7,68.8,121.1,68.9,121.2,68.8"/>
		<path clip-path="url(#SVGID_4_)" fill="#EF782C" d="M121.2,68.8c0-0.1-0.1-0.1-0.2-0.1C121.2,68.7,121.1,68.8,121.2,68.8"/>
		<path clip-path="url(#SVGID_4_)" fill="#EF782C" d="M116.1,65.4C116.1,65.3,116.1,65.3,116.1,65.4
			C116.1,65.3,116.1,65.3,116.1,65.4"/>
		<path clip-path="url(#SVGID_4_)" fill="#EF782C" d="M114.3,65.9l0,0.1c0.3-0.2,0.7,0,1.1-0.1l0,0c0.9,0,1.7-0.2,2.6-0.3
			c0,0,0,0.1,0,0.1c0,0,0.1-0.1,0.1-0.1c0,0,0,0.1,0,0.1c0.2,0.2,0.5-0.1,0.7,0c0.1,0,0.1-0.1,0-0.2c0.3,0,0.7,0,1-0.1
			c0.1,0.2,0.3,0.6,0.4,0.8c0.1,0.2,0.2,0.4,0.3,0.6c0,0-0.1,0.1-0.1,0.1c0.5,0.4,0.6,1.1,0.8,1.7c0.1,0,0.1-0.1,0.2-0.1
			c0-0.2-0.3-0.3-0.2-0.5l0.1,0c0-0.1-0.2,0.1-0.2-0.1c0.1-0.1,0.1,0,0.1-0.1c-0.1-0.2-0.2-0.5-0.5-0.7c0.2-0.1-0.1-0.3,0-0.4
			c-0.1,0-0.1-0.1-0.2-0.1c0-0.2-0.1-0.3-0.2-0.5l-0.3-0.9l-0.8,0l-0.5,0c-0.3,0-0.6,0-0.9,0c-0.5,0.4-1-0.1-1.6,0.1c0,0,0,0,0,0
			c-0.2,0.1-0.4,0.1-0.7,0.1l-0.2,0.2c-1.3-0.3-2.6-0.1-3.9-0.2c-1.5-0.1-2.8-0.4-4.3,0.1c0,0,0-0.1,0-0.1c-0.4,0.1-0.8-0.1-1.2,0
			l0,0c-1,0.3-2,0-3.1,0.3c-0.1,0-0.3,0-0.4,0c0,1.2,0,2.1,0.1,3.2l0.2,0l-0.1,0.1c0.6-0.1,1,0,1.5,0.1c0.5,0.1,1,0.2,1.4,0.1
			c1,0.2,2.1-0.4,3.1-0.1c0.6,0.4,1.5-0.4,2,0c1.2,0.6,2.4,0.3,3.6,0c1.1,0.2,2.2-0.3,3.3,0.2c0.5-0.2,1.1,0.3,1.6,0.3l0-0.1
			c0.2,0.3,0.5-0.4,0.6,0l0,0c0.1,0.2,0.3-0.5,0.3-0.2l0-0.1c0.1,0,0,0.1,0.1,0.2c0,0,0-0.2,0.1-0.1c0,0.4,0.3-0.1,0.3,0.4
			c-0.1,0,0.1,0.2-0.1,0.3c0,0,0.3,0,0.2-0.2c0-0.2,0.1-0.4,0-0.6l0,0.2c0-0.2,0-0.1,0-0.2c-0.2,0-0.2-0.2-0.3-0.3c0,0,0,0,0,0
			c-0.1,0.2-0.2,0.1-0.3,0l0-0.1c0-0.2-0.2,0.3-0.1,0c-0.4,0.1-0.8,0.1-1.2,0c-0.1,0.1-0.3,0-0.2,0.2c-0.1-0.3-0.4-0.3-0.5-0.3
			c0,0,0-0.1,0,0c-0.2-0.3-0.3,0.3-0.4-0.1c0,0.3-0.4-0.1-0.5,0.2c0-0.1,0-0.1,0-0.2c-0.4,0-0.8-0.1-1.1-0.1
			c-0.3,0.2-0.6-0.1-0.9,0.2c-0.2-0.1-0.5-0.2-0.7-0.1l0,0c-0.3,0-0.7,0-0.9,0.2c-0.1-0.3-0.2-0.3-0.3-0.4c-0.2,0.1-0.6,0.1-0.9,0.2
			c0-0.2-0.2,0.1-0.3-0.2c-0.8,0.4-1.9,0.2-2.7-0.1l0,0c-0.1,0.1-0.3,0.4-0.4,0.5c0,0,0-0.1,0-0.1c-0.2,0-0.3-0.2-0.5-0.1
			c0,0,0,0,0-0.1c-0.2,0.1-0.3-0.2-0.5,0l0-0.1l-0.1,0.1c0-0.1,0-0.2,0.1-0.2c-1.4-0.1-2.8,0.2-4.3,0.2l0.1-0.1l-0.3,0.1
			c0,0,0-0.1,0-0.1c-0.2-0.1-0.4-0.1-0.5,0c-0.1,0-0.2,0.1-0.3,0.1c0,0,0.1-0.1,0.1-0.1c-0.1,0.1-0.1,0.1-0.1,0
			c0-0.1,0.2-0.2-0.1-0.1c0,0,0.1-0.1,0.1-0.1c0-0.1-0.1-0.1-0.1-0.3c0-0.2,0-0.4,0-0.5c0-0.2,0-0.4,0-0.5c0-0.2,0-0.4,0-0.4
			c-0.1-0.1-0.2-0.3-0.2-0.5c0.3,0,0.6,0.1,1-0.1l0,0.1c0.8-0.3,1.6,0,2.5,0c0.3,0,0.6-0.1,0.9-0.1l0,0.1c0.6-0.4,1.2,0.3,1.8-0.1
			l0,0.1c0.1-0.2,0.4,0.1,0.3-0.3l0.1,0.1c0.4-0.4,0.7,0.2,1.3-0.1l0,0.1c0.1-0.1,0.3-0.1,0.4,0c0,0,0,0,0,0.1c0.4,0.3,0.9,0,1.3,0
			l-0.1,0.1c0.2-0.2,0.6,0,0.9-0.1l0,0.1l0.1-0.1l0,0.1C113.6,66,113.9,65.9,114.3,65.9"/>
		<path clip-path="url(#SVGID_4_)" fill="#EF782C" d="M118,65.7L118,65.7C118,65.7,118,65.7,118,65.7"/>
		<path clip-path="url(#SVGID_4_)" fill="#EF782C" d="M120.4,68.7C120.4,68.7,120.4,68.7,120.4,68.7
			C120.4,68.7,120.4,68.7,120.4,68.7"/>
		<path clip-path="url(#SVGID_4_)" fill="#EF782C" d="M158.3,150.5l0.2,0c0,0,0.2-0.5,0.2-0.5C158.7,150,158.3,150.5,158.3,150.5"/>
		<path clip-path="url(#SVGID_4_)" fill="#EF782C" d="M158.8,148.9c-0.1,0-0.1,0-0.2,0c0,0,0.1,0.2,0.2,0.4c0.1,0.2,0.1,0.5,0.1,0.5
			c0.3-0.1,0.2-0.3,0-0.5C158.8,149.1,158.7,148.9,158.8,148.9"/>
		<path clip-path="url(#SVGID_4_)" fill="#EF782C" d="M158.9,148.7c0.2-0.2-0.1-0.3-0.2-0.4C159,148.5,158.6,148.7,158.9,148.7"/>
		<path clip-path="url(#SVGID_4_)" fill="#EF782C" d="M160.5,133.2C160.5,133.3,160.5,133.3,160.5,133.2
			C160.6,133.3,160.6,133.3,160.5,133.2"/>
		<path clip-path="url(#SVGID_4_)" fill="#EF782C" d="M159.7,129.2l-0.3-0.1c0.4,0.8-0.1,1.6,0,2.4l-0.1-0.1c-0.2,2,0.1,3.9,0.1,5.9
			c0,0-0.1,0-0.1-0.1c0.1,0.1,0.2,0.2,0.2,0.3c-0.1,0-0.1,0-0.1-0.1c-0.5,0.4,0.2,1.3-0.2,1.5c0,0.1,0.2,0.2,0.3,0.1
			c0,1.6-0.1,3.2,0,4.9c-0.1,0.1-0.2,0.1-0.3,0c0.5,1.4,0.1,2.8-0.4,4.3c0.2,0.1,0.2-0.1,0.4,0.1c0.4-0.4-0.2-1,0.2-1.3l0.2,0.1
			c0.2-0.3-0.4-0.1-0.1-0.4c0.2-0.1,0.2,0.1,0.2,0c0-0.7,0.3-1.3-0.1-1.9c0.4-0.1,0.1-0.7,0.5-0.9c-0.1-0.2-0.1-0.3-0.3-0.4
			c0.5-2.2,0.3-4.5,0.5-6.7c-0.7-1.1,0.3-2.3,0.2-3.6c0,0,0.1,0,0.1,0c-0.2-0.4-0.2-1-0.1-1.5l-0.3-0.4c0.8-2.9,0.6-5.9,1-8.8
			c0.1-0.4,0.1-0.8,0.2-1.2c0-0.2,0.1-0.4,0.1-0.5c0-0.2,0.1-0.5,0.1-0.7c0.1-0.9,0.2-1.6,0.2-2.4c0.1-1.6,0-3.1-0.4-4.8
			c0.1,0,0.1,0,0.1,0.1c-0.1-0.9,0.3-1.8,0.2-2.6l0.1,0c-0.1-0.6,0-1,0.1-1.6c0.1-0.7,0.2-1.2,0.2-1.8c0.1-1.2,0.1-2.3-0.2-3.4
			c0.1-2.6-0.1-5.5-0.4-8.3h0.1c-0.4-2.2,0.3-4.3-0.1-6.5c0.2-2.3-1-4.6-0.7-6.9c0.7-1.4-1-3.2-0.3-4.6c1-2.7,0.2-5.4-0.6-8.1
			c0.3-2.5-0.9-5-0.1-7.4c-0.6-1.1,0.5-2.4,0.3-3.7l-0.2,0.1c0.5-0.5-0.8-1,0-1.3l0,0c0.4-0.3-1-0.5-0.5-0.7l-0.2,0
			c-0.1-0.3,0.2,0,0.3-0.3c0-0.1-0.4,0-0.3-0.2c0.8-0.1-0.2-0.7,0.7-0.8c0,0.2,0.4-0.3,0.6,0.1c0.1-0.1,0-0.6-0.4-0.5
			c-0.4,0-0.8-0.2-1.1,0.1l0.3,0c-0.3,0.1-0.2,0.1-0.4,0.1c0,0.4-0.5,0.5-0.6,0.8c0,0,0,0,0,0c0.4,0.2,0.2,0.4,0.1,0.6l-0.2,0.1
			c-0.4,0.1,0.7,0.4,0.1,0.3c0.2,0.8,0.2,1.7,0.3,2.6c0.2,0.1,0,0.7,0.5,0.5c-0.5,0.2-0.6,0.9-0.6,1.2c-0.1,0-0.1,0-0.1-0.1
			c-0.6,0.5,0.6,0.5-0.2,1c0.6,0-0.1,0.8,0.5,1c-0.1,0.1-0.2,0.1-0.3,0.1c0,0.8-0.1,1.7-0.1,2.4c0.5,0.6-0.2,1.4,0.6,1.9
			c-0.1,0.4-0.4,1.1-0.1,1.7l-0.1-0.1c0.1,0.6,0.1,1.5,0.6,1.9c-0.7,0.2-0.5,0.5-0.7,0.8c0.3,0.4,0.3,1.3,0.6,2
			c-0.3,0.1,0.2,0.5-0.3,0.6c1,1.8,0.8,4.2,0.2,6.1l0,0c0.3,0.3,0.8,0.5,1.1,0.8c0,0-0.1,0-0.1,0c0.1,0.4-0.3,0.7-0.2,1.1
			c-0.1,0-0.1,0-0.1-0.1c0.2,0.3-0.3,0.7,0,1.1l-0.1,0l0.2,0.3c-0.1,0-0.4,0-0.3-0.2c0,3.2,0.9,6.4,1,9.6l-0.1-0.1l0.3,0.6
			c-0.1,0-0.1,0-0.1-0.1c-0.2,0.8,0.2,1.6,0.2,2.4c-0.1,0-0.2-0.1-0.3,0c0.4,0.6-0.5,0.9,0.4,1.2c0,0-0.2,0.1-0.3,0
			c0.3,1.6,0.4,3.2,0.3,4.8c0.8,1.3,0.1,2.8,0.7,4.2l-0.2,0c0.2,0.9,0.2,1.8,0,2.7c-0.1,0.4-0.3,0.9-0.4,1.3
			c-0.1,0.5-0.2,0.9-0.3,1.4c-0.2,0.8,0,1.3-0.1,2.1l-0.2,0c0.6,1.3-0.8,2.7,0,4.1l-0.3-0.1c0.4,0.2-0.2,0.8,0.5,0.8l-0.2,0.2
			c0.9,1-0.4,1.7,0,2.8l-0.2-0.1c0.1,0.3,0.2,0.7,0,0.9c0,0-0.1,0-0.1-0.1c-0.7,0.9-0.1,2-0.2,3l-0.3-0.1c0.3,0.5-0.1,1.4,0.1,2
			l-0.1,0l0.2,0.3l-0.3,0C159.5,127.6,159.7,128.4,159.7,129.2"/>
		<path clip-path="url(#SVGID_4_)" fill="#EF782C" d="M159.4,137.5C159.4,137.5,159.4,137.5,159.4,137.5
			C159.4,137.4,159.4,137.5,159.4,137.5"/>
		<path clip-path="url(#SVGID_4_)" fill="#EF782C" d="M158.5,55.6c0,0,0-0.1,0.1-0.1C158.5,55.6,158.5,55.6,158.5,55.6"/>
		<g clip-path="url(#SVGID_4_)">
			<g>
				<defs>
					<rect id="SVGID_11_" x="27.8" y="68.7" width="3.4" height="42.9"/>
				</defs>
				<clipPath id="SVGID_12_">
					<use xlink:href="#SVGID_11_"  overflow="visible"/>
				</clipPath>
				<path clip-path="url(#SVGID_12_)" fill="#DADADA" d="M31.2,111.5l-2.8-1.7l0.2-5.3c0,0-0.6-4-0.6-8.1s-0.2-14.1-0.2-15.1
					c0-1.1,1.7-12.6,1.7-12.6L31.2,111.5z"/>
			</g>
		</g>
		<g clip-path="url(#SVGID_4_)">
			<g>
				<defs>
					<rect id="SVGID_13_" x="23.5" y="104.7" width="54" height="46.9"/>
				</defs>
				<clipPath id="SVGID_14_">
					<use xlink:href="#SVGID_13_"  overflow="visible"/>
				</clipPath>
				<path clip-path="url(#SVGID_14_)" fill="#EDEDED" d="M25.8,104.7l-2.2,2.3l-0.2,6.8c0,0,6,6.4,6.9,7.7c0.9,1.3,3.7,3.4,6,4.7
					c2.4,1.3,14.6,10,16.6,11.7c1.9,1.7,5.4,2.3,7.1,3.8c1.7,1.5,4.7,4.5,4.7,4.5l3,4.7c0,0,4.3,0.6,5.2,0.6s4.5-3,4.5-3l-11-5.3
					L51,131.1c0,0-7.7-7.7-8.4-7.9c-0.6-0.2-15.3-13.9-15.3-13.9L25.8,104.7z"/>
			</g>
		</g>
		<path clip-path="url(#SVGID_4_)" fill="#EF782C" d="M69.3,150.5l0.2,0c0,0,0.2-0.5,0.2-0.5C69.7,150,69.3,150.5,69.3,150.5"/>
		<path clip-path="url(#SVGID_4_)" fill="#EF782C" d="M69.8,148.9c-0.1,0-0.1,0-0.2,0c0,0,0.1,0.2,0.2,0.4c0.1,0.2,0.1,0.5,0.1,0.5
			c0.3-0.1,0.2-0.3,0-0.5C69.9,149.1,69.7,148.9,69.8,148.9"/>
		<path clip-path="url(#SVGID_4_)" fill="#EF782C" d="M70,148.7c0.2-0.2-0.1-0.3-0.2-0.4C70,148.5,69.6,148.7,70,148.7"/>
		<path clip-path="url(#SVGID_4_)" fill="#EF782C" d="M71.6,133.2C71.6,133.3,71.6,133.3,71.6,133.2
			C71.6,133.3,71.6,133.2,71.6,133.2"/>
		<path clip-path="url(#SVGID_4_)" fill="#EF782C" d="M70.7,129.2l-0.3-0.1c0.4,0.8-0.1,1.6,0,2.4l-0.1-0.1c-0.2,2,0.1,3.9,0.1,5.9
			c0,0-0.1,0-0.1-0.1c0.1,0.1,0.2,0.2,0.2,0.3c-0.1,0-0.1,0-0.1-0.1c-0.5,0.4,0.2,1.3-0.2,1.5c0,0.1,0.2,0.2,0.3,0.1
			c0,1.6-0.1,3.2,0,4.9c-0.1,0.1-0.2,0.1-0.3,0c0.5,1.4,0.1,2.8-0.4,4.3c0.2,0.1,0.2-0.1,0.4,0.1c0.4-0.4-0.2-1,0.2-1.3l0.2,0.1
			c0.2-0.3-0.4-0.1-0.1-0.4c0.2-0.1,0.2,0.1,0.2,0c0-0.7,0.3-1.3-0.1-1.9c0.4-0.1,0.1-0.7,0.5-0.9c-0.1-0.2-0.1-0.3-0.3-0.4
			c0.5-2.2,0.3-4.5,0.5-6.7c-0.7-1.1,0.3-2.3,0.2-3.6c0,0,0.1,0,0.1,0c-0.2-0.4-0.2-1-0.1-1.5l-0.3-0.4c0.8-2.9,0.6-5.9,1-8.8
			c0.1-0.4,0.1-0.8,0.2-1.2c0-0.2,0.1-0.4,0.1-0.5c0-0.3,0.1-0.6,0.1-0.8c0-0.9-0.1-1.7-0.2-2.5c-0.2-1.6-0.6-3.1-1.3-4.6
			c0.1,0,0.1,0,0.1,0c-0.3-0.9-0.1-1.8-0.2-2.6l0.1,0c-0.1-0.5-0.2-1.1-0.1-1.5l0.2-0.9c0.1-0.3,0.1-0.6,0.1-0.9
			c0.1-1.2,0.1-2.3-0.2-3.4c0.1-2.6-0.1-5.5-0.4-8.3l0.1,0c-0.4-2.2,0.3-4.3-0.1-6.5c0.2-2.3-1.1-4.6-0.6-6.9c0.8-1.4-0.7-3.3,0-4.6
			c1.2-2.7,0.5-5.3-0.1-8.1c0.5-2.5-0.5-5,0.4-7.4c-0.5-1.2,0.7-2.4,0.6-3.7l-0.2,0c0.6-0.4-0.7-1,0.1-1.3l0,0
			c0.4-0.2-1-0.6-0.5-0.7l-0.2,0c-0.1-0.3,0.2,0,0.3-0.3c0-0.1-0.4,0-0.3-0.2c0.8,0-0.2-0.7,0.8-0.7c0,0.2,0.4-0.2,0.6,0.1
			c0.1-0.1,0.1-0.6-0.3-0.6c-0.4-0.1-0.8-0.3-1.1,0l0.3,0.1c-0.3,0.1-0.2,0.1-0.4,0.1c-0.1,0.4-0.5,0.4-0.7,0.7c0,0,0,0,0,0
			c0.4,0.2,0.1,0.5,0.1,0.6l-0.2,0.1c-0.4,0.1,0.7,0.5,0.1,0.3c0.1,0.8,0.1,1.7,0.1,2.6c0.2,0.1,0,0.7,0.4,0.5
			c-0.5,0.2-0.7,0.9-0.7,1.1c0,0-0.1,0-0.1-0.1c-0.7,0.5,0.6,0.6-0.2,1c0.6,0.1-0.2,0.8,0.5,1.1c-0.1,0.1-0.2,0.1-0.3,0
			c0,0.8-0.3,1.7-0.3,2.4c0.5,0.6-0.3,1.4,0.4,1.9c-0.2,0.4-0.5,1.1-0.2,1.7l-0.1-0.1c0,0.7,0,1.5,0.5,1.9c-0.7,0.2-0.5,0.5-0.8,0.8
			c0.3,0.4,0.2,1.3,0.5,2c-0.3,0.1,0.1,0.6-0.3,0.6c0.8,1.9,0.5,4.2-0.2,6.2l0,0c0.2,0.3,0.8,0.6,1.1,0.8c0,0-0.1,0-0.1,0
			c0.1,0.4-0.4,0.7-0.3,1.1c-0.1,0-0.1,0-0.1-0.1c0.2,0.3-0.4,0.7,0,1.1l-0.1,0l0.2,0.3c-0.1,0-0.4,0-0.3-0.2
			c-0.1,1.6,0.2,3.2,0.4,4.8c0.2,1.6,0.5,3.2,0.5,4.8l-0.1-0.1l0.3,0.6c-0.1,0-0.1,0-0.1-0.1c-0.2,0.8,0.2,1.6,0.2,2.4
			c-0.1,0-0.2-0.1-0.3,0c0.4,0.6-0.5,0.9,0.4,1.2c0,0-0.2,0.1-0.3,0c0.3,1.6,0.4,3.2,0.3,4.8c0.8,1.3,0.1,2.8,0.6,4.2l-0.2,0
			c0.2,0.9,0.2,1.8-0.1,2.7c-0.4,0.9-0.5,1.9-0.4,2.8c0,0.8,0.2,1.3,0.3,2.1l-0.2,0c0.9,1.2-0.2,2.8,0.8,4l-0.3,0
			c0.4,0.1,0,0.8,0.7,0.6l-0.2,0.3c0.5,0.4,0.5,0.8,0.4,1.3c-0.1,0.5-0.3,0.9-0.1,1.5l-0.2-0.1c0.1,0.3,0.2,0.7,0,0.9
			c0,0-0.1,0-0.1-0.1c-0.7,0.9-0.1,2-0.2,3l-0.3-0.1c0.3,0.5-0.1,1.4,0.1,2l-0.1,0l0.2,0.3l-0.3,0C70.6,127.6,70.8,128.4,70.7,129.2
			"/>
		<path clip-path="url(#SVGID_4_)" fill="#EF782C" d="M70.5,137.5C70.5,137.5,70.5,137.5,70.5,137.5
			C70.5,137.4,70.5,137.5,70.5,137.5"/>
		<path clip-path="url(#SVGID_4_)" fill="#EF782C" d="M69.5,55.6C69.5,55.5,69.5,55.5,69.5,55.6C69.5,55.5,69.5,55.5,69.5,55.6"/>
		<path clip-path="url(#SVGID_4_)" fill="#FFFFFF" d="M79.9,149.3c0,0-12.8,2.2-12.4,3.3c0.4,1.1,3.8,0.7,6.2,0.7H85L79.9,149.3z"/>
		<polygon clip-path="url(#SVGID_4_)" fill="#EF782C" points="78.9,150.5 78.9,150.6 79.1,150.4 		"/>
		<path clip-path="url(#SVGID_4_)" fill="#EF782C" d="M79.5,150.3c0,0,0.1-0.1,0.1-0.1l-0.6,0.4C78.9,150.9,79.6,150.1,79.5,150.3"
			/>
		<path clip-path="url(#SVGID_4_)" fill="#EF782C" d="M79.5,150.4c0,0.2,0.2-0.1,0.3-0.1C79.6,150.4,79.7,150.1,79.5,150.4"/>
		<path clip-path="url(#SVGID_4_)" fill="#EF782C" d="M82.3,152.3C82.2,152.3,82.2,152.3,82.3,152.3
			C82.2,152.3,82.2,152.3,82.3,152.3"/>
		<path clip-path="url(#SVGID_4_)" fill="#EF782C" d="M83.9,153.4l0.5,0.3c-0.3-0.2-0.1-0.2,0.1-0.2c0.3,0,0.6,0.1,0.5,0l0.2,0.1
			c0.3,0,0.5,0,0.6,0c-0.8-0.5-2-1.1-2.7-1.4c0.1,0,0.2,0,0.3,0.1c-0.2-0.1-0.6-0.1-0.6-0.1c0.1,0,0.3,0,0.3,0.1
			c0.4,0,0.1-0.1-0.1-0.2c-0.2-0.1-0.5-0.1-0.2-0.2c-0.1,0-0.4-0.1-0.7-0.1c-0.5-0.3-1-0.6-1.5-0.5c0,0,0.1-0.1,0.3-0.2
			c-0.6,0.4-1-0.3-1.3-0.6c-0.1,0.1-0.1,0.2-0.2,0.3c0,0.3,0.5-0.2,0.4,0.2l-0.1,0.1c0,0.2,0.3-0.3,0.2-0.1
			c-0.1,0.1-0.1,0.2-0.1,0.2c0.1,0,0.2,0.1,0.3,0.2c0.1,0,0.1,0,0.2,0c0.1,0,0.1-0.1,0.2-0.1c-0.3,0.3,0.1,0.1-0.2,0.3
			c0.1-0.1,0.1-0.1,0.4-0.2c0,0.1,0.1,0.2,0.3,0.3c0.2,0.1,0.5,0.2,0.6,0.3c0.9,0.2,1,0.3,0.8,0.3c-0.1,0-0.5-0.1-0.1,0.1
			c-0.1,0-0.2-0.1-0.2-0.1c0.1,0,0.2,0.1,0.3,0.1c0.3,0.1,0.3,0.2,0,0.1l0.7,0.3c-1.2-0.3-1.5-0.4-1.8-0.4c-0.3,0-0.6,0-0.9-0.1
			c-0.2,0-0.2-0.1-0.6-0.2c-0.3-0.1-0.6-0.1-0.9-0.1c-0.6,0-1.2,0.1-1.9,0.6c0-0.1,0-0.1,0-0.1c-0.2,0.1-0.4,0-0.5,0
			c-0.1,0-0.2,0-0.3,0c-0.1,0-0.1,0-0.2,0l0-0.1c-0.3,0.3-0.7,0.3-0.9,0.3c-0.3,0-0.5,0-1.4,0.3c-0.8-0.1-1.7,0.1-3.5,0.3l0.5-0.2
			c-1,0.2-1,0-0.7-0.1c0.2-0.2,0.6-0.3-0.2-0.4l-0.1,0c0.3-0.1,0.1-0.3,0-0.4c-0.2-0.1-0.5-0.1-0.9-0.2c-0.2,0-0.3-0.1-0.4-0.1
			c0,0-0.1,0-0.1,0l0.1-0.1c0.1,0,0.2-0.1,0.3-0.1l0.2-0.1c0.1,0,0.2,0,0.4,0c1.8-0.1,1.1-0.1,0.7-0.3c-0.2-0.1-0.4-0.3,0.8-0.2
			c2.2,0,2.7,0.1,2.7-0.1c0.1-0.1-0.2-0.5,0-0.8c0.8,0,1.1-0.2,1.7-0.4c0.1-0.1,0.3-0.1,0.4-0.1c0.1,0,0.2-0.1,0.4-0.1
			c0.2,0,0.5,0,0.8,0.2c0.3-0.6,1,0.5,1.5,0.2l-0.1-0.2c0.3,0.5,0.3-0.8,0.5,0l0,0c0.2,0.4,0-1,0.2-0.5l0-0.2
			c0.1-0.1,0.1,0.2,0.2,0.3c0,0-0.1-0.4,0-0.3c0.2,0.8,0.2-0.2,0.4,0.7c-0.1,0,0.2,0.3,0.1,0.6c0.1,0.1,0.2,0,0.1-0.4
			c-0.1-0.4,0-0.8-0.2-1.1l0,0.3c-0.1-0.3-0.1-0.1-0.1-0.4c-0.2,0-0.3-0.4-0.4-0.6c0,0,0,0,0,0c0,0.4-0.2,0.2-0.2,0.1l-0.1-0.2
			c-0.1-0.3,0,0.7-0.1,0.1c-0.3,0.2-0.6,0.3-1,0.3c0,0.2-0.3,0-0.1,0.5c-0.2-0.5-0.5-0.6-0.6-0.5c0,0,0-0.1,0-0.1
			c-0.3-0.6-0.1,0.6-0.4-0.1c0.1,0.6-0.4-0.1-0.3,0.6c0-0.1-0.1-0.2-0.1-0.3c-0.2,0-0.3,0-0.5,0c-0.1,0-0.2,0-0.3,0
			c-0.1,0-0.3,0-0.4,0c-0.1,0.3-0.4,0.3-0.7,0.3c-0.3,0-0.5,0.1-0.4,0.4c-0.4-0.1-1.2-0.2-1.3,0.1l-0.1-0.1
			c-0.4,0.1-0.9,0.3-0.5,0.6c-1.1-0.4-1.2-0.3-1.7-0.4c0.2,0.3-0.5,0.4-0.3,0.6c-0.7-0.1,0,0.1-1-0.1c0.4,0.4,0.3,0.6-0.3,0.7
			c-0.3,0.1-0.6,0.1-1.1,0.2c-0.5,0.1-0.9,0.1-1.4,0.2l-0.1,0c0.5,0.1,1.6,0.2,2.2,0.2c-0.1,0-0.3,0-0.2,0c0.1,0.1-1,0.1-0.9,0.1
			c-0.1,0-0.1,0-0.3,0c0.3,0.1-0.8,0.1-0.3,0.2l-0.2,0l0.3,0c-0.3,0-0.7,0-0.6,0c-0.2,0.2-0.2,0.3-0.2,0.5l0,0.4c0,0,0.1,0.1,0,0.2
			l0.1,0.1c0,0.1,0.1,0.2,0.2,0.2c0.4,0.3,0.9,0.4,1.1,0.5l-0.3,0l0.6,0c-0.1,0-0.2,0-0.3,0.1c-0.3,0.2,0.7,0,0.9,0.1
			c-0.2,0-0.5,0.1-0.6,0.2c1-0.2-0.9,0.4,1-0.1c-0.1,0-0.5,0.2-0.7,0.2c1.1-0.1,1.6,0,2.1,0.1c1.2-0.4,1.5-0.4,1.9-0.4
			c0.3,0,0.7,0,1.5-0.3l-0.2,0.2c0.8-0.3,1.1-0.3,1.4-0.2c0.3,0.1,0.8,0.2,1.2,0.1c0.3,0.1,0.5-0.1,0.8-0.1l0,0.2
			c0.5-0.7,1.1,0.6,1.6-0.1l0,0.3c0.1-0.4,0.3,0.1,0.3-0.5l0.1,0.2c0.4-0.9,0.7,0.4,1.1-0.2l0,0.2c0.1-0.1,0.2-0.2,0.3-0.1
			c0,0,0,0.1,0,0.1c0.3,0.3,0.6,0.3,0.7,0.2c0.2-0.1,0.3-0.3,0.5-0.3l0.2,0.3c-0.1-0.4,0.6,0,0.7-0.2l0.2,0.1l-0.1-0.2l0.4,0.3
			C83.7,153.7,83.6,153.5,83.9,153.4"/>
		<path clip-path="url(#SVGID_4_)" fill="#EF782C" d="M83.3,152.1C83.3,152.1,83.3,152.1,83.3,152.1
			C83.3,152.1,83.3,152.1,83.3,152.1"/>
		<path clip-path="url(#SVGID_4_)" fill="#EF782C" d="M79.3,148.1C79.3,148.1,79.3,148.1,79.3,148.1
			C79.3,148.1,79.3,148.1,79.3,148.1"/>
		<g clip-path="url(#SVGID_4_)">
			<g>
				<defs>
					<rect id="SVGID_15_" x="26.7" y="110.7" width="4.3" height="39.9"/>
				</defs>
				<clipPath id="SVGID_16_">
					<use xlink:href="#SVGID_15_"  overflow="visible"/>
				</clipPath>
				<path clip-path="url(#SVGID_16_)" fill="#DADADA" d="M31,115.3l-3.4-4.6c0,0,0,13-0.2,14.9c-0.2,1.9-0.6,7.7-0.6,7.7l0.6,16.2
					l1.9,1.1L31,115.3z"/>
			</g>
		</g>
		<path clip-path="url(#SVGID_4_)" fill="#FFFFFF" d="M109.3,121l6,4.8c0,0-6,7.5-8,9.6c-2,2.2-6,6.1-6.9,6.6
			c-0.9,0.4-8.6,7.2-8.6,7.2s-3.5,4.4-6.9,3.9c-3.3-0.4-10.4-5.7-12.2-5.7c-1.8,0-12.4-6.4-14.2-8.3c-1.8-2-8.9-7.7-10-8.3
			c-1.1-0.7-19.7-15.8-21.9-19.3c-2.2-3.5-3.5-5.5-3.5-5.5s-2.4-3.3-2.4-4.2c0-0.9,0.2-3.9,0.9-3.9s2,0.2,2,0.2s3.5,6.4,4.2,7.5
			c0.7,1.1,2,3.9,2.9,4.8c0.9,0.9,13.9,13.8,15.9,14.7c2,0.9,7.7,6.1,9.1,7.9c1.3,1.8,6,7,8.6,7.7c2.7,0.7,15.5,6.4,17,6.8
			c1.5,0.4,5.1,1.3,5.1,1.3s5.1-6.1,7.3-7.2c2.2-1.1,10.4-15.3,11.7-16.4C106.9,124.1,109.3,121,109.3,121"/>
		<polygon clip-path="url(#SVGID_4_)" fill="#EF782C" points="108.1,120.1 108,120.1 108,120.5 		"/>
		<path clip-path="url(#SVGID_4_)" fill="#EF782C" d="M107.2,122c0.1,0,0.1,0.1,0.2,0l0.2-1.4C107,120.8,107.7,121.9,107.2,122"/>
		<path clip-path="url(#SVGID_4_)" fill="#EF782C" d="M107,122.2c-0.4,0.2-0.3,0.6-0.3,0.8C106.6,122.7,107.3,122.4,107,122.2"/>
		<path clip-path="url(#SVGID_4_)" fill="#EF782C" d="M79.3,145.7c0,0,0.1,0,0.1,0C79.4,145.7,79.3,145.7,79.3,145.7"/>
		<path clip-path="url(#SVGID_4_)" fill="#EF782C" d="M68.8,142.6l-0.2,0.2c2.1,0.3,4,1.7,6.1,2.3l-0.2,0c2,0.9,3.9,1.7,5.9,2.4
			c1,0.4,2.1,0.5,3.1,0.8c1,0.2,2,0.4,3.1,0.6c0.6-0.8,1.3-1.7,2-2.5c0,0.1,0,0.2,0,0.2c0.1-0.3,0.2-0.6,0.4-0.8c0.1,0,0,0.1,0,0.2
			c1.1-0.6,2.1-2.6,2.9-2.9c0.2-0.2,0.2-0.5,0-0.5c0.4-0.4,0.8-0.7,1.3-1.1c0.2-0.2,0.6-0.3,0.7-0.5l0.2-0.2l0.3-0.3
			c0.7-0.7,1.3-1.7,1.9-2.6c1.2-1.8,2.3-3.7,3.3-5.6c0.2-0.1,0.3-0.1,0.4,0c0.7-1.7,1.6-3.4,2.7-5c0.5-0.8,1.1-1.6,1.7-2.4
			c0.1-0.2,0.4-0.4,0.6-0.7l0.5-0.4c0.3-0.3,0.7-0.6,1-0.9c0-0.2-0.4,0.1-0.3-0.2c-0.5,0.4-0.8,0.8-1,1.2l-0.2,0.3l-0.4,0.5
			c-0.2,0.3-0.4,0.5-0.6,0.7l-0.1-0.2c-0.6,0.6,0.3,0.4-0.4,1c-0.3,0.2-0.1-0.2-0.2-0.1c-0.9,1.5-2,2.9-2.5,4.5
			c-0.5,0.1-1,1.5-1.6,1.9c-0.1,0.4-0.4,0.8-0.3,1.1c-0.8,1.2-1.7,2.4-2.5,3.6c-0.4,0.6-0.8,1.2-1.3,1.8c-0.4,0.6-0.9,1.2-1.3,1.5
			c-0.1,0.1-0.1,0.1-0.3,0.2c-0.2,0.1-0.4,0.2-0.6,0.4c-0.4,0.3-0.7,0.5-1,0.8c-0.6,0.5-1.2,1.1-1.7,1.6c-1.1,1.1-2.1,2.3-3.1,3.4
			l-0.2,0.4c-0.1,0.1-0.2,0.3-0.2,0.3c-0.1,0.1-0.2,0.3-0.3,0.5c-0.2,0-0.3-0.1-0.5-0.1c-0.3-0.1-0.6-0.2-0.9-0.2
			c-0.6-0.2-1.2-0.4-1.9-0.6c-0.6-0.2-1.3-0.4-1.8-0.6c-0.6-0.3-1.2-0.5-1.9-0.7c0,0,0-0.1,0-0.1c-1.1-0.3-2.6-0.8-3.8-1.4l-1.2-0.1
			c-1.8-0.9-3.6-1.8-5.4-2.6c-0.9-0.4-1.9-0.8-2.8-1.1c-0.5-0.2-1-0.3-1.5-0.5c-0.4-0.1-0.8-0.3-1.2-0.5c-1.6-1-3-2.4-4.4-3.8
			c-0.7-0.7-1.3-1.5-2-2.2l-0.9-1.2c-0.3-0.4-0.7-0.8-1-1.2c-1.6-1.7-3.2-3.2-4.9-4.7c-0.9-0.7-1.7-1.4-2.8-2.1
			c-0.7-0.3-1.5-1.1-2.3-1.8c-3.1-2.8-6.3-5.7-9.8-8.4c0.1,0,0-0.1,0.2,0c-1-0.8-1.8-1.7-2.7-2.6c-0.4-0.4-0.8-0.9-1.3-1.3
			c-0.2-0.2-0.4-0.4-0.5-0.6l-0.5-0.7l0.1,0c-0.9-1.1-1.6-2.5-2.4-3.9c-0.8-1.3-1.5-2.7-2.3-4c-0.4-0.7-0.8-1.3-1.1-2l-0.7-1.2
			c0-0.2-0.2-0.1-0.3-0.1l-0.4-0.1l-0.8-0.1c-0.5,0-1-0.1-1.4,0.1c-0.3,0.3-0.4,0.8-0.5,1.3c-0.1,0.5-0.1,0.8-0.1,1.2
			c0,0.4,0,0.7,0,1.1c0,0.2,0,0.4,0,0.7c0,0.3,0.1,0.5,0.2,0.7c0.2,0.4,0.4,0.8,0.7,1.2c0.5,0.8,1,1.5,1.5,2.3c1,1.5,2,3.1,3.1,4.7
			c1,1.7,2.5,3,3.8,4.3c1.4,1.3,2.8,2.5,4.3,3.7l-0.1,0.1c4.7,3.7,8.6,8,13.5,11.5c2.4,1.9,5,3.7,7.5,5.6c1.3,1,2.5,1.9,3.6,3
			c1.1,1.1,2.5,1.9,3.7,2.9c1.4,1.3,3.4,2.3,5.4,3.2c1,0.4,2,0.9,3,1.3c0.5,0.2,0.9,0.4,1.4,0.6c0.4,0.2,0.9,0.2,1.3,0.5
			c1.6,0.9,2.9,2,4.4,2.9c1.5,0.9,3,1.8,4.7,2.5c0.8,0.3,1.7,0.6,2.7,0.6c1,0,1.9-0.4,2.6-0.8c1.5-0.9,2.7-2.3,3.8-3.7
			c0.2-0.2,0.4-0.4,0.6-0.7c2.7-2.1,5.1-4.4,7.8-6.6c0.7-0.4,1.3-1,1.9-1.6l1.8-1.7c1.2-1.2,2.4-2.3,3.7-3.4
			c1.6-2.7,4.7-4.6,6.8-7.4l-0.2,0c0.6-0.3,1-1.1,1.2-1.6l0.1-0.2c0,0,0-0.1,0-0.1l-0.1-0.1c-0.2-0.1-0.3-0.2-0.4-0.3
			c-0.2-0.2-0.3-0.3-0.3-0.6l0.1,0.1c-0.1-0.2-0.3-0.3-0.5-0.4c-0.2-0.1-0.4-0.1-0.6-0.1c-0.4,0-0.8-0.1-0.8-0.4l-0.2,0.1
			c-0.7-0.5,0.1-0.2-0.4-0.7c-0.2-0.1-0.3,0.2-0.6-0.2c0.4-0.7-1.6-1.1-1.1-1.8c0.3,0.3-0.3-0.7,0.6-0.2c-0.2-0.3-1.2-1.1-1.4-0.7
			c-0.4,0.3-1,0.2-0.6,1l0.3-0.1c0,0.4,0.1,0.3,0,0.5c0.8,0.7,0.6,1.1,1.1,1.8c0,0,0,0,0,0c0.6,0,1.1,0.7,1.4,1l0,0.2
			c0,0.4,1.4,0.2,0.7,0.5c0.2,0.1,0.4,0.3,0.6,0.4l0.2,0.1l0.1,0.1l0.1,0c0,0,0,0,0,0.1l-0.2,0.2c-0.7,0.8-1.4,1.7-2.1,2.5
			c0,0.4-1.2,1.4-0.5,1.3c-0.8,0.1-2,1.4-2.4,2c0-0.1,0-0.1,0-0.2c-1.3,0.6-0.5,1.6-1.9,2c0.3,0.6-1.6,1.5-1.5,2.4
			c-0.2,0-0.3,0-0.4-0.1c-1.5,1.5-3.4,3.1-4.7,4.2c-0.1,0.2-0.2,0.3-0.3,0.4c0,0,0.1,0-0.2,0.1c-0.2,0.1-0.3,0.2-0.4,0.3
			c-0.4,0.3-0.8,0.6-1.2,0.9c-0.8,0.6-1.5,1.2-1.8,1.9c-1,0.6-2.5,1.6-3.5,2.8l0.1-0.2c-0.3,0.3-0.6,0.6-0.9,0.9
			c-0.3,0.3-0.7,0.6-1,1c-0.3,0.4-0.6,0.8-0.9,1.2c-0.3,0.3-0.5,0.7-0.6,1c-0.8-0.2-1.3,0.3-1.9,0.5c-0.3,0.4-1,0.8-1.6,0.9
			c-0.3,0.1-0.6,0.1-1,0c-0.4-0.1-0.8-0.1-1.2-0.2c-0.1-0.4-1.3-0.4-1.2-0.9c-2.4-0.7-4.8-2.1-7.5-3.5c-0.4-0.2-0.7-0.3-1.1-0.5
			l-0.3-0.1c-0.1,0-0.3-0.1-0.4-0.1l-0.1,0l-0.1,0l0,0c-0.1-0.2,0.1,0.3,0.1,0.3l0,0l0-0.1c0-0.2,0-0.2,0-0.2l-0.1,0l-0.3-0.1
			c-0.3-0.2-1.1-0.5-1.6-0.8c-1.2-0.7-2.3-1.5-3.4-2.3l0.1,0c-0.7-0.1-1.7-0.1-2.5-0.2c0-0.1,0-0.1,0.1,0c-0.9-0.4-1.4-1.3-2.3-1.8
			c0-0.1,0-0.1,0.2,0c-0.9-0.3-1.4-1.3-2.4-1.7l0-0.1l-0.6-0.3c0.1-0.1,0.3-0.3,0.5,0c-0.4-0.3-0.8-0.6-1-0.9
			c-0.4-0.4-0.8-0.8-1.2-1.2c-0.8-0.7-1.6-1.4-2.5-2.1c-1.7-1.4-3.4-2.7-5.2-4c-0.5-0.3-0.9-0.6-1.4-1c-0.4-0.2-0.8-0.5-1.3-0.9
			c-0.9-0.6-1.7-1.3-2.6-2c-1.7-1.3-3.4-2.7-5.1-4.1l0.3,0.1l-1.5-0.9c0.1-0.1,0.1,0,0.2,0c-1.5-1.6-3.4-2.7-5-4.1
			c0.1,0,0.4,0.1,0.2-0.2c-1.4-0.7-1.5-2-2.6-1.9c0-0.1,0.1-0.2,0.2-0.2c-1.6-1.3-3.4-2.8-4.6-4.4c-1.2-1.7-2.4-3.7-3.5-5.5
			c-0.7-0.7-1.3-1.3-1.8-2.1c-0.3-0.4-0.5-0.8-0.8-1.2c-0.1-0.2-0.2-0.4-0.3-0.6c-0.1-0.2-0.1-0.3-0.1-0.5c0-0.5,0.1-0.9,0.1-1.4
			l0.1-0.7c0-0.2,0.1-0.3,0.1-0.5c0-0.2,0.1-0.4,0.2-0.5c0.1-0.1,0.3-0.1,0.5-0.1c0.4,0,0.8,0,1.2,0l-0.1,0.1c0.2,0,0.2,0.2,0.3,0.2
			l0.2,0.3l0.5,0.8c0.3,0.5,0.7,1,1,1.6c0.6,1.1,1.2,2.2,1.8,3.3c0.6,1.1,1.2,2.2,1.7,3.4c0.3,0.6,0.6,1.1,0.9,1.7
			c0.3,0.6,0.8,1.1,1.3,1.5c1.4,1.5,2.6,2.4,4.1,3.8l-0.1,0.2c3,1.9,4.9,5.6,8.2,7.5l-0.4,0c0.7,0.1,1.6,1.6,1.9,0.9l0.4,0.6
			c0.6,0.2,1.1,0.5,1.7,0.8c0.6,0.3,1,0.7,1.5,1.1c0.9,0.8,1.8,1.8,3.1,2.6l-0.3,0c0.7,0.4,1.5,1,1.8,1.5c-0.1,0-0.1,0-0.3-0.1
			c0.7,1.1,1.7,2,2.6,3c0.9,1,2,2,2.9,3l-0.4,0c1.1,0.7,2.6,2.7,4.1,3.6l-0.2,0l0.8,0.4l-0.1,0.2c0.5,0.3,1,0.6,1.6,0.8
			c0.5,0.1,1,0.3,1.6,0.4C66.7,141.8,67.8,142.2,68.8,142.6"/>
		<path clip-path="url(#SVGID_4_)" fill="#EF782C" d="M88.9,146C88.9,146,88.9,146,88.9,146C88.8,146,88.9,146,88.9,146"/>
		<path clip-path="url(#SVGID_4_)" fill="#EF782C" d="M110.8,123.9c-0.1-0.1-0.1-0.1-0.2-0.2C110.6,123.7,110.7,123.8,110.8,123.9"
			/>
		<path clip-path="url(#SVGID_4_)" fill="#FFFFFF" d="M79,150.4c0,0-0.9-1.5,1.8-1.8c2.7-0.2,9.5-1.5,9.5-1.5s2.2,2,1.5,2.2
			c-0.7,0.2-1.5,0.4-1.5,0.4s-0.4-0.9-1.8-0.7c-1.3,0.2-7.5,1.1-7.5,1.1l0.7,1.8C81.7,151.9,79,152.4,79,150.4"/>
		<polygon clip-path="url(#SVGID_4_)" fill="#EF782C" points="77.5,150.4 77.4,150.4 77.6,150.5 		"/>
		<path clip-path="url(#SVGID_4_)" fill="#EF782C" d="M78,150.8c0,0,0.1,0,0.2,0c0,0-0.7-0.2-0.7-0.2
			C77.1,150.7,78.3,150.7,78,150.8"/>
		<path clip-path="url(#SVGID_4_)" fill="#EF782C" d="M78,150.9c-0.2,0.1,0.2,0.1,0.3,0.1C78,151,78.3,150.8,78,150.9"/>
		<path clip-path="url(#SVGID_4_)" fill="#EF782C" d="M81.2,151.1C81.2,151.1,81.2,151.1,81.2,151.1
			C81.2,151.1,81.2,151.1,81.2,151.1"/>
		<path clip-path="url(#SVGID_4_)" fill="#EF782C" d="M82.4,149.8l0-0.3c-0.2,0.5-0.5,0.1-0.8,0.3l0-0.1c-0.2,0-0.4,0.1-0.6,0.1
			l-0.4,0.2l0.2,0.2c0.3,0.4,0.6,0.7,0.9,1.1c0,0-0.1,0-0.1,0c0.1,0,0.3,0,0.3,0c-0.1,0-0.1,0-0.1,0c-0.4,0.3,0.4,0.3,0.1,0.5
			l-0.1,0.1l0,0l0,0c0,0,0,0.1,0,0.1c0,0.1,0,0.1,0,0.2c-0.6,0.2-1.2,0.3-2,0.3c0-0.1,0-0.2,0.1-0.3c-0.4,0.2-0.8,0.1-1.2-0.2
			c-0.3-0.3-0.5-0.8-0.5-1.2c-0.2,0-0.2,0.1-0.4,0.1c-0.1,0.4,0.6,0.3,0.4,0.7l-0.2,0.1c0,0.2,0.4-0.2,0.3,0.1
			c-0.1,0.1-0.2,0.1-0.2,0.2c0.3,0.3,0.6,0.7,1.1,0.5c-0.1,0.4,0.3,0.2,0.3,0.5c0.1-0.1,0.2-0.1,0.3-0.3c0.7,0.3,1.3,0.2,2,0
			l1.4-0.4l-0.6-1c-0.1-0.2-0.3-0.4-0.3-0.7c-0.8-0.1-0.2-0.7-0.5-1c-0.2,0.4-0.5,0.8-0.7,1.2c0,0,0,0,0.1,0c0,0,0,0.1,0,0.1
			c0.1-0.2,0.3-0.3,0.5-0.2l0.1-0.3c1.1,0.5,2-0.1,3.1,0c1.2,0,2.2,0.4,3.2-0.7c0,0.1,0,0.1,0,0.1c0.3-0.2,0.7,0,0.8-0.1l0,0.1
			c0.2-0.2,0.4-0.3,0.6-0.2c0.2,0.1,0.3,0.3,0.4,0.3l0.6,0.3l0,0c0.2-0.1,0.3-0.2,0.5-0.4c0.2,0,0.4-0.1,0.7-0.2l0.3-0.1
			c0.1,0,0.3-0.1,0.3-0.2c0.1-0.2,0-0.2,0-0.3c-0.3-0.6-0.7-0.8-1-1.1l0.1-0.1c-0.4-0.2-0.6-0.6-0.9-1c-0.2,0-0.4,0-0.6,0
			c-0.2,0-0.5,0.1-0.6,0.1c-0.8-0.2-1.4,1.1-2.2,0.8c-0.6-0.6-0.9,1-1.5,0.3c-1.1-0.9-1.8-0.1-2.7,0.7c-0.9-0.3-1.7,0.8-2.5,0.1
			c-0.1,0.3-0.3,0.2-0.6,0.1c-0.3-0.1-0.7-0.2-0.8,0.1l0.2,0.1c-0.3-0.1-0.2,0.1-0.1,0.3c0.1,0.2,0.2,0.2-0.2,0.2l0,0
			c-0.2,0,0,0.1,0.2,0.2c0.2,0.1,0.5,0.1,0.2,0.1l0.2,0c0.1,0.1-0.2,0-0.3,0.1c0,0,0.4,0,0.3,0c-0.8,0.2,0.2,0.1-0.7,0.4
			c0-0.1-0.3,0.3-0.5,0.1c-0.1,0.1,0.1,0.4,0.5,0.2c0.4-0.2,0.7-0.3,1-0.6l-0.3,0.1c0.3-0.2,0.1-0.1,0.3-0.2c0-0.1,0.4-0.2,0.6-0.3
			c0,0,0,0,0,0c-0.4,0.1-0.1,0-0.2,0l0,0c0,0-0.1,0-0.1,0c-0.1,0-0.1,0,0,0c0,0,0.1,0.1,0.1,0.1c0,0,0,0,0,0c-0.1-0.2,0.1,0-0.2-0.4
			c0.3,0.4,0.4,0.5,0.4,0.5c0,0,0,0.1,0,0.1c0.2,0.6-0.1-0.6,0.2,0.1c-0.1-0.6,0.2,0.1,0.2-0.5c0,0.1,0.1,0.2,0.1,0.3
			c0.2,0,0.6,0.2,0.8,0.2c0.1-0.5,0.5,0.2,0.6-0.5c0.2,0.1,0.4,0.4,0.6,0.1l0,0.1c0.2-0.1,0.5-0.1,0.6-0.6c0.2,0.6,0.2,0.5,0.4,0.7
			c0.1-0.3,0.4-0.3,0.6-0.6c0.1,0.3,0.2-0.2,0.2,0.3c0.5-0.9,1.3-0.8,2.1-0.3l0,0c0-0.3,0.1-0.8,0.1-1.1c0,0,0,0.1,0,0.1
			c0.1-0.1,0.3,0.3,0.4,0.2c0,0.1,0,0.1,0,0.1c0.1-0.2,0.3,0.3,0.4-0.1l0,0.1l0.1-0.2c0,0.1,0.1,0.4,0,0.3c0.5,0,1-0.2,1.4-0.5
			l0.7-0.3c0.1-0.1,0.2-0.1,0.4-0.2c0,0,0.1,0.1,0.1,0.1l-0.1,0.1c0,0,0.2-0.2,0.2-0.2c0,0.1-0.1,0.1-0.1,0.1c0,0.3,0.3,0,0.4,0.3
			c-0.1,0-0.2,0.1-0.2,0.2c0.4-0.1-0.2,0.6,0.5,0.1c0,0-0.2,0.2-0.2,0.2c0.3,0.1,0.5,0.2,0.5,0.4l0,0c-0.1,0,0.2-0.1,0.3-0.1
			c0.1,0,0.2,0,0.3,0c0,0,0.1,0,0.1,0c0,0,0,0,0-0.1l0,0v0l0,0v0v0c0,0.1-0.3-0.9-0.1-0.5h0h0l-0.1,0l-0.2,0
			c-0.2,0.8-0.8,0.4-1.1,0.9c0.1,0.1,0.3,0.1,0.4,0.2c-0.1-0.1-0.1-0.1-0.2-0.1l0.1-0.1c-0.4-0.1-0.7-0.3-1-0.4
			c-0.3-0.2-0.7-0.3-1-0.2c-0.3,0-0.4,0.2-0.7,0.2l0-0.2c-0.3,0.8-1-0.5-1.4,0.3l0-0.3c0,0.4-0.3-0.1-0.2,0.6l-0.1-0.2
			c-0.2,0.9-0.6-0.3-0.9,0.3v-0.2c-0.1,0.1-0.2,0.3-0.3,0.1c0,0,0-0.1,0-0.1c-0.4-0.6-0.7,0.2-1,0.2l0-0.3c-0.1,0.4-0.5,0.1-0.6,0.3
			l0-0.1l-0.1,0.2l0-0.3C82.9,149.5,82.7,149.7,82.4,149.8"/>
		<path clip-path="url(#SVGID_4_)" fill="#EF782C" d="M81.6,151.4C81.6,151.4,81.6,151.4,81.6,151.4
			C81.6,151.4,81.6,151.4,81.6,151.4"/>
		<path clip-path="url(#SVGID_4_)" fill="#EF782C" d="M80.1,149.8L80.1,149.8C80.1,149.8,80.1,149.8,80.1,149.8"/>
	</g>
</g>
</svg>
