<?xml version="1.0" encoding="utf-8"?>
<!-- Generator: Adobe Illustrator 17.0.0, SVG Export Plug-In . SVG Version: 6.00 Build 0)  -->
<!DOCTYPE svg PUBLIC "-//W3C//DTD SVG 1.1//EN" "http://www.w3.org/Graphics/SVG/1.1/DTD/svg11.dtd">
<svg version="1.1" id="Layer_1" xmlns="http://www.w3.org/2000/svg" xmlns:xlink="http://www.w3.org/1999/xlink" x="0px" y="0px"
	 width="176.073px" height="154.888px" viewBox="0 0 176.073 154.888" enable-background="new 0 0 176.073 154.888"
	 xml:space="preserve">
<g>
	<polygon fill="#EDEDED" points="94.709,126.837 2.047,107.259 67.892,98.383 139.403,105.056 165.715,110.533 	"/>
	<g>
		<g>
			<g>
				<g>
					<g>
						<path fill="#EF782C" d="M73.62,98.509c0,0,0,0.189,0.063,0.378c0.063,0.126,0.126,0.252,0.126,0.252s0.063,0.063,0.126,0.126
							c0.063,0.063,0.189,0.126,0.252,0.126c0.189,0.063,0.252,0.126,0.315,0.126c0,0-0.189-0.063-0.378-0.189
							c-0.063-0.063-0.126-0.126-0.189-0.126c-0.063-0.063-0.126-0.189-0.189-0.252C73.62,98.698,73.62,98.509,73.62,98.509z"/>
						<path fill="#EF782C" d="M76.579,100.083c-0.063-0.063,0-0.063-0.063-0.126c0,0-0.378,0-0.818-0.063
							c-0.378,0-0.818-0.126-0.818-0.126C75.509,100.335,76.201,99.831,76.579,100.083z"/>
						<path fill="#EF782C" d="M77.02,100.209c0.567,0.252,0.818,0.126,1.007,0.063C77.775,100.398,76.957,100.02,77.02,100.209z"/>
						<path fill="#EF782C" d="M128.323,107.196c-0.063,0-0.126,0-0.189,0C128.198,107.196,128.26,107.196,128.323,107.196z"/>
						<path fill="#EF782C" d="M141.795,108.015l0.126-0.126c-2.518,0-5.351-0.567-7.995-0.755h0.189
							c-6.736-0.755-12.905-1.259-19.577-1.888c0.126,0,0.126-0.063,0.252-0.063c-0.315,0-0.692,0.063-1.07,0
							c-0.063-0.063,0.126-0.063,0.252-0.063c-1.385-0.378-4.155-0.378-4.973-0.629c-0.378,0-0.567,0.063-0.378,0.126
							c-5.225-0.567-10.827-1.196-16.115-1.826c-0.252-0.063-0.315-0.126-0.189-0.189c-4.595-0.315-9.316-1.133-13.912-2.14
							c-0.189,0.063,0.441,0.189,0,0.189c1.448,0.441,2.77,0.315,4.092,0.755l-0.189,0.063c0.944,0.252,0.252-0.189,1.259,0.126
							c0.378,0.126-0.126,0.126,0.063,0.126c2.077,0.315,4.281,0.755,6.232,0.818c0.441,0.252,2.266,0.315,2.959,0.629
							c0.567,0,1.07,0.063,1.322,0c7.302,1.133,14.793,1.826,22.284,2.707c3.588,0,7.743,0.944,11.897,1.259v0.063
							c1.385,0.063,3.336,0.252,4.973,0.441h1.385c4.847,0.692,9.82,1.259,14.793,1.7c2.455,0.252,4.973,0.441,7.491,0.692
							l0.944,0.063l0.504,0.063c0.189,0,0.378,0,0.567,0c0.755-0.063,1.385-0.441,1.888-0.944s0.818-1.07,1.07-1.7l0.063-0.252
							c0.063-0.126,0.063-0.189,0.063-0.252l0.126-0.441l0.189-0.944c2.266-11.142,4.469-20.836,6.043-31.726
							c0.063,0,0.063-0.063,0.063,0.252c0.504-3.147,1.196-5.98,1.7-8.939h0.063c1.07-7.365,3.022-15.234,4.029-22.347
							c0.441-2.329,0.944-4.658,1.385-7.113c0.252-1.196,0.441-2.518,0.315-3.777c-0.063-0.629-0.189-1.322-0.567-1.888
							c-0.189-0.252-0.441-0.504-0.755-0.692c-0.315-0.126-0.692-0.189-1.007-0.189c0,0,0,0-0.063,0c0,0,0,0-0.063,0
							c-4.218,0.126-8.561,0.252-12.842,0.441V29.58c-7.428,0.378-14.541,0.126-21.969,0.441c-7.617,0-15.611,0.818-23.291,0.818
							c-4.721-0.252-10.953,0.692-15.423,0.441c-1.7-0.063-3.336-0.126-5.036-0.126c-0.818,0-1.763,0.063-2.518,0.504
							c-0.755,0.504-1.322,1.259-1.511,2.14l0,0c-1.448,5.54-2.644,11.079-3.84,16.745c-2.329,8.12-3.903,16.43-6.358,24.235
							c-0.692,3.84-2.392,7.806-3.399,12.023l0.126-0.126c-0.692,1.448-0.441,3.462-1.133,4.281v-0.189
							c-0.441,0.755,0.063,1.951-0.315,2.392l0.063,0.126c-0.189,0.944-0.126,0.063-0.378,0.818
							c-0.063,0.252,0.189,0.126-0.063,0.692c-0.441,0-0.504,2.392-1.007,2.329c0.126-0.504-0.378,0.755-0.189-0.441
							c-0.126,0.315-0.504,1.951-0.252,1.826c0.189,0.189,0.189,0.881,0.629-0.063l-0.126-0.252
							c0.252-0.315,0.126-0.252,0.315-0.315c0.378-1.259,0.629-1.385,0.944-2.266l0,0c-0.063-0.692,0.315-1.511,0.441-2.014
							l0.126-0.189c0.252-0.252,0-1.574,0.252-1.07c0.567-2.644,1.385-5.602,2.077-8.498c0-0.441,0.567-2.203,0.189-1.637
							c0.441-0.629,1.07-2.77,1.259-3.588c0,0.063,0.063,0.063,0,0.189c0.755-1.448,0.126-1.951,0.944-3.273
							c-0.252-0.315,0.755-2.644,0.629-3.525c0.126-0.189,0.189-0.189,0.252-0.126c0.692-2.644,1.511-5.477,2.14-7.68
							c0.252-1.951,1.322-4.532,1.385-6.295c0.441-1.322,1.133-3.462,1.511-5.414v0.189c0.504-2.14,1.196-4.784,1.322-6.295
							c0.504-0.567,0.692-1.448,1.007-2.392c0.189-1.448,1.007-4.343,1.385-6.547c0.252-0.315,0.378-1.826,0.629-1.888
							c0.126-0.504,0.189-1.007,0.315-1.574v-0.063c0-0.189,0.126-0.567,0.315-0.818c0.126-0.252,0.378-0.504,0.567-0.692
							c0.504-0.378,1.133-0.567,1.888-0.629c1.574-0.063,3.21-0.126,4.847-0.126c3.273-0.063,6.547,0,9.631,0.063h-0.126
							c0.881-0.126,1.888-0.504,2.77-0.692c0.063,0,0.063,0.063-0.126,0.063c1.196-0.063,2.392,0.126,3.588,0.063
							c0,0.063,0,0.063-0.189,0.063c1.133-0.126,2.392,0.126,3.714-0.063l0.063,0.063l0.881-0.126c0,0.063-0.063,0.189-0.504,0.189
							c10.513-0.189,21.34-0.881,32.167-1.07l-0.378,0.063L153,30.083c0,0.063-0.126,0.063-0.189,0.063
							c2.644,0.063,5.414-0.252,7.995-0.252c0,0.063-0.378,0.126-0.063,0.189c1.888-0.252,3.085,0.189,4.029-0.252
							c0.063,0,0.126,0.126-0.063,0.189c2.833-0.126,5.728-0.252,8.624-0.315h0.063h0.063c0.189,0,0.504,0,0.692,0.126
							c0.189,0.126,0.378,0.252,0.567,0.441c0.315,0.378,0.441,1.007,0.504,1.574c0.126,1.196-0.063,2.392-0.315,3.588
							c-0.441,4.469-1.763,9.316-2.329,13.975l-0.063-0.063c-0.881,5.98-2.392,12.212-3.525,18.381
							c-0.504,2.518-0.755,4.281-1.259,6.861l-0.126,0.063c-0.441,4.406-2.077,9.002-2.581,13.597l-0.063-0.315
							c0.063,0.755-0.63,2.707-0.189,2.518l-0.252,0.755c-0.126,3.147-1.322,5.54-1.7,9.316l-0.063-0.252
							c-0.126,1.007-0.315,2.203-0.504,2.896c0-0.126,0-0.063,0-0.315c-0.252,0.755-0.441,1.574-0.629,2.392
							c-0.063,0.378-0.189,0.818-0.252,1.259l-0.126,0.629c-0.063,0.189-0.126,0.378-0.189,0.567
							c-0.315,0.755-0.818,1.448-1.574,1.826c-0.755,0.378-1.637,0.252-2.455,0.189l0.378-0.126
							c-1.637,0.063-4.595-0.378-6.673-0.504l0.126-0.063h-1.07v-0.126C147.082,108.455,144.501,108.329,141.795,108.015z"/>
						<path fill="#EF782C" d="M113.971,105.182L113.971,105.182C114.097,105.182,114.034,105.182,113.971,105.182z"/>
						<path fill="#EF782C" d="M76.013,95.236c-0.063,0.126-0.063,0.252-0.126,0.315C75.95,95.488,76.013,95.299,76.013,95.236z"/>
					</g>
				</g>
			</g>
		</g>
	</g>
	<g>
		<g>
			<g>
				<g>
					<g>
						<polygon fill="#EF782C" points="80.545,92.907 80.671,92.97 81.049,92.844 						"/>
						<path fill="#EF782C" d="M82.874,92.907c-0.063-0.063,0-0.063-0.063-0.126l-1.385,0.189
							C81.93,93.285,82.496,92.718,82.874,92.907z"/>
						<path fill="#EF782C" d="M83.252,92.97c0.504,0.126,0.755,0,0.881-0.063C83.881,93.033,83.126,92.781,83.252,92.97z"/>
						<path fill="#EF782C" d="M128.512,98.95c-0.063,0-0.126,0-0.189,0C128.449,98.95,128.512,98.95,128.512,98.95z"/>
						<path fill="#EF782C" d="M140.41,99.957l0.126-0.126c-2.266-0.063-4.658-0.629-7.05-0.818h0.189
							c-5.917-0.818-11.394-1.322-17.248-2.014c0.063,0,0.126-0.063,0.252-0.063c-0.315,0-0.629,0.063-0.944,0
							c-0.063-0.063,0.126-0.063,0.189-0.063c-1.196-0.378-3.651-0.315-4.406-0.629c-0.378,0-0.504,0.063-0.315,0.126
							c-4.595-0.567-9.505-1.196-14.227-1.637c-0.252-0.063-0.252-0.126-0.189-0.189c-4.029-0.189-8.246-0.881-12.275-1.511
							c-0.189,0.063,0.378,0.189,0,0.189c1.322,0.315,2.455,0.063,3.588,0.441l-0.189,0.063c0.881,0.189,0.189-0.189,1.07,0
							c0.315,0.126-0.126,0.126,0.063,0.126c1.826,0.189,3.777,0.567,5.54,0.567c0.378,0.252,1.951,0.252,2.644,0.567
							c0.504,0,0.944,0.063,1.133-0.063c6.421,0.944,13.093,1.637,19.703,2.581c3.147,0,6.799,1.007,10.513,1.322v0.063
							c1.196,0.063,2.959,0.252,4.406,0.504h1.259c3.966,0.692,7.995,1.259,12.023,1.826c2.014,0.252,4.029,0.567,6.106,0.818
							l6.484,0.881l0.504-2.329c2.014-9.82,3.966-18.381,5.351-28.012c0.063,0,0.063-0.063,0.063,0.189
							c0.441-2.77,1.07-5.288,1.511-7.869h0.063c0.944-6.547,2.644-13.408,3.525-19.703c0.63-3.273,1.322-6.673,2.014-10.324
							c-2.329,0-4.784,0.063-7.239,0.126c-2.392,0.063-4.784,0.063-7.176,0.126v-0.063c-6.547,0.189-12.842-0.126-19.388,0
							c-6.736-0.126-13.786,0.567-20.584,0.378c-4.218-0.378-9.694,0.504-13.597,0.126c-1.7-0.126-3.336-0.189-4.973-0.189
							c-0.818,0-1.637,0-2.455,0h-2.707l-0.441,1.951l-0.378,1.7c-0.252,1.133-0.441,2.266-0.692,3.462
							c-0.441,2.266-0.881,4.595-1.322,6.924c-1.888,7.176-3.022,14.604-5.099,21.529c-0.504,3.399-1.951,6.924-2.77,10.638
							l0.126-0.126c-0.629,1.259-0.315,3.085-0.881,3.777v-0.126c-0.378,0.629,0.126,1.763-0.252,2.14l0.063,0.126
							c-0.189,0.881-0.126,0.063-0.315,0.692c-0.063,0.252,0.189,0.126,0,0.629c-0.441,0-0.378,2.14-0.881,2.077
							c0.126-0.441-0.378,0.692-0.252-0.378c-0.126,0.315-0.441,1.7-0.189,1.637c0.189,0.189,0.252,0.755,0.629-0.063l-0.126-0.189
							c0.252-0.252,0.126-0.189,0.252-0.252c0.315-1.133,0.567-1.196,0.818-2.014l0,0c-0.063-0.629,0.252-1.322,0.378-1.763
							l0.126-0.126c0.252-0.252-0.063-1.385,0.189-0.944c0.441-2.329,1.07-4.973,1.7-7.554c-0.063-0.378,0.441-1.951,0.126-1.448
							c0.441-0.567,0.944-2.455,1.07-3.21c0,0.063,0.063,0.063,0,0.189c0.692-1.322,0.063-1.7,0.818-2.896
							c-0.252-0.252,0.629-2.329,0.441-3.147c0.126-0.126,0.189-0.189,0.189-0.126c0.567-2.329,1.259-4.847,1.763-6.861
							c0.126-1.763,1.07-4.029,1.07-5.602c0.378-1.196,0.944-3.085,1.196-4.784v0.189c0.441-1.888,0.944-4.281,1.007-5.602
							c0.504-0.504,0.629-1.322,0.881-2.077c0.126-1.322,0.755-3.84,1.07-5.791c0.126-0.126,0.189-0.504,0.252-0.881
							c0.126-0.504,0.126-0.441,0.189-0.378V36.63c-0.189-0.063,0.881-0.126,1.511-0.126c0.692-0.063,1.448-0.063,2.203-0.126
							c1.511-0.063,3.022-0.063,4.595-0.063c3.085,0,6.232,0.126,9.128,0.252h-0.063c0.755-0.126,1.637-0.441,2.455-0.629
							c0.063,0,0.063,0.063-0.126,0.063c1.07-0.063,2.077,0.189,3.147,0.126c0,0.063,0,0.063-0.189,0.063
							c1.007-0.126,2.077,0.189,3.273,0l0.063,0.063l0.755-0.126c0,0.063-0.063,0.189-0.441,0.189c9.254,0,18.885-0.504,28.39-0.504
							l-0.378,0.063l1.826-0.126c0,0.063-0.126,0.063-0.189,0.063c2.329,0.126,4.784-0.126,7.113-0.126
							c0,0.063-0.378,0.126-0.063,0.189c1.7-0.252,2.707,0.252,3.588-0.189c0.063,0,0.126,0.126-0.063,0.189
							c1.763-0.063,3.462-0.126,5.225-0.126c0.881,0,1.763,0,2.644-0.063h2.14c-0.252,1.07-0.441,2.14-0.692,3.21
							c-0.378,3.966-1.574,8.246-2.014,12.338l-0.063-0.063c-0.755,5.288-2.14,10.764-3.147,16.241
							c-0.441,2.266-0.692,3.777-1.133,6.043l-0.126,0.063c-0.378,3.903-1.888,7.932-2.266,12.023l-0.063-0.315
							c0.063,0.629-0.567,2.392-0.126,2.203l-0.252,0.692c-0.063,2.77-1.196,4.847-1.511,8.246l-0.063-0.252
							c-0.126,0.881-0.252,1.951-0.441,2.581c0-0.126,0-0.063,0-0.252c-0.189,0.692-0.378,1.385-0.567,2.077
							c-0.063,0.378-0.126,0.692-0.189,1.07c-0.063,0.315-0.126,0.629-0.126,0.944c-0.692-0.063-1.385-0.126-2.077-0.189
							c-0.755-0.063-1.511-0.126-2.266-0.252l0.378-0.126c-1.448,0-4.029-0.504-5.917-0.692l0.126-0.063h-0.944v-0.126
							C145.068,100.398,142.802,100.272,140.41,99.957z"/>
						<path fill="#EF782C" d="M115.922,96.81C115.922,96.873,115.922,96.873,115.922,96.81
							C115.985,96.873,115.985,96.873,115.922,96.81z"/>
						<path fill="#EF782C" d="M82.056,89.13c-0.063,0.126-0.063,0.189-0.126,0.315C81.993,89.382,82.056,89.193,82.056,89.13z"/>
					</g>
				</g>
			</g>
		</g>
	</g>
	<g>
		<path fill="#FFFFFF" d="M16.714,101.468v3.273c0,0,0.378,1.07,4.469,2.203c0.063,0.063,76.861,15.108,76.861,15.108
			s2.203,0.504,4.595-0.189c0,0.063,56.151-11.834,56.151-11.834l-0.063-4.155l-55.962,1.322l-64.397-5.665L16.714,101.468z"/>
		<g>
			<g>
				<g>
					<g>
						<polygon fill="#EF782C" points="16.651,102.286 16.84,102.349 17.155,102.223 						"/>
						<path fill="#EF782C" d="M19.043,102.034c-0.063,0-0.063-0.063-0.126-0.063l-1.385,0.378
							C18.162,102.538,18.666,101.909,19.043,102.034z"/>
						<path fill="#EF782C" d="M19.484,102.034c0.567,0.063,0.755-0.063,0.881-0.126C20.177,102.034,19.358,101.846,19.484,102.034z"
							/>
						<path fill="#EF782C" d="M67.011,104.615c-0.063,0-0.126,0-0.189,0C66.885,104.615,66.948,104.615,67.011,104.615z"/>
						<path fill="#EF782C" d="M79.412,105.119l0.126-0.126c-2.329,0.063-4.91-0.441-7.365-0.567l0.189-0.063
							c-6.169-0.629-11.96-0.881-18.129-1.322c0.126,0,0.126-0.063,0.252-0.063c-0.315,0-0.629,0.063-0.944,0.063
							c-0.063-0.063,0.126-0.063,0.189-0.063c-1.259-0.315-3.84-0.189-4.595-0.441c-0.378,0-0.567,0.063-0.315,0.189
							c-3.399-0.252-6.987-0.567-10.45-0.755c-1.448,0.063-2.959,0.063-4.406,0.126c-0.252-0.063-0.252-0.126-0.189-0.189
							c-4.218,0.378-8.624,0.189-12.905,0.063c-0.189,0.126,0.441,0.126,0,0.189c1.385,0.126,2.518-0.252,3.777-0.063l-0.189,0.063
							c0.944,0.063,0.189-0.252,1.133-0.126c0.378,0.063-0.063,0.126,0.063,0.126c1.951,0,3.966,0.063,5.791-0.126
							c0.441,0.189,2.077,0,2.833,0.252c0.504-0.063,1.007-0.063,1.196-0.189c0.944,0,1.888,0,2.896,0.063
							c5.791,0.504,11.772,0.944,17.689,1.448c3.273-0.126,7.113,0.692,11.016,0.881c0,0,0,0,0,0.063
							c1.259,0,3.085,0.126,4.595,0.315l1.259-0.063c9.002,1.133,18.255,1.7,27.383,2.644c0.818,0.063,1.7,0.189,2.455,0.252
							c9.505-0.126,18.004-0.126,27.383-0.818c0,0.063,0.063,0.063-0.189,0.063c2.959-0.126,5.602-0.063,8.372-0.189v0.063
							c3.336-0.252,6.861-0.315,10.324-0.378c1.7-0.063,3.462-0.063,5.162-0.126c0.818-0.063,1.7-0.063,2.518-0.126
							c0.441,0,0.818-0.063,1.259-0.063c0.378,0,0.692-0.063,1.07-0.063c0,0.126,0,0.252,0,0.378c0,1.007,0,1.951,0.063,2.959v0.315
							c0,0.126,0.063,0.252-0.126,0.252l-0.692,0.126c-0.504,0.126-1.007,0.189-1.574,0.315c-2.077,0.441-4.218,0.881-6.295,1.322
							c-4.281,0.944-8.561,1.888-12.716,2.77v-0.063c-6.673,1.574-13.156,2.518-19.829,4.029c-4.91,0.881-9.883,2.266-14.856,3.336
							l0,0c-1.007,0.315-2.077,0.378-3.085,0.378c-1.07-0.063-2.077-0.315-3.022-0.567c-4.218-1.196-10.009-1.511-13.975-2.707
							c-8.183-2.203-16.241-3.399-24.613-4.658c-7.617-1.7-15.297-2.644-22.599-4.532c-1.763-0.189-3.651-0.629-5.477-1.133
							c-1.826-0.504-3.714-0.944-5.665-1.322l0.063,0.126c-0.818-0.378-2.14-0.378-3.085-0.504l0,0
							c-0.378-0.126-0.692-0.252-0.944-0.441h0.126c-0.315-0.189-0.755-0.252-1.196-0.252s-0.818-0.063-0.944-0.315l-0.189,0.063
							c-0.818-0.441-0.063-0.189-0.629-0.567c-0.252-0.126-0.189,0.126-0.629-0.315c0.063-0.126-0.063-0.252-0.126-0.441
							c0-0.252,0-0.504,0-0.755c0-0.567,0-1.07,0.252-1.133c0,0.504,0.189-0.755,0.315,0.315c0.063-0.315,0-1.826-0.189-1.7
							c-0.252-0.126-0.441-0.755-0.629,0.189l0.189,0.189c-0.189,0.315-0.063,0.252-0.189,0.378c0,1.196-0.252,1.385-0.378,2.266
							l0,0c0.063,0.252,0.063,0.504,0.252,0.755c0.063,0.126,0.189,0.189,0.315,0.315c0.063,0.063,0.126,0.126,0.252,0.189
							c0.315,0.252,0.567,0.441,0.818,0.567l0.126,0.189c0.126,0.126,0.504,0.252,0.755,0.252c0.315,0,0.504,0.063,0.252,0.126
							c0.692,0.252,1.385,0.441,2.266,0.692c-0.063-0.063-0.189-0.126-0.252-0.126c1.826,0.378,3.84,0.818,5.854,1.196
							c0.441,0,2.14,0.441,1.637,0.126c0.567,0.378,2.644,0.881,3.399,1.007c-0.063,0-0.063,0.063-0.189,0
							c0.692,0.315,1.196,0.315,1.637,0.378c0.441,0,0.881,0,1.511,0.378c0.252-0.252,2.455,0.567,3.273,0.378
							c0.126,0.126,0.189,0.189,0.126,0.189c2.455,0.504,5.162,1.133,7.176,1.574c1.826,0.063,4.281,0.944,5.854,0.881
							c1.259,0.315,3.273,0.881,5.036,1.07h-0.189c2.014,0.378,4.469,0.818,5.917,0.881c0.504,0.441,1.385,0.567,2.203,0.881
							c1.385,0.126,4.029,0.692,6.106,0.944c0.252,0.252,1.7,0.252,1.763,0.504c5.791,0.629,12.779,2.203,18.759,3.714h-0.063
							c0.818,0,1.763-0.063,2.581-0.126c0.063,0.063,0.063,0.063-0.126,0.063c1.133,0.189,2.077,0.629,3.21,0.755
							c0,0.063,0,0.063-0.189,0.063c0.504,0.063,1.07,0.189,1.637,0.378c0.567,0.189,1.196,0.252,1.888,0.189l0.063,0.063
							c0,0,0.189,0,0.441-0.063c0.189,0,0.441-0.063,0.441-0.063c0,0.063-0.063,0.189-0.504,0.189c0.944,0,1.888-0.126,2.896-0.378
							c-0.315-0.252-0.567-0.441-0.881-0.692c0.063,0.063,0.126,0.126,0.252,0.252c0.126,0.126,0.378,0.252,0.567,0.315
							c0.252,0.063,0.441,0,0.567,0l0.252-0.063l0.818-0.189l1.637-0.378c1.07-0.252,2.14-0.504,3.273-0.692
							c2.203-0.504,4.343-1.007,6.547-1.511c4.406-1.007,8.813-2.014,13.219-2.896l-0.315,0.126l1.888-0.504
							c0,0.063-0.063,0.063-0.189,0.126c2.455-0.378,4.847-1.133,7.239-1.574c0,0.063-0.315,0.189,0,0.189
							c1.7-0.567,2.833-0.315,3.588-0.944c0.063,0,0.189,0.063,0,0.189c4.784-1.133,9.757-2.203,14.604-3.147
							c0.567-0.189,1.133-0.315,1.7-0.504c0.315-0.063,0.63-0.189,0.944-0.252l0.567-0.126v-0.629c0-0.629-0.063-1.259-0.063-1.951
							c0-0.692,0-1.385-0.063-2.14l-1.7,0.063c-0.504,0-0.944,0.063-1.448,0.063c-0.944,0.063-1.888,0.126-2.833,0.189v-0.063
							c-5.54,0.441-11.457,0.252-17.248,0.441c-2.392,0-4.029,0.189-6.421,0.189l-0.063-0.126
							c-4.029,0.504-8.498-0.126-12.716,0.378l0.315-0.126c-0.629,0.252-2.581,0-2.329,0.378l-0.755-0.063
							c-2.833,0.567-5.225-0.126-8.75,0.315l0.252-0.063c-0.881,0.063-1.826,0.126-2.518,0.126c-0.063,0-0.126,0-0.189-0.063
							c0.063,0,0.063,0,0.189,0c0,0,0,0,0.063,0h-0.063c-2.833-0.567-6.106-0.504-9.191-0.755l0.378-0.126
							c-1.511,0.063-4.218-0.378-6.169-0.441l0.126-0.063h-1.007v-0.126C84.322,105.371,81.93,105.308,79.412,105.119z"/>
						<path fill="#EF782C" d="M53.729,103.042L53.729,103.042C53.854,103.042,53.791,103.042,53.729,103.042z"/>
						<path fill="#EF782C" d="M16.022,104.993c-0.063-0.189,0-0.378,0-0.567C15.959,104.49,15.959,104.804,16.022,104.993z"/>
					</g>
				</g>
			</g>
		</g>
	</g>
	<g>
		<path fill="#FFFFFF" d="M74.061,94.355l-57.347,7.113l79.946,15.36c0,0,3.462,0.818,8.435-0.252
			c4.973-1.07,53.885-10.638,53.885-10.638L74.061,94.355z"/>
		<g>
			<g>
				<g>
					<g>
						<polygon fill="#EF782C" points="73.935,95.173 74.061,95.236 74.439,95.173 						"/>
						<path fill="#EF782C" d="M76.264,95.173c-0.063-0.063,0-0.063-0.063-0.126l-1.385,0.189
							C75.32,95.551,75.887,94.984,76.264,95.173z"/>
						<path fill="#EF782C" d="M76.642,95.299c0.504,0.189,0.755,0,0.881,0C77.335,95.362,76.579,95.047,76.642,95.299z"/>
						<path fill="#EF782C" d="M122.784,101.468c-0.063,0-0.126,0-0.189,0C122.721,101.468,122.784,101.468,122.784,101.468z"/>
						<path fill="#EF782C" d="M134.933,102.538l0.126-0.126c-2.266-0.063-4.784-0.629-7.176-0.881h0.189
							c-6.043-0.881-11.583-1.385-17.626-2.14c0.126,0,0.126-0.063,0.252-0.063c-0.315,0-0.629,0.063-0.944,0
							c-0.063-0.063,0.126-0.063,0.189-0.063c-1.259-0.378-3.714-0.378-4.469-0.629c-0.378,0-0.504,0.063-0.315,0.126
							c-4.658-0.567-9.694-1.196-14.478-1.7c-0.252-0.063-0.252-0.126-0.189-0.189c-4.155-0.189-8.372-0.944-12.527-1.511
							c-0.189,0.063,0.441,0.189,0,0.189c1.322,0.315,2.518,0.126,3.651,0.441l-0.189,0.063c0.881,0.189,0.189-0.189,1.133,0.063
							c0.378,0.126-0.126,0.126,0.063,0.126c1.888,0.189,3.84,0.567,5.665,0.567c0.441,0.252,2.014,0.252,2.707,0.567
							c0.504,0,1.007,0.063,1.196-0.063c6.547,1.007,13.345,1.7,20.081,2.644c3.21,0.063,6.924,1.007,10.701,1.385v0.063
							c1.259,0.063,3.022,0.252,4.469,0.504h1.259c4.344,0.755,8.813,1.385,13.219,2.014c2.203,0.315,4.469,0.629,6.673,0.881
							l3.336,0.441l1.7,0.252l0.818,0.126c0.189,0,0.315,0.063,0.441,0.063c0.378,0.063,0.755,0.126,0.944,0.189
							c-0.378,0.063-0.755,0.126-1.133,0.189c-0.378,0.063-0.755,0.126-1.133,0.189c-0.944,0.189-1.826,0.315-2.77,0.504
							c-1.826,0.378-3.651,0.692-5.477,1.07c-3.651,0.755-7.302,1.574-11.079,2.518c0-0.063-0.063-0.063,0.189-0.126
							c-2.77,0.629-5.414,1.007-8.058,1.574v-0.063c-6.484,1.637-13.723,2.644-19.955,4.281c-0.944,0.189-1.951,0.378-2.959,0.567
							c-0.504,0.063-1.007,0.126-1.511,0.189c-0.504,0.063-1.007,0.063-1.511,0.063c-1.007,0-2.077-0.063-3.085-0.189
							c-1.007-0.189-2.077-0.378-3.085-0.567c-4.155-0.755-8.435-1.574-12.527-2.266l0.063-0.063
							c-6.61-1.07-12.842-2.707-19.388-3.84c-6.673-1.448-13.912-2.203-20.647-3.714c-4.092-1.196-9.757-1.448-13.66-2.581
							c-1.385-0.378-2.77-0.692-4.155-1.07l-1.888-0.441l-1.385-0.315c-0.629-0.126-1.196-0.252-1.951-0.378l1.763-0.252
							c3.085-0.504,6.232-1.07,9.379-1.574c7.554-0.692,15.045-2.203,22.347-2.707c3.399-0.692,7.302-0.567,11.142-1.133
							l-0.126-0.063c1.448,0.126,3.022-0.818,3.966-0.441l-0.126,0.063c0.755,0.126,1.637-0.755,2.14-0.504l0.126-0.126
							c0.881-0.126,0.126,0.126,0.818,0.063c0.252-0.063,0.063-0.189,0.629-0.189c0.189,0.441,2.14-0.378,2.266,0.126
							c-0.504,0.063,0.755,0.126-0.315,0.315c0.315,0,1.826-0.189,1.637-0.378c0.126-0.252,0.629-0.504-0.252-0.567l-0.189,0.189
							c-0.315-0.126-0.252-0.063-0.378-0.189c-1.196,0.126-1.385-0.126-2.203-0.063l0,0c-0.567,0.252-1.385,0.252-1.826,0.252
							l-0.189-0.063c-0.315-0.189-1.322,0.567-1.007,0.189c-2.392,0.378-5.162,0.692-7.806,1.07
							c-0.378,0.189-2.077,0.252-1.448,0.441c-0.692-0.189-2.707,0-3.462,0.063c0,0,0.063-0.063,0.189-0.063
							c-1.511-0.189-1.637,0.567-3.085,0.252c-0.189,0.315-2.455,0.189-3.147,0.692c-0.189-0.063-0.252-0.126-0.189-0.189
							c-2.392,0.315-5.099,0.504-7.176,0.755c-1.7,0.504-4.281,0.378-5.728,0.944c-1.259,0.063-3.273,0.189-5.036,0.567l0.189-0.063
							c-1.951,0.252-4.406,0.567-5.728,1.007c-0.629-0.315-1.448-0.126-2.329-0.126c-0.252,0.063-0.504,0.126-0.755,0.189
							c-0.063,0-0.126,0-0.252,0.063c-0.126,0-0.189,0.063-0.315,0.063c-0.315,0.063-0.629,0.063-0.944,0.126
							c-1.259,0.189-2.581,0.378-3.966,0.567c-0.063,0.189-0.189,0.378-0.315,0.567c-0.126,0-0.189,0.126-0.252,0.189
							c0.126,0.126,0.252,0.252,0.063,0.315c0.126,0.189,0.315,0.315,0.629,0.504c5.602,0.944,7.239,1.196,10.261,1.826
							c2.833,0.567,5.602,1.259,8.246,1.888h-0.063c0.818,0,1.763-0.126,2.581-0.126c0.063,0.063,0.063,0.063-0.126,0.063
							c1.07,0.189,2.077,0.567,3.147,0.755c0,0.063,0,0.063-0.189,0.063c1.007,0.063,2.077,0.567,3.273,0.629l0.063,0.063
							l0.755,0.063c-0.063,0.063-0.063,0.189-0.504,0.063c9.254,1.888,18.948,3.273,28.453,5.162h-0.378l1.888,0.252
							c0,0.063-0.126,0.063-0.189,0.063c2.329,0.567,4.847,0.818,7.113,1.322c0,0.063-0.378,0.063-0.063,0.126
							c1.763,0.126,2.644,0.818,3.588,0.504c0.063,0.063,0.126,0.126-0.063,0.126c2.392,0.378,4.784,0.818,7.176,1.259
							c1.196,0.252,2.392,0.441,3.588,0.692c1.196,0.252,2.455,0.441,3.714,0.441c1.007-0.063,2.077-0.189,3.147-0.378
							c0.504-0.063,1.07-0.189,1.574-0.252c0.504-0.126,1.07-0.189,1.574-0.315c2.14-0.441,4.281-0.818,6.295-1.385v0.063
							c5.288-1.322,11.016-2.14,16.493-3.273c2.329-0.441,3.84-0.818,6.106-1.259l0.063,0.063c3.777-1.133,8.246-1.259,12.212-2.455
							l-0.252,0.189c0.567-0.315,2.455-0.378,2.14-0.692h0.755c1.07-0.441,2.14-0.629,3.21-0.755
							c0.567-0.063,1.07-0.126,1.637-0.252c0.567-0.063,1.259-0.189,1.888-0.315c0.252-0.063,0.504-0.126,0.755-0.189
							c0.126-0.063,0.252-0.063,0.378-0.126c0.126-0.063,0.189-0.063,0.252-0.063h0.063h-0.063c0.189-0.063,0.378-0.126,0.629-0.126
							c0.126,0,0.189-0.063,0.252-0.063c-0.126,0-0.252,0-0.378-0.063c-0.504-0.063-0.881-0.126-1.07-0.189c0.126,0,0.126,0,0.378,0
							c-0.315-0.063-0.567-0.189-0.881-0.252c-1.259-0.252-3.21-0.441-4.343-0.567c-1.322-0.126-2.581-0.252-3.84-0.441l0.378-0.126
							c-1.448,0-4.092-0.567-6.043-0.692l0.126-0.063h-1.007v-0.126C139.654,103.042,137.325,102.853,134.933,102.538z"/>
						<path fill="#EF782C" d="M109.942,99.328L109.942,99.328C110.068,99.328,110.005,99.328,109.942,99.328z"/>
						<path fill="#EF782C" d="M70.725,94.04c0.126,0,0.189,0,0.315,0C71.04,93.977,70.851,94.04,70.725,94.04z"/>
					</g>
				</g>
			</g>
		</g>
	</g>
	<g>
		<polygon fill="#FFFFFF" points="43.845,105.497 64.052,102.538 89.484,106.63 68.962,110.155 		"/>
		<g>
			<g>
				<g>
					<g>
						<polygon fill="#EF782C" points="43.657,106.315 43.72,106.378 43.845,106.252 						"/>
						<path fill="#EF782C" d="M44.475,106.189v-0.063l-0.504,0.315C44.097,106.63,44.349,106,44.475,106.189z"/>
						<path fill="#EF782C" d="M44.601,106.252c0.126,0.126,0.252-0.063,0.315-0.063C44.79,106.252,44.601,106.063,44.601,106.252z"
							/>
						<path fill="#EF782C" d="M59.268,108.833L59.268,108.833C59.268,108.896,59.268,108.896,59.268,108.833z"/>
						<path fill="#EF782C" d="M63.234,108.959l0.063-0.126c-0.755,0.126-1.511-0.315-2.329-0.315l0.063-0.063
							c-1.888-0.378-3.714-0.504-5.665-0.755c0.063,0,0.063-0.063,0.063-0.063c-0.126,0-0.189,0.126-0.315,0.063
							c0-0.063,0.063-0.063,0.063-0.063c-0.378-0.315-1.196-0.063-1.448-0.315c-0.126,0-0.189,0.063-0.126,0.189
							c-1.511-0.189-3.085-0.441-4.658-0.567c-0.063-0.063-0.063-0.126-0.063-0.189c-1.385,0.126-2.707-0.252-4.029-0.567
							c-0.063,0.063,0.126,0.126-0.063,0.189c0.378,0.189,0.818-0.063,1.196,0.126l-0.063,0.063
							c0.252,0.126,0.126-0.252,0.378-0.063c0.126,0.126-0.063,0.126,0,0.126c0.629,0.063,1.196,0.252,1.826,0.126
							c0.126,0.252,0.629,0.126,0.818,0.378c0.189-0.063,0.315,0,0.378-0.126c2.077,0.504,4.281,0.692,6.421,1.133
							c1.07-0.189,2.203,0.504,3.399,0.567c0,0,0,0,0,0.063c0.378,0,1.007,0.063,1.448,0.189l0.441-0.063
							c1.259,0.378,2.518,0.692,3.84,0.881l1.951,0.378l0.944,0.189l1.07,0.189l0.441-0.063l0.378-0.063
							c3.273-0.441,6.106-0.629,9.191-1.7c0,0.063,0.063,0.063-0.063,0.063c0.881-0.252,1.763-0.252,2.581-0.441v0.063
							c0.881-0.315,1.763-0.441,2.707-0.629c1.133-0.189,2.518-0.378,3.462-0.629c0.189-0.063,0.378-0.189,0.504-0.252
							c0.441-0.126,0.881-0.189,1.385-0.315c-0.692-0.126-1.448-0.315-2.266-0.504c-1.448-0.189-2.959-0.441-4.092-0.567v-0.063
							c-2.14-0.189-4.092-0.944-6.232-1.133c-2.14-0.504-4.532-0.252-6.673-0.881c-1.322-0.629-3.21-0.063-4.406-0.692
							c-0.315-0.126-0.567-0.189-0.881-0.315l-0.441-0.126c-0.126-0.063-0.252-0.063-0.504-0.126l-0.441,0.063l-0.378,0.063
							c-0.252,0-0.504,0.063-0.755,0.126c-0.504,0.063-1.007,0.189-1.511,0.315c-1.007,0.252-1.951,0.504-2.959,0.818
							c-2.455,0.126-4.784,1.07-7.176,0.944c-1.07,0.441-2.392,0-3.588,0.252l0.063,0.063c-0.504-0.252-0.944,0.567-1.259,0.189
							h0.063c-0.252-0.189-0.441,0.629-0.629,0.378v0.126c-0.252,0.063-0.063-0.126-0.252-0.126c-0.063,0,0,0.189-0.189,0.189
							c-0.126-0.441-0.692,0.189-0.755-0.315c0.126,0-0.252-0.189,0.063-0.315c-0.126-0.063-0.567,0.063-0.504,0.252
							c0,0.252-0.189,0.441,0.126,0.567l0.063-0.189c0.126,0.126,0.063,0.063,0.126,0.189c0.378-0.063,0.441,0.189,0.755,0.252l0,0
							c0.126-0.252,0.441-0.126,0.567-0.126l0.126,0.063c0.126,0.189,0.378-0.441,0.315-0.063c0.755-0.189,1.637-0.315,2.518-0.441
							c0.126-0.126,0.629-0.063,0.441-0.315c0.252,0.252,0.881,0.252,1.133,0.189c0,0,0,0.063-0.063,0.063
							c0.504,0.315,0.504-0.441,1.007-0.063c0-0.315,0.818,0,1.007-0.441c0.063,0.063,0.063,0.126,0.063,0.189
							c0.755-0.126,1.637-0.126,2.329-0.189c0.504-0.378,1.385-0.063,1.826-0.504c0.441,0,1.07,0.063,1.637-0.126l-0.063,0.063
							c0.629-0.126,1.385-0.252,1.826-0.567c0.252,0.315,0.504,0.252,0.818,0.315c0.378-0.252,1.259-0.315,1.888-0.567
							c0.126,0.126,0.504-0.126,0.567,0.063c0.252-0.126,0.504-0.189,0.755-0.252c0.126-0.063,0.252-0.063,0.378-0.126
							s0.315-0.063,0.315-0.063h0.063h0.126l0.252,0.063c0.189,0,0.378,0.063,0.567,0.063c0.378,0.063,0.755,0.126,1.133,0.252
							c0.755,0.189,1.448,0.378,2.14,0.629l0,0c0.252-0.063,0.629-0.315,0.881-0.441c0,0,0,0.063-0.063,0.063
							c0.378,0,0.629,0.315,1.007,0.315c0,0.063,0,0.063-0.063,0.063c0.315-0.063,0.629,0.315,1.07,0.189v0.063l0.252-0.063
							c0,0.063-0.063,0.189-0.189,0.126c2.959,0.567,6.169,0.629,9.254,1.196l-0.126,0.063l0.629-0.063
							c0,0.063-0.063,0.063-0.063,0.063c0.755,0.252,1.574,0.189,2.329,0.315c0,0.063-0.126,0.126-0.063,0.126
							c0.315-0.063,0.504,0.063,0.692,0.126s0.315,0.126,0.441-0.126c0,0,0,0.126-0.063,0.126c0.378,0,0.944,0,1.385,0.126
							c0.378,0.063,0.692,0.126,0.818,0.189c0.378,0,0.755,0,1.007,0.063c0.189,0.063-0.126,0.126-0.378,0.189
							c-0.315,0.063-0.629,0.126-0.881,0.189c-0.126,0.063-0.252,0.126-0.378,0.189l-0.189-0.063
							c-0.189,0.126-0.567,0.189-0.944,0.315c-0.378,0.063-0.881,0.126-1.322,0.189c-0.881,0.126-1.826,0.189-2.707,0.378
							c-0.755,0.063-1.259,0.252-1.951,0.378l-0.063-0.126c-1.196,0.567-2.707,0.126-3.903,0.755l0.063-0.126
							c-0.189,0.252-0.818,0.063-0.692,0.441l-0.252-0.063c-0.818,0.629-1.637,0.063-2.707,0.567l0.063-0.126
							c-0.252,0.126-0.629,0.252-0.818,0.189c0,0,0-0.063,0.063-0.063c-0.504-0.126-1.07,0-1.511,0.189
							c-0.378,0-0.881-0.063-1.322-0.126l0.126-0.126c-0.504,0.126-1.322-0.252-1.951-0.252l0.063-0.063l-0.315,0.063V109.4
							C64.808,109.148,63.989,109.085,63.234,108.959z"/>
						<path fill="#EF782C" d="M55.239,107.7L55.239,107.7C55.302,107.7,55.302,107.7,55.239,107.7z"/>
						<path fill="#EF782C" d="M44.979,106.063c-0.063,0-0.063,0-0.126,0C44.853,106.063,44.916,106.063,44.979,106.063z"/>
					</g>
				</g>
			</g>
		</g>
	</g>
	<path fill="#EDEDED" d="M16.714,104.741l81.771,16.367c0,0,2.266,0.252,3.399-0.252c0.063,0.252,56.78-11.897,56.78-11.897
		l0.063,1.196l-56.403,12.149c0,0-2.014,0.315-4.343-0.189c-2.329-0.504-77.302-15.108-77.302-15.108S16.84,105.748,16.714,104.741z
		"/>
	<g>
		<polygon fill="#EDEDED" points="50.015,98.761 121.147,110.533 146.831,105.623 75.446,95.74 		"/>
		<g>
			<g>
				<g>
					<g>
						<polygon fill="#EF782C" points="50.077,99.579 50.203,99.642 50.392,99.454 						"/>
						<path fill="#EF782C" d="M51.651,99.139c-0.063,0,0-0.063-0.063-0.063l-0.881,0.504C51.085,99.705,51.336,99.013,51.651,99.139
							z"/>
						<path fill="#EF782C" d="M51.903,99.139c0.378,0.063,0.504-0.126,0.567-0.189C52.344,99.076,51.777,98.95,51.903,99.139z"/>
						<path fill="#EF782C" d="M83.189,97.313c-0.063,0-0.063,0-0.126,0C83.126,97.313,83.189,97.313,83.189,97.313z"/>
						<path fill="#EF782C" d="M91.435,97.88l0.126-0.126c-1.574,0.063-3.273-0.441-4.847-0.567l0.126-0.063
							c-3.84-0.567-7.491-0.881-11.331-1.322c-0.189,0-0.378,0.063-0.629,0.063c0.063,0,0.063-0.063,0.126-0.063
							c-0.189,0.063-0.378,0.189-0.629,0.189c-0.063,0,0.063-0.063,0.126-0.063c-0.881-0.126-2.518,0.441-3.085,0.315
							c-0.252,0.063-0.315,0.189-0.189,0.189c-3.21,0.441-6.61,0.881-9.82,1.448c-0.189,0-0.189-0.063-0.189-0.126
							c-2.707,0.692-5.665,0.881-8.498,1.196c-0.126,0.126,0.315,0.063,0.063,0.189c0.944,0,1.637-0.441,2.518-0.378l-0.126,0.126
							c0.629,0,0.063-0.252,0.755-0.189c0.252,0.063-0.063,0.126,0.063,0.126c1.259-0.189,2.644-0.252,3.777-0.629
							c0.315,0.189,1.385-0.126,1.888,0c0.315-0.126,0.629-0.126,0.755-0.315c2.14-0.189,4.344-0.504,6.484-0.755
							c1.07-0.126,2.203-0.315,3.273-0.441c1.07-0.126,2.14-0.252,3.21-0.441l0.504,0.063c2.203-0.126,4.721,0.755,7.239,0.944
							c0,0,0,0,0,0.063c0.818,0,2.077,0.126,3.022,0.315l0.881-0.063c5.917,1.196,12.023,1.763,18.066,2.77
							c6.861,1.07,12.842,2.14,19.64,2.581c0,0.063,0.063,0.063-0.126,0.063c1.951,0.189,3.714,0.567,5.54,0.755v0.063
							c2.266,0.126,4.658,0.504,6.987,0.818c1.133,0.189,2.329,0.315,3.462,0.441c0.315,0.063,0.567,0.063,0.881,0.126
							c0.189,0,0.441,0.063,0.63,0.063c0.504,0.063,1.007,0.063,1.511,0.126c0.063,0,0.126,0,0.189,0
							c0.692,0.126,1.385,0.189,2.203,0.315c-0.692,0.126-1.448,0.252-2.203,0.441c-1.637,0.315-3.399,0.692-5.162,1.007
							c-1.888,0.378-3.777,0.755-5.665,1.133v-0.063c-2.014,0.441-3.966,0.818-5.917,1.133c-1.007,0.189-1.951,0.315-2.959,0.504
							l-1.511,0.252c-0.504,0.063-0.944,0.189-1.448,0.252c-0.441-0.063-0.881-0.126-1.322-0.189
							c-4.532-0.944-9.505-1.133-14.101-2.14c-2.77-0.881-6.673-0.629-9.316-1.511c-5.414-1.511-10.827-2.014-16.43-2.581
							c-5.036-1.07-10.261-1.322-15.108-2.581c-2.392-0.126-4.847-1.133-7.491-1.511l0.063,0.126
							c-0.881-0.441-2.14,0.063-2.644-0.441h0.126c-0.441-0.315-1.259,0.315-1.511,0l-0.126,0.126
							c-0.629-0.063-0.063-0.126-0.504-0.252c-0.189,0-0.126,0.189-0.441,0.063c0-0.441-1.511-0.126-1.448-0.629
							c0.315,0.063-0.504-0.252,0.252-0.252c-0.189-0.063-1.196-0.252-1.133,0c-0.126,0.189-0.567,0.315,0.063,0.629l0.126-0.126
							c0.189,0.189,0.126,0.126,0.189,0.252c0.818,0.126,0.881,0.441,1.385,0.629l0,0c0.441-0.126,0.944,0.063,1.259,0.126
							l0.126,0.126c0.126,0.252,0.944-0.252,0.692,0.063c1.637,0.189,3.462,0.504,5.288,0.818c0.252-0.063,1.385,0.252,1.007-0.063
							c0.378,0.378,1.763,0.629,2.266,0.692c0,0-0.063,0.063-0.126,0c0.881,0.504,1.196-0.126,2.014,0.441
							c0.189-0.315,1.637,0.378,2.203,0.063c0.126,0.063,0.126,0.126,0.063,0.189c1.637,0.252,3.399,0.692,4.784,0.944
							c1.259-0.063,2.833,0.567,3.903,0.378c0.818,0.189,2.14,0.629,3.399,0.629h-0.126c1.322,0.189,3.022,0.441,3.966,0.378
							c0.315,0.441,0.944,0.441,1.448,0.629c0.944,0,2.707,0.315,4.092,0.378c0.189,0.189,1.133,0.126,1.133,0.378
							c3.84,0.189,8.498,1.133,12.527,2.14h-0.063c0.567-0.063,1.196-0.252,1.763-0.315c0.063,0,0.063,0.063-0.063,0.063
							c0.755,0.063,1.385,0.441,2.14,0.504c0,0.063,0,0.063-0.126,0.063c0.692,0,1.385,0.441,2.266,0.378l0.063,0.063h0.504
							c0,0.063-0.063,0.189-0.315,0.126c2.14,0.378,4.343,0.692,6.547,1.007c2.203,0.315,4.469,0.629,6.736,0.944
							c1.07-0.252,2.14-0.441,3.21-0.692c1.07-0.189,2.077-0.441,3.147-0.629l-0.252,0.126l1.259-0.378
							c0,0.063-0.063,0.063-0.126,0.126c1.637-0.189,3.273-0.692,4.784-1.007c0,0.063-0.252,0.189,0,0.189
							c1.133-0.441,1.888-0.063,2.392-0.629c0.063,0,0.126,0.126,0,0.189c1.448-0.315,2.833-0.629,4.281-0.944l2.392-0.441
							c1.07-0.189,2.203-0.378,3.273-0.629c0.189-0.063,0.378-0.189,0.567-0.252c0.063-0.126,0.378-0.315,0.692-0.441
							c-0.567-0.189-1.322-0.315-1.951-0.504c-0.944-0.126-1.888-0.252-2.77-0.378l-0.692-0.063l-0.567-0.063
							c-0.378,0-0.692-0.063-1.07-0.063v-0.063c-3.714-0.252-7.554-1.07-11.331-1.511c-1.574-0.252-2.644-0.315-4.218-0.504v-0.126
							c-2.707,0-5.54-1.133-8.372-1.07l0.189-0.126c-0.441,0.126-1.7-0.315-1.574,0.063l-0.504-0.189
							c-1.951,0.252-3.399-0.692-5.791-0.692l0.189-0.063c-0.629,0-1.322-0.063-1.763-0.189c0.063,0,0.063-0.063,0.189-0.063
							c-1.888-0.629-4.092-0.504-6.106-0.818l0.252-0.126c-1.007,0.063-2.77-0.378-4.092-0.441l0.063-0.063h-0.692v-0.126
							C94.709,98.132,93.072,98.069,91.435,97.88z"/>
						<path fill="#EF782C" d="M74.502,95.928L74.502,95.928C74.565,95.928,74.502,95.928,74.502,95.928z"/>
						<path fill="#EF782C" d="M52.029,99.831c-0.063,0-0.126-0.063-0.189-0.063C51.84,99.768,51.966,99.831,52.029,99.831z"/>
					</g>
				</g>
			</g>
		</g>
	</g>
	<g>
		<g>
			<g>
				<path fill="#EF782C" d="M116.993,76.288c-1.951-0.189-4.029,0.504-5.917,1.888c-0.567,0.378-0.818,1.07-0.567,1.574l2.707,5.288
					c0.126,0.252,0.315,0.378,0.567,0.378s0.567-0.063,0.818-0.252l6.106-4.469c0.252-0.189,0.441-0.441,0.567-0.755
					c0.126-0.315,0.126-0.629,0-0.818C120.455,77.484,118.881,76.477,116.993,76.288z"/>
				<g>
					<g>
						<g>
							<g>
								<polygon fill="#EF782C" points="116.678,77.17 116.678,77.17 116.741,77.044 								"/>
								<path fill="#EF782C" d="M116.993,76.855v-0.063l-0.252,0.378C116.741,77.358,116.993,76.729,116.993,76.855z"/>
								<path fill="#EF782C" d="M116.993,76.918c0,0.126,0.126-0.063,0.126-0.126C117.056,76.918,117.056,76.729,116.993,76.918z"/>
								<path fill="#EF782C" d="M120.455,78.932C120.455,78.869,120.455,78.869,120.455,78.932L120.455,78.932z"/>
								<path fill="#EF782C" d="M121.462,79.562h0.126c-0.126-0.126-0.126-0.252-0.126-0.378c0-0.126-0.063-0.252-0.126-0.315h0.063
									c-0.126-0.252-0.315-0.504-0.567-0.629c-0.189-0.189-0.504-0.315-0.755-0.441l0.063-0.063c-0.063,0-0.126,0.063-0.189,0.063
									c0-0.063,0.063-0.063,0.063-0.063c0.126-0.315-0.378-0.063-0.315-0.315c-0.063,0-0.126,0.063-0.189,0.126
									c-0.189-0.126-0.378-0.189-0.629-0.252c-0.189-0.063-0.441-0.126-0.692-0.126c0-0.063,0.063-0.126,0.063-0.189
									c-0.252,0.126-0.504,0.126-0.692,0.063c-0.189-0.063-0.315-0.126-0.504-0.189c-0.063,0.126,0,0.126-0.063,0.189
									c0.063,0.126,0.315-0.252,0.378,0l-0.063,0.063c0.063,0.063,0.126-0.252,0.126-0.063c0,0.063-0.063,0.126-0.063,0.126
									c0.189,0,0.315,0.126,0.567-0.063c-0.063,0.252,0.189,0.063,0.126,0.315c0.063-0.063,0.126,0,0.189-0.126
									c0.441,0.315,1.07,0.441,1.511,0.881c0.567-0.126,0.315,0.504,0.629,0.692c0,0,0,0-0.063,0c0.126,0,0.252,0.126,0.315,0.252
									h0.252c0,0.252,0,0.378-0.063,0.567c-0.063,0.126-0.126,0.315-0.189,0.441c-0.126,0.189-0.692,0.567-1.133,0.818
									c-1.007,0.629-2.014,1.07-2.707,2.14c0-0.063-0.063-0.063,0-0.063c-0.252,0.252-0.567,0.315-0.755,0.567v-0.063
									c-0.252,0.378-0.567,0.629-0.944,0.818c-0.315,0.252-0.629,0.504-0.881,0.755c-0.378,0.126-0.755,0-0.944-0.252
									c-0.189-0.315-0.441-0.692-0.629-1.007l0.063-0.063c-0.441-0.441-0.315-1.259-0.692-1.763
									c-0.126-0.692-1.07-0.881-1.133-1.637c0.126-0.315-0.126-0.441-0.315-0.567c-0.126-0.063-0.189-0.126-0.252-0.252
									c-0.063-0.126-0.063-0.252,0.063-0.378c0.315-0.504,0.504-0.692,0.755-1.007c0.315-0.315,0.629-0.755,1.007-1.133
									c0.189-0.063,0.441-0.189,0.629-0.252c0.189-0.126,0.378-0.252,0.629-0.315c0.189-0.126,0.441-0.189,0.629-0.252
									c0.189-0.063,0.441-0.063,0.629,0c0.189-0.189,0.378-0.126,0.567-0.063c0.189,0.063,0.378,0.189,0.567,0.126v-0.126
									c0.063,0.315,0.441-0.441,0.441,0l0,0c0,0.252,0.315-0.567,0.315-0.252l0.063-0.126c0.126,0,0,0.126,0.063,0.189
									c0,0,0.063-0.189,0.126-0.126c-0.126,0.504,0.252-0.063,0.126,0.441c-0.063,0,0,0.189-0.126,0.315
									c0,0.063,0.189,0.063,0.252-0.189c0.126-0.252,0.252-0.441,0.189-0.629l-0.063,0.189c0-0.189,0-0.063,0.063-0.189
									c-0.126,0-0.063-0.252-0.126-0.378l0,0c-0.126,0.189-0.189,0.063-0.252,0.063v-0.126c0-0.189-0.252,0.378-0.126,0.063
									c-0.315,0.063-0.629,0.126-0.944,0.126c-0.063,0.126-0.252,0-0.189,0.252c-0.063-0.252-0.252-0.315-0.378-0.252V75.47
									c-0.189-0.315-0.189,0.378-0.378-0.063c0,0.315-0.315,0-0.378,0.378c0-0.063-0.063-0.126,0-0.189
									c-0.315,0.063-0.629,0.063-0.881,0.126c-0.189,0.315-0.567,0.063-0.629,0.504c-0.189,0-0.441-0.063-0.629,0.189v-0.063
									c-0.189,0.126-0.504,0.315-0.567,0.629c-0.189-0.252-0.252-0.126-0.441-0.189c-0.063,0.252-0.378,0.378-0.567,0.692
									c-0.126-0.063-0.189,0.252-0.378,0.126c-0.252,0.567-0.378,1.007-0.441,1.511c-0.063,0.252,0,0.504,0,0.755
									c0,0.189,0,0.378,0,0.567l0,0c0.189,0,0.504-0.126,0.692-0.189c0,0-0.063,0.063-0.063,0c0.063,0.063-0.126,0.315,0,0.378
									c-0.063,0-0.063,0-0.063,0.063c0.126,0-0.126,0.315,0.126,0.252l-0.063,0.063h0.126c-0.063,0.063-0.189,0.126-0.189,0.063
									c0.315,0.818,1.133,1.385,1.511,2.266h-0.063l0.189,0.063c-0.063,0-0.063,0-0.063,0.063
									c-0.063,0.315,0.315,0.378,0.378,0.567c-0.063,0-0.126,0.063-0.189,0.126c0.315,0-0.189,0.441,0.315,0.189
									c0,0-0.126,0.063-0.189,0.126c0.189,0.126,0.315,0.315,0.441,0.567c0.063,0.063,0.126,0.252,0.252,0.378
									c0.126,0.126,0.252,0.252,0.378,0.315c0.378-0.126,0.629-0.126,0.944-0.252c0.126-0.063,0.315-0.126,0.441-0.252
									c0.126-0.063,0.189-0.189,0.252-0.315l0.063,0.063c0.378-0.629,1.07-0.755,1.574-1.196c0.252-0.126,0.315-0.315,0.567-0.504
									l0.063,0.063c0.189-0.567,0.944-0.315,1.133-0.944l0.063,0.126c-0.063-0.189,0.252-0.126,0.063-0.378l0.126,0.063
									c0-0.567,0.629-0.189,0.755-0.692v0.063c0.063-0.126,0.126-0.252,0.252-0.189v0.063c0.441,0.063,0.567-0.441,0.881-0.629
									l0.063,0.126c0-0.126,0.126-0.189,0.252-0.252c0.126-0.063,0.252-0.189,0.315-0.315l0.063,0.063v-0.126l0.126,0.063
									C121.462,80.191,121.462,79.876,121.462,79.562z"/>
								<path fill="#EF782C" d="M120.077,77.673L120.077,77.673L120.077,77.673z"/>
								<path fill="#EF782C" d="M116.867,75.533L116.867,75.533L116.867,75.533z"/>
							</g>
						</g>
					</g>
				</g>
			</g>
			<g>
				<path fill="#EF782C" d="M107.361,71.189c-1.322,0.944-1.888,2.644-1.259,3.714c0.567,1.133,2.14,1.259,3.462,0.315
					c5.791-4.218,12.59-3.714,15.171,1.385c0.315,0.567,0.818,0.881,1.448,0.944s1.322-0.126,2.014-0.629
					c1.322-1.007,1.951-2.77,1.385-3.903C125.743,65.65,115.797,64.957,107.361,71.189z"/>
				<g>
					<g>
						<g>
							<g>
								<polygon fill="#EF782C" points="107.802,71.819 107.865,71.819 107.865,71.693 								"/>
								<path fill="#EF782C" d="M108.054,71.315C108.054,71.252,108.054,71.252,108.054,71.315l-0.126,0.378
									C108.18,71.756,107.928,71.252,108.054,71.315z"/>
								<path fill="#EF782C" d="M108.18,71.252c0.126,0,0.126-0.189,0.063-0.252C108.306,71.189,108.054,71.126,108.18,71.252z"/>
								<path fill="#EF782C" d="M117.496,67.601C117.496,67.601,117.433,67.601,117.496,67.601
									C117.433,67.601,117.496,67.601,117.496,67.601z"/>
								<path fill="#EF782C" d="M120.14,66.909l0.063-0.126c-0.567,0.252-1.007,0-1.511,0.063l0.063-0.063
									c-0.629,0.063-1.259,0.126-1.888,0.252c-0.629,0.189-1.259,0.315-1.888,0.567c0,0,0-0.063,0.063-0.063
									c-0.063,0.063-0.126,0.189-0.189,0.189c0,0,0-0.063,0.063-0.063c-0.252-0.126-0.818,0.378-0.944,0.252
									c-0.063,0.063-0.126,0.189-0.063,0.189c-0.504,0.189-1.007,0.441-1.511,0.629c-0.504,0.252-1.007,0.567-1.448,0.881
									c-0.063,0-0.063-0.063-0.063-0.126c-0.692,0.755-1.574,1.07-2.392,1.574c0,0.126,0.126,0,0.126,0.189
									c0.315-0.063,0.378-0.504,0.629-0.504v0.126c0.189-0.063-0.063-0.252,0.189-0.252c0.126,0,0,0.126,0.063,0.126
									c0.378-0.252,0.755-0.378,1.007-0.755c0.126,0.126,0.378-0.252,0.567-0.126c0.063-0.126,0.189-0.126,0.189-0.252
									c0.315-0.126,0.692-0.252,1.007-0.441c0.315-0.189,0.692-0.252,1.007-0.441c0.692-0.315,1.385-0.504,2.077-0.692
									c0.315-0.315,0.692-0.315,1.07-0.315s0.755,0,1.133-0.063c0,0,0,0,0,0.063c0.252-0.126,0.629-0.189,0.944-0.189
									c0,0,0.063-0.063,0.126-0.126c0.063-0.063,0.126-0.063,0.126-0.063c1.7,0.315,3.525,0.378,4.973,1.133
									c0.441,0.189,0.755,0.441,1.133,0.692c0.378,0.189,0.692,0.504,1.007,0.755l0.504,0.378
									c0.126,0.126,0.315,0.252,0.504,0.378c0.189,0.126,0.378,0.252,0.567,0.378c0.189,0.126,0.378,0.252,0.567,0.378
									c-0.063,0-0.063,0.063-0.063,0.063c0.189,0.189,0.315,0.378,0.441,0.567c0.126,0.189,0.189,0.441,0.378,0.629h-0.063
									c0.252,0.189,0.441,0.441,0.567,0.692c0.063,0.126,0.126,0.252,0.126,0.378s0.063,0.315,0.063,0.441
									c0,0.629-0.252,1.259-0.567,1.951c-0.567,0.692-1.385,1.259-2.266,1.385c-0.441,0.063-0.818,0-1.196-0.189
									c-0.189-0.063-0.315-0.189-0.441-0.315c-0.126-0.126-0.252-0.315-0.315-0.441l0.063-0.063
									c-0.189-0.252-0.378-0.504-0.504-0.755c-0.189-0.252-0.315-0.504-0.504-0.755c-0.189-0.252-0.378-0.504-0.567-0.692
									c-0.189-0.252-0.441-0.378-0.755-0.567c-0.441-0.441-1.133-0.629-1.826-0.755c-0.692-0.126-1.385-0.126-2.077-0.378
									c-0.189-0.126-0.441-0.126-0.629-0.126c-0.252,0-0.504,0.063-0.755,0.126c-0.252,0.063-0.504,0.126-0.755,0.189
									c-0.252,0.063-0.441,0.063-0.692,0c-0.818-0.189-1.763,0.063-2.644,0.441c-0.441,0.189-0.818,0.504-1.259,0.755
									c-0.378,0.315-0.755,0.629-1.133,0.944c-0.378,0.189-0.755,0.441-1.133,0.692c-0.189,0.126-0.378,0.252-0.567,0.378
									l-0.315,0.126c-0.126,0.063-0.189,0.063-0.315,0.126c-0.441,0.126-0.881,0.126-1.259,0
									c-0.189-0.063-0.378-0.189-0.504-0.315c-0.126-0.126-0.252-0.252-0.315-0.441c-0.315-0.126-0.441-0.567-0.315-0.944
									c0-0.189,0.063-0.378,0.126-0.567c0.063-0.189,0.126-0.378,0.126-0.567h-0.126c0.189-0.126,0.126-0.252,0.126-0.441
									c0-0.126-0.063-0.315,0.252-0.315v0.063c0.252-0.063-0.252-0.504,0-0.504l-0.063-0.063c0.126-0.189,0.126,0.063,0.252-0.063
									c0-0.063-0.126-0.126,0-0.189c0.189,0.126,0.252,0,0.315-0.126c0.063-0.063,0.189-0.189,0.315,0
									c-0.063,0.063,0.252,0.063,0.126,0.252c0.063,0,0.252-0.189,0.126-0.315c-0.063-0.189-0.063-0.441-0.378-0.441l0.063,0.126
									c-0.126-0.063-0.063,0-0.189-0.126c-0.252,0.189-0.441,0.063-0.692,0.189l0,0c0.063,0.252-0.189,0.315-0.315,0.441h-0.126
									c-0.252,0,0.126,0.441-0.126,0.252c-0.315,0.567-0.567,1.259-0.629,1.888c0.126,0.063,0,0.504,0.252,0.315
									c-0.252,0.189-0.315,0.755-0.189,0.881h-0.063c-0.126,0.252,0,0.315,0.126,0.378c0.126,0.063,0.252,0.063,0.126,0.378
									c0.189-0.063,0.189,0.063,0.315,0.189c0.126,0.126,0.252,0.252,0.441,0.126c0,0.063-0.063,0.126-0.126,0.189
									c0.504,0.315,1.133,0.567,1.763,0.504c0.252-0.189,0.567-0.189,0.881-0.315c0.315-0.126,0.567-0.189,0.692-0.504
									c0.063-0.063,0.189-0.063,0.315-0.126c0.126-0.063,0.189-0.063,0.315-0.126c0.189-0.063,0.315-0.189,0.441-0.378v0.063
									c0.315-0.252,0.818-0.567,0.944-0.881c0.252,0.252,0.378,0.126,0.567,0.126c0.189-0.252,0.755-0.441,1.07-0.755
									c0.063,0.126,0.315-0.189,0.378,0.063c1.07-0.881,2.581-1.007,3.651-0.629l0,0c0.189-0.126,0.441-0.441,0.629-0.629
									c0,0,0,0.063-0.063,0.063c0.252-0.063,0.378,0.189,0.567,0.189c0,0.063,0,0.063-0.063,0.063
									c0.252-0.063,0.315,0.252,0.629,0.063v0.063l0.189-0.063c-0.063,0.063-0.126,0.189-0.189,0.189
									c0.818,0.189,1.7,0.378,2.455,0.755c0.441,0.126,0.755,0.378,1.133,0.629c0.315,0.252,0.692,0.504,0.881,0.881h-0.126
									l0.315,0.126c-0.063,0-0.063,0.063-0.063,0.063c0.126,0.441,0.567,0.629,0.755,1.007c-0.063,0-0.126,0-0.189,0.126
									c0.378,0.126,0.063,0.755,0.567,0.504c0,0-0.063,0.126-0.126,0.126c0.441,0.315,1.007,0.504,1.574,0.567
									c0.567,0.063,1.259-0.126,1.826-0.441c0.189-0.252,0.441-0.441,0.629-0.629c0.126-0.126,0.189-0.189,0.315-0.315
									l0.252-0.315c0.189-0.189,0.315-0.441,0.441-0.692c0.063-0.252,0.189-0.504,0.126-0.755h0.063
									c0.063-0.629,0.063-1.196-0.126-1.7c-0.189-0.504-0.441-1.007-0.692-1.448c-0.189-0.378-0.504-0.504-0.755-0.881
									l0.063-0.063c-0.378-0.126-0.567-0.504-0.755-0.818c-0.189-0.315-0.441-0.692-0.881-0.692l0.126-0.063
									c-0.252,0.126-0.315-0.315-0.567,0v-0.189c-0.755,0.126-0.629-0.692-1.385-0.692l0.126-0.063
									c-0.189,0-0.378-0.063-0.441-0.189l0.063-0.063c-0.315-0.504-1.07-0.378-1.637-0.567l0.126-0.126
									c-0.378,0.126-0.818-0.189-1.196-0.189l0.063-0.063l-0.252,0.063l0.252-0.504C121.147,66.846,120.644,66.909,120.14,66.909z
									"/>
								<path fill="#EF782C" d="M114.789,67.664L114.789,67.664L114.789,67.664z"/>
								<path fill="#EF782C" d="M106.291,71.252l0.063-0.063C106.354,71.189,106.354,71.252,106.291,71.252z"/>
							</g>
						</g>
					</g>
				</g>
			</g>
			<g>
				<path fill="#EF782C" d="M104.025,65.146c-1.322,0.944-1.888,2.644-1.259,3.714s2.14,1.196,3.462,0.252
					c9.757-7.239,21.403-6.484,25.683,2.014c0.315,0.567,0.818,0.881,1.448,0.944c0.629,0.063,1.322-0.189,2.014-0.692
					c1.322-1.007,1.951-2.77,1.385-3.966C131.345,56.648,116.489,55.956,104.025,65.146z"/>
				<g>
					<g>
						<g>
							<g>
								<polygon fill="#EF782C" points="104.466,65.776 104.529,65.776 104.592,65.65 								"/>
								<path fill="#EF782C" d="M104.969,65.146l-0.063-0.063l-0.189,0.504C104.969,65.65,104.78,65.146,104.969,65.146z"/>
								<path fill="#EF782C" d="M105.095,65.083c0.189,0,0.126-0.189,0.189-0.252C105.284,64.957,104.969,64.957,105.095,65.083z"/>
								<path fill="#EF782C" d="M118.377,59.544L118.377,59.544L118.377,59.544z"/>
								<path fill="#EF782C" d="M122.091,58.662l0.063-0.126c-0.755,0.252-1.385,0-2.14,0.189l0.063-0.063
									c-0.441,0-0.881,0.063-1.322,0.126c-0.441,0.063-0.881,0.189-1.322,0.315c-0.441,0.126-0.881,0.252-1.322,0.378
									c-0.441,0.189-0.881,0.315-1.322,0.504l0.063-0.063c-0.063,0.063-0.189,0.189-0.252,0.189c0,0,0-0.063,0.063-0.063
									c-0.189-0.063-0.504,0.063-0.755,0.189c-0.252,0.126-0.504,0.252-0.629,0.252c-0.126,0.063-0.126,0.189-0.063,0.252
									c-0.692,0.315-1.448,0.567-2.14,0.944c-0.692,0.378-1.385,0.755-2.077,1.196c-0.063,0-0.126-0.063-0.126-0.126
									c-1.007,1.007-2.266,1.511-3.399,2.266c0,0.126,0.189,0,0.126,0.126c0.441-0.126,0.567-0.629,0.944-0.692v0.126
									c0.252-0.126-0.063-0.252,0.252-0.315c0.126,0,0,0.126,0.063,0.063c0.504-0.315,1.07-0.567,1.511-1.07
									c0.189,0.126,0.567-0.315,0.818-0.252c0.126-0.126,0.252-0.189,0.252-0.315c0.944-0.378,1.888-0.944,2.896-1.259
									c0.504-0.189,1.007-0.378,1.448-0.629c0.504-0.126,1.007-0.315,1.511-0.441c0.252-0.189,0.504-0.252,0.755-0.378
									c0.252-0.063,0.504-0.126,0.818-0.126c0.567-0.063,1.07-0.063,1.637-0.252c0,0,0,0,0,0.063
									c0.378-0.126,0.881-0.252,1.322-0.252l0.378-0.189c2.518,0.189,5.099,0.189,7.302,1.007
									c2.518,0.944,4.155,2.392,6.358,3.714c-0.063,0-0.063,0.063-0.126,0.063c0.126,0.126,0.315,0.189,0.378,0.378
									c0.126,0.126,0.189,0.252,0.315,0.441c0.189,0.252,0.378,0.567,0.629,0.755h-0.063c0.378,0.252,0.629,0.629,0.818,0.944
									c0.252,0.378,0.441,0.755,0.692,1.133c0.189,0.378,0.252,0.755,0.252,1.259c0,0.189-0.063,0.441-0.126,0.692
									c-0.063,0.252-0.126,0.441-0.252,0.692c-0.629,1.07-2.014,1.951-3.085,1.7c-0.567-0.063-0.944-0.441-1.259-0.881
									c-0.315-0.441-0.567-0.944-0.881-1.385l0.063-0.063c-1.133-1.259-1.951-2.77-3.525-3.651
									c-0.378-0.252-0.755-0.441-1.196-0.629c-0.441-0.189-0.944-0.252-1.385-0.378c-0.441-0.126-0.944-0.189-1.448-0.252
									c-0.252-0.063-0.504-0.126-0.692-0.126c-0.252-0.063-0.504-0.063-0.692-0.126c-0.252-0.126-0.567-0.189-0.944-0.189
									c-0.315,0-0.755,0.063-1.07,0.126c-0.378,0.063-0.755,0.063-1.07,0.126c-0.315,0.063-0.692,0.063-0.944,0
									c-0.567-0.126-1.196-0.063-1.826,0s-1.259,0.252-1.888,0.441c-0.315,0.126-0.629,0.189-0.944,0.315l-0.881,0.441
									c-0.315,0.126-0.629,0.315-0.881,0.441l-0.881,0.567c-0.252,0.126-0.567,0.189-0.818,0.315
									c-0.252,0.126-0.567,0.315-0.818,0.441c-0.504,0.315-1.07,0.629-1.574,1.007c-0.504,0.378-0.944,0.692-1.511,1.07
									c-0.567,0.378-1.196,0.504-1.763,0.441c-0.567,0.189-1.133-0.063-1.322-0.504c-0.252-0.441-0.315-0.881-0.378-1.385
									l-0.126,0.063c0.126-0.189,0.063-0.378,0-0.567c-0.063-0.189-0.063-0.378,0.189-0.504v0.063
									c0.126-0.063,0.063-0.189,0-0.315c-0.063-0.126-0.126-0.252,0-0.315l-0.063-0.315c0.126-0.252,0.126,0,0.315-0.189
									c0.063-0.063-0.189-0.126,0-0.252c0.189,0.063,0.315-0.063,0.378-0.189c0.063-0.126,0.252-0.252,0.378-0.126
									c-0.126,0.063,0.315,0,0.126,0.252c0.126,0,0.378-0.252,0.252-0.441c-0.063-0.189,0-0.441-0.378-0.378l0.063,0.189
									c-0.189-0.063-0.126,0-0.189-0.063c-0.378,0.252-0.567,0.189-0.881,0.378l0,0c0,0.252-0.252,0.441-0.378,0.629l-0.126,0.063
									c-0.252,0.063,0.126,0.567-0.126,0.315c-0.315,0.818-0.441,1.826-0.063,2.581c0.126,0.063,0.315,0.567,0.441,0.252
									c-0.189,0.378,0.252,0.881,0.567,0.944c0,0-0.063,0.063-0.063,0c0.126,0.252,0.315,0.252,0.504,0.189
									s0.315-0.063,0.504,0.189c0.063-0.189,0.315-0.126,0.567-0.126c0.252-0.063,0.567-0.063,0.692-0.315
									c0.063,0.063,0.126,0.063,0.063,0.126c0.252-0.126,0.504-0.189,0.692-0.315c0.189-0.126,0.441-0.252,0.629-0.378
									c0.315-0.189,0.629-0.378,0.944-0.567c0.189-0.252,0.441-0.441,0.755-0.567s0.567-0.315,0.692-0.567
									c0.378-0.126,0.944-0.315,1.448-0.692l-0.063,0.063c0.567-0.252,1.259-0.629,1.574-1.007
									c0.252,0.252,0.441,0.126,0.755,0.126c0.378-0.315,1.133-0.567,1.7-0.818c0.063,0.126,0.504-0.189,0.504,0
									c1.637-0.881,3.777-1.07,5.288-0.567l0,0c0.252-0.126,0.629-0.441,0.881-0.629c0,0,0,0.063-0.063,0.063
									c0.315,0,0.504,0.252,0.818,0.252c0,0.063,0,0.063-0.063,0.063c0.315-0.063,0.504,0.252,0.881,0.126v0.063l0.252-0.063
									c-0.063,0.063-0.126,0.189-0.189,0.126c0.567,0.189,1.196,0.252,1.826,0.504l0.881,0.252
									c0.315,0.063,0.567,0.252,0.881,0.378c0.252,0.126,0.567,0.252,0.818,0.378l0.755,0.504
									c0.567,0.315,0.944,0.755,1.385,1.196h-0.126l0.441,0.189c-0.063,0-0.063,0.063-0.126,0
									c0.252,0.567,0.818,0.881,1.133,1.385c-0.063,0-0.189,0-0.189,0.126c0.441,0.189,0.063,0.818,0.629,0.692
									c0,0.063-0.126,0.126-0.189,0.126l0.252,0.378l0.315,0.378l0.189,0.189c0.063,0.063,0.126,0.126,0.189,0.189
									c0.063,0.063,0.126,0.126,0.189,0.189l0.252,0.126c0.692,0.315,1.637,0.252,2.455-0.126
									c0.629-0.567,1.196-1.133,1.637-1.763c0.441-0.629,0.692-1.448,0.504-2.014h0.063c-0.126-0.818-0.629-1.322-0.944-2.014
									c-0.189-0.315-0.315-0.692-0.504-1.007c-0.189-0.315-0.441-0.567-0.692-0.881c-0.315-0.504-0.692-0.755-1.133-1.133
									l0.063-0.126c-0.567-0.189-0.818-0.629-1.196-1.07c-0.378-0.378-0.755-0.755-1.385-0.881l0.189-0.063
									c-0.315,0.126-0.504-0.441-0.692-0.063l-0.063-0.189c-0.504,0.063-0.755-0.126-1.007-0.378
									c-0.252-0.252-0.504-0.504-1.07-0.504l0.126-0.063c-0.252,0-0.567-0.063-0.692-0.189c0.063,0,0.063-0.063,0.126-0.063
									c-0.252-0.315-0.629-0.441-1.07-0.504c-0.441-0.063-0.881-0.063-1.322-0.126l0.189-0.126c-0.252,0.063-0.504,0-0.818-0.063
									c-0.315-0.063-0.629-0.126-0.881-0.063l0.063-0.063l-0.315,0.063l0.063-0.189c-0.378-0.063-0.692-0.063-1.07-0.063
									C122.784,58.662,122.406,58.662,122.091,58.662z"/>
								<path fill="#EF782C" d="M114.538,59.984L114.538,59.984L114.538,59.984z"/>
								<path fill="#EF782C" d="M102.703,65.587c0.063-0.063,0.063-0.063,0.126-0.063C102.829,65.461,102.766,65.524,102.703,65.587
									z"/>
							</g>
						</g>
					</g>
				</g>
			</g>
			<g>
				<path fill="#EF782C" d="M143.998,61.936c-7.239-14.164-26.816-14.793-43.246-2.518c-1.322,0.944-1.888,2.581-1.259,3.651
					c0.629,1.07,2.203,1.196,3.462,0.189c13.723-10.198,30.09-9.505,36.133,2.392c0.315,0.567,0.818,0.881,1.448,0.944
					c0.629,0.063,1.322-0.189,2.014-0.692C143.935,64.894,144.564,63.069,143.998,61.936z"/>
				<g>
					<g>
						<g>
							<g>
								<polygon fill="#EF782C" points="143.179,62.502 143.117,62.565 143.305,62.565 								"/>
								<path fill="#EF782C" d="M143.62,62.943l0.063-0.063c0,0-0.126-0.063-0.189-0.126c-0.126-0.063-0.252-0.063-0.252-0.063
									C143.054,62.943,143.746,62.754,143.62,62.943z"/>
								<path fill="#EF782C" d="M143.557,63.069c-0.126,0.189,0.063,0.189,0.126,0.252
									C143.557,63.258,143.809,62.943,143.557,63.069z"/>
								<path fill="#EF782C" d="M133.674,58.537L133.674,58.537L133.674,58.537z"/>
								<path fill="#EF782C" d="M129.519,57.34l-0.126,0.126c0.441,0,0.818,0.126,1.196,0.315c0.378,0.189,0.692,0.441,1.07,0.567
									h-0.063c0.441,0.252,0.881,0.441,1.322,0.692c0.378,0.252,0.818,0.504,1.259,0.755c0.189,0.126,0.441,0.252,0.629,0.378
									l0.567,0.441c0.378,0.315,0.755,0.629,1.133,0.944c-0.063,0-0.063,0-0.126,0c0.126,0,0.252,0,0.315,0.126
									c0,0.063-0.063,0-0.126,0c0.063,0.504,0.881,0.818,0.881,1.196c0.126,0.063,0.189,0.063,0.252-0.063
									c0.126,0.126,0.252,0.315,0.378,0.441c0.126,0.126,0.252,0.315,0.315,0.504c0.252,0.315,0.441,0.692,0.692,1.007
									l0.315,0.504c0.126,0.189,0.189,0.252,0.315,0.378c0.252,0.189,0.567,0.315,0.944,0.315c0.063,0.063,0.063,0.126,0,0.189
									c0.692-0.189,1.322-0.504,1.826-1.007c0.504-0.504,0.944-1.133,1.07-1.826c-0.126,0-0.126,0.126-0.252,0.063
									c-0.126,0.189-0.063,0.378-0.063,0.567c0,0.189-0.063,0.378-0.252,0.504l-0.063-0.063c-0.189,0.189,0.189,0.126-0.126,0.315
									c-0.126,0.063-0.063-0.063-0.126-0.063c-0.378,0.504-0.881,0.755-1.322,1.133c-0.126-0.189-0.567,0.126-0.692-0.189
									c-0.126,0.063-0.252,0-0.378,0.126c-0.189-0.063-0.315-0.252-0.441-0.378c-0.063-0.063-0.126-0.189-0.189-0.252
									l-0.189-0.378c-0.315-0.504-0.567-1.007-0.881-1.448c-0.315-0.504-0.692-0.881-1.07-1.322
									c-0.378-0.441-0.692-0.881-1.133-1.259c-0.567-0.189-0.944-0.629-1.385-1.07c-0.441-0.378-0.881-0.818-1.448-1.133
									c0,0,0-0.063,0.063-0.063c-0.378-0.189-1.007-0.378-1.385-0.629h-0.504c-2.455-1.637-5.854-2.077-9.254-2.203
									c-1.951-0.063-3.84,0.126-5.728,0.504c-0.504,0.063-0.944,0.189-1.448,0.378c-0.504,0.126-0.944,0.315-1.448,0.441
									c-0.504,0.126-0.944,0.378-1.448,0.629c-0.504,0.252-0.944,0.441-1.448,0.692c0-0.063-0.063-0.063,0.063-0.126
									c-0.567,0.252-1.07,0.504-1.574,0.755c-0.504,0.252-1.07,0.441-1.511,0.755v-0.063c-1.196,0.881-2.518,1.511-3.714,2.392
									l-0.944,0.629c-0.315,0.189-0.629,0.441-0.881,0.567c-0.504,0.315-1.133,0.504-1.7,0.504
									c-0.629-0.126-1.133-0.567-1.322-1.196s0-1.385,0.378-2.077l0.189-0.252l0.189-0.252c0.126-0.189,0.315-0.315,0.441-0.441
									c0.315-0.252,0.755-0.504,1.07-0.755c0.755-0.504,1.448-1.07,2.203-1.574v0.063c0.567-0.378,1.196-0.755,1.826-1.07
									s1.196-0.692,1.826-0.944c1.259-0.504,2.455-1.133,3.777-1.637c0.692-0.189,1.322-0.504,2.014-0.755
									c0.692-0.252,1.322-0.504,2.014-0.755l1.007-0.378c0.315-0.126,0.692-0.189,1.007-0.252
									c0.692-0.189,1.385-0.315,2.014-0.378c0.818,0.063,1.763-0.126,2.707-0.378c0.252-0.063,0.504-0.126,0.692-0.126
									c0.252,0,0.441-0.063,0.692-0.063c0.441,0,0.881,0,1.196,0.126c0.378,0.063,0.755,0.126,1.07,0.189
									c0.378,0.063,0.692,0.126,1.07,0.189c0.378,0.063,0.692,0.126,1.07,0.126l0.567,0.063l0.504,0.063
									c0.692,0.126,1.448,0.189,2.203,0.252c0.692,0.126,1.448,0.252,2.14,0.378c0.315,0.126,0.629,0.252,0.881,0.378
									c0.252,0.126,0.567,0.315,0.881,0.441c0.567,0.315,1.196,0.504,1.763,0.818c1.07,0.692,2.14,1.259,2.77,2.392
									c0.504,0.252,0.944,0.755,1.196,1.322c0.252,0.567,0.567,1.196,0.944,1.637l0.063-0.126c0,0.315,0.252,0.441,0.504,0.504
									c0.189,0.126,0.378,0.252,0.252,0.567h-0.063c-0.126,0.378,0.818,0.063,0.629,0.441l0.126-0.063
									c0.189,0.252-0.126,0.126-0.063,0.378c0.063,0.063,0.189-0.126,0.252,0.063c-0.441,0.378,0.441,0.567-0.063,0.944
									c-0.063-0.126-0.063,0.378-0.378,0.126c0,0.126,0.252,0.504,0.441,0.315c0.252-0.126,0.567-0.063,0.567-0.504l-0.189,0.063
									c0.126-0.189,0.063-0.126,0.126-0.252c-0.189-0.378,0.063-0.567,0-0.881l0,0c-0.315,0-0.315-0.378-0.378-0.504l0.063-0.126
									c0.126-0.252-0.63-0.126-0.189-0.252c-0.252-0.315-0.441-0.692-0.755-1.07c-0.252-0.378-0.567-0.692-0.818-1.07
									c-0.189,0-0.441-0.567-0.504-0.189c0.126-0.441-0.252-1.007-0.441-1.133c0,0,0.063-0.063,0.063,0
									c0-0.629-0.692-0.126-0.629-0.818c-0.315,0.252-0.504-0.629-1.007-0.504c0-0.126,0.063-0.189,0.126-0.189
									c-0.629-0.567-1.322-1.133-1.826-1.574c-0.692-0.126-1.196-0.881-1.888-0.692c-0.315-0.252-0.818-0.755-1.511-0.818h0.063
									c-0.692-0.189-1.511-0.441-2.077-0.378c0-0.441-0.315-0.504-0.567-0.629c-0.567,0.063-1.511-0.189-2.266-0.189
									c0-0.189-0.63-0.063-0.567-0.315c-0.567,0.063-1.196,0.126-1.763,0.126c-0.567,0-1.196-0.063-1.763-0.063
									c-1.196,0-2.392-0.189-3.588-0.189h0.063c-0.315,0.189-0.755,0.504-1.07,0.755c0,0,0-0.063,0.063-0.063
									c-0.441,0.126-0.818-0.126-1.259,0c0-0.063,0-0.063,0.063-0.126c-0.441,0.189-0.818,0-1.322,0.252v-0.063l-0.315,0.126
									c0-0.063,0.063-0.189,0.189-0.189c-3.777,0.692-7.68,2.518-11.394,4.406l0.126-0.126l-0.629,0.504
									c0-0.063,0-0.063,0.063-0.126c-0.944,0.378-1.763,1.133-2.644,1.574c0-0.063,0.063-0.189-0.063-0.126
									c-0.504,0.567-1.133,0.441-1.196,1.007c-0.063,0-0.126-0.063-0.063-0.126c-0.441,0.315-0.818,0.629-1.259,0.944
									c-0.189,0.189-0.441,0.315-0.629,0.441c-0.189,0.189-0.441,0.378-0.629,0.629c-0.441,0.441-0.692,0.944-0.881,1.448
									c-0.126,0.504-0.252,1.007-0.189,1.511c0.378,0.692,0.881,1.259,1.7,1.448s1.888-0.126,2.581-0.818l0.063,0.063
									c0.881-0.755,1.826-1.448,2.833-2.014c0.504-0.252,1.07-0.567,1.574-0.818l0.755-0.441c0.252-0.126,0.504-0.252,0.818-0.378
									c0.441-0.189,0.818-0.378,1.196-0.567c0.378-0.189,0.755-0.378,1.196-0.567l0.063,0.063
									c0.755-0.441,1.574-0.692,2.329-0.881c0.818-0.126,1.637-0.315,2.455-0.755l-0.126,0.189
									c0.252-0.252,0.944-0.126,0.881-0.441l0.252,0.063c0.567-0.378,1.07-0.378,1.574-0.441c0.504,0,1.007,0.063,1.7-0.189
									l-0.126,0.126c0.378-0.126,0.818-0.189,1.007-0.126c-0.063,0,0,0.063-0.126,0.063c0.504,0.189,1.07,0.189,1.637,0.126
									l0.881-0.063c0.315,0,0.567,0,0.818,0.063l-0.189,0.189c0.315-0.063,0.692-0.063,1.07,0c0.189,0,0.378,0.063,0.567,0.063
									c0.189,0,0.378,0.063,0.567,0.063l-0.063,0.063l0.378-0.063l-0.063,0.189c0.441,0.126,0.818,0.189,1.259,0.189
									C128.764,57.089,129.142,57.215,129.519,57.34z"/>
								<path fill="#EF782C" d="M136.57,61.684L136.57,61.684L136.57,61.684z"/>
								<path fill="#EF782C" d="M144.187,60.488c0,0.063,0,0.063,0,0.126C144.25,60.551,144.187,60.488,144.187,60.488z"/>
							</g>
						</g>
					</g>
				</g>
			</g>
		</g>
	</g>
</g>
</svg>
